M48
;GenerationSoftware,Autodesk,EAGLE,9.6.2*%
;CreationDate,2021-06-10T14:39:20Z*%
FMAT,2
ICI,OFF
METRIC,TZ,000.000
T6C0.200
T5C0.254
T4C0.305
T3C0.381
T2C0.400
T1C0.650
%
G90
M71
T1
X62405Y3714
X62405Y9494
T2
X66055Y10922
X66055Y2286
X61875Y2286
X61875Y10922
T3
X3835Y21565
X44145Y18923
X14224Y9144
T4
X51562Y4826
X41148Y13183
X40742Y19380
X40640Y12700
X40640Y14478
X20422Y4191
X41761Y5947
X51740Y8001
X58852Y7899
X52095Y1041
X8890Y20066
X19812Y19558
X28816Y12494
X34290Y15748
X66548Y13462
X64618Y13437
X62738Y13462
X59436Y17780
X58166Y17780
X56896Y17780
X56896Y20320
X58166Y20320
X59182Y20320
X64872Y24663
X66548Y24638
X59182Y24638
X63094Y24663
X61062Y24663
X60960Y13462
X59436Y13462
X59436Y15494
X59182Y22606
X53086Y16510
X54610Y16510
X56388Y16510
X56388Y21590
X54356Y21819
X52578Y21590
X51562Y17526
X15138Y18618
X37782Y5382
X30619Y12519
X30569Y14348
X32397Y14348
X28664Y14374
X38062Y19276
X19748Y4569
X3111Y12189
X4305Y7897
X55651Y7137
X60186Y10667
X3543Y5712
X12357Y13510
X39967Y14297
X39890Y12011
X51041Y5585
X50762Y2512
X55257Y10716
X58916Y11505
X32397Y12570
X58814Y5053
X60059Y989
X51562Y18796
X11608Y13716
X11620Y20638
X3324Y6626
X3444Y7942
X59436Y7429
X59256Y6229
X55861Y10109
X58928Y10414
X58674Y1016
X51562Y20320
X51562Y3048
X42456Y6500
T5
X31478Y13450
X31530Y11716
X29636Y11574
X29636Y15284
X31478Y15280
X29680Y13500
T6
X47938Y1005
X43738Y1005
X45838Y2305
X43732Y24395
X47932Y24395
X45832Y23095
M30