G04 EAGLE Gerber RS-274X export*
G75*
%MOMM*%
%FSLAX34Y34*%
%LPD*%
%INSolderpaste Top*%
%IPPOS*%
%AMOC8*
5,1,8,0,0,1.08239X$1,22.5*%
G01*
%ADD10C,0.102000*%
%ADD11C,0.099000*%
%ADD12C,0.106400*%
%ADD13C,0.099059*%
%ADD14C,0.100000*%
%ADD15R,2.400000X1.100000*%
%ADD16R,7.000000X1.250000*%
%ADD17C,0.300000*%

G36*
X625307Y104196D02*
X625307Y104196D01*
X625311Y104192D01*
X626255Y104411D01*
X626261Y104417D01*
X626266Y104415D01*
X627138Y104839D01*
X627141Y104846D01*
X627147Y104844D01*
X627903Y105451D01*
X627905Y105459D01*
X627911Y105459D01*
X628512Y106219D01*
X628512Y106228D01*
X628518Y106229D01*
X628936Y107104D01*
X628934Y107112D01*
X628939Y107114D01*
X629152Y108060D01*
X629149Y108066D01*
X629151Y108068D01*
X629150Y108069D01*
X629153Y108071D01*
X629149Y109040D01*
X629149Y109041D01*
X629130Y110109D01*
X629125Y110116D01*
X629129Y110120D01*
X628873Y111157D01*
X628866Y111162D01*
X628869Y111168D01*
X628388Y112122D01*
X628381Y112126D01*
X628382Y112131D01*
X627701Y112955D01*
X627693Y112956D01*
X627693Y112962D01*
X626846Y113613D01*
X626838Y113613D01*
X626837Y113619D01*
X625866Y114066D01*
X625858Y114064D01*
X625856Y114069D01*
X624810Y114288D01*
X624808Y114287D01*
X624802Y114287D01*
X624800Y114289D01*
X612800Y114289D01*
X612797Y114287D01*
X612794Y114287D01*
X612792Y114289D01*
X611697Y114109D01*
X611691Y114103D01*
X611686Y114106D01*
X610658Y113687D01*
X610654Y113680D01*
X610649Y113682D01*
X609740Y113045D01*
X609738Y113037D01*
X609732Y113037D01*
X608988Y112214D01*
X608987Y112206D01*
X608981Y112205D01*
X608439Y111237D01*
X608440Y111228D01*
X608434Y111226D01*
X608121Y110162D01*
X608124Y110154D01*
X608119Y110151D01*
X608051Y109043D01*
X608055Y109037D01*
X608051Y109033D01*
X608221Y107925D01*
X608227Y107919D01*
X608224Y107914D01*
X608636Y106872D01*
X608643Y106868D01*
X608641Y106863D01*
X609275Y105938D01*
X609283Y105936D01*
X609282Y105930D01*
X610106Y105170D01*
X610114Y105169D01*
X610114Y105163D01*
X611086Y104606D01*
X611094Y104607D01*
X611096Y104601D01*
X612168Y104274D01*
X612176Y104277D01*
X612179Y104272D01*
X613296Y104191D01*
X613299Y104192D01*
X613300Y104191D01*
X625300Y104191D01*
X625307Y104196D01*
G37*
G36*
X624805Y17794D02*
X624805Y17794D01*
X624808Y17791D01*
X625804Y17949D01*
X625810Y17955D01*
X625815Y17952D01*
X626751Y18327D01*
X626755Y18334D01*
X626761Y18332D01*
X627590Y18906D01*
X627593Y18914D01*
X627598Y18913D01*
X628279Y19657D01*
X628280Y19666D01*
X628286Y19666D01*
X628784Y20543D01*
X628783Y20552D01*
X628788Y20554D01*
X628901Y20929D01*
X629079Y21519D01*
X629079Y21520D01*
X629078Y21522D01*
X629076Y21527D01*
X629081Y21530D01*
X629149Y22537D01*
X629148Y22539D01*
X629149Y22540D01*
X629140Y23621D01*
X629135Y23628D01*
X629139Y23632D01*
X628890Y24684D01*
X628883Y24689D01*
X628886Y24694D01*
X628409Y25664D01*
X628401Y25667D01*
X628403Y25673D01*
X627722Y26512D01*
X627714Y26514D01*
X627714Y26520D01*
X626864Y27186D01*
X626855Y27187D01*
X626854Y27192D01*
X625877Y27653D01*
X625869Y27651D01*
X625866Y27657D01*
X624811Y27888D01*
X624808Y27887D01*
X624802Y27887D01*
X624800Y27889D01*
X612800Y27889D01*
X612797Y27887D01*
X612793Y27887D01*
X612792Y27889D01*
X611686Y27696D01*
X611681Y27690D01*
X611676Y27693D01*
X610641Y27260D01*
X610637Y27253D01*
X610632Y27255D01*
X609719Y26602D01*
X609717Y26594D01*
X609711Y26595D01*
X608967Y25756D01*
X608966Y25747D01*
X608961Y25747D01*
X608422Y24763D01*
X608423Y24755D01*
X608418Y24753D01*
X608402Y24699D01*
X608221Y24059D01*
X608111Y23674D01*
X608114Y23667D01*
X608111Y23665D01*
X608111Y23664D01*
X608109Y23663D01*
X608051Y22543D01*
X608054Y22538D01*
X608051Y22535D01*
X608169Y21489D01*
X608175Y21483D01*
X608171Y21478D01*
X608519Y20484D01*
X608526Y20480D01*
X608524Y20475D01*
X609084Y19583D01*
X609091Y19581D01*
X609091Y19575D01*
X609835Y18831D01*
X609843Y18829D01*
X609843Y18824D01*
X610735Y18264D01*
X610743Y18264D01*
X610744Y18259D01*
X611738Y17911D01*
X611746Y17914D01*
X611749Y17909D01*
X612795Y17791D01*
X612798Y17793D01*
X612800Y17791D01*
X624800Y17791D01*
X624805Y17794D01*
G37*
G36*
X664106Y104195D02*
X664106Y104195D01*
X664109Y104192D01*
X665190Y104404D01*
X665195Y104410D01*
X665200Y104407D01*
X666206Y104854D01*
X666210Y104861D01*
X666216Y104859D01*
X667097Y105519D01*
X667100Y105527D01*
X667105Y105527D01*
X667818Y106366D01*
X667818Y106374D01*
X667824Y106375D01*
X668332Y107352D01*
X668331Y107360D01*
X668336Y107362D01*
X668614Y108427D01*
X668611Y108435D01*
X668615Y108438D01*
X668649Y109539D01*
X668646Y109544D01*
X668649Y109547D01*
X668494Y110623D01*
X668488Y110628D01*
X668491Y110633D01*
X668101Y111647D01*
X668094Y111651D01*
X668096Y111657D01*
X667489Y112559D01*
X667481Y112561D01*
X667482Y112567D01*
X666690Y113311D01*
X666682Y113312D01*
X666682Y113318D01*
X665744Y113867D01*
X665736Y113866D01*
X665734Y113872D01*
X664698Y114199D01*
X664690Y114196D01*
X664687Y114201D01*
X663604Y114289D01*
X663601Y114287D01*
X663600Y114289D01*
X657600Y114289D01*
X657597Y114287D01*
X657595Y114287D01*
X657594Y114289D01*
X656461Y114139D01*
X656455Y114133D01*
X656450Y114136D01*
X655380Y113738D01*
X655376Y113731D01*
X655370Y113733D01*
X654415Y113106D01*
X654412Y113098D01*
X654407Y113099D01*
X653615Y112276D01*
X653614Y112268D01*
X653608Y112267D01*
X653019Y111288D01*
X653020Y111280D01*
X653015Y111278D01*
X652659Y110193D01*
X652662Y110185D01*
X652657Y110182D01*
X652551Y109045D01*
X652556Y109036D01*
X652552Y109031D01*
X652759Y107894D01*
X652765Y107888D01*
X652762Y107883D01*
X653217Y106821D01*
X653224Y106817D01*
X653222Y106811D01*
X653902Y105876D01*
X653910Y105874D01*
X653909Y105868D01*
X654780Y105108D01*
X654788Y105108D01*
X654789Y105102D01*
X655808Y104555D01*
X655816Y104556D01*
X655818Y104551D01*
X656932Y104244D01*
X656940Y104247D01*
X656943Y104242D01*
X658098Y104191D01*
X658099Y104192D01*
X658100Y104191D01*
X664100Y104191D01*
X664106Y104195D01*
G37*
G36*
X663604Y17794D02*
X663604Y17794D01*
X663606Y17791D01*
X664739Y17941D01*
X664745Y17947D01*
X664750Y17944D01*
X665820Y18342D01*
X665824Y18349D01*
X665830Y18347D01*
X666785Y18974D01*
X666788Y18982D01*
X666793Y18981D01*
X667585Y19804D01*
X667586Y19812D01*
X667592Y19813D01*
X668181Y20792D01*
X668180Y20800D01*
X668185Y20802D01*
X668541Y21887D01*
X668539Y21895D01*
X668543Y21898D01*
X668649Y23035D01*
X668645Y23042D01*
X668649Y23047D01*
X668504Y24134D01*
X668498Y24140D01*
X668501Y24145D01*
X668118Y25173D01*
X668111Y25178D01*
X668113Y25183D01*
X667510Y26100D01*
X667502Y26103D01*
X667503Y26109D01*
X666711Y26869D01*
X666703Y26870D01*
X666702Y26876D01*
X665761Y27440D01*
X665753Y27439D01*
X665751Y27445D01*
X664708Y27786D01*
X664700Y27784D01*
X664697Y27788D01*
X663605Y27889D01*
X663602Y27887D01*
X663600Y27889D01*
X657600Y27889D01*
X657597Y27887D01*
X657596Y27889D01*
X656503Y27788D01*
X656497Y27783D01*
X656492Y27786D01*
X655449Y27445D01*
X655444Y27438D01*
X655439Y27440D01*
X654498Y26876D01*
X654495Y26868D01*
X654489Y26869D01*
X653697Y26109D01*
X653696Y26101D01*
X653690Y26100D01*
X653088Y25183D01*
X653088Y25175D01*
X653083Y25173D01*
X652699Y24145D01*
X652701Y24137D01*
X652696Y24134D01*
X652551Y23047D01*
X652555Y23039D01*
X652551Y23035D01*
X652657Y21898D01*
X652662Y21892D01*
X652659Y21887D01*
X653015Y20802D01*
X653022Y20797D01*
X653019Y20792D01*
X653608Y19813D01*
X653616Y19810D01*
X653615Y19804D01*
X654407Y18981D01*
X654415Y18980D01*
X654415Y18974D01*
X655370Y18347D01*
X655378Y18348D01*
X655380Y18342D01*
X656450Y17944D01*
X656458Y17946D01*
X656461Y17941D01*
X657594Y17791D01*
X657598Y17794D01*
X657600Y17791D01*
X663600Y17791D01*
X663604Y17794D01*
G37*
G36*
X554005Y73177D02*
X554005Y73177D01*
X554071Y73179D01*
X554114Y73197D01*
X554161Y73205D01*
X554218Y73239D01*
X554278Y73264D01*
X554313Y73295D01*
X554354Y73320D01*
X554396Y73371D01*
X554444Y73415D01*
X554466Y73457D01*
X554495Y73494D01*
X554516Y73556D01*
X554547Y73615D01*
X554555Y73669D01*
X554567Y73706D01*
X554566Y73746D01*
X554574Y73800D01*
X554574Y81300D01*
X554563Y81365D01*
X554561Y81431D01*
X554543Y81474D01*
X554535Y81521D01*
X554501Y81578D01*
X554476Y81638D01*
X554445Y81673D01*
X554420Y81714D01*
X554369Y81756D01*
X554325Y81804D01*
X554283Y81826D01*
X554246Y81855D01*
X554184Y81876D01*
X554125Y81907D01*
X554071Y81915D01*
X554034Y81927D01*
X553994Y81926D01*
X553940Y81934D01*
X546440Y81934D01*
X546375Y81923D01*
X546309Y81921D01*
X546266Y81903D01*
X546219Y81895D01*
X546162Y81861D01*
X546102Y81836D01*
X546067Y81805D01*
X546026Y81780D01*
X545985Y81729D01*
X545936Y81685D01*
X545914Y81643D01*
X545885Y81606D01*
X545864Y81544D01*
X545833Y81485D01*
X545825Y81431D01*
X545813Y81394D01*
X545814Y81354D01*
X545806Y81300D01*
X545806Y73800D01*
X545817Y73735D01*
X545819Y73669D01*
X545837Y73626D01*
X545845Y73579D01*
X545879Y73522D01*
X545904Y73462D01*
X545935Y73427D01*
X545960Y73386D01*
X546011Y73345D01*
X546055Y73296D01*
X546097Y73274D01*
X546134Y73245D01*
X546196Y73224D01*
X546255Y73193D01*
X546309Y73185D01*
X546346Y73173D01*
X546386Y73174D01*
X546440Y73166D01*
X553940Y73166D01*
X554005Y73177D01*
G37*
G36*
X566505Y73177D02*
X566505Y73177D01*
X566571Y73179D01*
X566614Y73197D01*
X566661Y73205D01*
X566718Y73239D01*
X566778Y73264D01*
X566813Y73295D01*
X566854Y73320D01*
X566896Y73371D01*
X566944Y73415D01*
X566966Y73457D01*
X566995Y73494D01*
X567016Y73556D01*
X567047Y73615D01*
X567055Y73669D01*
X567067Y73706D01*
X567066Y73746D01*
X567074Y73800D01*
X567074Y81300D01*
X567063Y81365D01*
X567061Y81431D01*
X567043Y81474D01*
X567035Y81521D01*
X567001Y81578D01*
X566976Y81638D01*
X566945Y81673D01*
X566920Y81714D01*
X566869Y81756D01*
X566825Y81804D01*
X566783Y81826D01*
X566746Y81855D01*
X566684Y81876D01*
X566625Y81907D01*
X566571Y81915D01*
X566534Y81927D01*
X566494Y81926D01*
X566440Y81934D01*
X558940Y81934D01*
X558875Y81923D01*
X558809Y81921D01*
X558766Y81903D01*
X558719Y81895D01*
X558662Y81861D01*
X558602Y81836D01*
X558567Y81805D01*
X558526Y81780D01*
X558485Y81729D01*
X558436Y81685D01*
X558414Y81643D01*
X558385Y81606D01*
X558364Y81544D01*
X558333Y81485D01*
X558325Y81431D01*
X558313Y81394D01*
X558314Y81354D01*
X558306Y81300D01*
X558306Y73800D01*
X558317Y73735D01*
X558319Y73669D01*
X558337Y73626D01*
X558345Y73579D01*
X558379Y73522D01*
X558404Y73462D01*
X558435Y73427D01*
X558460Y73386D01*
X558511Y73345D01*
X558555Y73296D01*
X558597Y73274D01*
X558634Y73245D01*
X558696Y73224D01*
X558755Y73193D01*
X558809Y73185D01*
X558846Y73173D01*
X558886Y73174D01*
X558940Y73166D01*
X566440Y73166D01*
X566505Y73177D01*
G37*
G36*
X566505Y60677D02*
X566505Y60677D01*
X566571Y60679D01*
X566614Y60697D01*
X566661Y60705D01*
X566718Y60739D01*
X566778Y60764D01*
X566813Y60795D01*
X566854Y60820D01*
X566896Y60871D01*
X566944Y60915D01*
X566966Y60957D01*
X566995Y60994D01*
X567016Y61056D01*
X567047Y61115D01*
X567055Y61169D01*
X567067Y61206D01*
X567066Y61246D01*
X567074Y61300D01*
X567074Y68800D01*
X567063Y68865D01*
X567061Y68931D01*
X567043Y68974D01*
X567035Y69021D01*
X567001Y69078D01*
X566976Y69138D01*
X566945Y69173D01*
X566920Y69214D01*
X566869Y69256D01*
X566825Y69304D01*
X566783Y69326D01*
X566746Y69355D01*
X566684Y69376D01*
X566625Y69407D01*
X566571Y69415D01*
X566534Y69427D01*
X566494Y69426D01*
X566440Y69434D01*
X558940Y69434D01*
X558875Y69423D01*
X558809Y69421D01*
X558766Y69403D01*
X558719Y69395D01*
X558662Y69361D01*
X558602Y69336D01*
X558567Y69305D01*
X558526Y69280D01*
X558485Y69229D01*
X558436Y69185D01*
X558414Y69143D01*
X558385Y69106D01*
X558364Y69044D01*
X558333Y68985D01*
X558325Y68931D01*
X558313Y68894D01*
X558314Y68854D01*
X558306Y68800D01*
X558306Y61300D01*
X558317Y61235D01*
X558319Y61169D01*
X558337Y61126D01*
X558345Y61079D01*
X558379Y61022D01*
X558404Y60962D01*
X558435Y60927D01*
X558460Y60886D01*
X558511Y60845D01*
X558555Y60796D01*
X558597Y60774D01*
X558634Y60745D01*
X558696Y60724D01*
X558755Y60693D01*
X558809Y60685D01*
X558846Y60673D01*
X558886Y60674D01*
X558940Y60666D01*
X566440Y60666D01*
X566505Y60677D01*
G37*
G36*
X554005Y60677D02*
X554005Y60677D01*
X554071Y60679D01*
X554114Y60697D01*
X554161Y60705D01*
X554218Y60739D01*
X554278Y60764D01*
X554313Y60795D01*
X554354Y60820D01*
X554396Y60871D01*
X554444Y60915D01*
X554466Y60957D01*
X554495Y60994D01*
X554516Y61056D01*
X554547Y61115D01*
X554555Y61169D01*
X554567Y61206D01*
X554566Y61246D01*
X554574Y61300D01*
X554574Y68800D01*
X554563Y68865D01*
X554561Y68931D01*
X554543Y68974D01*
X554535Y69021D01*
X554501Y69078D01*
X554476Y69138D01*
X554445Y69173D01*
X554420Y69214D01*
X554369Y69256D01*
X554325Y69304D01*
X554283Y69326D01*
X554246Y69355D01*
X554184Y69376D01*
X554125Y69407D01*
X554071Y69415D01*
X554034Y69427D01*
X553994Y69426D01*
X553940Y69434D01*
X546440Y69434D01*
X546375Y69423D01*
X546309Y69421D01*
X546266Y69403D01*
X546219Y69395D01*
X546162Y69361D01*
X546102Y69336D01*
X546067Y69305D01*
X546026Y69280D01*
X545985Y69229D01*
X545936Y69185D01*
X545914Y69143D01*
X545885Y69106D01*
X545864Y69044D01*
X545833Y68985D01*
X545825Y68931D01*
X545813Y68894D01*
X545814Y68854D01*
X545806Y68800D01*
X545806Y61300D01*
X545817Y61235D01*
X545819Y61169D01*
X545837Y61126D01*
X545845Y61079D01*
X545879Y61022D01*
X545904Y60962D01*
X545935Y60927D01*
X545960Y60886D01*
X546011Y60845D01*
X546055Y60796D01*
X546097Y60774D01*
X546134Y60745D01*
X546196Y60724D01*
X546255Y60693D01*
X546309Y60685D01*
X546346Y60673D01*
X546386Y60674D01*
X546440Y60666D01*
X553940Y60666D01*
X554005Y60677D01*
G37*
G36*
X565187Y87887D02*
X565187Y87887D01*
X565182Y87894D01*
X565189Y87900D01*
X565189Y95700D01*
X565153Y95747D01*
X565146Y95742D01*
X565140Y95749D01*
X562740Y95749D01*
X562693Y95713D01*
X562698Y95706D01*
X562691Y95700D01*
X562691Y87900D01*
X562727Y87853D01*
X562734Y87858D01*
X562740Y87851D01*
X565140Y87851D01*
X565187Y87887D01*
G37*
G36*
X555187Y87887D02*
X555187Y87887D01*
X555182Y87894D01*
X555189Y87900D01*
X555189Y95700D01*
X555153Y95747D01*
X555146Y95742D01*
X555140Y95749D01*
X552740Y95749D01*
X552693Y95713D01*
X552698Y95706D01*
X552691Y95700D01*
X552691Y87900D01*
X552727Y87853D01*
X552734Y87858D01*
X552740Y87851D01*
X555140Y87851D01*
X555187Y87887D01*
G37*
G36*
X560187Y87887D02*
X560187Y87887D01*
X560182Y87894D01*
X560189Y87900D01*
X560189Y95700D01*
X560153Y95747D01*
X560146Y95742D01*
X560140Y95749D01*
X557740Y95749D01*
X557693Y95713D01*
X557698Y95706D01*
X557691Y95700D01*
X557691Y87900D01*
X557727Y87853D01*
X557734Y87858D01*
X557740Y87851D01*
X560140Y87851D01*
X560187Y87887D01*
G37*
G36*
X545187Y87887D02*
X545187Y87887D01*
X545182Y87894D01*
X545189Y87900D01*
X545189Y95700D01*
X545153Y95747D01*
X545146Y95742D01*
X545140Y95749D01*
X542740Y95749D01*
X542693Y95713D01*
X542698Y95706D01*
X542691Y95700D01*
X542691Y87900D01*
X542727Y87853D01*
X542734Y87858D01*
X542740Y87851D01*
X545140Y87851D01*
X545187Y87887D01*
G37*
G36*
X550187Y87887D02*
X550187Y87887D01*
X550182Y87894D01*
X550189Y87900D01*
X550189Y95700D01*
X550153Y95747D01*
X550146Y95742D01*
X550140Y95749D01*
X547740Y95749D01*
X547693Y95713D01*
X547698Y95706D01*
X547691Y95700D01*
X547691Y87900D01*
X547727Y87853D01*
X547734Y87858D01*
X547740Y87851D01*
X550140Y87851D01*
X550187Y87887D01*
G37*
G36*
X570187Y87887D02*
X570187Y87887D01*
X570182Y87894D01*
X570189Y87900D01*
X570189Y95700D01*
X570153Y95747D01*
X570146Y95742D01*
X570140Y95749D01*
X567740Y95749D01*
X567693Y95713D01*
X567698Y95706D01*
X567691Y95700D01*
X567691Y87900D01*
X567727Y87853D01*
X567734Y87858D01*
X567740Y87851D01*
X570140Y87851D01*
X570187Y87887D01*
G37*
G36*
X539887Y82587D02*
X539887Y82587D01*
X539882Y82594D01*
X539889Y82600D01*
X539889Y85000D01*
X539853Y85047D01*
X539846Y85042D01*
X539840Y85049D01*
X532040Y85049D01*
X531993Y85013D01*
X531998Y85006D01*
X531991Y85000D01*
X531991Y82600D01*
X532027Y82553D01*
X532034Y82558D01*
X532040Y82551D01*
X539840Y82551D01*
X539887Y82587D01*
G37*
G36*
X580887Y82587D02*
X580887Y82587D01*
X580882Y82594D01*
X580889Y82600D01*
X580889Y85000D01*
X580853Y85047D01*
X580846Y85042D01*
X580840Y85049D01*
X573040Y85049D01*
X572993Y85013D01*
X572998Y85006D01*
X572991Y85000D01*
X572991Y82600D01*
X573027Y82553D01*
X573034Y82558D01*
X573040Y82551D01*
X580840Y82551D01*
X580887Y82587D01*
G37*
G36*
X580887Y77587D02*
X580887Y77587D01*
X580882Y77594D01*
X580889Y77600D01*
X580889Y80000D01*
X580853Y80047D01*
X580846Y80042D01*
X580840Y80049D01*
X573040Y80049D01*
X572993Y80013D01*
X572998Y80006D01*
X572991Y80000D01*
X572991Y77600D01*
X573027Y77553D01*
X573034Y77558D01*
X573040Y77551D01*
X580840Y77551D01*
X580887Y77587D01*
G37*
G36*
X539887Y77587D02*
X539887Y77587D01*
X539882Y77594D01*
X539889Y77600D01*
X539889Y80000D01*
X539853Y80047D01*
X539846Y80042D01*
X539840Y80049D01*
X532040Y80049D01*
X531993Y80013D01*
X531998Y80006D01*
X531991Y80000D01*
X531991Y77600D01*
X532027Y77553D01*
X532034Y77558D01*
X532040Y77551D01*
X539840Y77551D01*
X539887Y77587D01*
G37*
G36*
X539887Y72587D02*
X539887Y72587D01*
X539882Y72594D01*
X539889Y72600D01*
X539889Y75000D01*
X539853Y75047D01*
X539846Y75042D01*
X539840Y75049D01*
X532040Y75049D01*
X531993Y75013D01*
X531998Y75006D01*
X531991Y75000D01*
X531991Y72600D01*
X532027Y72553D01*
X532034Y72558D01*
X532040Y72551D01*
X539840Y72551D01*
X539887Y72587D01*
G37*
G36*
X580887Y72587D02*
X580887Y72587D01*
X580882Y72594D01*
X580889Y72600D01*
X580889Y75000D01*
X580853Y75047D01*
X580846Y75042D01*
X580840Y75049D01*
X573040Y75049D01*
X572993Y75013D01*
X572998Y75006D01*
X572991Y75000D01*
X572991Y72600D01*
X573027Y72553D01*
X573034Y72558D01*
X573040Y72551D01*
X580840Y72551D01*
X580887Y72587D01*
G37*
G36*
X539887Y67587D02*
X539887Y67587D01*
X539882Y67594D01*
X539889Y67600D01*
X539889Y70000D01*
X539853Y70047D01*
X539846Y70042D01*
X539840Y70049D01*
X532040Y70049D01*
X531993Y70013D01*
X531998Y70006D01*
X531991Y70000D01*
X531991Y67600D01*
X532027Y67553D01*
X532034Y67558D01*
X532040Y67551D01*
X539840Y67551D01*
X539887Y67587D01*
G37*
G36*
X580887Y67587D02*
X580887Y67587D01*
X580882Y67594D01*
X580889Y67600D01*
X580889Y70000D01*
X580853Y70047D01*
X580846Y70042D01*
X580840Y70049D01*
X573040Y70049D01*
X572993Y70013D01*
X572998Y70006D01*
X572991Y70000D01*
X572991Y67600D01*
X573027Y67553D01*
X573034Y67558D01*
X573040Y67551D01*
X580840Y67551D01*
X580887Y67587D01*
G37*
G36*
X580887Y62587D02*
X580887Y62587D01*
X580882Y62594D01*
X580889Y62600D01*
X580889Y65000D01*
X580853Y65047D01*
X580846Y65042D01*
X580840Y65049D01*
X573040Y65049D01*
X572993Y65013D01*
X572998Y65006D01*
X572991Y65000D01*
X572991Y62600D01*
X573027Y62553D01*
X573034Y62558D01*
X573040Y62551D01*
X580840Y62551D01*
X580887Y62587D01*
G37*
G36*
X539887Y62587D02*
X539887Y62587D01*
X539882Y62594D01*
X539889Y62600D01*
X539889Y65000D01*
X539853Y65047D01*
X539846Y65042D01*
X539840Y65049D01*
X532040Y65049D01*
X531993Y65013D01*
X531998Y65006D01*
X531991Y65000D01*
X531991Y62600D01*
X532027Y62553D01*
X532034Y62558D01*
X532040Y62551D01*
X539840Y62551D01*
X539887Y62587D01*
G37*
G36*
X580887Y57587D02*
X580887Y57587D01*
X580882Y57594D01*
X580889Y57600D01*
X580889Y60000D01*
X580853Y60047D01*
X580846Y60042D01*
X580840Y60049D01*
X573040Y60049D01*
X572993Y60013D01*
X572998Y60006D01*
X572991Y60000D01*
X572991Y57600D01*
X573027Y57553D01*
X573034Y57558D01*
X573040Y57551D01*
X580840Y57551D01*
X580887Y57587D01*
G37*
G36*
X539887Y57587D02*
X539887Y57587D01*
X539882Y57594D01*
X539889Y57600D01*
X539889Y60000D01*
X539853Y60047D01*
X539846Y60042D01*
X539840Y60049D01*
X532040Y60049D01*
X531993Y60013D01*
X531998Y60006D01*
X531991Y60000D01*
X531991Y57600D01*
X532027Y57553D01*
X532034Y57558D01*
X532040Y57551D01*
X539840Y57551D01*
X539887Y57587D01*
G37*
G36*
X565187Y46887D02*
X565187Y46887D01*
X565182Y46894D01*
X565189Y46900D01*
X565189Y54700D01*
X565153Y54747D01*
X565146Y54742D01*
X565140Y54749D01*
X562740Y54749D01*
X562693Y54713D01*
X562698Y54706D01*
X562691Y54700D01*
X562691Y46900D01*
X562727Y46853D01*
X562734Y46858D01*
X562740Y46851D01*
X565140Y46851D01*
X565187Y46887D01*
G37*
G36*
X555187Y46887D02*
X555187Y46887D01*
X555182Y46894D01*
X555189Y46900D01*
X555189Y54700D01*
X555153Y54747D01*
X555146Y54742D01*
X555140Y54749D01*
X552740Y54749D01*
X552693Y54713D01*
X552698Y54706D01*
X552691Y54700D01*
X552691Y46900D01*
X552727Y46853D01*
X552734Y46858D01*
X552740Y46851D01*
X555140Y46851D01*
X555187Y46887D01*
G37*
G36*
X545187Y46887D02*
X545187Y46887D01*
X545182Y46894D01*
X545189Y46900D01*
X545189Y54700D01*
X545153Y54747D01*
X545146Y54742D01*
X545140Y54749D01*
X542740Y54749D01*
X542693Y54713D01*
X542698Y54706D01*
X542691Y54700D01*
X542691Y46900D01*
X542727Y46853D01*
X542734Y46858D01*
X542740Y46851D01*
X545140Y46851D01*
X545187Y46887D01*
G37*
G36*
X550187Y46887D02*
X550187Y46887D01*
X550182Y46894D01*
X550189Y46900D01*
X550189Y54700D01*
X550153Y54747D01*
X550146Y54742D01*
X550140Y54749D01*
X547740Y54749D01*
X547693Y54713D01*
X547698Y54706D01*
X547691Y54700D01*
X547691Y46900D01*
X547727Y46853D01*
X547734Y46858D01*
X547740Y46851D01*
X550140Y46851D01*
X550187Y46887D01*
G37*
G36*
X570187Y46887D02*
X570187Y46887D01*
X570182Y46894D01*
X570189Y46900D01*
X570189Y54700D01*
X570153Y54747D01*
X570146Y54742D01*
X570140Y54749D01*
X567740Y54749D01*
X567693Y54713D01*
X567698Y54706D01*
X567691Y54700D01*
X567691Y46900D01*
X567727Y46853D01*
X567734Y46858D01*
X567740Y46851D01*
X570140Y46851D01*
X570187Y46887D01*
G37*
G36*
X560187Y46887D02*
X560187Y46887D01*
X560182Y46894D01*
X560189Y46900D01*
X560189Y54700D01*
X560153Y54747D01*
X560146Y54742D01*
X560140Y54749D01*
X557740Y54749D01*
X557693Y54713D01*
X557698Y54706D01*
X557691Y54700D01*
X557691Y46900D01*
X557727Y46853D01*
X557734Y46858D01*
X557740Y46851D01*
X560140Y46851D01*
X560187Y46887D01*
G37*
D10*
X421259Y198170D02*
X416279Y198170D01*
X416279Y203150D01*
X421259Y203150D01*
X421259Y198170D01*
X421259Y199139D02*
X416279Y199139D01*
X416279Y200108D02*
X421259Y200108D01*
X421259Y201077D02*
X416279Y201077D01*
X416279Y202046D02*
X421259Y202046D01*
X421259Y203015D02*
X416279Y203015D01*
X426279Y198170D02*
X431259Y198170D01*
X426279Y198170D02*
X426279Y203150D01*
X431259Y203150D01*
X431259Y198170D01*
X431259Y199139D02*
X426279Y199139D01*
X426279Y200108D02*
X431259Y200108D01*
X431259Y201077D02*
X426279Y201077D01*
X426279Y202046D02*
X431259Y202046D01*
X431259Y203015D02*
X426279Y203015D01*
X426279Y166320D02*
X431259Y166320D01*
X431259Y161340D01*
X426279Y161340D01*
X426279Y166320D01*
X426279Y162309D02*
X431259Y162309D01*
X431259Y163278D02*
X426279Y163278D01*
X426279Y164247D02*
X431259Y164247D01*
X431259Y165216D02*
X426279Y165216D01*
X426279Y166185D02*
X431259Y166185D01*
X421259Y166320D02*
X416279Y166320D01*
X421259Y166320D02*
X421259Y161340D01*
X416279Y161340D01*
X416279Y166320D01*
X416279Y162309D02*
X421259Y162309D01*
X421259Y163278D02*
X416279Y163278D01*
X416279Y164247D02*
X421259Y164247D01*
X421259Y165216D02*
X416279Y165216D01*
X416279Y166185D02*
X421259Y166185D01*
X430279Y175390D02*
X430279Y177370D01*
X435859Y177370D01*
X435859Y175390D01*
X430279Y175390D01*
X430279Y176359D02*
X435859Y176359D01*
X435859Y177328D02*
X430279Y177328D01*
X417459Y181890D02*
X417459Y183870D01*
X417459Y181890D02*
X411879Y181890D01*
X411879Y183870D01*
X417459Y183870D01*
X417459Y182859D02*
X411879Y182859D01*
X411879Y183828D02*
X417459Y183828D01*
X417459Y188390D02*
X417459Y190370D01*
X417459Y188390D02*
X411879Y188390D01*
X411879Y190370D01*
X417459Y190370D01*
X417459Y189359D02*
X411879Y189359D01*
X411879Y190328D02*
X417459Y190328D01*
X417459Y177370D02*
X417459Y175390D01*
X411879Y175390D01*
X411879Y177370D01*
X417459Y177370D01*
X417459Y176359D02*
X411879Y176359D01*
X411879Y177328D02*
X417459Y177328D01*
X430279Y181890D02*
X430279Y183870D01*
X435859Y183870D01*
X435859Y181890D01*
X430279Y181890D01*
X430279Y182859D02*
X435859Y182859D01*
X435859Y183828D02*
X430279Y183828D01*
X430279Y188390D02*
X430279Y190370D01*
X435859Y190370D01*
X435859Y188390D01*
X430279Y188390D01*
X430279Y189359D02*
X435859Y189359D01*
X435859Y190328D02*
X430279Y190328D01*
X153720Y220950D02*
X153720Y225930D01*
X158700Y225930D01*
X158700Y220950D01*
X153720Y220950D01*
X153720Y221919D02*
X158700Y221919D01*
X158700Y222888D02*
X153720Y222888D01*
X153720Y223857D02*
X158700Y223857D01*
X158700Y224826D02*
X153720Y224826D01*
X153720Y225795D02*
X158700Y225795D01*
X153720Y215930D02*
X153720Y210950D01*
X153720Y215930D02*
X158700Y215930D01*
X158700Y210950D01*
X153720Y210950D01*
X153720Y211919D02*
X158700Y211919D01*
X158700Y212888D02*
X153720Y212888D01*
X153720Y213857D02*
X158700Y213857D01*
X158700Y214826D02*
X153720Y214826D01*
X153720Y215795D02*
X158700Y215795D01*
X148540Y215930D02*
X148540Y210950D01*
X143560Y210950D01*
X143560Y215930D01*
X148540Y215930D01*
X148540Y211919D02*
X143560Y211919D01*
X143560Y212888D02*
X148540Y212888D01*
X148540Y213857D02*
X143560Y213857D01*
X143560Y214826D02*
X148540Y214826D01*
X148540Y215795D02*
X143560Y215795D01*
X148540Y220950D02*
X148540Y225930D01*
X148540Y220950D02*
X143560Y220950D01*
X143560Y225930D01*
X148540Y225930D01*
X148540Y221919D02*
X143560Y221919D01*
X143560Y222888D02*
X148540Y222888D01*
X148540Y223857D02*
X143560Y223857D01*
X143560Y224826D02*
X148540Y224826D01*
X148540Y225795D02*
X143560Y225795D01*
D11*
X98334Y225115D02*
X98334Y220605D01*
X98334Y225115D02*
X109344Y225115D01*
X109344Y220605D01*
X98334Y220605D01*
X98334Y221545D02*
X109344Y221545D01*
X109344Y222485D02*
X98334Y222485D01*
X98334Y223425D02*
X109344Y223425D01*
X109344Y224365D02*
X98334Y224365D01*
X98334Y215615D02*
X98334Y211105D01*
X98334Y215615D02*
X109344Y215615D01*
X109344Y211105D01*
X98334Y211105D01*
X98334Y212045D02*
X109344Y212045D01*
X109344Y212985D02*
X98334Y212985D01*
X98334Y213925D02*
X109344Y213925D01*
X109344Y214865D02*
X98334Y214865D01*
X98334Y206115D02*
X98334Y201605D01*
X98334Y206115D02*
X109344Y206115D01*
X109344Y201605D01*
X98334Y201605D01*
X98334Y202545D02*
X109344Y202545D01*
X109344Y203485D02*
X98334Y203485D01*
X98334Y204425D02*
X109344Y204425D01*
X109344Y205365D02*
X98334Y205365D01*
X124336Y206115D02*
X124336Y201605D01*
X124336Y206115D02*
X135346Y206115D01*
X135346Y201605D01*
X124336Y201605D01*
X124336Y202545D02*
X135346Y202545D01*
X135346Y203485D02*
X124336Y203485D01*
X124336Y204425D02*
X135346Y204425D01*
X135346Y205365D02*
X124336Y205365D01*
X124336Y220605D02*
X124336Y225115D01*
X135346Y225115D01*
X135346Y220605D01*
X124336Y220605D01*
X124336Y221545D02*
X135346Y221545D01*
X135346Y222485D02*
X124336Y222485D01*
X124336Y223425D02*
X135346Y223425D01*
X135346Y224365D02*
X124336Y224365D01*
D10*
X86410Y224660D02*
X86410Y219680D01*
X86410Y224660D02*
X91390Y224660D01*
X91390Y219680D01*
X86410Y219680D01*
X86410Y220649D02*
X91390Y220649D01*
X91390Y221618D02*
X86410Y221618D01*
X86410Y222587D02*
X91390Y222587D01*
X91390Y223556D02*
X86410Y223556D01*
X86410Y224525D02*
X91390Y224525D01*
X86410Y214660D02*
X86410Y209680D01*
X86410Y214660D02*
X91390Y214660D01*
X91390Y209680D01*
X86410Y209680D01*
X86410Y210649D02*
X91390Y210649D01*
X91390Y211618D02*
X86410Y211618D01*
X86410Y212587D02*
X91390Y212587D01*
X91390Y213556D02*
X86410Y213556D01*
X86410Y214525D02*
X91390Y214525D01*
X98580Y242750D02*
X106060Y242750D01*
X106060Y234770D01*
X98580Y234770D01*
X98580Y242750D01*
X98580Y235739D02*
X106060Y235739D01*
X106060Y236708D02*
X98580Y236708D01*
X98580Y237677D02*
X106060Y237677D01*
X106060Y238646D02*
X98580Y238646D01*
X98580Y239615D02*
X106060Y239615D01*
X106060Y240584D02*
X98580Y240584D01*
X98580Y241553D02*
X106060Y241553D01*
X106060Y242522D02*
X98580Y242522D01*
X94460Y242750D02*
X86980Y242750D01*
X94460Y242750D02*
X94460Y234770D01*
X86980Y234770D01*
X86980Y242750D01*
X86980Y235739D02*
X94460Y235739D01*
X94460Y236708D02*
X86980Y236708D01*
X86980Y237677D02*
X94460Y237677D01*
X94460Y238646D02*
X86980Y238646D01*
X86980Y239615D02*
X94460Y239615D01*
X94460Y240584D02*
X86980Y240584D01*
X86980Y241553D02*
X94460Y241553D01*
X94460Y242522D02*
X86980Y242522D01*
X355730Y228650D02*
X360710Y228650D01*
X355730Y228650D02*
X355730Y233630D01*
X360710Y233630D01*
X360710Y228650D01*
X360710Y229619D02*
X355730Y229619D01*
X355730Y230588D02*
X360710Y230588D01*
X360710Y231557D02*
X355730Y231557D01*
X355730Y232526D02*
X360710Y232526D01*
X360710Y233495D02*
X355730Y233495D01*
X365730Y228650D02*
X370710Y228650D01*
X365730Y228650D02*
X365730Y233630D01*
X370710Y233630D01*
X370710Y228650D01*
X370710Y229619D02*
X365730Y229619D01*
X365730Y230588D02*
X370710Y230588D01*
X370710Y231557D02*
X365730Y231557D01*
X365730Y232526D02*
X370710Y232526D01*
X370710Y233495D02*
X365730Y233495D01*
D11*
X376525Y199835D02*
X384535Y199835D01*
X376525Y199835D02*
X376525Y213845D01*
X384535Y213845D01*
X384535Y199835D01*
X384535Y200775D02*
X376525Y200775D01*
X376525Y201715D02*
X384535Y201715D01*
X384535Y202655D02*
X376525Y202655D01*
X376525Y203595D02*
X384535Y203595D01*
X384535Y204535D02*
X376525Y204535D01*
X376525Y205475D02*
X384535Y205475D01*
X384535Y206415D02*
X376525Y206415D01*
X376525Y207355D02*
X384535Y207355D01*
X384535Y208295D02*
X376525Y208295D01*
X376525Y209235D02*
X384535Y209235D01*
X384535Y210175D02*
X376525Y210175D01*
X376525Y211115D02*
X384535Y211115D01*
X384535Y212055D02*
X376525Y212055D01*
X376525Y212995D02*
X384535Y212995D01*
X371835Y199835D02*
X363825Y199835D01*
X363825Y213845D01*
X371835Y213845D01*
X371835Y199835D01*
X371835Y200775D02*
X363825Y200775D01*
X363825Y201715D02*
X371835Y201715D01*
X371835Y202655D02*
X363825Y202655D01*
X363825Y203595D02*
X371835Y203595D01*
X371835Y204535D02*
X363825Y204535D01*
X363825Y205475D02*
X371835Y205475D01*
X371835Y206415D02*
X363825Y206415D01*
X363825Y207355D02*
X371835Y207355D01*
X371835Y208295D02*
X363825Y208295D01*
X363825Y209235D02*
X371835Y209235D01*
X371835Y210175D02*
X363825Y210175D01*
X363825Y211115D02*
X371835Y211115D01*
X371835Y212055D02*
X363825Y212055D01*
X363825Y212995D02*
X371835Y212995D01*
X359135Y199835D02*
X351125Y199835D01*
X351125Y213845D01*
X359135Y213845D01*
X359135Y199835D01*
X359135Y200775D02*
X351125Y200775D01*
X351125Y201715D02*
X359135Y201715D01*
X359135Y202655D02*
X351125Y202655D01*
X351125Y203595D02*
X359135Y203595D01*
X359135Y204535D02*
X351125Y204535D01*
X351125Y205475D02*
X359135Y205475D01*
X359135Y206415D02*
X351125Y206415D01*
X351125Y207355D02*
X359135Y207355D01*
X359135Y208295D02*
X351125Y208295D01*
X351125Y209235D02*
X359135Y209235D01*
X359135Y210175D02*
X351125Y210175D01*
X351125Y211115D02*
X359135Y211115D01*
X359135Y212055D02*
X351125Y212055D01*
X351125Y212995D02*
X359135Y212995D01*
X346435Y199835D02*
X338425Y199835D01*
X338425Y213845D01*
X346435Y213845D01*
X346435Y199835D01*
X346435Y200775D02*
X338425Y200775D01*
X338425Y201715D02*
X346435Y201715D01*
X346435Y202655D02*
X338425Y202655D01*
X338425Y203595D02*
X346435Y203595D01*
X346435Y204535D02*
X338425Y204535D01*
X338425Y205475D02*
X346435Y205475D01*
X346435Y206415D02*
X338425Y206415D01*
X338425Y207355D02*
X346435Y207355D01*
X346435Y208295D02*
X338425Y208295D01*
X338425Y209235D02*
X346435Y209235D01*
X346435Y210175D02*
X338425Y210175D01*
X338425Y211115D02*
X346435Y211115D01*
X346435Y212055D02*
X338425Y212055D01*
X338425Y212995D02*
X346435Y212995D01*
X333735Y199835D02*
X325725Y199835D01*
X325725Y213845D01*
X333735Y213845D01*
X333735Y199835D01*
X333735Y200775D02*
X325725Y200775D01*
X325725Y201715D02*
X333735Y201715D01*
X333735Y202655D02*
X325725Y202655D01*
X325725Y203595D02*
X333735Y203595D01*
X333735Y204535D02*
X325725Y204535D01*
X325725Y205475D02*
X333735Y205475D01*
X333735Y206415D02*
X325725Y206415D01*
X325725Y207355D02*
X333735Y207355D01*
X333735Y208295D02*
X325725Y208295D01*
X325725Y209235D02*
X333735Y209235D01*
X333735Y210175D02*
X325725Y210175D01*
X325725Y211115D02*
X333735Y211115D01*
X333735Y212055D02*
X325725Y212055D01*
X325725Y212995D02*
X333735Y212995D01*
X321035Y199835D02*
X313025Y199835D01*
X313025Y213845D01*
X321035Y213845D01*
X321035Y199835D01*
X321035Y200775D02*
X313025Y200775D01*
X313025Y201715D02*
X321035Y201715D01*
X321035Y202655D02*
X313025Y202655D01*
X313025Y203595D02*
X321035Y203595D01*
X321035Y204535D02*
X313025Y204535D01*
X313025Y205475D02*
X321035Y205475D01*
X321035Y206415D02*
X313025Y206415D01*
X313025Y207355D02*
X321035Y207355D01*
X321035Y208295D02*
X313025Y208295D01*
X313025Y209235D02*
X321035Y209235D01*
X321035Y210175D02*
X313025Y210175D01*
X313025Y211115D02*
X321035Y211115D01*
X321035Y212055D02*
X313025Y212055D01*
X313025Y212995D02*
X321035Y212995D01*
X308335Y199835D02*
X300325Y199835D01*
X300325Y213845D01*
X308335Y213845D01*
X308335Y199835D01*
X308335Y200775D02*
X300325Y200775D01*
X300325Y201715D02*
X308335Y201715D01*
X308335Y202655D02*
X300325Y202655D01*
X300325Y203595D02*
X308335Y203595D01*
X308335Y204535D02*
X300325Y204535D01*
X300325Y205475D02*
X308335Y205475D01*
X308335Y206415D02*
X300325Y206415D01*
X300325Y207355D02*
X308335Y207355D01*
X308335Y208295D02*
X300325Y208295D01*
X300325Y209235D02*
X308335Y209235D01*
X308335Y210175D02*
X300325Y210175D01*
X300325Y211115D02*
X308335Y211115D01*
X308335Y212055D02*
X300325Y212055D01*
X300325Y212995D02*
X308335Y212995D01*
X295635Y199835D02*
X287625Y199835D01*
X287625Y213845D01*
X295635Y213845D01*
X295635Y199835D01*
X295635Y200775D02*
X287625Y200775D01*
X287625Y201715D02*
X295635Y201715D01*
X295635Y202655D02*
X287625Y202655D01*
X287625Y203595D02*
X295635Y203595D01*
X295635Y204535D02*
X287625Y204535D01*
X287625Y205475D02*
X295635Y205475D01*
X295635Y206415D02*
X287625Y206415D01*
X287625Y207355D02*
X295635Y207355D01*
X295635Y208295D02*
X287625Y208295D01*
X287625Y209235D02*
X295635Y209235D01*
X295635Y210175D02*
X287625Y210175D01*
X287625Y211115D02*
X295635Y211115D01*
X295635Y212055D02*
X287625Y212055D01*
X287625Y212995D02*
X295635Y212995D01*
X282935Y199835D02*
X274925Y199835D01*
X274925Y213845D01*
X282935Y213845D01*
X282935Y199835D01*
X282935Y200775D02*
X274925Y200775D01*
X274925Y201715D02*
X282935Y201715D01*
X282935Y202655D02*
X274925Y202655D01*
X274925Y203595D02*
X282935Y203595D01*
X282935Y204535D02*
X274925Y204535D01*
X274925Y205475D02*
X282935Y205475D01*
X282935Y206415D02*
X274925Y206415D01*
X274925Y207355D02*
X282935Y207355D01*
X282935Y208295D02*
X274925Y208295D01*
X274925Y209235D02*
X282935Y209235D01*
X282935Y210175D02*
X274925Y210175D01*
X274925Y211115D02*
X282935Y211115D01*
X282935Y212055D02*
X274925Y212055D01*
X274925Y212995D02*
X282935Y212995D01*
X270235Y199835D02*
X262225Y199835D01*
X262225Y213845D01*
X270235Y213845D01*
X270235Y199835D01*
X270235Y200775D02*
X262225Y200775D01*
X262225Y201715D02*
X270235Y201715D01*
X270235Y202655D02*
X262225Y202655D01*
X262225Y203595D02*
X270235Y203595D01*
X270235Y204535D02*
X262225Y204535D01*
X262225Y205475D02*
X270235Y205475D01*
X270235Y206415D02*
X262225Y206415D01*
X262225Y207355D02*
X270235Y207355D01*
X270235Y208295D02*
X262225Y208295D01*
X262225Y209235D02*
X270235Y209235D01*
X270235Y210175D02*
X262225Y210175D01*
X262225Y211115D02*
X270235Y211115D01*
X270235Y212055D02*
X262225Y212055D01*
X262225Y212995D02*
X270235Y212995D01*
X257535Y199835D02*
X249525Y199835D01*
X249525Y213845D01*
X257535Y213845D01*
X257535Y199835D01*
X257535Y200775D02*
X249525Y200775D01*
X249525Y201715D02*
X257535Y201715D01*
X257535Y202655D02*
X249525Y202655D01*
X249525Y203595D02*
X257535Y203595D01*
X257535Y204535D02*
X249525Y204535D01*
X249525Y205475D02*
X257535Y205475D01*
X257535Y206415D02*
X249525Y206415D01*
X249525Y207355D02*
X257535Y207355D01*
X257535Y208295D02*
X249525Y208295D01*
X249525Y209235D02*
X257535Y209235D01*
X257535Y210175D02*
X249525Y210175D01*
X249525Y211115D02*
X257535Y211115D01*
X257535Y212055D02*
X249525Y212055D01*
X249525Y212995D02*
X257535Y212995D01*
X244835Y199835D02*
X236825Y199835D01*
X236825Y213845D01*
X244835Y213845D01*
X244835Y199835D01*
X244835Y200775D02*
X236825Y200775D01*
X236825Y201715D02*
X244835Y201715D01*
X244835Y202655D02*
X236825Y202655D01*
X236825Y203595D02*
X244835Y203595D01*
X244835Y204535D02*
X236825Y204535D01*
X236825Y205475D02*
X244835Y205475D01*
X244835Y206415D02*
X236825Y206415D01*
X236825Y207355D02*
X244835Y207355D01*
X244835Y208295D02*
X236825Y208295D01*
X236825Y209235D02*
X244835Y209235D01*
X244835Y210175D02*
X236825Y210175D01*
X236825Y211115D02*
X244835Y211115D01*
X244835Y212055D02*
X236825Y212055D01*
X236825Y212995D02*
X244835Y212995D01*
X232135Y199835D02*
X224125Y199835D01*
X224125Y213845D01*
X232135Y213845D01*
X232135Y199835D01*
X232135Y200775D02*
X224125Y200775D01*
X224125Y201715D02*
X232135Y201715D01*
X232135Y202655D02*
X224125Y202655D01*
X224125Y203595D02*
X232135Y203595D01*
X232135Y204535D02*
X224125Y204535D01*
X224125Y205475D02*
X232135Y205475D01*
X232135Y206415D02*
X224125Y206415D01*
X224125Y207355D02*
X232135Y207355D01*
X232135Y208295D02*
X224125Y208295D01*
X224125Y209235D02*
X232135Y209235D01*
X232135Y210175D02*
X224125Y210175D01*
X224125Y211115D02*
X232135Y211115D01*
X232135Y212055D02*
X224125Y212055D01*
X224125Y212995D02*
X232135Y212995D01*
X219435Y199835D02*
X211425Y199835D01*
X211425Y213845D01*
X219435Y213845D01*
X219435Y199835D01*
X219435Y200775D02*
X211425Y200775D01*
X211425Y201715D02*
X219435Y201715D01*
X219435Y202655D02*
X211425Y202655D01*
X211425Y203595D02*
X219435Y203595D01*
X219435Y204535D02*
X211425Y204535D01*
X211425Y205475D02*
X219435Y205475D01*
X219435Y206415D02*
X211425Y206415D01*
X211425Y207355D02*
X219435Y207355D01*
X219435Y208295D02*
X211425Y208295D01*
X211425Y209235D02*
X219435Y209235D01*
X219435Y210175D02*
X211425Y210175D01*
X211425Y211115D02*
X219435Y211115D01*
X219435Y212055D02*
X211425Y212055D01*
X211425Y212995D02*
X219435Y212995D01*
X207535Y185615D02*
X207535Y177605D01*
X193525Y177605D01*
X193525Y185615D01*
X207535Y185615D01*
X207535Y178545D02*
X193525Y178545D01*
X193525Y179485D02*
X207535Y179485D01*
X207535Y180425D02*
X193525Y180425D01*
X193525Y181365D02*
X207535Y181365D01*
X207535Y182305D02*
X193525Y182305D01*
X193525Y183245D02*
X207535Y183245D01*
X207535Y184185D02*
X193525Y184185D01*
X193525Y185125D02*
X207535Y185125D01*
X207535Y172915D02*
X207535Y164905D01*
X193525Y164905D01*
X193525Y172915D01*
X207535Y172915D01*
X207535Y165845D02*
X193525Y165845D01*
X193525Y166785D02*
X207535Y166785D01*
X207535Y167725D02*
X193525Y167725D01*
X193525Y168665D02*
X207535Y168665D01*
X207535Y169605D02*
X193525Y169605D01*
X193525Y170545D02*
X207535Y170545D01*
X207535Y171485D02*
X193525Y171485D01*
X193525Y172425D02*
X207535Y172425D01*
X207535Y160215D02*
X207535Y152205D01*
X193525Y152205D01*
X193525Y160215D01*
X207535Y160215D01*
X207535Y153145D02*
X193525Y153145D01*
X193525Y154085D02*
X207535Y154085D01*
X207535Y155025D02*
X193525Y155025D01*
X193525Y155965D02*
X207535Y155965D01*
X207535Y156905D02*
X193525Y156905D01*
X193525Y157845D02*
X207535Y157845D01*
X207535Y158785D02*
X193525Y158785D01*
X193525Y159725D02*
X207535Y159725D01*
X207535Y147515D02*
X207535Y139505D01*
X193525Y139505D01*
X193525Y147515D01*
X207535Y147515D01*
X207535Y140445D02*
X193525Y140445D01*
X193525Y141385D02*
X207535Y141385D01*
X207535Y142325D02*
X193525Y142325D01*
X193525Y143265D02*
X207535Y143265D01*
X207535Y144205D02*
X193525Y144205D01*
X193525Y145145D02*
X207535Y145145D01*
X207535Y146085D02*
X193525Y146085D01*
X193525Y147025D02*
X207535Y147025D01*
X207535Y134815D02*
X207535Y126805D01*
X193525Y126805D01*
X193525Y134815D01*
X207535Y134815D01*
X207535Y127745D02*
X193525Y127745D01*
X193525Y128685D02*
X207535Y128685D01*
X207535Y129625D02*
X193525Y129625D01*
X193525Y130565D02*
X207535Y130565D01*
X207535Y131505D02*
X193525Y131505D01*
X193525Y132445D02*
X207535Y132445D01*
X207535Y133385D02*
X193525Y133385D01*
X193525Y134325D02*
X207535Y134325D01*
X207535Y122115D02*
X207535Y114105D01*
X193525Y114105D01*
X193525Y122115D01*
X207535Y122115D01*
X207535Y115045D02*
X193525Y115045D01*
X193525Y115985D02*
X207535Y115985D01*
X207535Y116925D02*
X193525Y116925D01*
X193525Y117865D02*
X207535Y117865D01*
X207535Y118805D02*
X193525Y118805D01*
X193525Y119745D02*
X207535Y119745D01*
X207535Y120685D02*
X193525Y120685D01*
X193525Y121625D02*
X207535Y121625D01*
X207535Y109415D02*
X207535Y101405D01*
X193525Y101405D01*
X193525Y109415D01*
X207535Y109415D01*
X207535Y102345D02*
X193525Y102345D01*
X193525Y103285D02*
X207535Y103285D01*
X207535Y104225D02*
X193525Y104225D01*
X193525Y105165D02*
X207535Y105165D01*
X207535Y106105D02*
X193525Y106105D01*
X193525Y107045D02*
X207535Y107045D01*
X207535Y107985D02*
X193525Y107985D01*
X193525Y108925D02*
X207535Y108925D01*
X207535Y96715D02*
X207535Y88705D01*
X193525Y88705D01*
X193525Y96715D01*
X207535Y96715D01*
X207535Y89645D02*
X193525Y89645D01*
X193525Y90585D02*
X207535Y90585D01*
X207535Y91525D02*
X193525Y91525D01*
X193525Y92465D02*
X207535Y92465D01*
X207535Y93405D02*
X193525Y93405D01*
X193525Y94345D02*
X207535Y94345D01*
X207535Y95285D02*
X193525Y95285D01*
X193525Y96225D02*
X207535Y96225D01*
X207535Y84015D02*
X207535Y76005D01*
X193525Y76005D01*
X193525Y84015D01*
X207535Y84015D01*
X207535Y76945D02*
X193525Y76945D01*
X193525Y77885D02*
X207535Y77885D01*
X207535Y78825D02*
X193525Y78825D01*
X193525Y79765D02*
X207535Y79765D01*
X207535Y80705D02*
X193525Y80705D01*
X193525Y81645D02*
X207535Y81645D01*
X207535Y82585D02*
X193525Y82585D01*
X193525Y83525D02*
X207535Y83525D01*
X207535Y71315D02*
X207535Y63305D01*
X193525Y63305D01*
X193525Y71315D01*
X207535Y71315D01*
X207535Y64245D02*
X193525Y64245D01*
X193525Y65185D02*
X207535Y65185D01*
X207535Y66125D02*
X193525Y66125D01*
X193525Y67065D02*
X207535Y67065D01*
X207535Y68005D02*
X193525Y68005D01*
X193525Y68945D02*
X207535Y68945D01*
X207535Y69885D02*
X193525Y69885D01*
X193525Y70825D02*
X207535Y70825D01*
X211425Y35075D02*
X219435Y35075D01*
X211425Y35075D02*
X211425Y49085D01*
X219435Y49085D01*
X219435Y35075D01*
X219435Y36015D02*
X211425Y36015D01*
X211425Y36955D02*
X219435Y36955D01*
X219435Y37895D02*
X211425Y37895D01*
X211425Y38835D02*
X219435Y38835D01*
X219435Y39775D02*
X211425Y39775D01*
X211425Y40715D02*
X219435Y40715D01*
X219435Y41655D02*
X211425Y41655D01*
X211425Y42595D02*
X219435Y42595D01*
X219435Y43535D02*
X211425Y43535D01*
X211425Y44475D02*
X219435Y44475D01*
X219435Y45415D02*
X211425Y45415D01*
X211425Y46355D02*
X219435Y46355D01*
X219435Y47295D02*
X211425Y47295D01*
X211425Y48235D02*
X219435Y48235D01*
X224125Y35075D02*
X232135Y35075D01*
X224125Y35075D02*
X224125Y49085D01*
X232135Y49085D01*
X232135Y35075D01*
X232135Y36015D02*
X224125Y36015D01*
X224125Y36955D02*
X232135Y36955D01*
X232135Y37895D02*
X224125Y37895D01*
X224125Y38835D02*
X232135Y38835D01*
X232135Y39775D02*
X224125Y39775D01*
X224125Y40715D02*
X232135Y40715D01*
X232135Y41655D02*
X224125Y41655D01*
X224125Y42595D02*
X232135Y42595D01*
X232135Y43535D02*
X224125Y43535D01*
X224125Y44475D02*
X232135Y44475D01*
X232135Y45415D02*
X224125Y45415D01*
X224125Y46355D02*
X232135Y46355D01*
X232135Y47295D02*
X224125Y47295D01*
X224125Y48235D02*
X232135Y48235D01*
X236825Y35075D02*
X244835Y35075D01*
X236825Y35075D02*
X236825Y49085D01*
X244835Y49085D01*
X244835Y35075D01*
X244835Y36015D02*
X236825Y36015D01*
X236825Y36955D02*
X244835Y36955D01*
X244835Y37895D02*
X236825Y37895D01*
X236825Y38835D02*
X244835Y38835D01*
X244835Y39775D02*
X236825Y39775D01*
X236825Y40715D02*
X244835Y40715D01*
X244835Y41655D02*
X236825Y41655D01*
X236825Y42595D02*
X244835Y42595D01*
X244835Y43535D02*
X236825Y43535D01*
X236825Y44475D02*
X244835Y44475D01*
X244835Y45415D02*
X236825Y45415D01*
X236825Y46355D02*
X244835Y46355D01*
X244835Y47295D02*
X236825Y47295D01*
X236825Y48235D02*
X244835Y48235D01*
X249525Y35075D02*
X257535Y35075D01*
X249525Y35075D02*
X249525Y49085D01*
X257535Y49085D01*
X257535Y35075D01*
X257535Y36015D02*
X249525Y36015D01*
X249525Y36955D02*
X257535Y36955D01*
X257535Y37895D02*
X249525Y37895D01*
X249525Y38835D02*
X257535Y38835D01*
X257535Y39775D02*
X249525Y39775D01*
X249525Y40715D02*
X257535Y40715D01*
X257535Y41655D02*
X249525Y41655D01*
X249525Y42595D02*
X257535Y42595D01*
X257535Y43535D02*
X249525Y43535D01*
X249525Y44475D02*
X257535Y44475D01*
X257535Y45415D02*
X249525Y45415D01*
X249525Y46355D02*
X257535Y46355D01*
X257535Y47295D02*
X249525Y47295D01*
X249525Y48235D02*
X257535Y48235D01*
X262225Y35075D02*
X270235Y35075D01*
X262225Y35075D02*
X262225Y49085D01*
X270235Y49085D01*
X270235Y35075D01*
X270235Y36015D02*
X262225Y36015D01*
X262225Y36955D02*
X270235Y36955D01*
X270235Y37895D02*
X262225Y37895D01*
X262225Y38835D02*
X270235Y38835D01*
X270235Y39775D02*
X262225Y39775D01*
X262225Y40715D02*
X270235Y40715D01*
X270235Y41655D02*
X262225Y41655D01*
X262225Y42595D02*
X270235Y42595D01*
X270235Y43535D02*
X262225Y43535D01*
X262225Y44475D02*
X270235Y44475D01*
X270235Y45415D02*
X262225Y45415D01*
X262225Y46355D02*
X270235Y46355D01*
X270235Y47295D02*
X262225Y47295D01*
X262225Y48235D02*
X270235Y48235D01*
X274925Y35075D02*
X282935Y35075D01*
X274925Y35075D02*
X274925Y49085D01*
X282935Y49085D01*
X282935Y35075D01*
X282935Y36015D02*
X274925Y36015D01*
X274925Y36955D02*
X282935Y36955D01*
X282935Y37895D02*
X274925Y37895D01*
X274925Y38835D02*
X282935Y38835D01*
X282935Y39775D02*
X274925Y39775D01*
X274925Y40715D02*
X282935Y40715D01*
X282935Y41655D02*
X274925Y41655D01*
X274925Y42595D02*
X282935Y42595D01*
X282935Y43535D02*
X274925Y43535D01*
X274925Y44475D02*
X282935Y44475D01*
X282935Y45415D02*
X274925Y45415D01*
X274925Y46355D02*
X282935Y46355D01*
X282935Y47295D02*
X274925Y47295D01*
X274925Y48235D02*
X282935Y48235D01*
X287625Y35075D02*
X295635Y35075D01*
X287625Y35075D02*
X287625Y49085D01*
X295635Y49085D01*
X295635Y35075D01*
X295635Y36015D02*
X287625Y36015D01*
X287625Y36955D02*
X295635Y36955D01*
X295635Y37895D02*
X287625Y37895D01*
X287625Y38835D02*
X295635Y38835D01*
X295635Y39775D02*
X287625Y39775D01*
X287625Y40715D02*
X295635Y40715D01*
X295635Y41655D02*
X287625Y41655D01*
X287625Y42595D02*
X295635Y42595D01*
X295635Y43535D02*
X287625Y43535D01*
X287625Y44475D02*
X295635Y44475D01*
X295635Y45415D02*
X287625Y45415D01*
X287625Y46355D02*
X295635Y46355D01*
X295635Y47295D02*
X287625Y47295D01*
X287625Y48235D02*
X295635Y48235D01*
X300325Y35075D02*
X308335Y35075D01*
X300325Y35075D02*
X300325Y49085D01*
X308335Y49085D01*
X308335Y35075D01*
X308335Y36015D02*
X300325Y36015D01*
X300325Y36955D02*
X308335Y36955D01*
X308335Y37895D02*
X300325Y37895D01*
X300325Y38835D02*
X308335Y38835D01*
X308335Y39775D02*
X300325Y39775D01*
X300325Y40715D02*
X308335Y40715D01*
X308335Y41655D02*
X300325Y41655D01*
X300325Y42595D02*
X308335Y42595D01*
X308335Y43535D02*
X300325Y43535D01*
X300325Y44475D02*
X308335Y44475D01*
X308335Y45415D02*
X300325Y45415D01*
X300325Y46355D02*
X308335Y46355D01*
X308335Y47295D02*
X300325Y47295D01*
X300325Y48235D02*
X308335Y48235D01*
X313025Y35075D02*
X321035Y35075D01*
X313025Y35075D02*
X313025Y49085D01*
X321035Y49085D01*
X321035Y35075D01*
X321035Y36015D02*
X313025Y36015D01*
X313025Y36955D02*
X321035Y36955D01*
X321035Y37895D02*
X313025Y37895D01*
X313025Y38835D02*
X321035Y38835D01*
X321035Y39775D02*
X313025Y39775D01*
X313025Y40715D02*
X321035Y40715D01*
X321035Y41655D02*
X313025Y41655D01*
X313025Y42595D02*
X321035Y42595D01*
X321035Y43535D02*
X313025Y43535D01*
X313025Y44475D02*
X321035Y44475D01*
X321035Y45415D02*
X313025Y45415D01*
X313025Y46355D02*
X321035Y46355D01*
X321035Y47295D02*
X313025Y47295D01*
X313025Y48235D02*
X321035Y48235D01*
X325725Y35075D02*
X333735Y35075D01*
X325725Y35075D02*
X325725Y49085D01*
X333735Y49085D01*
X333735Y35075D01*
X333735Y36015D02*
X325725Y36015D01*
X325725Y36955D02*
X333735Y36955D01*
X333735Y37895D02*
X325725Y37895D01*
X325725Y38835D02*
X333735Y38835D01*
X333735Y39775D02*
X325725Y39775D01*
X325725Y40715D02*
X333735Y40715D01*
X333735Y41655D02*
X325725Y41655D01*
X325725Y42595D02*
X333735Y42595D01*
X333735Y43535D02*
X325725Y43535D01*
X325725Y44475D02*
X333735Y44475D01*
X333735Y45415D02*
X325725Y45415D01*
X325725Y46355D02*
X333735Y46355D01*
X333735Y47295D02*
X325725Y47295D01*
X325725Y48235D02*
X333735Y48235D01*
X338425Y35075D02*
X346435Y35075D01*
X338425Y35075D02*
X338425Y49085D01*
X346435Y49085D01*
X346435Y35075D01*
X346435Y36015D02*
X338425Y36015D01*
X338425Y36955D02*
X346435Y36955D01*
X346435Y37895D02*
X338425Y37895D01*
X338425Y38835D02*
X346435Y38835D01*
X346435Y39775D02*
X338425Y39775D01*
X338425Y40715D02*
X346435Y40715D01*
X346435Y41655D02*
X338425Y41655D01*
X338425Y42595D02*
X346435Y42595D01*
X346435Y43535D02*
X338425Y43535D01*
X338425Y44475D02*
X346435Y44475D01*
X346435Y45415D02*
X338425Y45415D01*
X338425Y46355D02*
X346435Y46355D01*
X346435Y47295D02*
X338425Y47295D01*
X338425Y48235D02*
X346435Y48235D01*
X351125Y35075D02*
X359135Y35075D01*
X351125Y35075D02*
X351125Y49085D01*
X359135Y49085D01*
X359135Y35075D01*
X359135Y36015D02*
X351125Y36015D01*
X351125Y36955D02*
X359135Y36955D01*
X359135Y37895D02*
X351125Y37895D01*
X351125Y38835D02*
X359135Y38835D01*
X359135Y39775D02*
X351125Y39775D01*
X351125Y40715D02*
X359135Y40715D01*
X359135Y41655D02*
X351125Y41655D01*
X351125Y42595D02*
X359135Y42595D01*
X359135Y43535D02*
X351125Y43535D01*
X351125Y44475D02*
X359135Y44475D01*
X359135Y45415D02*
X351125Y45415D01*
X351125Y46355D02*
X359135Y46355D01*
X359135Y47295D02*
X351125Y47295D01*
X351125Y48235D02*
X359135Y48235D01*
X363825Y35075D02*
X371835Y35075D01*
X363825Y35075D02*
X363825Y49085D01*
X371835Y49085D01*
X371835Y35075D01*
X371835Y36015D02*
X363825Y36015D01*
X363825Y36955D02*
X371835Y36955D01*
X371835Y37895D02*
X363825Y37895D01*
X363825Y38835D02*
X371835Y38835D01*
X371835Y39775D02*
X363825Y39775D01*
X363825Y40715D02*
X371835Y40715D01*
X371835Y41655D02*
X363825Y41655D01*
X363825Y42595D02*
X371835Y42595D01*
X371835Y43535D02*
X363825Y43535D01*
X363825Y44475D02*
X371835Y44475D01*
X371835Y45415D02*
X363825Y45415D01*
X363825Y46355D02*
X371835Y46355D01*
X371835Y47295D02*
X363825Y47295D01*
X363825Y48235D02*
X371835Y48235D01*
X376525Y35075D02*
X384535Y35075D01*
X376525Y35075D02*
X376525Y49085D01*
X384535Y49085D01*
X384535Y35075D01*
X384535Y36015D02*
X376525Y36015D01*
X376525Y36955D02*
X384535Y36955D01*
X384535Y37895D02*
X376525Y37895D01*
X376525Y38835D02*
X384535Y38835D01*
X384535Y39775D02*
X376525Y39775D01*
X376525Y40715D02*
X384535Y40715D01*
X384535Y41655D02*
X376525Y41655D01*
X376525Y42595D02*
X384535Y42595D01*
X384535Y43535D02*
X376525Y43535D01*
X376525Y44475D02*
X384535Y44475D01*
X384535Y45415D02*
X376525Y45415D01*
X376525Y46355D02*
X384535Y46355D01*
X384535Y47295D02*
X376525Y47295D01*
X376525Y48235D02*
X384535Y48235D01*
D12*
X311838Y128492D02*
X299602Y128492D01*
X299602Y140728D01*
X311838Y140728D01*
X311838Y128492D01*
X311838Y129503D02*
X299602Y129503D01*
X299602Y130514D02*
X311838Y130514D01*
X311838Y131525D02*
X299602Y131525D01*
X299602Y132536D02*
X311838Y132536D01*
X311838Y133547D02*
X299602Y133547D01*
X299602Y134558D02*
X311838Y134558D01*
X311838Y135569D02*
X299602Y135569D01*
X299602Y136580D02*
X311838Y136580D01*
X311838Y137591D02*
X299602Y137591D01*
X299602Y138602D02*
X311838Y138602D01*
X311838Y139613D02*
X299602Y139613D01*
X299602Y140624D02*
X311838Y140624D01*
X317812Y110042D02*
X330048Y110042D01*
X317812Y110042D02*
X317812Y122278D01*
X330048Y122278D01*
X330048Y110042D01*
X330048Y111053D02*
X317812Y111053D01*
X317812Y112064D02*
X330048Y112064D01*
X330048Y113075D02*
X317812Y113075D01*
X317812Y114086D02*
X330048Y114086D01*
X330048Y115097D02*
X317812Y115097D01*
X317812Y116108D02*
X330048Y116108D01*
X330048Y117119D02*
X317812Y117119D01*
X317812Y118130D02*
X330048Y118130D01*
X330048Y119141D02*
X317812Y119141D01*
X317812Y120152D02*
X330048Y120152D01*
X330048Y121163D02*
X317812Y121163D01*
X317812Y122174D02*
X330048Y122174D01*
X330048Y128342D02*
X317812Y128342D01*
X317812Y140578D01*
X330048Y140578D01*
X330048Y128342D01*
X330048Y129353D02*
X317812Y129353D01*
X317812Y130364D02*
X330048Y130364D01*
X330048Y131375D02*
X317812Y131375D01*
X317812Y132386D02*
X330048Y132386D01*
X330048Y133397D02*
X317812Y133397D01*
X317812Y134408D02*
X330048Y134408D01*
X330048Y135419D02*
X317812Y135419D01*
X317812Y136430D02*
X330048Y136430D01*
X330048Y137441D02*
X317812Y137441D01*
X317812Y138452D02*
X330048Y138452D01*
X330048Y139463D02*
X317812Y139463D01*
X317812Y140474D02*
X330048Y140474D01*
X330048Y146642D02*
X317812Y146642D01*
X317812Y158878D01*
X330048Y158878D01*
X330048Y146642D01*
X330048Y147653D02*
X317812Y147653D01*
X317812Y148664D02*
X330048Y148664D01*
X330048Y149675D02*
X317812Y149675D01*
X317812Y150686D02*
X330048Y150686D01*
X330048Y151697D02*
X317812Y151697D01*
X317812Y152708D02*
X330048Y152708D01*
X330048Y153719D02*
X317812Y153719D01*
X317812Y154730D02*
X330048Y154730D01*
X330048Y155741D02*
X317812Y155741D01*
X317812Y156752D02*
X330048Y156752D01*
X330048Y157763D02*
X317812Y157763D01*
X317812Y158774D02*
X330048Y158774D01*
X311748Y146642D02*
X299512Y146642D01*
X299512Y158878D01*
X311748Y158878D01*
X311748Y146642D01*
X311748Y147653D02*
X299512Y147653D01*
X299512Y148664D02*
X311748Y148664D01*
X311748Y149675D02*
X299512Y149675D01*
X299512Y150686D02*
X311748Y150686D01*
X311748Y151697D02*
X299512Y151697D01*
X299512Y152708D02*
X311748Y152708D01*
X311748Y153719D02*
X299512Y153719D01*
X299512Y154730D02*
X311748Y154730D01*
X311748Y155741D02*
X299512Y155741D01*
X299512Y156752D02*
X311748Y156752D01*
X311748Y157763D02*
X299512Y157763D01*
X299512Y158774D02*
X311748Y158774D01*
X312048Y109942D02*
X299812Y109942D01*
X299812Y122178D01*
X312048Y122178D01*
X312048Y109942D01*
X312048Y110953D02*
X299812Y110953D01*
X299812Y111964D02*
X312048Y111964D01*
X312048Y112975D02*
X299812Y112975D01*
X299812Y113986D02*
X312048Y113986D01*
X312048Y114997D02*
X299812Y114997D01*
X299812Y116008D02*
X312048Y116008D01*
X312048Y117019D02*
X299812Y117019D01*
X299812Y118030D02*
X312048Y118030D01*
X312048Y119041D02*
X299812Y119041D01*
X299812Y120052D02*
X312048Y120052D01*
X312048Y121063D02*
X299812Y121063D01*
X299812Y122074D02*
X312048Y122074D01*
X293448Y110042D02*
X281212Y110042D01*
X281212Y122278D01*
X293448Y122278D01*
X293448Y110042D01*
X293448Y111053D02*
X281212Y111053D01*
X281212Y112064D02*
X293448Y112064D01*
X293448Y113075D02*
X281212Y113075D01*
X281212Y114086D02*
X293448Y114086D01*
X293448Y115097D02*
X281212Y115097D01*
X281212Y116108D02*
X293448Y116108D01*
X293448Y117119D02*
X281212Y117119D01*
X281212Y118130D02*
X293448Y118130D01*
X293448Y119141D02*
X281212Y119141D01*
X281212Y120152D02*
X293448Y120152D01*
X293448Y121163D02*
X281212Y121163D01*
X281212Y122174D02*
X293448Y122174D01*
X293348Y128342D02*
X281112Y128342D01*
X281112Y140578D01*
X293348Y140578D01*
X293348Y128342D01*
X293348Y129353D02*
X281112Y129353D01*
X281112Y130364D02*
X293348Y130364D01*
X293348Y131375D02*
X281112Y131375D01*
X281112Y132386D02*
X293348Y132386D01*
X293348Y133397D02*
X281112Y133397D01*
X281112Y134408D02*
X293348Y134408D01*
X293348Y135419D02*
X281112Y135419D01*
X281112Y136430D02*
X293348Y136430D01*
X293348Y137441D02*
X281112Y137441D01*
X281112Y138452D02*
X293348Y138452D01*
X293348Y139463D02*
X281112Y139463D01*
X281112Y140474D02*
X293348Y140474D01*
X293448Y146642D02*
X281212Y146642D01*
X281212Y158878D01*
X293448Y158878D01*
X293448Y146642D01*
X293448Y147653D02*
X281212Y147653D01*
X281212Y148664D02*
X293448Y148664D01*
X293448Y149675D02*
X281212Y149675D01*
X281212Y150686D02*
X293448Y150686D01*
X293448Y151697D02*
X281212Y151697D01*
X281212Y152708D02*
X293448Y152708D01*
X293448Y153719D02*
X281212Y153719D01*
X281212Y154730D02*
X293448Y154730D01*
X293448Y155741D02*
X281212Y155741D01*
X281212Y156752D02*
X293448Y156752D01*
X293448Y157763D02*
X281212Y157763D01*
X281212Y158774D02*
X293448Y158774D01*
D13*
X174765Y84315D02*
X168135Y84315D01*
X168135Y98565D01*
X174765Y98565D01*
X174765Y84315D01*
X174765Y85256D02*
X168135Y85256D01*
X168135Y86197D02*
X174765Y86197D01*
X174765Y87138D02*
X168135Y87138D01*
X168135Y88079D02*
X174765Y88079D01*
X174765Y89020D02*
X168135Y89020D01*
X168135Y89961D02*
X174765Y89961D01*
X174765Y90902D02*
X168135Y90902D01*
X168135Y91843D02*
X174765Y91843D01*
X174765Y92784D02*
X168135Y92784D01*
X168135Y93725D02*
X174765Y93725D01*
X174765Y94666D02*
X168135Y94666D01*
X168135Y95607D02*
X174765Y95607D01*
X174765Y96548D02*
X168135Y96548D01*
X168135Y97489D02*
X174765Y97489D01*
X174765Y98430D02*
X168135Y98430D01*
X168135Y28435D02*
X174765Y28435D01*
X168135Y28435D02*
X168135Y42685D01*
X174765Y42685D01*
X174765Y28435D01*
X174765Y29376D02*
X168135Y29376D01*
X168135Y30317D02*
X174765Y30317D01*
X174765Y31258D02*
X168135Y31258D01*
X168135Y32199D02*
X174765Y32199D01*
X174765Y33140D02*
X168135Y33140D01*
X168135Y34081D02*
X174765Y34081D01*
X174765Y35022D02*
X168135Y35022D01*
X168135Y35963D02*
X174765Y35963D01*
X174765Y36904D02*
X168135Y36904D01*
X168135Y37845D02*
X174765Y37845D01*
X174765Y38786D02*
X168135Y38786D01*
X168135Y39727D02*
X174765Y39727D01*
X174765Y40668D02*
X168135Y40668D01*
X168135Y41609D02*
X174765Y41609D01*
X174765Y42550D02*
X168135Y42550D01*
X136665Y84315D02*
X130035Y84315D01*
X130035Y98565D01*
X136665Y98565D01*
X136665Y84315D01*
X136665Y85256D02*
X130035Y85256D01*
X130035Y86197D02*
X136665Y86197D01*
X136665Y87138D02*
X130035Y87138D01*
X130035Y88079D02*
X136665Y88079D01*
X136665Y89020D02*
X130035Y89020D01*
X130035Y89961D02*
X136665Y89961D01*
X136665Y90902D02*
X130035Y90902D01*
X130035Y91843D02*
X136665Y91843D01*
X136665Y92784D02*
X130035Y92784D01*
X130035Y93725D02*
X136665Y93725D01*
X136665Y94666D02*
X130035Y94666D01*
X130035Y95607D02*
X136665Y95607D01*
X136665Y96548D02*
X130035Y96548D01*
X130035Y97489D02*
X136665Y97489D01*
X136665Y98430D02*
X130035Y98430D01*
X130035Y28435D02*
X136665Y28435D01*
X130035Y28435D02*
X130035Y42685D01*
X136665Y42685D01*
X136665Y28435D01*
X136665Y29376D02*
X130035Y29376D01*
X130035Y30317D02*
X136665Y30317D01*
X136665Y31258D02*
X130035Y31258D01*
X130035Y32199D02*
X136665Y32199D01*
X136665Y33140D02*
X130035Y33140D01*
X130035Y34081D02*
X136665Y34081D01*
X136665Y35022D02*
X130035Y35022D01*
X130035Y35963D02*
X136665Y35963D01*
X136665Y36904D02*
X130035Y36904D01*
X130035Y37845D02*
X136665Y37845D01*
X136665Y38786D02*
X130035Y38786D01*
X130035Y39727D02*
X136665Y39727D01*
X136665Y40668D02*
X130035Y40668D01*
X130035Y41609D02*
X136665Y41609D01*
X136665Y42550D02*
X130035Y42550D01*
D10*
X531800Y200510D02*
X552780Y200510D01*
X531800Y200510D02*
X531800Y207990D01*
X552780Y207990D01*
X552780Y200510D01*
X552780Y201479D02*
X531800Y201479D01*
X531800Y202448D02*
X552780Y202448D01*
X552780Y203417D02*
X531800Y203417D01*
X531800Y204386D02*
X552780Y204386D01*
X552780Y205355D02*
X531800Y205355D01*
X531800Y206324D02*
X552780Y206324D01*
X552780Y207293D02*
X531800Y207293D01*
X531800Y173010D02*
X552780Y173010D01*
X531800Y173010D02*
X531800Y180490D01*
X552780Y180490D01*
X552780Y173010D01*
X552780Y173979D02*
X531800Y173979D01*
X531800Y174948D02*
X552780Y174948D01*
X552780Y175917D02*
X531800Y175917D01*
X531800Y176886D02*
X552780Y176886D01*
X552780Y177855D02*
X531800Y177855D01*
X531800Y178824D02*
X552780Y178824D01*
X552780Y179793D02*
X531800Y179793D01*
D14*
X552790Y186000D02*
X562290Y186000D01*
X552790Y186000D02*
X552790Y195000D01*
X562290Y195000D01*
X562290Y186000D01*
X562290Y186950D02*
X552790Y186950D01*
X552790Y187900D02*
X562290Y187900D01*
X562290Y188850D02*
X552790Y188850D01*
X552790Y189800D02*
X562290Y189800D01*
X562290Y190750D02*
X552790Y190750D01*
X552790Y191700D02*
X562290Y191700D01*
X562290Y192650D02*
X552790Y192650D01*
X552790Y193600D02*
X562290Y193600D01*
X562290Y194550D02*
X552790Y194550D01*
X531790Y186000D02*
X522290Y186000D01*
X522290Y195000D01*
X531790Y195000D01*
X531790Y186000D01*
X531790Y186950D02*
X522290Y186950D01*
X522290Y187900D02*
X531790Y187900D01*
X531790Y188850D02*
X522290Y188850D01*
X522290Y189800D02*
X531790Y189800D01*
X531790Y190750D02*
X522290Y190750D01*
X522290Y191700D02*
X531790Y191700D01*
X531790Y192650D02*
X522290Y192650D01*
X522290Y193600D02*
X531790Y193600D01*
X531790Y194550D02*
X522290Y194550D01*
D15*
X591200Y190500D03*
D16*
X638100Y233550D03*
X638100Y147450D03*
D10*
X586790Y98930D02*
X586790Y93950D01*
X586790Y98930D02*
X591770Y98930D01*
X591770Y93950D01*
X586790Y93950D01*
X586790Y94919D02*
X591770Y94919D01*
X591770Y95888D02*
X586790Y95888D01*
X586790Y96857D02*
X591770Y96857D01*
X591770Y97826D02*
X586790Y97826D01*
X586790Y98795D02*
X591770Y98795D01*
X586790Y88930D02*
X586790Y83950D01*
X586790Y88930D02*
X591770Y88930D01*
X591770Y83950D01*
X586790Y83950D01*
X586790Y84919D02*
X591770Y84919D01*
X591770Y85888D02*
X586790Y85888D01*
X586790Y86857D02*
X591770Y86857D01*
X591770Y87826D02*
X586790Y87826D01*
X586790Y88795D02*
X591770Y88795D01*
X617490Y74530D02*
X617490Y72550D01*
X608510Y72550D01*
X608510Y74530D01*
X617490Y74530D01*
X617490Y73519D02*
X608510Y73519D01*
X608510Y74488D02*
X617490Y74488D01*
X617490Y69530D02*
X617490Y67550D01*
X608510Y67550D01*
X608510Y69530D01*
X617490Y69530D01*
X617490Y68519D02*
X608510Y68519D01*
X608510Y69488D02*
X617490Y69488D01*
X617490Y95800D02*
X617490Y100780D01*
X617490Y95800D02*
X608510Y95800D01*
X608510Y100780D01*
X617490Y100780D01*
X617490Y96769D02*
X608510Y96769D01*
X608510Y97738D02*
X617490Y97738D01*
X617490Y98707D02*
X608510Y98707D01*
X608510Y99676D02*
X617490Y99676D01*
X617490Y100645D02*
X608510Y100645D01*
X617490Y93030D02*
X617490Y88050D01*
X608510Y88050D01*
X608510Y93030D01*
X617490Y93030D01*
X617490Y89019D02*
X608510Y89019D01*
X608510Y89988D02*
X617490Y89988D01*
X617490Y90957D02*
X608510Y90957D01*
X608510Y91926D02*
X617490Y91926D01*
X617490Y92895D02*
X608510Y92895D01*
X617490Y84530D02*
X617490Y82550D01*
X608510Y82550D01*
X608510Y84530D01*
X617490Y84530D01*
X617490Y83519D02*
X608510Y83519D01*
X608510Y84488D02*
X617490Y84488D01*
X617490Y79530D02*
X617490Y77550D01*
X608510Y77550D01*
X608510Y79530D01*
X617490Y79530D01*
X617490Y78519D02*
X608510Y78519D01*
X608510Y79488D02*
X617490Y79488D01*
X608510Y59530D02*
X608510Y57550D01*
X608510Y59530D02*
X617490Y59530D01*
X617490Y57550D01*
X608510Y57550D01*
X608510Y58519D02*
X617490Y58519D01*
X617490Y59488D02*
X608510Y59488D01*
X608510Y62550D02*
X608510Y64530D01*
X617490Y64530D01*
X617490Y62550D01*
X608510Y62550D01*
X608510Y63519D02*
X617490Y63519D01*
X617490Y64488D02*
X608510Y64488D01*
X608510Y36280D02*
X608510Y31300D01*
X608510Y36280D02*
X617490Y36280D01*
X617490Y31300D01*
X608510Y31300D01*
X608510Y32269D02*
X617490Y32269D01*
X617490Y33238D02*
X608510Y33238D01*
X608510Y34207D02*
X617490Y34207D01*
X617490Y35176D02*
X608510Y35176D01*
X608510Y36145D02*
X617490Y36145D01*
X608510Y39050D02*
X608510Y44030D01*
X617490Y44030D01*
X617490Y39050D01*
X608510Y39050D01*
X608510Y40019D02*
X617490Y40019D01*
X617490Y40988D02*
X608510Y40988D01*
X608510Y41957D02*
X617490Y41957D01*
X617490Y42926D02*
X608510Y42926D01*
X608510Y43895D02*
X617490Y43895D01*
X608510Y47550D02*
X608510Y49530D01*
X617490Y49530D01*
X617490Y47550D01*
X608510Y47550D01*
X608510Y48519D02*
X617490Y48519D01*
X617490Y49488D02*
X608510Y49488D01*
X608510Y52550D02*
X608510Y54530D01*
X617490Y54530D01*
X617490Y52550D01*
X608510Y52550D01*
X608510Y53519D02*
X617490Y53519D01*
X617490Y54488D02*
X608510Y54488D01*
X601168Y40670D02*
X601168Y35690D01*
X596188Y35690D01*
X596188Y40670D01*
X601168Y40670D01*
X601168Y36659D02*
X596188Y36659D01*
X596188Y37628D02*
X601168Y37628D01*
X601168Y38597D02*
X596188Y38597D01*
X596188Y39566D02*
X601168Y39566D01*
X601168Y40535D02*
X596188Y40535D01*
X601168Y45690D02*
X601168Y50670D01*
X601168Y45690D02*
X596188Y45690D01*
X596188Y50670D01*
X601168Y50670D01*
X601168Y46659D02*
X596188Y46659D01*
X596188Y47628D02*
X601168Y47628D01*
X601168Y48597D02*
X596188Y48597D01*
X596188Y49566D02*
X601168Y49566D01*
X601168Y50535D02*
X596188Y50535D01*
X596188Y93950D02*
X596188Y98930D01*
X601168Y98930D01*
X601168Y93950D01*
X596188Y93950D01*
X596188Y94919D02*
X601168Y94919D01*
X601168Y95888D02*
X596188Y95888D01*
X596188Y96857D02*
X601168Y96857D01*
X601168Y97826D02*
X596188Y97826D01*
X596188Y98795D02*
X601168Y98795D01*
X596188Y88930D02*
X596188Y83950D01*
X596188Y88930D02*
X601168Y88930D01*
X601168Y83950D01*
X596188Y83950D01*
X596188Y84919D02*
X601168Y84919D01*
X601168Y85888D02*
X596188Y85888D01*
X596188Y86857D02*
X601168Y86857D01*
X601168Y87826D02*
X596188Y87826D01*
X596188Y88795D02*
X601168Y88795D01*
D13*
X138189Y132347D02*
X131559Y132347D01*
X138189Y132347D02*
X138189Y118097D01*
X131559Y118097D01*
X131559Y132347D01*
X131559Y119038D02*
X138189Y119038D01*
X138189Y119979D02*
X131559Y119979D01*
X131559Y120920D02*
X138189Y120920D01*
X138189Y121861D02*
X131559Y121861D01*
X131559Y122802D02*
X138189Y122802D01*
X138189Y123743D02*
X131559Y123743D01*
X131559Y124684D02*
X138189Y124684D01*
X138189Y125625D02*
X131559Y125625D01*
X131559Y126566D02*
X138189Y126566D01*
X138189Y127507D02*
X131559Y127507D01*
X131559Y128448D02*
X138189Y128448D01*
X138189Y129389D02*
X131559Y129389D01*
X131559Y130330D02*
X138189Y130330D01*
X138189Y131271D02*
X131559Y131271D01*
X131559Y132212D02*
X138189Y132212D01*
X138189Y188227D02*
X131559Y188227D01*
X138189Y188227D02*
X138189Y173977D01*
X131559Y173977D01*
X131559Y188227D01*
X131559Y174918D02*
X138189Y174918D01*
X138189Y175859D02*
X131559Y175859D01*
X131559Y176800D02*
X138189Y176800D01*
X138189Y177741D02*
X131559Y177741D01*
X131559Y178682D02*
X138189Y178682D01*
X138189Y179623D02*
X131559Y179623D01*
X131559Y180564D02*
X138189Y180564D01*
X138189Y181505D02*
X131559Y181505D01*
X131559Y182446D02*
X138189Y182446D01*
X138189Y183387D02*
X131559Y183387D01*
X131559Y184328D02*
X138189Y184328D01*
X138189Y185269D02*
X131559Y185269D01*
X131559Y186210D02*
X138189Y186210D01*
X138189Y187151D02*
X131559Y187151D01*
X131559Y188092D02*
X138189Y188092D01*
X169659Y132347D02*
X176289Y132347D01*
X176289Y118097D01*
X169659Y118097D01*
X169659Y132347D01*
X169659Y119038D02*
X176289Y119038D01*
X176289Y119979D02*
X169659Y119979D01*
X169659Y120920D02*
X176289Y120920D01*
X176289Y121861D02*
X169659Y121861D01*
X169659Y122802D02*
X176289Y122802D01*
X176289Y123743D02*
X169659Y123743D01*
X169659Y124684D02*
X176289Y124684D01*
X176289Y125625D02*
X169659Y125625D01*
X169659Y126566D02*
X176289Y126566D01*
X176289Y127507D02*
X169659Y127507D01*
X169659Y128448D02*
X176289Y128448D01*
X176289Y129389D02*
X169659Y129389D01*
X169659Y130330D02*
X176289Y130330D01*
X176289Y131271D02*
X169659Y131271D01*
X169659Y132212D02*
X176289Y132212D01*
X176289Y188227D02*
X169659Y188227D01*
X176289Y188227D02*
X176289Y173977D01*
X169659Y173977D01*
X169659Y188227D01*
X169659Y174918D02*
X176289Y174918D01*
X176289Y175859D02*
X169659Y175859D01*
X169659Y176800D02*
X176289Y176800D01*
X176289Y177741D02*
X169659Y177741D01*
X169659Y178682D02*
X176289Y178682D01*
X176289Y179623D02*
X169659Y179623D01*
X169659Y180564D02*
X176289Y180564D01*
X176289Y181505D02*
X169659Y181505D01*
X169659Y182446D02*
X176289Y182446D01*
X176289Y183387D02*
X169659Y183387D01*
X169659Y184328D02*
X176289Y184328D01*
X176289Y185269D02*
X169659Y185269D01*
X169659Y186210D02*
X176289Y186210D01*
X176289Y187151D02*
X169659Y187151D01*
X169659Y188092D02*
X176289Y188092D01*
D10*
X383720Y219060D02*
X383720Y226540D01*
X383720Y219060D02*
X375740Y219060D01*
X375740Y226540D01*
X383720Y226540D01*
X383720Y220029D02*
X375740Y220029D01*
X375740Y220998D02*
X383720Y220998D01*
X383720Y221967D02*
X375740Y221967D01*
X375740Y222936D02*
X383720Y222936D01*
X383720Y223905D02*
X375740Y223905D01*
X375740Y224874D02*
X383720Y224874D01*
X383720Y225843D02*
X375740Y225843D01*
X383720Y230660D02*
X383720Y238140D01*
X383720Y230660D02*
X375740Y230660D01*
X375740Y238140D01*
X383720Y238140D01*
X383720Y231629D02*
X375740Y231629D01*
X375740Y232598D02*
X383720Y232598D01*
X383720Y233567D02*
X375740Y233567D01*
X375740Y234536D02*
X383720Y234536D01*
X383720Y235505D02*
X375740Y235505D01*
X375740Y236474D02*
X383720Y236474D01*
X383720Y237443D02*
X375740Y237443D01*
X571470Y126950D02*
X576450Y126950D01*
X576450Y121970D01*
X571470Y121970D01*
X571470Y126950D01*
X571470Y122939D02*
X576450Y122939D01*
X576450Y123908D02*
X571470Y123908D01*
X571470Y124877D02*
X576450Y124877D01*
X576450Y125846D02*
X571470Y125846D01*
X571470Y126815D02*
X576450Y126815D01*
X566450Y126950D02*
X561470Y126950D01*
X566450Y126950D02*
X566450Y121970D01*
X561470Y121970D01*
X561470Y126950D01*
X561470Y122939D02*
X566450Y122939D01*
X566450Y123908D02*
X561470Y123908D01*
X561470Y124877D02*
X566450Y124877D01*
X566450Y125846D02*
X561470Y125846D01*
X561470Y126815D02*
X566450Y126815D01*
X571470Y117044D02*
X576450Y117044D01*
X576450Y112064D01*
X571470Y112064D01*
X571470Y117044D01*
X571470Y113033D02*
X576450Y113033D01*
X576450Y114002D02*
X571470Y114002D01*
X571470Y114971D02*
X576450Y114971D01*
X576450Y115940D02*
X571470Y115940D01*
X571470Y116909D02*
X576450Y116909D01*
X566450Y117044D02*
X561470Y117044D01*
X566450Y117044D02*
X566450Y112064D01*
X561470Y112064D01*
X561470Y117044D01*
X561470Y113033D02*
X566450Y113033D01*
X566450Y114002D02*
X561470Y114002D01*
X561470Y114971D02*
X566450Y114971D01*
X566450Y115940D02*
X561470Y115940D01*
X561470Y116909D02*
X566450Y116909D01*
X541144Y12650D02*
X536164Y12650D01*
X541144Y12650D02*
X541144Y7670D01*
X536164Y7670D01*
X536164Y12650D01*
X536164Y8639D02*
X541144Y8639D01*
X541144Y9608D02*
X536164Y9608D01*
X536164Y10577D02*
X541144Y10577D01*
X541144Y11546D02*
X536164Y11546D01*
X536164Y12515D02*
X541144Y12515D01*
X531144Y12650D02*
X526164Y12650D01*
X531144Y12650D02*
X531144Y7670D01*
X526164Y7670D01*
X526164Y12650D01*
X526164Y8639D02*
X531144Y8639D01*
X531144Y9608D02*
X526164Y9608D01*
X526164Y10577D02*
X531144Y10577D01*
X531144Y11546D02*
X526164Y11546D01*
X526164Y12515D02*
X531144Y12515D01*
D17*
X571690Y13660D02*
X571690Y6660D01*
X571690Y13660D02*
X578690Y13660D01*
X578690Y6660D01*
X571690Y6660D01*
X571690Y9510D02*
X578690Y9510D01*
X578690Y12360D02*
X571690Y12360D01*
X554150Y13660D02*
X554150Y6660D01*
X554150Y13660D02*
X561150Y13660D01*
X561150Y6660D01*
X554150Y6660D01*
X554150Y9510D02*
X561150Y9510D01*
X561150Y12360D02*
X554150Y12360D01*
M02*
