G04 EAGLE Gerber RS-274X export*
G75*
%MOMM*%
%FSLAX34Y34*%
%LPD*%
%INSoldermask Top*%
%IPPOS*%
%AMOC8*
5,1,8,0,0,1.08239X$1,22.5*%
G01*
%ADD10C,1.127000*%
%ADD11C,0.225369*%
%ADD12C,0.230578*%
%ADD13C,0.223409*%
%ADD14C,0.224709*%
%ADD15C,0.228959*%
%ADD16C,0.581000*%
%ADD17C,0.225938*%
%ADD18C,0.233119*%
%ADD19C,0.222250*%
%ADD20C,0.225400*%
%ADD21C,0.229859*%
%ADD22C,0.240928*%
%ADD23C,0.777000*%
%ADD24C,0.428259*%

G36*
X462251Y226479D02*
X462251Y226479D01*
X462261Y226483D01*
X462287Y226484D01*
X466121Y227318D01*
X466129Y227323D01*
X466155Y227328D01*
X469831Y228700D01*
X469839Y228705D01*
X469863Y228714D01*
X473307Y230595D01*
X473314Y230602D01*
X473337Y230614D01*
X476478Y232965D01*
X476484Y232973D01*
X476505Y232989D01*
X479279Y235763D01*
X479284Y235772D01*
X479303Y235790D01*
X481654Y238931D01*
X481657Y238940D01*
X481673Y238961D01*
X483554Y242405D01*
X483556Y242414D01*
X483568Y242437D01*
X484940Y246113D01*
X484940Y246123D01*
X484950Y246147D01*
X485784Y249981D01*
X485783Y249991D01*
X485789Y250017D01*
X486069Y253930D01*
X486063Y253956D01*
X486067Y253981D01*
X486049Y254023D01*
X486039Y254067D01*
X486021Y254085D01*
X486010Y254109D01*
X485972Y254134D01*
X485941Y254166D01*
X485915Y254172D01*
X485894Y254186D01*
X485820Y254197D01*
X475820Y254197D01*
X475813Y254195D01*
X475806Y254197D01*
X475747Y254176D01*
X475686Y254158D01*
X475681Y254153D01*
X475674Y254150D01*
X475636Y254100D01*
X475594Y254053D01*
X475593Y254046D01*
X475588Y254040D01*
X475572Y253968D01*
X475358Y251250D01*
X474726Y248617D01*
X473690Y246117D01*
X472276Y243809D01*
X470518Y241750D01*
X468459Y239992D01*
X466151Y238578D01*
X463651Y237542D01*
X461018Y236910D01*
X458320Y236698D01*
X455622Y236910D01*
X452989Y237542D01*
X450489Y238578D01*
X448181Y239992D01*
X446122Y241750D01*
X444364Y243809D01*
X442950Y246117D01*
X441914Y248617D01*
X441282Y251250D01*
X441068Y253968D01*
X441066Y253974D01*
X441067Y253981D01*
X441041Y254039D01*
X441019Y254098D01*
X441013Y254103D01*
X441010Y254109D01*
X440957Y254144D01*
X440907Y254182D01*
X440900Y254182D01*
X440894Y254186D01*
X440820Y254197D01*
X430820Y254197D01*
X430795Y254190D01*
X430769Y254192D01*
X430729Y254171D01*
X430686Y254158D01*
X430669Y254138D01*
X430646Y254126D01*
X430624Y254087D01*
X430594Y254053D01*
X430590Y254027D01*
X430577Y254004D01*
X430571Y253930D01*
X430851Y250017D01*
X430855Y250007D01*
X430856Y249981D01*
X431690Y246147D01*
X431695Y246139D01*
X431700Y246113D01*
X433072Y242437D01*
X433077Y242429D01*
X433086Y242405D01*
X434967Y238961D01*
X434974Y238954D01*
X434986Y238931D01*
X437337Y235790D01*
X437345Y235784D01*
X437361Y235763D01*
X440135Y232989D01*
X440144Y232984D01*
X440162Y232965D01*
X443303Y230614D01*
X443312Y230611D01*
X443333Y230595D01*
X446777Y228714D01*
X446786Y228712D01*
X446809Y228700D01*
X450485Y227328D01*
X450495Y227328D01*
X450519Y227318D01*
X454353Y226484D01*
X454363Y226485D01*
X454389Y226479D01*
X458302Y226199D01*
X458312Y226201D01*
X458338Y226199D01*
X462251Y226479D01*
G37*
G36*
X440887Y-195D02*
X440887Y-195D01*
X440894Y-197D01*
X440953Y-176D01*
X441014Y-158D01*
X441019Y-153D01*
X441026Y-150D01*
X441065Y-100D01*
X441106Y-53D01*
X441107Y-46D01*
X441112Y-40D01*
X441128Y32D01*
X441342Y2750D01*
X441974Y5383D01*
X443010Y7883D01*
X444424Y10191D01*
X446182Y12250D01*
X448241Y14008D01*
X450549Y15422D01*
X453049Y16458D01*
X455682Y17090D01*
X458380Y17302D01*
X461078Y17090D01*
X463711Y16458D01*
X466211Y15422D01*
X468519Y14008D01*
X470578Y12250D01*
X472336Y10191D01*
X473750Y7883D01*
X474786Y5383D01*
X475418Y2750D01*
X475632Y32D01*
X475634Y26D01*
X475633Y19D01*
X475659Y-39D01*
X475681Y-98D01*
X475687Y-103D01*
X475690Y-109D01*
X475743Y-144D01*
X475793Y-182D01*
X475801Y-182D01*
X475807Y-186D01*
X475880Y-197D01*
X485880Y-197D01*
X485905Y-190D01*
X485931Y-192D01*
X485971Y-171D01*
X486014Y-158D01*
X486031Y-138D01*
X486054Y-126D01*
X486076Y-87D01*
X486106Y-53D01*
X486110Y-27D01*
X486123Y-4D01*
X486129Y70D01*
X485849Y3983D01*
X485845Y3993D01*
X485844Y4019D01*
X485010Y7853D01*
X485005Y7861D01*
X485000Y7887D01*
X483628Y11563D01*
X483623Y11571D01*
X483614Y11595D01*
X481733Y15039D01*
X481726Y15046D01*
X481714Y15069D01*
X479363Y18210D01*
X479355Y18216D01*
X479339Y18237D01*
X476565Y21011D01*
X476556Y21016D01*
X476538Y21035D01*
X473397Y23386D01*
X473388Y23389D01*
X473367Y23405D01*
X469923Y25286D01*
X469914Y25288D01*
X469891Y25300D01*
X466215Y26672D01*
X466205Y26672D01*
X466181Y26682D01*
X462347Y27516D01*
X462337Y27515D01*
X462311Y27521D01*
X458398Y27801D01*
X458388Y27799D01*
X458362Y27801D01*
X454449Y27521D01*
X454439Y27517D01*
X454413Y27516D01*
X450579Y26682D01*
X450571Y26677D01*
X450545Y26672D01*
X446869Y25300D01*
X446861Y25295D01*
X446837Y25286D01*
X443393Y23405D01*
X443386Y23398D01*
X443363Y23386D01*
X440222Y21035D01*
X440216Y21027D01*
X440195Y21011D01*
X437421Y18237D01*
X437416Y18228D01*
X437397Y18210D01*
X435046Y15069D01*
X435043Y15060D01*
X435027Y15039D01*
X433146Y11595D01*
X433144Y11586D01*
X433132Y11563D01*
X431760Y7887D01*
X431760Y7877D01*
X431750Y7853D01*
X430916Y4019D01*
X430917Y4009D01*
X430911Y3983D01*
X430631Y70D01*
X430637Y44D01*
X430633Y19D01*
X430651Y-23D01*
X430661Y-67D01*
X430679Y-85D01*
X430690Y-109D01*
X430728Y-134D01*
X430759Y-166D01*
X430785Y-172D01*
X430807Y-186D01*
X430880Y-197D01*
X440880Y-197D01*
X440887Y-195D01*
G37*
G36*
X624805Y103194D02*
X624805Y103194D01*
X624808Y103191D01*
X626075Y103396D01*
X626081Y103402D01*
X626086Y103399D01*
X627275Y103881D01*
X627279Y103888D01*
X627285Y103886D01*
X628338Y104620D01*
X628340Y104628D01*
X628346Y104627D01*
X629209Y105577D01*
X629210Y105586D01*
X629215Y105586D01*
X629845Y106705D01*
X629844Y106713D01*
X629850Y106715D01*
X630215Y107945D01*
X630212Y107952D01*
X630216Y107955D01*
X630215Y107955D01*
X630217Y107956D01*
X630299Y109237D01*
X630297Y109241D01*
X630299Y109243D01*
X630217Y110524D01*
X630211Y110530D01*
X630215Y110535D01*
X629850Y111765D01*
X629843Y111770D01*
X629845Y111775D01*
X629215Y112894D01*
X629208Y112897D01*
X629209Y112903D01*
X628346Y113853D01*
X628338Y113854D01*
X628338Y113860D01*
X627285Y114594D01*
X627277Y114594D01*
X627275Y114599D01*
X626086Y115081D01*
X626078Y115079D01*
X626075Y115084D01*
X624808Y115289D01*
X624803Y115286D01*
X624800Y115289D01*
X612800Y115289D01*
X612796Y115286D01*
X612793Y115289D01*
X611671Y115134D01*
X611666Y115129D01*
X611662Y115132D01*
X610591Y114761D01*
X610587Y114755D01*
X610582Y114757D01*
X609605Y114184D01*
X609602Y114178D01*
X609597Y114179D01*
X608750Y113426D01*
X608748Y113419D01*
X608743Y113419D01*
X608059Y112516D01*
X608059Y112509D01*
X608054Y112508D01*
X607559Y111489D01*
X607561Y111482D01*
X607559Y111481D01*
X607556Y111480D01*
X607269Y110383D01*
X607272Y110377D01*
X607268Y110374D01*
X607201Y109243D01*
X607203Y109239D01*
X607201Y109237D01*
X607268Y108106D01*
X607273Y108101D01*
X607269Y108097D01*
X607556Y107000D01*
X607562Y106996D01*
X607559Y106991D01*
X608054Y105972D01*
X608060Y105969D01*
X608059Y105964D01*
X608743Y105061D01*
X608750Y105059D01*
X608750Y105054D01*
X609597Y104301D01*
X609604Y104301D01*
X609605Y104296D01*
X610582Y103723D01*
X610589Y103724D01*
X610591Y103719D01*
X611662Y103348D01*
X611668Y103351D01*
X611671Y103346D01*
X612793Y103191D01*
X612798Y103194D01*
X612800Y103191D01*
X624800Y103191D01*
X624805Y103194D01*
G37*
G36*
X624805Y16794D02*
X624805Y16794D01*
X624808Y16791D01*
X626075Y16996D01*
X626081Y17002D01*
X626086Y16999D01*
X627275Y17481D01*
X627279Y17488D01*
X627285Y17486D01*
X628338Y18220D01*
X628340Y18228D01*
X628346Y18227D01*
X629209Y19177D01*
X629210Y19186D01*
X629215Y19186D01*
X629845Y20305D01*
X629844Y20313D01*
X629850Y20315D01*
X630215Y21545D01*
X630212Y21552D01*
X630216Y21555D01*
X630215Y21555D01*
X630217Y21556D01*
X630299Y22837D01*
X630297Y22841D01*
X630299Y22843D01*
X630217Y24124D01*
X630211Y24130D01*
X630215Y24135D01*
X629850Y25365D01*
X629843Y25370D01*
X629845Y25375D01*
X629215Y26494D01*
X629208Y26497D01*
X629209Y26503D01*
X628346Y27453D01*
X628338Y27454D01*
X628338Y27460D01*
X627285Y28194D01*
X627277Y28194D01*
X627275Y28199D01*
X626086Y28681D01*
X626078Y28679D01*
X626075Y28684D01*
X624808Y28889D01*
X624803Y28886D01*
X624800Y28889D01*
X612800Y28889D01*
X612796Y28886D01*
X612793Y28889D01*
X611671Y28734D01*
X611666Y28729D01*
X611662Y28732D01*
X610591Y28361D01*
X610587Y28355D01*
X610582Y28357D01*
X609605Y27784D01*
X609602Y27778D01*
X609597Y27779D01*
X608750Y27026D01*
X608748Y27019D01*
X608743Y27019D01*
X608059Y26116D01*
X608059Y26109D01*
X608054Y26108D01*
X607559Y25089D01*
X607561Y25082D01*
X607559Y25081D01*
X607556Y25080D01*
X607269Y23983D01*
X607272Y23977D01*
X607268Y23974D01*
X607201Y22843D01*
X607203Y22839D01*
X607201Y22837D01*
X607268Y21706D01*
X607273Y21701D01*
X607269Y21697D01*
X607556Y20600D01*
X607562Y20596D01*
X607559Y20591D01*
X608054Y19572D01*
X608060Y19569D01*
X608059Y19564D01*
X608743Y18661D01*
X608750Y18659D01*
X608750Y18654D01*
X609597Y17901D01*
X609604Y17901D01*
X609605Y17896D01*
X610582Y17323D01*
X610589Y17324D01*
X610591Y17319D01*
X611662Y16948D01*
X611668Y16951D01*
X611671Y16946D01*
X612793Y16791D01*
X612798Y16794D01*
X612800Y16791D01*
X624800Y16791D01*
X624805Y16794D01*
G37*
G36*
X663604Y103193D02*
X663604Y103193D01*
X663606Y103191D01*
X664935Y103346D01*
X664941Y103352D01*
X664945Y103349D01*
X666206Y103796D01*
X666211Y103803D01*
X666216Y103801D01*
X667346Y104518D01*
X667349Y104525D01*
X667355Y104524D01*
X668297Y105475D01*
X668298Y105483D01*
X668304Y105483D01*
X669011Y106619D01*
X669011Y106624D01*
X669012Y106625D01*
X669011Y106627D01*
X669016Y106629D01*
X669452Y107894D01*
X669450Y107902D01*
X669455Y107905D01*
X669599Y109235D01*
X669595Y109241D01*
X669599Y109245D01*
X669489Y110411D01*
X669484Y110416D01*
X669487Y110420D01*
X669152Y111543D01*
X669146Y111547D01*
X669148Y111551D01*
X668600Y112587D01*
X668594Y112590D01*
X668595Y112595D01*
X667856Y113503D01*
X667849Y113505D01*
X667849Y113510D01*
X666947Y114257D01*
X666940Y114257D01*
X666939Y114263D01*
X665908Y114819D01*
X665901Y114818D01*
X665899Y114823D01*
X664780Y115167D01*
X664773Y115165D01*
X664770Y115169D01*
X663605Y115289D01*
X663602Y115287D01*
X663600Y115289D01*
X657600Y115289D01*
X657597Y115287D01*
X657595Y115289D01*
X656419Y115178D01*
X656414Y115173D01*
X656410Y115176D01*
X655278Y114838D01*
X655274Y114832D01*
X655269Y114834D01*
X654225Y114282D01*
X654222Y114275D01*
X654217Y114277D01*
X653301Y113531D01*
X653300Y113524D01*
X653294Y113524D01*
X652541Y112615D01*
X652541Y112607D01*
X652536Y112607D01*
X651975Y111567D01*
X651976Y111560D01*
X651971Y111558D01*
X651624Y110429D01*
X651626Y110423D01*
X651622Y110420D01*
X651501Y109245D01*
X651505Y109238D01*
X651501Y109234D01*
X651658Y107894D01*
X651663Y107888D01*
X651660Y107883D01*
X652111Y106612D01*
X652118Y106607D01*
X652116Y106602D01*
X652838Y105463D01*
X652846Y105460D01*
X652845Y105454D01*
X653803Y104504D01*
X653811Y104503D01*
X653812Y104497D01*
X654957Y103784D01*
X654966Y103785D01*
X654967Y103779D01*
X656243Y103339D01*
X656250Y103341D01*
X656252Y103339D01*
X656253Y103337D01*
X657595Y103191D01*
X657598Y103193D01*
X657600Y103191D01*
X663600Y103191D01*
X663604Y103193D01*
G37*
G36*
X663604Y16793D02*
X663604Y16793D01*
X663606Y16791D01*
X664935Y16946D01*
X664941Y16952D01*
X664945Y16949D01*
X666206Y17396D01*
X666211Y17403D01*
X666216Y17401D01*
X667346Y18118D01*
X667349Y18125D01*
X667355Y18124D01*
X668297Y19075D01*
X668298Y19083D01*
X668304Y19083D01*
X669011Y20219D01*
X669011Y20224D01*
X669012Y20225D01*
X669011Y20227D01*
X669016Y20229D01*
X669452Y21494D01*
X669450Y21502D01*
X669455Y21505D01*
X669599Y22835D01*
X669595Y22841D01*
X669599Y22845D01*
X669489Y24011D01*
X669484Y24016D01*
X669487Y24020D01*
X669152Y25143D01*
X669146Y25147D01*
X669148Y25151D01*
X668600Y26187D01*
X668594Y26190D01*
X668595Y26195D01*
X667856Y27103D01*
X667849Y27105D01*
X667849Y27110D01*
X666947Y27857D01*
X666940Y27857D01*
X666939Y27863D01*
X665908Y28419D01*
X665901Y28418D01*
X665899Y28423D01*
X664780Y28767D01*
X664773Y28765D01*
X664770Y28769D01*
X663605Y28889D01*
X663602Y28887D01*
X663600Y28889D01*
X657600Y28889D01*
X657597Y28887D01*
X657595Y28889D01*
X656419Y28778D01*
X656414Y28773D01*
X656410Y28776D01*
X655278Y28438D01*
X655274Y28432D01*
X655269Y28434D01*
X654225Y27882D01*
X654222Y27875D01*
X654217Y27877D01*
X653301Y27131D01*
X653300Y27124D01*
X653294Y27124D01*
X652541Y26215D01*
X652541Y26207D01*
X652536Y26207D01*
X651975Y25167D01*
X651976Y25160D01*
X651971Y25158D01*
X651624Y24029D01*
X651626Y24023D01*
X651622Y24020D01*
X651501Y22845D01*
X651505Y22838D01*
X651501Y22834D01*
X651658Y21494D01*
X651663Y21488D01*
X651660Y21483D01*
X652111Y20212D01*
X652118Y20207D01*
X652116Y20202D01*
X652838Y19063D01*
X652846Y19060D01*
X652845Y19054D01*
X653803Y18104D01*
X653811Y18103D01*
X653812Y18097D01*
X654957Y17384D01*
X654966Y17385D01*
X654967Y17379D01*
X656243Y16939D01*
X656250Y16941D01*
X656252Y16939D01*
X656253Y16937D01*
X657595Y16791D01*
X657598Y16793D01*
X657600Y16791D01*
X663600Y16791D01*
X663604Y16793D01*
G37*
D10*
X50800Y241300D03*
X593852Y22352D03*
D11*
X421277Y198152D02*
X416261Y198152D01*
X416261Y203168D01*
X421277Y203168D01*
X421277Y198152D01*
X421277Y200293D02*
X416261Y200293D01*
X416261Y202434D02*
X421277Y202434D01*
X426261Y198152D02*
X431277Y198152D01*
X426261Y198152D02*
X426261Y203168D01*
X431277Y203168D01*
X431277Y198152D01*
X431277Y200293D02*
X426261Y200293D01*
X426261Y202434D02*
X431277Y202434D01*
X431277Y166338D02*
X426261Y166338D01*
X431277Y166338D02*
X431277Y161322D01*
X426261Y161322D01*
X426261Y166338D01*
X426261Y163463D02*
X431277Y163463D01*
X431277Y165604D02*
X426261Y165604D01*
X421277Y166338D02*
X416261Y166338D01*
X421277Y166338D02*
X421277Y161322D01*
X416261Y161322D01*
X416261Y166338D01*
X416261Y163463D02*
X421277Y163463D01*
X421277Y165604D02*
X416261Y165604D01*
D12*
X430287Y175398D02*
X430287Y177362D01*
X435851Y177362D01*
X435851Y175398D01*
X430287Y175398D01*
X417451Y181898D02*
X417451Y183862D01*
X417451Y181898D02*
X411887Y181898D01*
X411887Y183862D01*
X417451Y183862D01*
X417451Y188398D02*
X417451Y190362D01*
X417451Y188398D02*
X411887Y188398D01*
X411887Y190362D01*
X417451Y190362D01*
X417451Y177362D02*
X417451Y175398D01*
X411887Y175398D01*
X411887Y177362D01*
X417451Y177362D01*
X430287Y181898D02*
X430287Y183862D01*
X435851Y183862D01*
X435851Y181898D01*
X430287Y181898D01*
X430287Y188398D02*
X430287Y190362D01*
X435851Y190362D01*
X435851Y188398D01*
X430287Y188398D01*
D11*
X153702Y220932D02*
X153702Y225948D01*
X158718Y225948D01*
X158718Y220932D01*
X153702Y220932D01*
X153702Y223073D02*
X158718Y223073D01*
X158718Y225214D02*
X153702Y225214D01*
X153702Y215948D02*
X153702Y210932D01*
X153702Y215948D02*
X158718Y215948D01*
X158718Y210932D01*
X153702Y210932D01*
X153702Y213073D02*
X158718Y213073D01*
X158718Y215214D02*
X153702Y215214D01*
X148558Y215948D02*
X148558Y210932D01*
X143542Y210932D01*
X143542Y215948D01*
X148558Y215948D01*
X148558Y213073D02*
X143542Y213073D01*
X143542Y215214D02*
X148558Y215214D01*
X148558Y220932D02*
X148558Y225948D01*
X148558Y220932D02*
X143542Y220932D01*
X143542Y225948D01*
X148558Y225948D01*
X148558Y223073D02*
X143542Y223073D01*
X143542Y225214D02*
X148558Y225214D01*
D13*
X98321Y225128D02*
X98321Y220592D01*
X98321Y225128D02*
X109357Y225128D01*
X109357Y220592D01*
X98321Y220592D01*
X98321Y222714D02*
X109357Y222714D01*
X109357Y224836D02*
X98321Y224836D01*
X98321Y215628D02*
X98321Y211092D01*
X98321Y215628D02*
X109357Y215628D01*
X109357Y211092D01*
X98321Y211092D01*
X98321Y213214D02*
X109357Y213214D01*
X109357Y215336D02*
X98321Y215336D01*
X98321Y206128D02*
X98321Y201592D01*
X98321Y206128D02*
X109357Y206128D01*
X109357Y201592D01*
X98321Y201592D01*
X98321Y203714D02*
X109357Y203714D01*
X109357Y205836D02*
X98321Y205836D01*
X124323Y206128D02*
X124323Y201592D01*
X124323Y206128D02*
X135359Y206128D01*
X135359Y201592D01*
X124323Y201592D01*
X124323Y203714D02*
X135359Y203714D01*
X135359Y205836D02*
X124323Y205836D01*
X124323Y220592D02*
X124323Y225128D01*
X135359Y225128D01*
X135359Y220592D01*
X124323Y220592D01*
X124323Y222714D02*
X135359Y222714D01*
X135359Y224836D02*
X124323Y224836D01*
D11*
X86392Y224678D02*
X86392Y219662D01*
X86392Y224678D02*
X91408Y224678D01*
X91408Y219662D01*
X86392Y219662D01*
X86392Y221803D02*
X91408Y221803D01*
X91408Y223944D02*
X86392Y223944D01*
X86392Y214678D02*
X86392Y209662D01*
X86392Y214678D02*
X91408Y214678D01*
X91408Y209662D01*
X86392Y209662D01*
X86392Y211803D02*
X91408Y211803D01*
X91408Y213944D02*
X86392Y213944D01*
D14*
X98558Y242772D02*
X106082Y242772D01*
X106082Y234748D01*
X98558Y234748D01*
X98558Y242772D01*
X98558Y236883D02*
X106082Y236883D01*
X106082Y239018D02*
X98558Y239018D01*
X98558Y241153D02*
X106082Y241153D01*
X94482Y242772D02*
X86958Y242772D01*
X94482Y242772D02*
X94482Y234748D01*
X86958Y234748D01*
X86958Y242772D01*
X86958Y236883D02*
X94482Y236883D01*
X94482Y239018D02*
X86958Y239018D01*
X86958Y241153D02*
X94482Y241153D01*
D15*
X19490Y35740D02*
X19490Y33260D01*
X6010Y33260D01*
X6010Y35740D01*
X19490Y35740D01*
X19490Y35435D02*
X6010Y35435D01*
X19490Y38260D02*
X19490Y40740D01*
X19490Y38260D02*
X6010Y38260D01*
X6010Y40740D01*
X19490Y40740D01*
X19490Y40435D02*
X6010Y40435D01*
X19490Y43260D02*
X19490Y45740D01*
X19490Y43260D02*
X6010Y43260D01*
X6010Y45740D01*
X19490Y45740D01*
X19490Y45435D02*
X6010Y45435D01*
X19490Y48260D02*
X19490Y50740D01*
X19490Y48260D02*
X6010Y48260D01*
X6010Y50740D01*
X19490Y50740D01*
X19490Y50435D02*
X6010Y50435D01*
X19490Y53260D02*
X19490Y55740D01*
X19490Y53260D02*
X6010Y53260D01*
X6010Y55740D01*
X19490Y55740D01*
X19490Y55435D02*
X6010Y55435D01*
X19490Y58260D02*
X19490Y60740D01*
X19490Y58260D02*
X6010Y58260D01*
X6010Y60740D01*
X19490Y60740D01*
X19490Y60435D02*
X6010Y60435D01*
X19490Y63260D02*
X19490Y65740D01*
X19490Y63260D02*
X6010Y63260D01*
X6010Y65740D01*
X19490Y65740D01*
X19490Y65435D02*
X6010Y65435D01*
X19490Y68260D02*
X19490Y70740D01*
X19490Y68260D02*
X6010Y68260D01*
X6010Y70740D01*
X19490Y70740D01*
X19490Y70435D02*
X6010Y70435D01*
X19490Y73260D02*
X19490Y75740D01*
X19490Y73260D02*
X6010Y73260D01*
X6010Y75740D01*
X19490Y75740D01*
X19490Y75435D02*
X6010Y75435D01*
X19490Y78260D02*
X19490Y80740D01*
X19490Y78260D02*
X6010Y78260D01*
X6010Y80740D01*
X19490Y80740D01*
X19490Y80435D02*
X6010Y80435D01*
X19490Y83260D02*
X19490Y85740D01*
X19490Y83260D02*
X6010Y83260D01*
X6010Y85740D01*
X19490Y85740D01*
X19490Y85435D02*
X6010Y85435D01*
X19490Y88260D02*
X19490Y90740D01*
X19490Y88260D02*
X6010Y88260D01*
X6010Y90740D01*
X19490Y90740D01*
X19490Y90435D02*
X6010Y90435D01*
X19490Y113260D02*
X19490Y115740D01*
X19490Y113260D02*
X6010Y113260D01*
X6010Y115740D01*
X19490Y115740D01*
X19490Y115435D02*
X6010Y115435D01*
X19490Y118260D02*
X19490Y120740D01*
X19490Y118260D02*
X6010Y118260D01*
X6010Y120740D01*
X19490Y120740D01*
X19490Y120435D02*
X6010Y120435D01*
X19490Y123260D02*
X19490Y125740D01*
X19490Y123260D02*
X6010Y123260D01*
X6010Y125740D01*
X19490Y125740D01*
X19490Y125435D02*
X6010Y125435D01*
X19490Y128260D02*
X19490Y130740D01*
X19490Y128260D02*
X6010Y128260D01*
X6010Y130740D01*
X19490Y130740D01*
X19490Y130435D02*
X6010Y130435D01*
X19490Y133260D02*
X19490Y135740D01*
X19490Y133260D02*
X6010Y133260D01*
X6010Y135740D01*
X19490Y135740D01*
X19490Y135435D02*
X6010Y135435D01*
X19490Y138260D02*
X19490Y140740D01*
X19490Y138260D02*
X6010Y138260D01*
X6010Y140740D01*
X19490Y140740D01*
X19490Y140435D02*
X6010Y140435D01*
X19490Y143260D02*
X19490Y145740D01*
X19490Y143260D02*
X6010Y143260D01*
X6010Y145740D01*
X19490Y145740D01*
X19490Y145435D02*
X6010Y145435D01*
X19490Y148260D02*
X19490Y150740D01*
X19490Y148260D02*
X6010Y148260D01*
X6010Y150740D01*
X19490Y150740D01*
X19490Y150435D02*
X6010Y150435D01*
X19490Y153260D02*
X19490Y155740D01*
X19490Y153260D02*
X6010Y153260D01*
X6010Y155740D01*
X19490Y155740D01*
X19490Y155435D02*
X6010Y155435D01*
X19490Y158260D02*
X19490Y160740D01*
X19490Y158260D02*
X6010Y158260D01*
X6010Y160740D01*
X19490Y160740D01*
X19490Y160435D02*
X6010Y160435D01*
X19490Y163260D02*
X19490Y165740D01*
X19490Y163260D02*
X6010Y163260D01*
X6010Y165740D01*
X19490Y165740D01*
X19490Y165435D02*
X6010Y165435D01*
X19490Y168260D02*
X19490Y170740D01*
X19490Y168260D02*
X6010Y168260D01*
X6010Y170740D01*
X19490Y170740D01*
X19490Y170435D02*
X6010Y170435D01*
X19490Y173260D02*
X19490Y175740D01*
X19490Y173260D02*
X6010Y173260D01*
X6010Y175740D01*
X19490Y175740D01*
X19490Y175435D02*
X6010Y175435D01*
X19490Y178260D02*
X19490Y180740D01*
X19490Y178260D02*
X6010Y178260D01*
X6010Y180740D01*
X19490Y180740D01*
X19490Y180435D02*
X6010Y180435D01*
X19490Y183260D02*
X19490Y185740D01*
X19490Y183260D02*
X6010Y183260D01*
X6010Y185740D01*
X19490Y185740D01*
X19490Y185435D02*
X6010Y185435D01*
X19490Y188260D02*
X19490Y190740D01*
X19490Y188260D02*
X6010Y188260D01*
X6010Y190740D01*
X19490Y190740D01*
X19490Y190435D02*
X6010Y190435D01*
X19490Y193260D02*
X19490Y195740D01*
X19490Y193260D02*
X6010Y193260D01*
X6010Y195740D01*
X19490Y195740D01*
X19490Y195435D02*
X6010Y195435D01*
X19490Y198260D02*
X19490Y200740D01*
X19490Y198260D02*
X6010Y198260D01*
X6010Y200740D01*
X19490Y200740D01*
X19490Y200435D02*
X6010Y200435D01*
X19490Y203260D02*
X19490Y205740D01*
X19490Y203260D02*
X6010Y203260D01*
X6010Y205740D01*
X19490Y205740D01*
X19490Y205435D02*
X6010Y205435D01*
X19490Y208260D02*
X19490Y210740D01*
X19490Y208260D02*
X6010Y208260D01*
X6010Y210740D01*
X19490Y210740D01*
X19490Y210435D02*
X6010Y210435D01*
X19490Y213260D02*
X19490Y215740D01*
X19490Y213260D02*
X6010Y213260D01*
X6010Y215740D01*
X19490Y215740D01*
X19490Y215435D02*
X6010Y215435D01*
X19490Y218260D02*
X19490Y220740D01*
X19490Y218260D02*
X6010Y218260D01*
X6010Y220740D01*
X19490Y220740D01*
X19490Y220435D02*
X6010Y220435D01*
D16*
X479380Y10052D03*
X437380Y10052D03*
X458380Y23052D03*
X437320Y243948D03*
X479320Y243948D03*
X458320Y230948D03*
D11*
X360728Y228632D02*
X355712Y228632D01*
X355712Y233648D01*
X360728Y233648D01*
X360728Y228632D01*
X360728Y230773D02*
X355712Y230773D01*
X355712Y232914D02*
X360728Y232914D01*
X365712Y228632D02*
X370728Y228632D01*
X365712Y228632D02*
X365712Y233648D01*
X370728Y233648D01*
X370728Y228632D01*
X370728Y230773D02*
X365712Y230773D01*
X365712Y232914D02*
X370728Y232914D01*
D17*
X376524Y199834D02*
X384536Y199834D01*
X376524Y199834D02*
X376524Y213846D01*
X384536Y213846D01*
X384536Y199834D01*
X384536Y201980D02*
X376524Y201980D01*
X376524Y204126D02*
X384536Y204126D01*
X384536Y206272D02*
X376524Y206272D01*
X376524Y208418D02*
X384536Y208418D01*
X384536Y210564D02*
X376524Y210564D01*
X376524Y212710D02*
X384536Y212710D01*
X371836Y199834D02*
X363824Y199834D01*
X363824Y213846D01*
X371836Y213846D01*
X371836Y199834D01*
X371836Y201980D02*
X363824Y201980D01*
X363824Y204126D02*
X371836Y204126D01*
X371836Y206272D02*
X363824Y206272D01*
X363824Y208418D02*
X371836Y208418D01*
X371836Y210564D02*
X363824Y210564D01*
X363824Y212710D02*
X371836Y212710D01*
X359136Y199834D02*
X351124Y199834D01*
X351124Y213846D01*
X359136Y213846D01*
X359136Y199834D01*
X359136Y201980D02*
X351124Y201980D01*
X351124Y204126D02*
X359136Y204126D01*
X359136Y206272D02*
X351124Y206272D01*
X351124Y208418D02*
X359136Y208418D01*
X359136Y210564D02*
X351124Y210564D01*
X351124Y212710D02*
X359136Y212710D01*
X346436Y199834D02*
X338424Y199834D01*
X338424Y213846D01*
X346436Y213846D01*
X346436Y199834D01*
X346436Y201980D02*
X338424Y201980D01*
X338424Y204126D02*
X346436Y204126D01*
X346436Y206272D02*
X338424Y206272D01*
X338424Y208418D02*
X346436Y208418D01*
X346436Y210564D02*
X338424Y210564D01*
X338424Y212710D02*
X346436Y212710D01*
X333736Y199834D02*
X325724Y199834D01*
X325724Y213846D01*
X333736Y213846D01*
X333736Y199834D01*
X333736Y201980D02*
X325724Y201980D01*
X325724Y204126D02*
X333736Y204126D01*
X333736Y206272D02*
X325724Y206272D01*
X325724Y208418D02*
X333736Y208418D01*
X333736Y210564D02*
X325724Y210564D01*
X325724Y212710D02*
X333736Y212710D01*
X321036Y199834D02*
X313024Y199834D01*
X313024Y213846D01*
X321036Y213846D01*
X321036Y199834D01*
X321036Y201980D02*
X313024Y201980D01*
X313024Y204126D02*
X321036Y204126D01*
X321036Y206272D02*
X313024Y206272D01*
X313024Y208418D02*
X321036Y208418D01*
X321036Y210564D02*
X313024Y210564D01*
X313024Y212710D02*
X321036Y212710D01*
X308336Y199834D02*
X300324Y199834D01*
X300324Y213846D01*
X308336Y213846D01*
X308336Y199834D01*
X308336Y201980D02*
X300324Y201980D01*
X300324Y204126D02*
X308336Y204126D01*
X308336Y206272D02*
X300324Y206272D01*
X300324Y208418D02*
X308336Y208418D01*
X308336Y210564D02*
X300324Y210564D01*
X300324Y212710D02*
X308336Y212710D01*
X295636Y199834D02*
X287624Y199834D01*
X287624Y213846D01*
X295636Y213846D01*
X295636Y199834D01*
X295636Y201980D02*
X287624Y201980D01*
X287624Y204126D02*
X295636Y204126D01*
X295636Y206272D02*
X287624Y206272D01*
X287624Y208418D02*
X295636Y208418D01*
X295636Y210564D02*
X287624Y210564D01*
X287624Y212710D02*
X295636Y212710D01*
X282936Y199834D02*
X274924Y199834D01*
X274924Y213846D01*
X282936Y213846D01*
X282936Y199834D01*
X282936Y201980D02*
X274924Y201980D01*
X274924Y204126D02*
X282936Y204126D01*
X282936Y206272D02*
X274924Y206272D01*
X274924Y208418D02*
X282936Y208418D01*
X282936Y210564D02*
X274924Y210564D01*
X274924Y212710D02*
X282936Y212710D01*
X270236Y199834D02*
X262224Y199834D01*
X262224Y213846D01*
X270236Y213846D01*
X270236Y199834D01*
X270236Y201980D02*
X262224Y201980D01*
X262224Y204126D02*
X270236Y204126D01*
X270236Y206272D02*
X262224Y206272D01*
X262224Y208418D02*
X270236Y208418D01*
X270236Y210564D02*
X262224Y210564D01*
X262224Y212710D02*
X270236Y212710D01*
X257536Y199834D02*
X249524Y199834D01*
X249524Y213846D01*
X257536Y213846D01*
X257536Y199834D01*
X257536Y201980D02*
X249524Y201980D01*
X249524Y204126D02*
X257536Y204126D01*
X257536Y206272D02*
X249524Y206272D01*
X249524Y208418D02*
X257536Y208418D01*
X257536Y210564D02*
X249524Y210564D01*
X249524Y212710D02*
X257536Y212710D01*
X244836Y199834D02*
X236824Y199834D01*
X236824Y213846D01*
X244836Y213846D01*
X244836Y199834D01*
X244836Y201980D02*
X236824Y201980D01*
X236824Y204126D02*
X244836Y204126D01*
X244836Y206272D02*
X236824Y206272D01*
X236824Y208418D02*
X244836Y208418D01*
X244836Y210564D02*
X236824Y210564D01*
X236824Y212710D02*
X244836Y212710D01*
X232136Y199834D02*
X224124Y199834D01*
X224124Y213846D01*
X232136Y213846D01*
X232136Y199834D01*
X232136Y201980D02*
X224124Y201980D01*
X224124Y204126D02*
X232136Y204126D01*
X232136Y206272D02*
X224124Y206272D01*
X224124Y208418D02*
X232136Y208418D01*
X232136Y210564D02*
X224124Y210564D01*
X224124Y212710D02*
X232136Y212710D01*
X219436Y199834D02*
X211424Y199834D01*
X211424Y213846D01*
X219436Y213846D01*
X219436Y199834D01*
X219436Y201980D02*
X211424Y201980D01*
X211424Y204126D02*
X219436Y204126D01*
X219436Y206272D02*
X211424Y206272D01*
X211424Y208418D02*
X219436Y208418D01*
X219436Y210564D02*
X211424Y210564D01*
X211424Y212710D02*
X219436Y212710D01*
X207536Y185616D02*
X207536Y177604D01*
X193524Y177604D01*
X193524Y185616D01*
X207536Y185616D01*
X207536Y179750D02*
X193524Y179750D01*
X193524Y181896D02*
X207536Y181896D01*
X207536Y184042D02*
X193524Y184042D01*
X207536Y172916D02*
X207536Y164904D01*
X193524Y164904D01*
X193524Y172916D01*
X207536Y172916D01*
X207536Y167050D02*
X193524Y167050D01*
X193524Y169196D02*
X207536Y169196D01*
X207536Y171342D02*
X193524Y171342D01*
X207536Y160216D02*
X207536Y152204D01*
X193524Y152204D01*
X193524Y160216D01*
X207536Y160216D01*
X207536Y154350D02*
X193524Y154350D01*
X193524Y156496D02*
X207536Y156496D01*
X207536Y158642D02*
X193524Y158642D01*
X207536Y147516D02*
X207536Y139504D01*
X193524Y139504D01*
X193524Y147516D01*
X207536Y147516D01*
X207536Y141650D02*
X193524Y141650D01*
X193524Y143796D02*
X207536Y143796D01*
X207536Y145942D02*
X193524Y145942D01*
X207536Y134816D02*
X207536Y126804D01*
X193524Y126804D01*
X193524Y134816D01*
X207536Y134816D01*
X207536Y128950D02*
X193524Y128950D01*
X193524Y131096D02*
X207536Y131096D01*
X207536Y133242D02*
X193524Y133242D01*
X207536Y122116D02*
X207536Y114104D01*
X193524Y114104D01*
X193524Y122116D01*
X207536Y122116D01*
X207536Y116250D02*
X193524Y116250D01*
X193524Y118396D02*
X207536Y118396D01*
X207536Y120542D02*
X193524Y120542D01*
X207536Y109416D02*
X207536Y101404D01*
X193524Y101404D01*
X193524Y109416D01*
X207536Y109416D01*
X207536Y103550D02*
X193524Y103550D01*
X193524Y105696D02*
X207536Y105696D01*
X207536Y107842D02*
X193524Y107842D01*
X207536Y96716D02*
X207536Y88704D01*
X193524Y88704D01*
X193524Y96716D01*
X207536Y96716D01*
X207536Y90850D02*
X193524Y90850D01*
X193524Y92996D02*
X207536Y92996D01*
X207536Y95142D02*
X193524Y95142D01*
X207536Y84016D02*
X207536Y76004D01*
X193524Y76004D01*
X193524Y84016D01*
X207536Y84016D01*
X207536Y78150D02*
X193524Y78150D01*
X193524Y80296D02*
X207536Y80296D01*
X207536Y82442D02*
X193524Y82442D01*
X207536Y71316D02*
X207536Y63304D01*
X193524Y63304D01*
X193524Y71316D01*
X207536Y71316D01*
X207536Y65450D02*
X193524Y65450D01*
X193524Y67596D02*
X207536Y67596D01*
X207536Y69742D02*
X193524Y69742D01*
X211424Y35074D02*
X219436Y35074D01*
X211424Y35074D02*
X211424Y49086D01*
X219436Y49086D01*
X219436Y35074D01*
X219436Y37220D02*
X211424Y37220D01*
X211424Y39366D02*
X219436Y39366D01*
X219436Y41512D02*
X211424Y41512D01*
X211424Y43658D02*
X219436Y43658D01*
X219436Y45804D02*
X211424Y45804D01*
X211424Y47950D02*
X219436Y47950D01*
X224124Y35074D02*
X232136Y35074D01*
X224124Y35074D02*
X224124Y49086D01*
X232136Y49086D01*
X232136Y35074D01*
X232136Y37220D02*
X224124Y37220D01*
X224124Y39366D02*
X232136Y39366D01*
X232136Y41512D02*
X224124Y41512D01*
X224124Y43658D02*
X232136Y43658D01*
X232136Y45804D02*
X224124Y45804D01*
X224124Y47950D02*
X232136Y47950D01*
X236824Y35074D02*
X244836Y35074D01*
X236824Y35074D02*
X236824Y49086D01*
X244836Y49086D01*
X244836Y35074D01*
X244836Y37220D02*
X236824Y37220D01*
X236824Y39366D02*
X244836Y39366D01*
X244836Y41512D02*
X236824Y41512D01*
X236824Y43658D02*
X244836Y43658D01*
X244836Y45804D02*
X236824Y45804D01*
X236824Y47950D02*
X244836Y47950D01*
X249524Y35074D02*
X257536Y35074D01*
X249524Y35074D02*
X249524Y49086D01*
X257536Y49086D01*
X257536Y35074D01*
X257536Y37220D02*
X249524Y37220D01*
X249524Y39366D02*
X257536Y39366D01*
X257536Y41512D02*
X249524Y41512D01*
X249524Y43658D02*
X257536Y43658D01*
X257536Y45804D02*
X249524Y45804D01*
X249524Y47950D02*
X257536Y47950D01*
X262224Y35074D02*
X270236Y35074D01*
X262224Y35074D02*
X262224Y49086D01*
X270236Y49086D01*
X270236Y35074D01*
X270236Y37220D02*
X262224Y37220D01*
X262224Y39366D02*
X270236Y39366D01*
X270236Y41512D02*
X262224Y41512D01*
X262224Y43658D02*
X270236Y43658D01*
X270236Y45804D02*
X262224Y45804D01*
X262224Y47950D02*
X270236Y47950D01*
X274924Y35074D02*
X282936Y35074D01*
X274924Y35074D02*
X274924Y49086D01*
X282936Y49086D01*
X282936Y35074D01*
X282936Y37220D02*
X274924Y37220D01*
X274924Y39366D02*
X282936Y39366D01*
X282936Y41512D02*
X274924Y41512D01*
X274924Y43658D02*
X282936Y43658D01*
X282936Y45804D02*
X274924Y45804D01*
X274924Y47950D02*
X282936Y47950D01*
X287624Y35074D02*
X295636Y35074D01*
X287624Y35074D02*
X287624Y49086D01*
X295636Y49086D01*
X295636Y35074D01*
X295636Y37220D02*
X287624Y37220D01*
X287624Y39366D02*
X295636Y39366D01*
X295636Y41512D02*
X287624Y41512D01*
X287624Y43658D02*
X295636Y43658D01*
X295636Y45804D02*
X287624Y45804D01*
X287624Y47950D02*
X295636Y47950D01*
X300324Y35074D02*
X308336Y35074D01*
X300324Y35074D02*
X300324Y49086D01*
X308336Y49086D01*
X308336Y35074D01*
X308336Y37220D02*
X300324Y37220D01*
X300324Y39366D02*
X308336Y39366D01*
X308336Y41512D02*
X300324Y41512D01*
X300324Y43658D02*
X308336Y43658D01*
X308336Y45804D02*
X300324Y45804D01*
X300324Y47950D02*
X308336Y47950D01*
X313024Y35074D02*
X321036Y35074D01*
X313024Y35074D02*
X313024Y49086D01*
X321036Y49086D01*
X321036Y35074D01*
X321036Y37220D02*
X313024Y37220D01*
X313024Y39366D02*
X321036Y39366D01*
X321036Y41512D02*
X313024Y41512D01*
X313024Y43658D02*
X321036Y43658D01*
X321036Y45804D02*
X313024Y45804D01*
X313024Y47950D02*
X321036Y47950D01*
X325724Y35074D02*
X333736Y35074D01*
X325724Y35074D02*
X325724Y49086D01*
X333736Y49086D01*
X333736Y35074D01*
X333736Y37220D02*
X325724Y37220D01*
X325724Y39366D02*
X333736Y39366D01*
X333736Y41512D02*
X325724Y41512D01*
X325724Y43658D02*
X333736Y43658D01*
X333736Y45804D02*
X325724Y45804D01*
X325724Y47950D02*
X333736Y47950D01*
X338424Y35074D02*
X346436Y35074D01*
X338424Y35074D02*
X338424Y49086D01*
X346436Y49086D01*
X346436Y35074D01*
X346436Y37220D02*
X338424Y37220D01*
X338424Y39366D02*
X346436Y39366D01*
X346436Y41512D02*
X338424Y41512D01*
X338424Y43658D02*
X346436Y43658D01*
X346436Y45804D02*
X338424Y45804D01*
X338424Y47950D02*
X346436Y47950D01*
X351124Y35074D02*
X359136Y35074D01*
X351124Y35074D02*
X351124Y49086D01*
X359136Y49086D01*
X359136Y35074D01*
X359136Y37220D02*
X351124Y37220D01*
X351124Y39366D02*
X359136Y39366D01*
X359136Y41512D02*
X351124Y41512D01*
X351124Y43658D02*
X359136Y43658D01*
X359136Y45804D02*
X351124Y45804D01*
X351124Y47950D02*
X359136Y47950D01*
X363824Y35074D02*
X371836Y35074D01*
X363824Y35074D02*
X363824Y49086D01*
X371836Y49086D01*
X371836Y35074D01*
X371836Y37220D02*
X363824Y37220D01*
X363824Y39366D02*
X371836Y39366D01*
X371836Y41512D02*
X363824Y41512D01*
X363824Y43658D02*
X371836Y43658D01*
X371836Y45804D02*
X363824Y45804D01*
X363824Y47950D02*
X371836Y47950D01*
X376524Y35074D02*
X384536Y35074D01*
X376524Y35074D02*
X376524Y49086D01*
X384536Y49086D01*
X384536Y35074D01*
X384536Y37220D02*
X376524Y37220D01*
X376524Y39366D02*
X384536Y39366D01*
X384536Y41512D02*
X376524Y41512D01*
X376524Y43658D02*
X384536Y43658D01*
X384536Y45804D02*
X376524Y45804D01*
X376524Y47950D02*
X384536Y47950D01*
D18*
X311840Y128490D02*
X299600Y128490D01*
X299600Y140730D01*
X311840Y140730D01*
X311840Y128490D01*
X311840Y130704D02*
X299600Y130704D01*
X299600Y132918D02*
X311840Y132918D01*
X311840Y135132D02*
X299600Y135132D01*
X299600Y137346D02*
X311840Y137346D01*
X311840Y139560D02*
X299600Y139560D01*
X317810Y110040D02*
X330050Y110040D01*
X317810Y110040D02*
X317810Y122280D01*
X330050Y122280D01*
X330050Y110040D01*
X330050Y112254D02*
X317810Y112254D01*
X317810Y114468D02*
X330050Y114468D01*
X330050Y116682D02*
X317810Y116682D01*
X317810Y118896D02*
X330050Y118896D01*
X330050Y121110D02*
X317810Y121110D01*
X317810Y128340D02*
X330050Y128340D01*
X317810Y128340D02*
X317810Y140580D01*
X330050Y140580D01*
X330050Y128340D01*
X330050Y130554D02*
X317810Y130554D01*
X317810Y132768D02*
X330050Y132768D01*
X330050Y134982D02*
X317810Y134982D01*
X317810Y137196D02*
X330050Y137196D01*
X330050Y139410D02*
X317810Y139410D01*
X317810Y146640D02*
X330050Y146640D01*
X317810Y146640D02*
X317810Y158880D01*
X330050Y158880D01*
X330050Y146640D01*
X330050Y148854D02*
X317810Y148854D01*
X317810Y151068D02*
X330050Y151068D01*
X330050Y153282D02*
X317810Y153282D01*
X317810Y155496D02*
X330050Y155496D01*
X330050Y157710D02*
X317810Y157710D01*
X311750Y146640D02*
X299510Y146640D01*
X299510Y158880D01*
X311750Y158880D01*
X311750Y146640D01*
X311750Y148854D02*
X299510Y148854D01*
X299510Y151068D02*
X311750Y151068D01*
X311750Y153282D02*
X299510Y153282D01*
X299510Y155496D02*
X311750Y155496D01*
X311750Y157710D02*
X299510Y157710D01*
X299810Y109940D02*
X312050Y109940D01*
X299810Y109940D02*
X299810Y122180D01*
X312050Y122180D01*
X312050Y109940D01*
X312050Y112154D02*
X299810Y112154D01*
X299810Y114368D02*
X312050Y114368D01*
X312050Y116582D02*
X299810Y116582D01*
X299810Y118796D02*
X312050Y118796D01*
X312050Y121010D02*
X299810Y121010D01*
X293450Y110040D02*
X281210Y110040D01*
X281210Y122280D01*
X293450Y122280D01*
X293450Y110040D01*
X293450Y112254D02*
X281210Y112254D01*
X281210Y114468D02*
X293450Y114468D01*
X293450Y116682D02*
X281210Y116682D01*
X281210Y118896D02*
X293450Y118896D01*
X293450Y121110D02*
X281210Y121110D01*
X281110Y128340D02*
X293350Y128340D01*
X281110Y128340D02*
X281110Y140580D01*
X293350Y140580D01*
X293350Y128340D01*
X293350Y130554D02*
X281110Y130554D01*
X281110Y132768D02*
X293350Y132768D01*
X293350Y134982D02*
X281110Y134982D01*
X281110Y137196D02*
X293350Y137196D01*
X293350Y139410D02*
X281110Y139410D01*
X281210Y146640D02*
X293450Y146640D01*
X281210Y146640D02*
X281210Y158880D01*
X293450Y158880D01*
X293450Y146640D01*
X293450Y148854D02*
X281210Y148854D01*
X281210Y151068D02*
X293450Y151068D01*
X293450Y153282D02*
X281210Y153282D01*
X281210Y155496D02*
X293450Y155496D01*
X293450Y157710D02*
X281210Y157710D01*
D19*
X174784Y84296D02*
X168116Y84296D01*
X168116Y98584D01*
X174784Y98584D01*
X174784Y84296D01*
X174784Y86408D02*
X168116Y86408D01*
X168116Y88520D02*
X174784Y88520D01*
X174784Y90632D02*
X168116Y90632D01*
X168116Y92744D02*
X174784Y92744D01*
X174784Y94856D02*
X168116Y94856D01*
X168116Y96968D02*
X174784Y96968D01*
X174784Y28416D02*
X168116Y28416D01*
X168116Y42704D01*
X174784Y42704D01*
X174784Y28416D01*
X174784Y30528D02*
X168116Y30528D01*
X168116Y32640D02*
X174784Y32640D01*
X174784Y34752D02*
X168116Y34752D01*
X168116Y36864D02*
X174784Y36864D01*
X174784Y38976D02*
X168116Y38976D01*
X168116Y41088D02*
X174784Y41088D01*
X136684Y84296D02*
X130016Y84296D01*
X130016Y98584D01*
X136684Y98584D01*
X136684Y84296D01*
X136684Y86408D02*
X130016Y86408D01*
X130016Y88520D02*
X136684Y88520D01*
X136684Y90632D02*
X130016Y90632D01*
X130016Y92744D02*
X136684Y92744D01*
X136684Y94856D02*
X130016Y94856D01*
X130016Y96968D02*
X136684Y96968D01*
X136684Y28416D02*
X130016Y28416D01*
X130016Y42704D01*
X136684Y42704D01*
X136684Y28416D01*
X136684Y30528D02*
X130016Y30528D01*
X130016Y32640D02*
X136684Y32640D01*
X136684Y34752D02*
X130016Y34752D01*
X130016Y36864D02*
X136684Y36864D01*
X136684Y38976D02*
X130016Y38976D01*
X130016Y41088D02*
X136684Y41088D01*
D14*
X531778Y200488D02*
X552802Y200488D01*
X531778Y200488D02*
X531778Y208012D01*
X552802Y208012D01*
X552802Y200488D01*
X552802Y202623D02*
X531778Y202623D01*
X531778Y204758D02*
X552802Y204758D01*
X552802Y206893D02*
X531778Y206893D01*
X531778Y172988D02*
X552802Y172988D01*
X531778Y172988D02*
X531778Y180512D01*
X552802Y180512D01*
X552802Y172988D01*
X552802Y175123D02*
X531778Y175123D01*
X531778Y177258D02*
X552802Y177258D01*
X552802Y179393D02*
X531778Y179393D01*
D20*
X552782Y185992D02*
X562298Y185992D01*
X552782Y185992D02*
X552782Y195008D01*
X562298Y195008D01*
X562298Y185992D01*
X562298Y188133D02*
X552782Y188133D01*
X552782Y190274D02*
X562298Y190274D01*
X562298Y192415D02*
X552782Y192415D01*
X552782Y194556D02*
X562298Y194556D01*
X531798Y185992D02*
X522282Y185992D01*
X522282Y195008D01*
X531798Y195008D01*
X531798Y185992D01*
X531798Y188133D02*
X522282Y188133D01*
X522282Y190274D02*
X531798Y190274D01*
X531798Y192415D02*
X522282Y192415D01*
X522282Y194556D02*
X531798Y194556D01*
D21*
X603614Y227764D02*
X603614Y238236D01*
X672586Y238236D01*
X672586Y227764D01*
X603614Y227764D01*
X603614Y229948D02*
X672586Y229948D01*
X672586Y232132D02*
X603614Y232132D01*
X603614Y234316D02*
X672586Y234316D01*
X672586Y236500D02*
X603614Y236500D01*
D17*
X581594Y194506D02*
X581594Y186494D01*
X581594Y194506D02*
X602606Y194506D01*
X602606Y186494D01*
X581594Y186494D01*
X581594Y188640D02*
X602606Y188640D01*
X602606Y190786D02*
X581594Y190786D01*
X581594Y192932D02*
X602606Y192932D01*
D21*
X603614Y153236D02*
X603614Y142764D01*
X603614Y153236D02*
X672586Y153236D01*
X672586Y142764D01*
X603614Y142764D01*
X603614Y144948D02*
X672586Y144948D01*
X672586Y147132D02*
X603614Y147132D01*
X603614Y149316D02*
X672586Y149316D01*
X672586Y151500D02*
X603614Y151500D01*
D12*
X569922Y47068D02*
X567958Y47068D01*
X567958Y54532D01*
X569922Y54532D01*
X569922Y47068D01*
X569922Y49259D02*
X567958Y49259D01*
X567958Y51450D02*
X569922Y51450D01*
X569922Y53641D02*
X567958Y53641D01*
X564922Y47068D02*
X562958Y47068D01*
X562958Y54532D01*
X564922Y54532D01*
X564922Y47068D01*
X564922Y49259D02*
X562958Y49259D01*
X562958Y51450D02*
X564922Y51450D01*
X564922Y53641D02*
X562958Y53641D01*
X559922Y47068D02*
X557958Y47068D01*
X557958Y54532D01*
X559922Y54532D01*
X559922Y47068D01*
X559922Y49259D02*
X557958Y49259D01*
X557958Y51450D02*
X559922Y51450D01*
X559922Y53641D02*
X557958Y53641D01*
X554922Y47068D02*
X552958Y47068D01*
X552958Y54532D01*
X554922Y54532D01*
X554922Y47068D01*
X554922Y49259D02*
X552958Y49259D01*
X552958Y51450D02*
X554922Y51450D01*
X554922Y53641D02*
X552958Y53641D01*
X549922Y47068D02*
X547958Y47068D01*
X547958Y54532D01*
X549922Y54532D01*
X549922Y47068D01*
X549922Y49259D02*
X547958Y49259D01*
X547958Y51450D02*
X549922Y51450D01*
X549922Y53641D02*
X547958Y53641D01*
X544922Y47068D02*
X542958Y47068D01*
X542958Y54532D01*
X544922Y54532D01*
X544922Y47068D01*
X544922Y49259D02*
X542958Y49259D01*
X542958Y51450D02*
X544922Y51450D01*
X544922Y53641D02*
X542958Y53641D01*
X532208Y57818D02*
X532208Y59782D01*
X539672Y59782D01*
X539672Y57818D01*
X532208Y57818D01*
X532208Y62818D02*
X532208Y64782D01*
X539672Y64782D01*
X539672Y62818D01*
X532208Y62818D01*
X532208Y67818D02*
X532208Y69782D01*
X539672Y69782D01*
X539672Y67818D01*
X532208Y67818D01*
X532208Y72818D02*
X532208Y74782D01*
X539672Y74782D01*
X539672Y72818D01*
X532208Y72818D01*
X532208Y77818D02*
X532208Y79782D01*
X539672Y79782D01*
X539672Y77818D01*
X532208Y77818D01*
X532208Y82818D02*
X532208Y84782D01*
X539672Y84782D01*
X539672Y82818D01*
X532208Y82818D01*
X580672Y82818D02*
X580672Y84782D01*
X580672Y82818D02*
X573208Y82818D01*
X573208Y84782D01*
X580672Y84782D01*
X580672Y79782D02*
X580672Y77818D01*
X573208Y77818D01*
X573208Y79782D01*
X580672Y79782D01*
X580672Y74782D02*
X580672Y72818D01*
X573208Y72818D01*
X573208Y74782D01*
X580672Y74782D01*
X580672Y69782D02*
X580672Y67818D01*
X573208Y67818D01*
X573208Y69782D01*
X580672Y69782D01*
X580672Y64782D02*
X580672Y62818D01*
X573208Y62818D01*
X573208Y64782D01*
X580672Y64782D01*
X580672Y59782D02*
X580672Y57818D01*
X573208Y57818D01*
X573208Y59782D01*
X580672Y59782D01*
X544922Y95532D02*
X542958Y95532D01*
X544922Y95532D02*
X544922Y88068D01*
X542958Y88068D01*
X542958Y95532D01*
X542958Y90259D02*
X544922Y90259D01*
X544922Y92450D02*
X542958Y92450D01*
X542958Y94641D02*
X544922Y94641D01*
X547958Y95532D02*
X549922Y95532D01*
X549922Y88068D01*
X547958Y88068D01*
X547958Y95532D01*
X547958Y90259D02*
X549922Y90259D01*
X549922Y92450D02*
X547958Y92450D01*
X547958Y94641D02*
X549922Y94641D01*
X552958Y95532D02*
X554922Y95532D01*
X554922Y88068D01*
X552958Y88068D01*
X552958Y95532D01*
X552958Y90259D02*
X554922Y90259D01*
X554922Y92450D02*
X552958Y92450D01*
X552958Y94641D02*
X554922Y94641D01*
X557958Y95532D02*
X559922Y95532D01*
X559922Y88068D01*
X557958Y88068D01*
X557958Y95532D01*
X557958Y90259D02*
X559922Y90259D01*
X559922Y92450D02*
X557958Y92450D01*
X557958Y94641D02*
X559922Y94641D01*
X562958Y95532D02*
X564922Y95532D01*
X564922Y88068D01*
X562958Y88068D01*
X562958Y95532D01*
X562958Y90259D02*
X564922Y90259D01*
X564922Y92450D02*
X562958Y92450D01*
X562958Y94641D02*
X564922Y94641D01*
X567958Y95532D02*
X569922Y95532D01*
X569922Y88068D01*
X567958Y88068D01*
X567958Y95532D01*
X567958Y90259D02*
X569922Y90259D01*
X569922Y92450D02*
X567958Y92450D01*
X567958Y94641D02*
X569922Y94641D01*
D22*
X568621Y83481D02*
X544259Y83481D01*
X568621Y83481D02*
X568621Y59119D01*
X544259Y59119D01*
X544259Y83481D01*
X544259Y61408D02*
X568621Y61408D01*
X568621Y63697D02*
X544259Y63697D01*
X544259Y65986D02*
X568621Y65986D01*
X568621Y68275D02*
X544259Y68275D01*
X544259Y70564D02*
X568621Y70564D01*
X568621Y72853D02*
X544259Y72853D01*
X544259Y75142D02*
X568621Y75142D01*
X568621Y77431D02*
X544259Y77431D01*
X544259Y79720D02*
X568621Y79720D01*
X568621Y82009D02*
X544259Y82009D01*
D11*
X586772Y93932D02*
X586772Y98948D01*
X591788Y98948D01*
X591788Y93932D01*
X586772Y93932D01*
X586772Y96073D02*
X591788Y96073D01*
X591788Y98214D02*
X586772Y98214D01*
X586772Y88948D02*
X586772Y83932D01*
X586772Y88948D02*
X591788Y88948D01*
X591788Y83932D01*
X586772Y83932D01*
X586772Y86073D02*
X591788Y86073D01*
X591788Y88214D02*
X586772Y88214D01*
D12*
X617482Y74522D02*
X617482Y72558D01*
X608518Y72558D01*
X608518Y74522D01*
X617482Y74522D01*
X617482Y69522D02*
X617482Y67558D01*
X608518Y67558D01*
X608518Y69522D01*
X617482Y69522D01*
D11*
X617508Y95782D02*
X617508Y100798D01*
X617508Y95782D02*
X608492Y95782D01*
X608492Y100798D01*
X617508Y100798D01*
X617508Y97923D02*
X608492Y97923D01*
X608492Y100064D02*
X617508Y100064D01*
X617508Y93048D02*
X617508Y88032D01*
X608492Y88032D01*
X608492Y93048D01*
X617508Y93048D01*
X617508Y90173D02*
X608492Y90173D01*
X608492Y92314D02*
X617508Y92314D01*
D12*
X617482Y84522D02*
X617482Y82558D01*
X608518Y82558D01*
X608518Y84522D01*
X617482Y84522D01*
X617482Y79522D02*
X617482Y77558D01*
X608518Y77558D01*
X608518Y79522D01*
X617482Y79522D01*
X608518Y59522D02*
X608518Y57558D01*
X608518Y59522D02*
X617482Y59522D01*
X617482Y57558D01*
X608518Y57558D01*
X608518Y62558D02*
X608518Y64522D01*
X617482Y64522D01*
X617482Y62558D01*
X608518Y62558D01*
D11*
X608492Y36298D02*
X608492Y31282D01*
X608492Y36298D02*
X617508Y36298D01*
X617508Y31282D01*
X608492Y31282D01*
X608492Y33423D02*
X617508Y33423D01*
X617508Y35564D02*
X608492Y35564D01*
X608492Y39032D02*
X608492Y44048D01*
X617508Y44048D01*
X617508Y39032D01*
X608492Y39032D01*
X608492Y41173D02*
X617508Y41173D01*
X617508Y43314D02*
X608492Y43314D01*
D12*
X608518Y47558D02*
X608518Y49522D01*
X617482Y49522D01*
X617482Y47558D01*
X608518Y47558D01*
X608518Y52558D02*
X608518Y54522D01*
X617482Y54522D01*
X617482Y52558D01*
X608518Y52558D01*
D23*
X624050Y37140D03*
X624050Y94940D03*
D11*
X601186Y40688D02*
X601186Y35672D01*
X596170Y35672D01*
X596170Y40688D01*
X601186Y40688D01*
X601186Y37813D02*
X596170Y37813D01*
X596170Y39954D02*
X601186Y39954D01*
X601186Y45672D02*
X601186Y50688D01*
X601186Y45672D02*
X596170Y45672D01*
X596170Y50688D01*
X601186Y50688D01*
X601186Y47813D02*
X596170Y47813D01*
X596170Y49954D02*
X601186Y49954D01*
X596170Y93932D02*
X596170Y98948D01*
X601186Y98948D01*
X601186Y93932D01*
X596170Y93932D01*
X596170Y96073D02*
X601186Y96073D01*
X601186Y98214D02*
X596170Y98214D01*
X596170Y88948D02*
X596170Y83932D01*
X596170Y88948D02*
X601186Y88948D01*
X601186Y83932D01*
X596170Y83932D01*
X596170Y86073D02*
X601186Y86073D01*
X601186Y88214D02*
X596170Y88214D01*
D19*
X138208Y132366D02*
X131540Y132366D01*
X138208Y132366D02*
X138208Y118078D01*
X131540Y118078D01*
X131540Y132366D01*
X131540Y120190D02*
X138208Y120190D01*
X138208Y122302D02*
X131540Y122302D01*
X131540Y124414D02*
X138208Y124414D01*
X138208Y126526D02*
X131540Y126526D01*
X131540Y128638D02*
X138208Y128638D01*
X138208Y130750D02*
X131540Y130750D01*
X131540Y188246D02*
X138208Y188246D01*
X138208Y173958D01*
X131540Y173958D01*
X131540Y188246D01*
X131540Y176070D02*
X138208Y176070D01*
X138208Y178182D02*
X131540Y178182D01*
X131540Y180294D02*
X138208Y180294D01*
X138208Y182406D02*
X131540Y182406D01*
X131540Y184518D02*
X138208Y184518D01*
X138208Y186630D02*
X131540Y186630D01*
X169640Y132366D02*
X176308Y132366D01*
X176308Y118078D01*
X169640Y118078D01*
X169640Y132366D01*
X169640Y120190D02*
X176308Y120190D01*
X176308Y122302D02*
X169640Y122302D01*
X169640Y124414D02*
X176308Y124414D01*
X176308Y126526D02*
X169640Y126526D01*
X169640Y128638D02*
X176308Y128638D01*
X176308Y130750D02*
X169640Y130750D01*
X169640Y188246D02*
X176308Y188246D01*
X176308Y173958D01*
X169640Y173958D01*
X169640Y188246D01*
X169640Y176070D02*
X176308Y176070D01*
X176308Y178182D02*
X169640Y178182D01*
X169640Y180294D02*
X176308Y180294D01*
X176308Y182406D02*
X169640Y182406D01*
X169640Y184518D02*
X176308Y184518D01*
X176308Y186630D02*
X169640Y186630D01*
D14*
X383742Y219038D02*
X383742Y226562D01*
X383742Y219038D02*
X375718Y219038D01*
X375718Y226562D01*
X383742Y226562D01*
X383742Y221173D02*
X375718Y221173D01*
X375718Y223308D02*
X383742Y223308D01*
X383742Y225443D02*
X375718Y225443D01*
X383742Y230638D02*
X383742Y238162D01*
X383742Y230638D02*
X375718Y230638D01*
X375718Y238162D01*
X383742Y238162D01*
X383742Y232773D02*
X375718Y232773D01*
X375718Y234908D02*
X383742Y234908D01*
X383742Y237043D02*
X375718Y237043D01*
D11*
X571452Y126968D02*
X576468Y126968D01*
X576468Y121952D01*
X571452Y121952D01*
X571452Y126968D01*
X571452Y124093D02*
X576468Y124093D01*
X576468Y126234D02*
X571452Y126234D01*
X566468Y126968D02*
X561452Y126968D01*
X566468Y126968D02*
X566468Y121952D01*
X561452Y121952D01*
X561452Y126968D01*
X561452Y124093D02*
X566468Y124093D01*
X566468Y126234D02*
X561452Y126234D01*
X571452Y117062D02*
X576468Y117062D01*
X576468Y112046D01*
X571452Y112046D01*
X571452Y117062D01*
X571452Y114187D02*
X576468Y114187D01*
X576468Y116328D02*
X571452Y116328D01*
X566468Y117062D02*
X561452Y117062D01*
X566468Y117062D02*
X566468Y112046D01*
X561452Y112046D01*
X561452Y117062D01*
X561452Y114187D02*
X566468Y114187D01*
X566468Y116328D02*
X561452Y116328D01*
X541162Y12668D02*
X536146Y12668D01*
X541162Y12668D02*
X541162Y7652D01*
X536146Y7652D01*
X536146Y12668D01*
X536146Y9793D02*
X541162Y9793D01*
X541162Y11934D02*
X536146Y11934D01*
X531162Y12668D02*
X526146Y12668D01*
X531162Y12668D02*
X531162Y7652D01*
X526146Y7652D01*
X526146Y12668D01*
X526146Y9793D02*
X531162Y9793D01*
X531162Y11934D02*
X526146Y11934D01*
D24*
X571696Y13654D02*
X571696Y6666D01*
X571696Y13654D02*
X578684Y13654D01*
X578684Y6666D01*
X571696Y6666D01*
X571696Y10735D02*
X578684Y10735D01*
X554156Y13654D02*
X554156Y6666D01*
X554156Y13654D02*
X561144Y13654D01*
X561144Y6666D01*
X554156Y6666D01*
X554156Y10735D02*
X561144Y10735D01*
M02*
