G04 EAGLE Gerber RS-274X export*
G75*
%MOMM*%
%FSLAX34Y34*%
%LPD*%
%INSoldermask Bottom*%
%IPPOS*%
%AMOC8*
5,1,8,0,0,1.08239X$1,22.5*%
G01*
%ADD10C,1.127000*%
%ADD11C,0.228959*%
%ADD12C,0.581000*%
%ADD13C,0.762000*%
%ADD14C,0.777000*%
%ADD15C,0.228344*%

G36*
X462251Y226479D02*
X462251Y226479D01*
X462261Y226483D01*
X462287Y226484D01*
X466121Y227318D01*
X466129Y227323D01*
X466155Y227328D01*
X469831Y228700D01*
X469839Y228705D01*
X469863Y228714D01*
X473307Y230595D01*
X473314Y230602D01*
X473337Y230614D01*
X476478Y232965D01*
X476484Y232973D01*
X476505Y232989D01*
X479279Y235763D01*
X479284Y235772D01*
X479303Y235790D01*
X481654Y238931D01*
X481657Y238940D01*
X481673Y238961D01*
X483554Y242405D01*
X483556Y242414D01*
X483568Y242437D01*
X484940Y246113D01*
X484940Y246123D01*
X484950Y246147D01*
X485784Y249981D01*
X485783Y249991D01*
X485789Y250017D01*
X486069Y253930D01*
X486063Y253956D01*
X486067Y253981D01*
X486049Y254023D01*
X486039Y254067D01*
X486021Y254085D01*
X486010Y254109D01*
X485972Y254134D01*
X485941Y254166D01*
X485915Y254172D01*
X485894Y254186D01*
X485820Y254197D01*
X475820Y254197D01*
X475813Y254195D01*
X475806Y254197D01*
X475747Y254176D01*
X475686Y254158D01*
X475681Y254153D01*
X475674Y254150D01*
X475636Y254100D01*
X475594Y254053D01*
X475593Y254046D01*
X475588Y254040D01*
X475572Y253968D01*
X475358Y251250D01*
X474726Y248617D01*
X473690Y246117D01*
X472276Y243809D01*
X470518Y241750D01*
X468459Y239992D01*
X466151Y238578D01*
X463651Y237542D01*
X461018Y236910D01*
X458320Y236698D01*
X455622Y236910D01*
X452989Y237542D01*
X450489Y238578D01*
X448181Y239992D01*
X446122Y241750D01*
X446069Y241813D01*
X445643Y242312D01*
X445430Y242561D01*
X445217Y242810D01*
X445004Y243060D01*
X444579Y243558D01*
X444578Y243558D01*
X444366Y243807D01*
X444364Y243809D01*
X442950Y246117D01*
X441914Y248617D01*
X441282Y251250D01*
X441068Y253968D01*
X441066Y253974D01*
X441067Y253981D01*
X441041Y254039D01*
X441019Y254098D01*
X441013Y254103D01*
X441010Y254109D01*
X440957Y254144D01*
X440907Y254182D01*
X440900Y254182D01*
X440894Y254186D01*
X440820Y254197D01*
X430820Y254197D01*
X430795Y254190D01*
X430769Y254192D01*
X430729Y254171D01*
X430686Y254158D01*
X430669Y254138D01*
X430646Y254126D01*
X430624Y254087D01*
X430594Y254053D01*
X430590Y254027D01*
X430577Y254004D01*
X430571Y253930D01*
X430851Y250017D01*
X430855Y250007D01*
X430856Y249981D01*
X431690Y246147D01*
X431695Y246139D01*
X431700Y246113D01*
X433072Y242437D01*
X433077Y242429D01*
X433086Y242405D01*
X434967Y238961D01*
X434974Y238954D01*
X434986Y238931D01*
X437337Y235790D01*
X437345Y235784D01*
X437361Y235763D01*
X440135Y232989D01*
X440144Y232984D01*
X440162Y232965D01*
X443303Y230614D01*
X443312Y230611D01*
X443333Y230595D01*
X446777Y228714D01*
X446786Y228712D01*
X446809Y228700D01*
X450485Y227328D01*
X450495Y227328D01*
X450519Y227318D01*
X454353Y226484D01*
X454363Y226485D01*
X454389Y226479D01*
X458302Y226199D01*
X458312Y226201D01*
X458338Y226199D01*
X462251Y226479D01*
G37*
G36*
X440887Y-195D02*
X440887Y-195D01*
X440894Y-197D01*
X440953Y-176D01*
X441014Y-158D01*
X441019Y-153D01*
X441026Y-150D01*
X441065Y-100D01*
X441106Y-53D01*
X441107Y-46D01*
X441112Y-40D01*
X441128Y32D01*
X441342Y2750D01*
X441974Y5383D01*
X443010Y7883D01*
X444424Y10191D01*
X446182Y12250D01*
X448241Y14008D01*
X450549Y15422D01*
X453049Y16458D01*
X455682Y17090D01*
X458380Y17302D01*
X461078Y17090D01*
X463711Y16458D01*
X466211Y15422D01*
X468519Y14008D01*
X470578Y12250D01*
X470702Y12104D01*
X470915Y11855D01*
X471340Y11356D01*
X471341Y11356D01*
X471553Y11107D01*
X471766Y10858D01*
X471979Y10609D01*
X472192Y10359D01*
X472336Y10191D01*
X473750Y7883D01*
X474786Y5383D01*
X475418Y2750D01*
X475632Y32D01*
X475634Y26D01*
X475633Y19D01*
X475659Y-39D01*
X475681Y-98D01*
X475687Y-103D01*
X475690Y-109D01*
X475743Y-144D01*
X475793Y-182D01*
X475801Y-182D01*
X475807Y-186D01*
X475880Y-197D01*
X485880Y-197D01*
X485905Y-190D01*
X485931Y-192D01*
X485971Y-171D01*
X486014Y-158D01*
X486031Y-138D01*
X486054Y-126D01*
X486076Y-87D01*
X486106Y-53D01*
X486110Y-27D01*
X486123Y-4D01*
X486129Y70D01*
X485849Y3983D01*
X485845Y3993D01*
X485844Y4019D01*
X485010Y7853D01*
X485005Y7861D01*
X485000Y7887D01*
X483628Y11563D01*
X483623Y11571D01*
X483614Y11595D01*
X481733Y15039D01*
X481726Y15046D01*
X481714Y15069D01*
X479363Y18210D01*
X479355Y18216D01*
X479339Y18237D01*
X476565Y21011D01*
X476556Y21016D01*
X476538Y21035D01*
X473397Y23386D01*
X473388Y23389D01*
X473367Y23405D01*
X469923Y25286D01*
X469914Y25288D01*
X469891Y25300D01*
X466215Y26672D01*
X466205Y26672D01*
X466181Y26682D01*
X462347Y27516D01*
X462337Y27515D01*
X462311Y27521D01*
X458398Y27801D01*
X458388Y27799D01*
X458362Y27801D01*
X454449Y27521D01*
X454439Y27517D01*
X454413Y27516D01*
X450579Y26682D01*
X450571Y26677D01*
X450545Y26672D01*
X446869Y25300D01*
X446861Y25295D01*
X446837Y25286D01*
X443393Y23405D01*
X443386Y23398D01*
X443363Y23386D01*
X440222Y21035D01*
X440216Y21027D01*
X440195Y21011D01*
X437421Y18237D01*
X437416Y18228D01*
X437397Y18210D01*
X435046Y15069D01*
X435043Y15060D01*
X435027Y15039D01*
X433146Y11595D01*
X433144Y11586D01*
X433132Y11563D01*
X431760Y7887D01*
X431760Y7877D01*
X431750Y7853D01*
X430916Y4019D01*
X430917Y4009D01*
X430911Y3983D01*
X430631Y70D01*
X430637Y44D01*
X430633Y19D01*
X430651Y-23D01*
X430661Y-67D01*
X430679Y-85D01*
X430690Y-109D01*
X430728Y-134D01*
X430759Y-166D01*
X430785Y-172D01*
X430807Y-186D01*
X430880Y-197D01*
X440880Y-197D01*
X440887Y-195D01*
G37*
G36*
X557214Y17157D02*
X557214Y17157D01*
X557280Y17159D01*
X557323Y17177D01*
X557370Y17185D01*
X557427Y17219D01*
X557487Y17244D01*
X557522Y17275D01*
X557563Y17300D01*
X557605Y17351D01*
X557653Y17395D01*
X557675Y17437D01*
X557704Y17474D01*
X557725Y17536D01*
X557756Y17595D01*
X557764Y17649D01*
X557776Y17686D01*
X557775Y17726D01*
X557783Y17780D01*
X557783Y20320D01*
X557772Y20385D01*
X557770Y20451D01*
X557752Y20494D01*
X557744Y20541D01*
X557710Y20598D01*
X557685Y20658D01*
X557654Y20693D01*
X557629Y20734D01*
X557578Y20776D01*
X557534Y20824D01*
X557492Y20846D01*
X557455Y20875D01*
X557393Y20896D01*
X557334Y20927D01*
X557280Y20935D01*
X557243Y20947D01*
X557203Y20946D01*
X557149Y20954D01*
X553339Y20954D01*
X553274Y20943D01*
X553208Y20941D01*
X553165Y20923D01*
X553118Y20915D01*
X553061Y20881D01*
X553001Y20856D01*
X552966Y20825D01*
X552925Y20800D01*
X552884Y20749D01*
X552835Y20705D01*
X552813Y20663D01*
X552784Y20626D01*
X552763Y20564D01*
X552732Y20505D01*
X552724Y20451D01*
X552712Y20414D01*
X552712Y20411D01*
X552713Y20374D01*
X552705Y20320D01*
X552705Y17780D01*
X552716Y17715D01*
X552718Y17649D01*
X552736Y17606D01*
X552744Y17559D01*
X552778Y17502D01*
X552803Y17442D01*
X552834Y17407D01*
X552859Y17366D01*
X552910Y17325D01*
X552954Y17276D01*
X552996Y17254D01*
X553033Y17225D01*
X553095Y17204D01*
X553154Y17173D01*
X553208Y17165D01*
X553245Y17153D01*
X553285Y17154D01*
X553339Y17146D01*
X557149Y17146D01*
X557214Y17157D01*
G37*
D10*
X50800Y241300D03*
X593852Y22352D03*
D11*
X6010Y35760D02*
X6010Y38240D01*
X24490Y38240D01*
X24490Y35760D01*
X6010Y35760D01*
X6010Y37935D02*
X24490Y37935D01*
X6010Y40760D02*
X6010Y43240D01*
X24490Y43240D01*
X24490Y40760D01*
X6010Y40760D01*
X6010Y42935D02*
X24490Y42935D01*
X6010Y45760D02*
X6010Y48240D01*
X24490Y48240D01*
X24490Y45760D01*
X6010Y45760D01*
X6010Y47935D02*
X24490Y47935D01*
X6010Y50760D02*
X6010Y53240D01*
X24490Y53240D01*
X24490Y50760D01*
X6010Y50760D01*
X6010Y52935D02*
X24490Y52935D01*
X6010Y55760D02*
X6010Y58240D01*
X24490Y58240D01*
X24490Y55760D01*
X6010Y55760D01*
X6010Y57935D02*
X24490Y57935D01*
X6010Y60760D02*
X6010Y63240D01*
X24490Y63240D01*
X24490Y60760D01*
X6010Y60760D01*
X6010Y62935D02*
X24490Y62935D01*
X6010Y65760D02*
X6010Y68240D01*
X24490Y68240D01*
X24490Y65760D01*
X6010Y65760D01*
X6010Y67935D02*
X24490Y67935D01*
X6010Y70760D02*
X6010Y73240D01*
X24490Y73240D01*
X24490Y70760D01*
X6010Y70760D01*
X6010Y72935D02*
X24490Y72935D01*
X6010Y75760D02*
X6010Y78240D01*
X24490Y78240D01*
X24490Y75760D01*
X6010Y75760D01*
X6010Y77935D02*
X24490Y77935D01*
X6010Y80760D02*
X6010Y83240D01*
X24490Y83240D01*
X24490Y80760D01*
X6010Y80760D01*
X6010Y82935D02*
X24490Y82935D01*
X6010Y85760D02*
X6010Y88240D01*
X24490Y88240D01*
X24490Y85760D01*
X6010Y85760D01*
X6010Y87935D02*
X24490Y87935D01*
X6010Y110760D02*
X6010Y113240D01*
X24490Y113240D01*
X24490Y110760D01*
X6010Y110760D01*
X6010Y112935D02*
X24490Y112935D01*
X6010Y115760D02*
X6010Y118240D01*
X24490Y118240D01*
X24490Y115760D01*
X6010Y115760D01*
X6010Y117935D02*
X24490Y117935D01*
X6010Y120760D02*
X6010Y123240D01*
X24490Y123240D01*
X24490Y120760D01*
X6010Y120760D01*
X6010Y122935D02*
X24490Y122935D01*
X6010Y125760D02*
X6010Y128240D01*
X24490Y128240D01*
X24490Y125760D01*
X6010Y125760D01*
X6010Y127935D02*
X24490Y127935D01*
X6010Y130760D02*
X6010Y133240D01*
X24490Y133240D01*
X24490Y130760D01*
X6010Y130760D01*
X6010Y132935D02*
X24490Y132935D01*
X6010Y135760D02*
X6010Y138240D01*
X24490Y138240D01*
X24490Y135760D01*
X6010Y135760D01*
X6010Y137935D02*
X24490Y137935D01*
X6010Y140760D02*
X6010Y143240D01*
X24490Y143240D01*
X24490Y140760D01*
X6010Y140760D01*
X6010Y142935D02*
X24490Y142935D01*
X6010Y145760D02*
X6010Y148240D01*
X24490Y148240D01*
X24490Y145760D01*
X6010Y145760D01*
X6010Y147935D02*
X24490Y147935D01*
X6010Y150760D02*
X6010Y153240D01*
X24490Y153240D01*
X24490Y150760D01*
X6010Y150760D01*
X6010Y152935D02*
X24490Y152935D01*
X6010Y155760D02*
X6010Y158240D01*
X24490Y158240D01*
X24490Y155760D01*
X6010Y155760D01*
X6010Y157935D02*
X24490Y157935D01*
X6010Y160760D02*
X6010Y163240D01*
X24490Y163240D01*
X24490Y160760D01*
X6010Y160760D01*
X6010Y162935D02*
X24490Y162935D01*
X6010Y165760D02*
X6010Y168240D01*
X24490Y168240D01*
X24490Y165760D01*
X6010Y165760D01*
X6010Y167935D02*
X24490Y167935D01*
X6010Y170760D02*
X6010Y173240D01*
X24490Y173240D01*
X24490Y170760D01*
X6010Y170760D01*
X6010Y172935D02*
X24490Y172935D01*
X6010Y175760D02*
X6010Y178240D01*
X24490Y178240D01*
X24490Y175760D01*
X6010Y175760D01*
X6010Y177935D02*
X24490Y177935D01*
X6010Y180760D02*
X6010Y183240D01*
X24490Y183240D01*
X24490Y180760D01*
X6010Y180760D01*
X6010Y182935D02*
X24490Y182935D01*
X6010Y185760D02*
X6010Y188240D01*
X24490Y188240D01*
X24490Y185760D01*
X6010Y185760D01*
X6010Y187935D02*
X24490Y187935D01*
X6010Y190760D02*
X6010Y193240D01*
X24490Y193240D01*
X24490Y190760D01*
X6010Y190760D01*
X6010Y192935D02*
X24490Y192935D01*
X6010Y195760D02*
X6010Y198240D01*
X24490Y198240D01*
X24490Y195760D01*
X6010Y195760D01*
X6010Y197935D02*
X24490Y197935D01*
X6010Y200760D02*
X6010Y203240D01*
X24490Y203240D01*
X24490Y200760D01*
X6010Y200760D01*
X6010Y202935D02*
X24490Y202935D01*
X6010Y205760D02*
X6010Y208240D01*
X24490Y208240D01*
X24490Y205760D01*
X6010Y205760D01*
X6010Y207935D02*
X24490Y207935D01*
X6010Y210760D02*
X6010Y213240D01*
X24490Y213240D01*
X24490Y210760D01*
X6010Y210760D01*
X6010Y212935D02*
X24490Y212935D01*
X6010Y215760D02*
X6010Y218240D01*
X24490Y218240D01*
X24490Y215760D01*
X6010Y215760D01*
X6010Y217935D02*
X24490Y217935D01*
D12*
X479380Y10052D03*
X437380Y10052D03*
X458380Y23052D03*
X437320Y243948D03*
X479320Y243948D03*
X458320Y230948D03*
D13*
X441452Y189230D03*
D14*
X624050Y37140D03*
X624050Y94940D03*
D15*
X552833Y13206D02*
X547241Y13206D01*
X547241Y24894D01*
X552833Y24894D01*
X552833Y13206D01*
X552833Y15375D02*
X547241Y15375D01*
X547241Y17544D02*
X552833Y17544D01*
X552833Y19713D02*
X547241Y19713D01*
X547241Y21882D02*
X552833Y21882D01*
X552833Y24051D02*
X547241Y24051D01*
X557655Y13206D02*
X563247Y13206D01*
X557655Y13206D02*
X557655Y24894D01*
X563247Y24894D01*
X563247Y13206D01*
X563247Y15375D02*
X557655Y15375D01*
X557655Y17544D02*
X563247Y17544D01*
X563247Y19713D02*
X557655Y19713D01*
X557655Y21882D02*
X563247Y21882D01*
X563247Y24051D02*
X557655Y24051D01*
M02*
