G04 EAGLE Gerber RS-274X export*
G75*
%MOMM*%
%FSLAX34Y34*%
%LPD*%
%INSoldermask Top*%
%IPPOS*%
%AMOC8*
5,1,8,0,0,1.08239X$1,22.5*%
G01*
%ADD10C,1.127000*%
%ADD11C,0.225369*%
%ADD12C,0.230578*%
%ADD13C,0.223409*%
%ADD14C,0.224709*%
%ADD15C,0.228959*%
%ADD16C,0.736600*%
%ADD17C,0.222250*%
%ADD18C,0.240928*%
%ADD19C,0.777000*%
%ADD20C,0.428259*%
%ADD21C,0.225938*%
%ADD22C,0.233119*%

G36*
X443813Y352691D02*
X443813Y352691D01*
X443823Y352695D01*
X443849Y352696D01*
X447683Y353530D01*
X447691Y353535D01*
X447717Y353540D01*
X451393Y354912D01*
X451401Y354917D01*
X451425Y354926D01*
X454869Y356807D01*
X454876Y356814D01*
X454899Y356826D01*
X458040Y359177D01*
X458046Y359185D01*
X458067Y359201D01*
X460841Y361975D01*
X460846Y361984D01*
X460865Y362002D01*
X463216Y365143D01*
X463219Y365152D01*
X463235Y365173D01*
X465116Y368617D01*
X465118Y368626D01*
X465130Y368649D01*
X466502Y372325D01*
X466502Y372335D01*
X466512Y372359D01*
X467346Y376193D01*
X467345Y376203D01*
X467351Y376229D01*
X467631Y380142D01*
X467625Y380168D01*
X467629Y380193D01*
X467611Y380235D01*
X467601Y380279D01*
X467583Y380297D01*
X467572Y380321D01*
X467534Y380346D01*
X467503Y380378D01*
X467477Y380384D01*
X467456Y380398D01*
X467382Y380409D01*
X457382Y380409D01*
X457375Y380407D01*
X457368Y380409D01*
X457309Y380388D01*
X457248Y380370D01*
X457243Y380365D01*
X457236Y380362D01*
X457198Y380312D01*
X457156Y380265D01*
X457155Y380258D01*
X457150Y380252D01*
X457134Y380180D01*
X456920Y377462D01*
X456288Y374829D01*
X455252Y372329D01*
X453838Y370021D01*
X452080Y367962D01*
X450021Y366204D01*
X447713Y364790D01*
X445213Y363754D01*
X442580Y363122D01*
X439882Y362910D01*
X437184Y363122D01*
X434551Y363754D01*
X432051Y364790D01*
X429743Y366204D01*
X427684Y367962D01*
X425926Y370021D01*
X424512Y372329D01*
X423476Y374829D01*
X422844Y377462D01*
X422630Y380180D01*
X422628Y380186D01*
X422629Y380193D01*
X422603Y380251D01*
X422581Y380310D01*
X422575Y380315D01*
X422572Y380321D01*
X422519Y380356D01*
X422469Y380394D01*
X422462Y380394D01*
X422456Y380398D01*
X422382Y380409D01*
X412382Y380409D01*
X412357Y380402D01*
X412331Y380404D01*
X412291Y380383D01*
X412248Y380370D01*
X412231Y380350D01*
X412208Y380338D01*
X412186Y380299D01*
X412156Y380265D01*
X412152Y380239D01*
X412139Y380216D01*
X412133Y380142D01*
X412413Y376229D01*
X412417Y376219D01*
X412418Y376193D01*
X413252Y372359D01*
X413257Y372351D01*
X413262Y372325D01*
X414634Y368649D01*
X414639Y368641D01*
X414648Y368617D01*
X416529Y365173D01*
X416536Y365166D01*
X416548Y365143D01*
X418899Y362002D01*
X418907Y361996D01*
X418923Y361975D01*
X421697Y359201D01*
X421706Y359196D01*
X421724Y359177D01*
X424865Y356826D01*
X424874Y356823D01*
X424895Y356807D01*
X428339Y354926D01*
X428348Y354924D01*
X428371Y354912D01*
X432047Y353540D01*
X432057Y353540D01*
X432081Y353530D01*
X435915Y352696D01*
X435925Y352697D01*
X435951Y352691D01*
X439864Y352411D01*
X439874Y352413D01*
X439900Y352411D01*
X443813Y352691D01*
G37*
G36*
X422389Y-87D02*
X422389Y-87D01*
X422396Y-89D01*
X422455Y-68D01*
X422516Y-50D01*
X422521Y-45D01*
X422528Y-42D01*
X422567Y8D01*
X422608Y55D01*
X422609Y62D01*
X422614Y68D01*
X422630Y140D01*
X422844Y2858D01*
X423476Y5491D01*
X424512Y7991D01*
X425926Y10299D01*
X427684Y12358D01*
X429743Y14116D01*
X432051Y15530D01*
X434551Y16566D01*
X437184Y17198D01*
X439882Y17410D01*
X442580Y17198D01*
X445213Y16566D01*
X447713Y15530D01*
X450021Y14116D01*
X452080Y12358D01*
X453838Y10299D01*
X455252Y7991D01*
X456288Y5491D01*
X456920Y2858D01*
X457134Y140D01*
X457136Y134D01*
X457135Y127D01*
X457161Y69D01*
X457183Y10D01*
X457189Y5D01*
X457192Y-1D01*
X457245Y-36D01*
X457295Y-74D01*
X457303Y-74D01*
X457309Y-78D01*
X457382Y-89D01*
X467382Y-89D01*
X467407Y-82D01*
X467433Y-84D01*
X467473Y-63D01*
X467516Y-50D01*
X467533Y-30D01*
X467556Y-18D01*
X467578Y21D01*
X467608Y55D01*
X467612Y81D01*
X467625Y104D01*
X467631Y178D01*
X467351Y4091D01*
X467347Y4101D01*
X467346Y4127D01*
X466512Y7961D01*
X466507Y7969D01*
X466502Y7995D01*
X465130Y11671D01*
X465125Y11679D01*
X465116Y11703D01*
X463235Y15147D01*
X463228Y15154D01*
X463216Y15177D01*
X460865Y18318D01*
X460857Y18324D01*
X460841Y18345D01*
X458067Y21119D01*
X458058Y21124D01*
X458040Y21143D01*
X454899Y23494D01*
X454890Y23497D01*
X454869Y23513D01*
X451425Y25394D01*
X451416Y25396D01*
X451393Y25408D01*
X447717Y26780D01*
X447707Y26780D01*
X447683Y26790D01*
X443849Y27624D01*
X443839Y27623D01*
X443813Y27629D01*
X439900Y27909D01*
X439890Y27907D01*
X439864Y27909D01*
X435951Y27629D01*
X435941Y27625D01*
X435915Y27624D01*
X432081Y26790D01*
X432073Y26785D01*
X432047Y26780D01*
X428371Y25408D01*
X428363Y25403D01*
X428339Y25394D01*
X424895Y23513D01*
X424888Y23506D01*
X424865Y23494D01*
X421724Y21143D01*
X421718Y21135D01*
X421697Y21119D01*
X418923Y18345D01*
X418918Y18336D01*
X418899Y18318D01*
X416548Y15177D01*
X416545Y15168D01*
X416529Y15147D01*
X414648Y11703D01*
X414646Y11694D01*
X414634Y11671D01*
X413262Y7995D01*
X413262Y7985D01*
X413252Y7961D01*
X412418Y4127D01*
X412419Y4117D01*
X412413Y4091D01*
X412133Y178D01*
X412139Y152D01*
X412135Y127D01*
X412153Y85D01*
X412163Y41D01*
X412181Y23D01*
X412192Y-1D01*
X412230Y-26D01*
X412261Y-58D01*
X412287Y-64D01*
X412309Y-78D01*
X412382Y-89D01*
X422382Y-89D01*
X422389Y-87D01*
G37*
G36*
X600675Y90494D02*
X600675Y90494D01*
X600678Y90491D01*
X601945Y90696D01*
X601951Y90702D01*
X601956Y90699D01*
X603145Y91181D01*
X603149Y91188D01*
X603155Y91186D01*
X604208Y91920D01*
X604210Y91928D01*
X604216Y91927D01*
X605079Y92877D01*
X605080Y92886D01*
X605085Y92886D01*
X605715Y94005D01*
X605714Y94013D01*
X605720Y94015D01*
X606085Y95245D01*
X606082Y95252D01*
X606086Y95255D01*
X606085Y95255D01*
X606087Y95256D01*
X606169Y96537D01*
X606167Y96541D01*
X606169Y96543D01*
X606087Y97824D01*
X606081Y97830D01*
X606085Y97835D01*
X605720Y99065D01*
X605713Y99070D01*
X605715Y99075D01*
X605085Y100194D01*
X605078Y100197D01*
X605079Y100203D01*
X604216Y101153D01*
X604208Y101154D01*
X604208Y101160D01*
X603155Y101894D01*
X603147Y101894D01*
X603145Y101899D01*
X601956Y102381D01*
X601948Y102379D01*
X601945Y102384D01*
X600678Y102589D01*
X600673Y102586D01*
X600670Y102589D01*
X588670Y102589D01*
X588666Y102586D01*
X588663Y102589D01*
X587541Y102434D01*
X587536Y102429D01*
X587532Y102432D01*
X586461Y102061D01*
X586457Y102055D01*
X586452Y102057D01*
X585475Y101484D01*
X585472Y101478D01*
X585467Y101479D01*
X584620Y100726D01*
X584618Y100719D01*
X584613Y100719D01*
X583929Y99816D01*
X583929Y99809D01*
X583924Y99808D01*
X583429Y98789D01*
X583431Y98782D01*
X583429Y98781D01*
X583426Y98780D01*
X583139Y97683D01*
X583142Y97677D01*
X583138Y97674D01*
X583071Y96543D01*
X583073Y96539D01*
X583071Y96537D01*
X583138Y95406D01*
X583143Y95401D01*
X583139Y95397D01*
X583426Y94300D01*
X583432Y94296D01*
X583429Y94291D01*
X583924Y93272D01*
X583930Y93269D01*
X583929Y93264D01*
X584613Y92361D01*
X584620Y92359D01*
X584620Y92354D01*
X585467Y91601D01*
X585474Y91601D01*
X585475Y91596D01*
X586452Y91023D01*
X586459Y91024D01*
X586461Y91019D01*
X587532Y90648D01*
X587538Y90651D01*
X587541Y90646D01*
X588663Y90491D01*
X588668Y90494D01*
X588670Y90491D01*
X600670Y90491D01*
X600675Y90494D01*
G37*
G36*
X600675Y4094D02*
X600675Y4094D01*
X600678Y4091D01*
X601945Y4296D01*
X601951Y4302D01*
X601956Y4299D01*
X603145Y4781D01*
X603149Y4788D01*
X603155Y4786D01*
X604208Y5520D01*
X604210Y5528D01*
X604216Y5527D01*
X605079Y6477D01*
X605080Y6486D01*
X605085Y6486D01*
X605715Y7605D01*
X605714Y7613D01*
X605720Y7615D01*
X606085Y8845D01*
X606082Y8852D01*
X606086Y8855D01*
X606085Y8855D01*
X606087Y8856D01*
X606169Y10137D01*
X606167Y10141D01*
X606169Y10143D01*
X606087Y11424D01*
X606081Y11430D01*
X606085Y11435D01*
X605720Y12665D01*
X605713Y12670D01*
X605715Y12675D01*
X605085Y13794D01*
X605078Y13797D01*
X605079Y13803D01*
X604216Y14753D01*
X604208Y14754D01*
X604208Y14760D01*
X603155Y15494D01*
X603147Y15494D01*
X603145Y15499D01*
X601956Y15981D01*
X601948Y15979D01*
X601945Y15984D01*
X600678Y16189D01*
X600673Y16186D01*
X600670Y16189D01*
X588670Y16189D01*
X588666Y16186D01*
X588663Y16189D01*
X587541Y16034D01*
X587536Y16029D01*
X587532Y16032D01*
X586461Y15661D01*
X586457Y15655D01*
X586452Y15657D01*
X585475Y15084D01*
X585472Y15078D01*
X585467Y15079D01*
X584620Y14326D01*
X584618Y14319D01*
X584613Y14319D01*
X583929Y13416D01*
X583929Y13409D01*
X583924Y13408D01*
X583429Y12389D01*
X583431Y12382D01*
X583429Y12381D01*
X583426Y12380D01*
X583139Y11283D01*
X583142Y11277D01*
X583138Y11274D01*
X583071Y10143D01*
X583073Y10139D01*
X583071Y10137D01*
X583138Y9006D01*
X583143Y9001D01*
X583139Y8997D01*
X583426Y7900D01*
X583432Y7896D01*
X583429Y7891D01*
X583924Y6872D01*
X583930Y6869D01*
X583929Y6864D01*
X584613Y5961D01*
X584620Y5959D01*
X584620Y5954D01*
X585467Y5201D01*
X585474Y5201D01*
X585475Y5196D01*
X586452Y4623D01*
X586459Y4624D01*
X586461Y4619D01*
X587532Y4248D01*
X587538Y4251D01*
X587541Y4246D01*
X588663Y4091D01*
X588668Y4094D01*
X588670Y4091D01*
X600670Y4091D01*
X600675Y4094D01*
G37*
G36*
X639474Y90493D02*
X639474Y90493D01*
X639476Y90491D01*
X640805Y90646D01*
X640811Y90652D01*
X640815Y90649D01*
X642076Y91096D01*
X642081Y91103D01*
X642086Y91101D01*
X643216Y91818D01*
X643219Y91825D01*
X643225Y91824D01*
X644167Y92775D01*
X644168Y92783D01*
X644174Y92783D01*
X644881Y93919D01*
X644881Y93924D01*
X644882Y93925D01*
X644881Y93927D01*
X644886Y93929D01*
X645322Y95194D01*
X645320Y95202D01*
X645325Y95205D01*
X645469Y96535D01*
X645465Y96541D01*
X645469Y96545D01*
X645359Y97711D01*
X645354Y97716D01*
X645357Y97720D01*
X645022Y98843D01*
X645016Y98847D01*
X645018Y98851D01*
X644470Y99887D01*
X644464Y99890D01*
X644465Y99895D01*
X643726Y100803D01*
X643719Y100805D01*
X643719Y100810D01*
X642817Y101557D01*
X642810Y101557D01*
X642809Y101563D01*
X641778Y102119D01*
X641771Y102118D01*
X641769Y102123D01*
X640650Y102467D01*
X640643Y102465D01*
X640640Y102469D01*
X639475Y102589D01*
X639472Y102587D01*
X639470Y102589D01*
X633470Y102589D01*
X633467Y102587D01*
X633465Y102589D01*
X632289Y102478D01*
X632284Y102473D01*
X632280Y102476D01*
X631148Y102138D01*
X631144Y102132D01*
X631139Y102134D01*
X630095Y101582D01*
X630092Y101575D01*
X630087Y101577D01*
X629171Y100831D01*
X629170Y100824D01*
X629164Y100824D01*
X628411Y99915D01*
X628411Y99907D01*
X628406Y99907D01*
X627845Y98867D01*
X627846Y98860D01*
X627841Y98858D01*
X627494Y97729D01*
X627496Y97723D01*
X627492Y97720D01*
X627371Y96545D01*
X627375Y96538D01*
X627371Y96534D01*
X627528Y95194D01*
X627533Y95188D01*
X627530Y95183D01*
X627981Y93912D01*
X627988Y93907D01*
X627986Y93902D01*
X628708Y92763D01*
X628716Y92760D01*
X628715Y92754D01*
X629673Y91804D01*
X629681Y91803D01*
X629682Y91797D01*
X630827Y91084D01*
X630836Y91085D01*
X630837Y91079D01*
X632113Y90639D01*
X632120Y90641D01*
X632122Y90639D01*
X632123Y90637D01*
X633465Y90491D01*
X633468Y90493D01*
X633470Y90491D01*
X639470Y90491D01*
X639474Y90493D01*
G37*
G36*
X639474Y4093D02*
X639474Y4093D01*
X639476Y4091D01*
X640805Y4246D01*
X640811Y4252D01*
X640815Y4249D01*
X642076Y4696D01*
X642081Y4703D01*
X642086Y4701D01*
X643216Y5418D01*
X643219Y5425D01*
X643225Y5424D01*
X644167Y6375D01*
X644168Y6383D01*
X644174Y6383D01*
X644881Y7519D01*
X644881Y7524D01*
X644882Y7525D01*
X644881Y7527D01*
X644886Y7529D01*
X645322Y8794D01*
X645320Y8802D01*
X645325Y8805D01*
X645469Y10135D01*
X645465Y10141D01*
X645469Y10145D01*
X645359Y11311D01*
X645354Y11316D01*
X645357Y11320D01*
X645022Y12443D01*
X645016Y12447D01*
X645018Y12451D01*
X644470Y13487D01*
X644464Y13490D01*
X644465Y13495D01*
X643726Y14403D01*
X643719Y14405D01*
X643719Y14410D01*
X642817Y15157D01*
X642810Y15157D01*
X642809Y15163D01*
X641778Y15719D01*
X641771Y15718D01*
X641769Y15723D01*
X640650Y16067D01*
X640643Y16065D01*
X640640Y16069D01*
X639475Y16189D01*
X639472Y16187D01*
X639470Y16189D01*
X633470Y16189D01*
X633467Y16187D01*
X633465Y16189D01*
X632289Y16078D01*
X632284Y16073D01*
X632280Y16076D01*
X631148Y15738D01*
X631144Y15732D01*
X631139Y15734D01*
X630095Y15182D01*
X630092Y15175D01*
X630087Y15177D01*
X629171Y14431D01*
X629170Y14424D01*
X629164Y14424D01*
X628411Y13515D01*
X628411Y13507D01*
X628406Y13507D01*
X627845Y12467D01*
X627846Y12460D01*
X627841Y12458D01*
X627494Y11329D01*
X627496Y11323D01*
X627492Y11320D01*
X627371Y10145D01*
X627375Y10138D01*
X627371Y10134D01*
X627528Y8794D01*
X627533Y8788D01*
X627530Y8783D01*
X627981Y7512D01*
X627988Y7507D01*
X627986Y7502D01*
X628708Y6363D01*
X628716Y6360D01*
X628715Y6354D01*
X629673Y5404D01*
X629681Y5403D01*
X629682Y5397D01*
X630827Y4684D01*
X630836Y4685D01*
X630837Y4679D01*
X632113Y4239D01*
X632120Y4241D01*
X632122Y4239D01*
X632123Y4237D01*
X633465Y4091D01*
X633468Y4093D01*
X633470Y4091D01*
X639470Y4091D01*
X639474Y4093D01*
G37*
D10*
X58420Y358140D03*
X495046Y11176D03*
D11*
X396716Y70567D02*
X396716Y75583D01*
X396716Y70567D02*
X391700Y70567D01*
X391700Y75583D01*
X396716Y75583D01*
X396716Y72708D02*
X391700Y72708D01*
X391700Y74849D02*
X396716Y74849D01*
X396716Y80567D02*
X396716Y85583D01*
X396716Y80567D02*
X391700Y80567D01*
X391700Y85583D01*
X396716Y85583D01*
X396716Y82708D02*
X391700Y82708D01*
X391700Y84849D02*
X396716Y84849D01*
X426752Y85837D02*
X426752Y80821D01*
X426752Y85837D02*
X431768Y85837D01*
X431768Y80821D01*
X426752Y80821D01*
X426752Y82962D02*
X431768Y82962D01*
X431768Y85103D02*
X426752Y85103D01*
X426752Y75837D02*
X426752Y70821D01*
X426752Y75837D02*
X431768Y75837D01*
X431768Y70821D01*
X426752Y70821D01*
X426752Y72962D02*
X431768Y72962D01*
X431768Y75103D02*
X426752Y75103D01*
D12*
X419216Y85101D02*
X417252Y85101D01*
X417252Y90665D01*
X419216Y90665D01*
X419216Y85101D01*
X419216Y87292D02*
X417252Y87292D01*
X417252Y89483D02*
X419216Y89483D01*
X412716Y72265D02*
X410752Y72265D01*
X412716Y72265D02*
X412716Y66701D01*
X410752Y66701D01*
X410752Y72265D01*
X410752Y68892D02*
X412716Y68892D01*
X412716Y71083D02*
X410752Y71083D01*
X406216Y72265D02*
X404252Y72265D01*
X406216Y72265D02*
X406216Y66701D01*
X404252Y66701D01*
X404252Y72265D01*
X404252Y68892D02*
X406216Y68892D01*
X406216Y71083D02*
X404252Y71083D01*
X417252Y72265D02*
X419216Y72265D01*
X419216Y66701D01*
X417252Y66701D01*
X417252Y72265D01*
X417252Y68892D02*
X419216Y68892D01*
X419216Y71083D02*
X417252Y71083D01*
X412716Y85101D02*
X410752Y85101D01*
X410752Y90665D01*
X412716Y90665D01*
X412716Y85101D01*
X412716Y87292D02*
X410752Y87292D01*
X410752Y89483D02*
X412716Y89483D01*
X406216Y85101D02*
X404252Y85101D01*
X404252Y90665D01*
X406216Y90665D01*
X406216Y85101D01*
X406216Y87292D02*
X404252Y87292D01*
X404252Y89483D02*
X406216Y89483D01*
D11*
X153702Y284432D02*
X153702Y289448D01*
X158718Y289448D01*
X158718Y284432D01*
X153702Y284432D01*
X153702Y286573D02*
X158718Y286573D01*
X158718Y288714D02*
X153702Y288714D01*
X153702Y279448D02*
X153702Y274432D01*
X153702Y279448D02*
X158718Y279448D01*
X158718Y274432D01*
X153702Y274432D01*
X153702Y276573D02*
X158718Y276573D01*
X158718Y278714D02*
X153702Y278714D01*
X148558Y279448D02*
X148558Y274432D01*
X143542Y274432D01*
X143542Y279448D01*
X148558Y279448D01*
X148558Y276573D02*
X143542Y276573D01*
X143542Y278714D02*
X148558Y278714D01*
X148558Y284432D02*
X148558Y289448D01*
X148558Y284432D02*
X143542Y284432D01*
X143542Y289448D01*
X148558Y289448D01*
X148558Y286573D02*
X143542Y286573D01*
X143542Y288714D02*
X148558Y288714D01*
D13*
X98321Y288628D02*
X98321Y284092D01*
X98321Y288628D02*
X109357Y288628D01*
X109357Y284092D01*
X98321Y284092D01*
X98321Y286214D02*
X109357Y286214D01*
X109357Y288336D02*
X98321Y288336D01*
X98321Y279128D02*
X98321Y274592D01*
X98321Y279128D02*
X109357Y279128D01*
X109357Y274592D01*
X98321Y274592D01*
X98321Y276714D02*
X109357Y276714D01*
X109357Y278836D02*
X98321Y278836D01*
X98321Y269628D02*
X98321Y265092D01*
X98321Y269628D02*
X109357Y269628D01*
X109357Y265092D01*
X98321Y265092D01*
X98321Y267214D02*
X109357Y267214D01*
X109357Y269336D02*
X98321Y269336D01*
X124323Y269628D02*
X124323Y265092D01*
X124323Y269628D02*
X135359Y269628D01*
X135359Y265092D01*
X124323Y265092D01*
X124323Y267214D02*
X135359Y267214D01*
X135359Y269336D02*
X124323Y269336D01*
X124323Y284092D02*
X124323Y288628D01*
X135359Y288628D01*
X135359Y284092D01*
X124323Y284092D01*
X124323Y286214D02*
X135359Y286214D01*
X135359Y288336D02*
X124323Y288336D01*
D11*
X86392Y288178D02*
X86392Y283162D01*
X86392Y288178D02*
X91408Y288178D01*
X91408Y283162D01*
X86392Y283162D01*
X86392Y285303D02*
X91408Y285303D01*
X91408Y287444D02*
X86392Y287444D01*
X86392Y278178D02*
X86392Y273162D01*
X86392Y278178D02*
X91408Y278178D01*
X91408Y273162D01*
X86392Y273162D01*
X86392Y275303D02*
X91408Y275303D01*
X91408Y277444D02*
X86392Y277444D01*
D14*
X98558Y306272D02*
X106082Y306272D01*
X106082Y298248D01*
X98558Y298248D01*
X98558Y306272D01*
X98558Y300383D02*
X106082Y300383D01*
X106082Y302518D02*
X98558Y302518D01*
X98558Y304653D02*
X106082Y304653D01*
X94482Y306272D02*
X86958Y306272D01*
X94482Y306272D02*
X94482Y298248D01*
X86958Y298248D01*
X86958Y306272D01*
X86958Y300383D02*
X94482Y300383D01*
X94482Y302518D02*
X86958Y302518D01*
X86958Y304653D02*
X94482Y304653D01*
D15*
X19372Y98900D02*
X19372Y96420D01*
X5892Y96420D01*
X5892Y98900D01*
X19372Y98900D01*
X19372Y98595D02*
X5892Y98595D01*
X19372Y101420D02*
X19372Y103900D01*
X19372Y101420D02*
X5892Y101420D01*
X5892Y103900D01*
X19372Y103900D01*
X19372Y103595D02*
X5892Y103595D01*
X19372Y106420D02*
X19372Y108900D01*
X19372Y106420D02*
X5892Y106420D01*
X5892Y108900D01*
X19372Y108900D01*
X19372Y108595D02*
X5892Y108595D01*
X19372Y111420D02*
X19372Y113900D01*
X19372Y111420D02*
X5892Y111420D01*
X5892Y113900D01*
X19372Y113900D01*
X19372Y113595D02*
X5892Y113595D01*
X19372Y116420D02*
X19372Y118900D01*
X19372Y116420D02*
X5892Y116420D01*
X5892Y118900D01*
X19372Y118900D01*
X19372Y118595D02*
X5892Y118595D01*
X19372Y121420D02*
X19372Y123900D01*
X19372Y121420D02*
X5892Y121420D01*
X5892Y123900D01*
X19372Y123900D01*
X19372Y123595D02*
X5892Y123595D01*
X19372Y126420D02*
X19372Y128900D01*
X19372Y126420D02*
X5892Y126420D01*
X5892Y128900D01*
X19372Y128900D01*
X19372Y128595D02*
X5892Y128595D01*
X19372Y131420D02*
X19372Y133900D01*
X19372Y131420D02*
X5892Y131420D01*
X5892Y133900D01*
X19372Y133900D01*
X19372Y133595D02*
X5892Y133595D01*
X19372Y136420D02*
X19372Y138900D01*
X19372Y136420D02*
X5892Y136420D01*
X5892Y138900D01*
X19372Y138900D01*
X19372Y138595D02*
X5892Y138595D01*
X19372Y141420D02*
X19372Y143900D01*
X19372Y141420D02*
X5892Y141420D01*
X5892Y143900D01*
X19372Y143900D01*
X19372Y143595D02*
X5892Y143595D01*
X19372Y146420D02*
X19372Y148900D01*
X19372Y146420D02*
X5892Y146420D01*
X5892Y148900D01*
X19372Y148900D01*
X19372Y148595D02*
X5892Y148595D01*
X19372Y151420D02*
X19372Y153900D01*
X19372Y151420D02*
X5892Y151420D01*
X5892Y153900D01*
X19372Y153900D01*
X19372Y153595D02*
X5892Y153595D01*
X19372Y176420D02*
X19372Y178900D01*
X19372Y176420D02*
X5892Y176420D01*
X5892Y178900D01*
X19372Y178900D01*
X19372Y178595D02*
X5892Y178595D01*
X19372Y181420D02*
X19372Y183900D01*
X19372Y181420D02*
X5892Y181420D01*
X5892Y183900D01*
X19372Y183900D01*
X19372Y183595D02*
X5892Y183595D01*
X19372Y186420D02*
X19372Y188900D01*
X19372Y186420D02*
X5892Y186420D01*
X5892Y188900D01*
X19372Y188900D01*
X19372Y188595D02*
X5892Y188595D01*
X19372Y191420D02*
X19372Y193900D01*
X19372Y191420D02*
X5892Y191420D01*
X5892Y193900D01*
X19372Y193900D01*
X19372Y193595D02*
X5892Y193595D01*
X19372Y196420D02*
X19372Y198900D01*
X19372Y196420D02*
X5892Y196420D01*
X5892Y198900D01*
X19372Y198900D01*
X19372Y198595D02*
X5892Y198595D01*
X19372Y201420D02*
X19372Y203900D01*
X19372Y201420D02*
X5892Y201420D01*
X5892Y203900D01*
X19372Y203900D01*
X19372Y203595D02*
X5892Y203595D01*
X19372Y206420D02*
X19372Y208900D01*
X19372Y206420D02*
X5892Y206420D01*
X5892Y208900D01*
X19372Y208900D01*
X19372Y208595D02*
X5892Y208595D01*
X19372Y211420D02*
X19372Y213900D01*
X19372Y211420D02*
X5892Y211420D01*
X5892Y213900D01*
X19372Y213900D01*
X19372Y213595D02*
X5892Y213595D01*
X19372Y216420D02*
X19372Y218900D01*
X19372Y216420D02*
X5892Y216420D01*
X5892Y218900D01*
X19372Y218900D01*
X19372Y218595D02*
X5892Y218595D01*
X19372Y221420D02*
X19372Y223900D01*
X19372Y221420D02*
X5892Y221420D01*
X5892Y223900D01*
X19372Y223900D01*
X19372Y223595D02*
X5892Y223595D01*
X19372Y226420D02*
X19372Y228900D01*
X19372Y226420D02*
X5892Y226420D01*
X5892Y228900D01*
X19372Y228900D01*
X19372Y228595D02*
X5892Y228595D01*
X19372Y231420D02*
X19372Y233900D01*
X19372Y231420D02*
X5892Y231420D01*
X5892Y233900D01*
X19372Y233900D01*
X19372Y233595D02*
X5892Y233595D01*
X19372Y236420D02*
X19372Y238900D01*
X19372Y236420D02*
X5892Y236420D01*
X5892Y238900D01*
X19372Y238900D01*
X19372Y238595D02*
X5892Y238595D01*
X19372Y241420D02*
X19372Y243900D01*
X19372Y241420D02*
X5892Y241420D01*
X5892Y243900D01*
X19372Y243900D01*
X19372Y243595D02*
X5892Y243595D01*
X19372Y246420D02*
X19372Y248900D01*
X19372Y246420D02*
X5892Y246420D01*
X5892Y248900D01*
X19372Y248900D01*
X19372Y248595D02*
X5892Y248595D01*
X19372Y251420D02*
X19372Y253900D01*
X19372Y251420D02*
X5892Y251420D01*
X5892Y253900D01*
X19372Y253900D01*
X19372Y253595D02*
X5892Y253595D01*
X19372Y256420D02*
X19372Y258900D01*
X19372Y256420D02*
X5892Y256420D01*
X5892Y258900D01*
X19372Y258900D01*
X19372Y258595D02*
X5892Y258595D01*
X19372Y261420D02*
X19372Y263900D01*
X19372Y261420D02*
X5892Y261420D01*
X5892Y263900D01*
X19372Y263900D01*
X19372Y263595D02*
X5892Y263595D01*
X19372Y266420D02*
X19372Y268900D01*
X19372Y266420D02*
X5892Y266420D01*
X5892Y268900D01*
X19372Y268900D01*
X19372Y268595D02*
X5892Y268595D01*
X19372Y271420D02*
X19372Y273900D01*
X19372Y271420D02*
X5892Y271420D01*
X5892Y273900D01*
X19372Y273900D01*
X19372Y273595D02*
X5892Y273595D01*
X19372Y276420D02*
X19372Y278900D01*
X19372Y276420D02*
X5892Y276420D01*
X5892Y278900D01*
X19372Y278900D01*
X19372Y278595D02*
X5892Y278595D01*
X19372Y281420D02*
X19372Y283900D01*
X19372Y281420D02*
X5892Y281420D01*
X5892Y283900D01*
X19372Y283900D01*
X19372Y283595D02*
X5892Y283595D01*
D16*
X460882Y10160D03*
X418882Y10160D03*
X439882Y23160D03*
X418882Y370160D03*
X460882Y370160D03*
X439882Y357160D03*
D11*
X559006Y365220D02*
X564022Y365220D01*
X564022Y360204D01*
X559006Y360204D01*
X559006Y365220D01*
X559006Y362345D02*
X564022Y362345D01*
X564022Y364486D02*
X559006Y364486D01*
X554022Y365220D02*
X549006Y365220D01*
X554022Y365220D02*
X554022Y360204D01*
X549006Y360204D01*
X549006Y365220D01*
X549006Y362345D02*
X554022Y362345D01*
X554022Y364486D02*
X549006Y364486D01*
D17*
X322104Y211296D02*
X315436Y211296D01*
X315436Y225584D01*
X322104Y225584D01*
X322104Y211296D01*
X322104Y213408D02*
X315436Y213408D01*
X315436Y215520D02*
X322104Y215520D01*
X322104Y217632D02*
X315436Y217632D01*
X315436Y219744D02*
X322104Y219744D01*
X322104Y221856D02*
X315436Y221856D01*
X315436Y223968D02*
X322104Y223968D01*
X322104Y155416D02*
X315436Y155416D01*
X315436Y169704D01*
X322104Y169704D01*
X322104Y155416D01*
X322104Y157528D02*
X315436Y157528D01*
X315436Y159640D02*
X322104Y159640D01*
X322104Y161752D02*
X315436Y161752D01*
X315436Y163864D02*
X322104Y163864D01*
X322104Y165976D02*
X315436Y165976D01*
X315436Y168088D02*
X322104Y168088D01*
X284004Y211296D02*
X277336Y211296D01*
X277336Y225584D01*
X284004Y225584D01*
X284004Y211296D01*
X284004Y213408D02*
X277336Y213408D01*
X277336Y215520D02*
X284004Y215520D01*
X284004Y217632D02*
X277336Y217632D01*
X277336Y219744D02*
X284004Y219744D01*
X284004Y221856D02*
X277336Y221856D01*
X277336Y223968D02*
X284004Y223968D01*
X284004Y155416D02*
X277336Y155416D01*
X277336Y169704D01*
X284004Y169704D01*
X284004Y155416D01*
X284004Y157528D02*
X277336Y157528D01*
X277336Y159640D02*
X284004Y159640D01*
X284004Y161752D02*
X277336Y161752D01*
X277336Y163864D02*
X284004Y163864D01*
X284004Y165976D02*
X277336Y165976D01*
X277336Y168088D02*
X284004Y168088D01*
D12*
X453214Y64248D02*
X453214Y62284D01*
X453214Y64248D02*
X460678Y64248D01*
X460678Y62284D01*
X453214Y62284D01*
X453214Y67284D02*
X453214Y69248D01*
X460678Y69248D01*
X460678Y67284D01*
X453214Y67284D01*
X453214Y72284D02*
X453214Y74248D01*
X460678Y74248D01*
X460678Y72284D01*
X453214Y72284D01*
X453214Y77284D02*
X453214Y79248D01*
X460678Y79248D01*
X460678Y77284D01*
X453214Y77284D01*
X453214Y82284D02*
X453214Y84248D01*
X460678Y84248D01*
X460678Y82284D01*
X453214Y82284D01*
X453214Y87284D02*
X453214Y89248D01*
X460678Y89248D01*
X460678Y87284D01*
X453214Y87284D01*
X463964Y99998D02*
X465928Y99998D01*
X465928Y92534D01*
X463964Y92534D01*
X463964Y99998D01*
X463964Y94725D02*
X465928Y94725D01*
X465928Y96916D02*
X463964Y96916D01*
X463964Y99107D02*
X465928Y99107D01*
X468964Y99998D02*
X470928Y99998D01*
X470928Y92534D01*
X468964Y92534D01*
X468964Y99998D01*
X468964Y94725D02*
X470928Y94725D01*
X470928Y96916D02*
X468964Y96916D01*
X468964Y99107D02*
X470928Y99107D01*
X473964Y99998D02*
X475928Y99998D01*
X475928Y92534D01*
X473964Y92534D01*
X473964Y99998D01*
X473964Y94725D02*
X475928Y94725D01*
X475928Y96916D02*
X473964Y96916D01*
X473964Y99107D02*
X475928Y99107D01*
X478964Y99998D02*
X480928Y99998D01*
X480928Y92534D01*
X478964Y92534D01*
X478964Y99998D01*
X478964Y94725D02*
X480928Y94725D01*
X480928Y96916D02*
X478964Y96916D01*
X478964Y99107D02*
X480928Y99107D01*
X483964Y99998D02*
X485928Y99998D01*
X485928Y92534D01*
X483964Y92534D01*
X483964Y99998D01*
X483964Y94725D02*
X485928Y94725D01*
X485928Y96916D02*
X483964Y96916D01*
X483964Y99107D02*
X485928Y99107D01*
X488964Y99998D02*
X490928Y99998D01*
X490928Y92534D01*
X488964Y92534D01*
X488964Y99998D01*
X488964Y94725D02*
X490928Y94725D01*
X490928Y96916D02*
X488964Y96916D01*
X488964Y99107D02*
X490928Y99107D01*
X490928Y51534D02*
X488964Y51534D01*
X488964Y58998D01*
X490928Y58998D01*
X490928Y51534D01*
X490928Y53725D02*
X488964Y53725D01*
X488964Y55916D02*
X490928Y55916D01*
X490928Y58107D02*
X488964Y58107D01*
X485928Y51534D02*
X483964Y51534D01*
X483964Y58998D01*
X485928Y58998D01*
X485928Y51534D01*
X485928Y53725D02*
X483964Y53725D01*
X483964Y55916D02*
X485928Y55916D01*
X485928Y58107D02*
X483964Y58107D01*
X480928Y51534D02*
X478964Y51534D01*
X478964Y58998D01*
X480928Y58998D01*
X480928Y51534D01*
X480928Y53725D02*
X478964Y53725D01*
X478964Y55916D02*
X480928Y55916D01*
X480928Y58107D02*
X478964Y58107D01*
X475928Y51534D02*
X473964Y51534D01*
X473964Y58998D01*
X475928Y58998D01*
X475928Y51534D01*
X475928Y53725D02*
X473964Y53725D01*
X473964Y55916D02*
X475928Y55916D01*
X475928Y58107D02*
X473964Y58107D01*
X470928Y51534D02*
X468964Y51534D01*
X468964Y58998D01*
X470928Y58998D01*
X470928Y51534D01*
X470928Y53725D02*
X468964Y53725D01*
X468964Y55916D02*
X470928Y55916D01*
X470928Y58107D02*
X468964Y58107D01*
X465928Y51534D02*
X463964Y51534D01*
X463964Y58998D01*
X465928Y58998D01*
X465928Y51534D01*
X465928Y53725D02*
X463964Y53725D01*
X463964Y55916D02*
X465928Y55916D01*
X465928Y58107D02*
X463964Y58107D01*
X501678Y87284D02*
X501678Y89248D01*
X501678Y87284D02*
X494214Y87284D01*
X494214Y89248D01*
X501678Y89248D01*
X501678Y84248D02*
X501678Y82284D01*
X494214Y82284D01*
X494214Y84248D01*
X501678Y84248D01*
X501678Y79248D02*
X501678Y77284D01*
X494214Y77284D01*
X494214Y79248D01*
X501678Y79248D01*
X501678Y74248D02*
X501678Y72284D01*
X494214Y72284D01*
X494214Y74248D01*
X501678Y74248D01*
X501678Y69248D02*
X501678Y67284D01*
X494214Y67284D01*
X494214Y69248D01*
X501678Y69248D01*
X501678Y64248D02*
X501678Y62284D01*
X494214Y62284D01*
X494214Y64248D01*
X501678Y64248D01*
D18*
X489627Y63585D02*
X489627Y87947D01*
X489627Y63585D02*
X465265Y63585D01*
X465265Y87947D01*
X489627Y87947D01*
X489627Y65874D02*
X465265Y65874D01*
X465265Y68163D02*
X489627Y68163D01*
X489627Y70452D02*
X465265Y70452D01*
X465265Y72741D02*
X489627Y72741D01*
X489627Y75030D02*
X465265Y75030D01*
X465265Y77319D02*
X489627Y77319D01*
X489627Y79608D02*
X465265Y79608D01*
X465265Y81897D02*
X489627Y81897D01*
X489627Y84186D02*
X465265Y84186D01*
X465265Y86475D02*
X489627Y86475D01*
D11*
X532162Y76596D02*
X532162Y71580D01*
X532162Y76596D02*
X537178Y76596D01*
X537178Y71580D01*
X532162Y71580D01*
X532162Y73721D02*
X537178Y73721D01*
X537178Y75862D02*
X532162Y75862D01*
X532162Y66596D02*
X532162Y61580D01*
X532162Y66596D02*
X537178Y66596D01*
X537178Y61580D01*
X532162Y61580D01*
X532162Y63721D02*
X537178Y63721D01*
X537178Y65862D02*
X532162Y65862D01*
D12*
X593352Y61822D02*
X593352Y59858D01*
X584388Y59858D01*
X584388Y61822D01*
X593352Y61822D01*
X593352Y56822D02*
X593352Y54858D01*
X584388Y54858D01*
X584388Y56822D01*
X593352Y56822D01*
D11*
X593378Y83082D02*
X593378Y88098D01*
X593378Y83082D02*
X584362Y83082D01*
X584362Y88098D01*
X593378Y88098D01*
X593378Y85223D02*
X584362Y85223D01*
X584362Y87364D02*
X593378Y87364D01*
X593378Y80348D02*
X593378Y75332D01*
X584362Y75332D01*
X584362Y80348D01*
X593378Y80348D01*
X593378Y77473D02*
X584362Y77473D01*
X584362Y79614D02*
X593378Y79614D01*
D12*
X593352Y71822D02*
X593352Y69858D01*
X584388Y69858D01*
X584388Y71822D01*
X593352Y71822D01*
X593352Y66822D02*
X593352Y64858D01*
X584388Y64858D01*
X584388Y66822D01*
X593352Y66822D01*
X584388Y46822D02*
X584388Y44858D01*
X584388Y46822D02*
X593352Y46822D01*
X593352Y44858D01*
X584388Y44858D01*
X584388Y49858D02*
X584388Y51822D01*
X593352Y51822D01*
X593352Y49858D01*
X584388Y49858D01*
D11*
X584362Y23598D02*
X584362Y18582D01*
X584362Y23598D02*
X593378Y23598D01*
X593378Y18582D01*
X584362Y18582D01*
X584362Y20723D02*
X593378Y20723D01*
X593378Y22864D02*
X584362Y22864D01*
X584362Y26332D02*
X584362Y31348D01*
X593378Y31348D01*
X593378Y26332D01*
X584362Y26332D01*
X584362Y28473D02*
X593378Y28473D01*
X593378Y30614D02*
X584362Y30614D01*
D12*
X584388Y34858D02*
X584388Y36822D01*
X593352Y36822D01*
X593352Y34858D01*
X584388Y34858D01*
X584388Y39858D02*
X584388Y41822D01*
X593352Y41822D01*
X593352Y39858D01*
X584388Y39858D01*
D19*
X599920Y24440D03*
X599920Y82240D03*
D11*
X564690Y26448D02*
X559674Y26448D01*
X559674Y31464D01*
X564690Y31464D01*
X564690Y26448D01*
X564690Y28589D02*
X559674Y28589D01*
X559674Y30730D02*
X564690Y30730D01*
X569674Y26448D02*
X574690Y26448D01*
X569674Y26448D02*
X569674Y31464D01*
X574690Y31464D01*
X574690Y26448D01*
X574690Y28589D02*
X569674Y28589D01*
X569674Y30730D02*
X574690Y30730D01*
X568992Y80724D02*
X568992Y85740D01*
X574008Y85740D01*
X574008Y80724D01*
X568992Y80724D01*
X568992Y82865D02*
X574008Y82865D01*
X574008Y85006D02*
X568992Y85006D01*
X568992Y75740D02*
X568992Y70724D01*
X568992Y75740D02*
X574008Y75740D01*
X574008Y70724D01*
X568992Y70724D01*
X568992Y72865D02*
X574008Y72865D01*
X574008Y75006D02*
X568992Y75006D01*
D17*
X281972Y252000D02*
X275304Y252000D01*
X281972Y252000D02*
X281972Y237712D01*
X275304Y237712D01*
X275304Y252000D01*
X275304Y239824D02*
X281972Y239824D01*
X281972Y241936D02*
X275304Y241936D01*
X275304Y244048D02*
X281972Y244048D01*
X281972Y246160D02*
X275304Y246160D01*
X275304Y248272D02*
X281972Y248272D01*
X281972Y250384D02*
X275304Y250384D01*
X275304Y307880D02*
X281972Y307880D01*
X281972Y293592D01*
X275304Y293592D01*
X275304Y307880D01*
X275304Y295704D02*
X281972Y295704D01*
X281972Y297816D02*
X275304Y297816D01*
X275304Y299928D02*
X281972Y299928D01*
X281972Y302040D02*
X275304Y302040D01*
X275304Y304152D02*
X281972Y304152D01*
X281972Y306264D02*
X275304Y306264D01*
X313404Y252000D02*
X320072Y252000D01*
X320072Y237712D01*
X313404Y237712D01*
X313404Y252000D01*
X313404Y239824D02*
X320072Y239824D01*
X320072Y241936D02*
X313404Y241936D01*
X313404Y244048D02*
X320072Y244048D01*
X320072Y246160D02*
X313404Y246160D01*
X313404Y248272D02*
X320072Y248272D01*
X320072Y250384D02*
X313404Y250384D01*
X313404Y307880D02*
X320072Y307880D01*
X320072Y293592D01*
X313404Y293592D01*
X313404Y307880D01*
X313404Y295704D02*
X320072Y295704D01*
X320072Y297816D02*
X313404Y297816D01*
X313404Y299928D02*
X320072Y299928D01*
X320072Y302040D02*
X313404Y302040D01*
X313404Y304152D02*
X320072Y304152D01*
X320072Y306264D02*
X313404Y306264D01*
D14*
X549746Y346000D02*
X557270Y346000D01*
X549746Y346000D02*
X549746Y354024D01*
X557270Y354024D01*
X557270Y346000D01*
X557270Y348135D02*
X549746Y348135D01*
X549746Y350270D02*
X557270Y350270D01*
X557270Y352405D02*
X549746Y352405D01*
X561346Y346000D02*
X568870Y346000D01*
X561346Y346000D02*
X561346Y354024D01*
X568870Y354024D01*
X568870Y346000D01*
X568870Y348135D02*
X561346Y348135D01*
X561346Y350270D02*
X568870Y350270D01*
X568870Y352405D02*
X561346Y352405D01*
D11*
X550386Y19860D02*
X550386Y14844D01*
X545370Y14844D01*
X545370Y19860D01*
X550386Y19860D01*
X550386Y16985D02*
X545370Y16985D01*
X545370Y19126D02*
X550386Y19126D01*
X550386Y24844D02*
X550386Y29860D01*
X550386Y24844D02*
X545370Y24844D01*
X545370Y29860D01*
X550386Y29860D01*
X550386Y26985D02*
X545370Y26985D01*
X545370Y29126D02*
X550386Y29126D01*
X540480Y19860D02*
X540480Y14844D01*
X535464Y14844D01*
X535464Y19860D01*
X540480Y19860D01*
X540480Y16985D02*
X535464Y16985D01*
X535464Y19126D02*
X540480Y19126D01*
X540480Y24844D02*
X540480Y29860D01*
X540480Y24844D02*
X535464Y24844D01*
X535464Y29860D01*
X540480Y29860D01*
X540480Y26985D02*
X535464Y26985D01*
X535464Y29126D02*
X540480Y29126D01*
X615982Y139906D02*
X615982Y144922D01*
X620998Y144922D01*
X620998Y139906D01*
X615982Y139906D01*
X615982Y142047D02*
X620998Y142047D01*
X620998Y144188D02*
X615982Y144188D01*
X615982Y134922D02*
X615982Y129906D01*
X615982Y134922D02*
X620998Y134922D01*
X620998Y129906D01*
X615982Y129906D01*
X615982Y132047D02*
X620998Y132047D01*
X620998Y134188D02*
X615982Y134188D01*
D20*
X629474Y130614D02*
X636462Y130614D01*
X636462Y123626D01*
X629474Y123626D01*
X629474Y130614D01*
X629474Y127695D02*
X636462Y127695D01*
X636462Y148154D02*
X629474Y148154D01*
X636462Y148154D02*
X636462Y141166D01*
X629474Y141166D01*
X629474Y148154D01*
X629474Y145235D02*
X636462Y145235D01*
D11*
X52852Y196882D02*
X52852Y201898D01*
X63868Y201898D01*
X63868Y196882D01*
X52852Y196882D01*
X52852Y199023D02*
X63868Y199023D01*
X63868Y201164D02*
X52852Y201164D01*
X52852Y189198D02*
X52852Y184182D01*
X52852Y189198D02*
X63868Y189198D01*
X63868Y184182D01*
X52852Y184182D01*
X52852Y186323D02*
X63868Y186323D01*
X63868Y188464D02*
X52852Y188464D01*
X52852Y176498D02*
X52852Y171482D01*
X52852Y176498D02*
X63868Y176498D01*
X63868Y171482D01*
X52852Y171482D01*
X52852Y173623D02*
X63868Y173623D01*
X63868Y175764D02*
X52852Y175764D01*
X52852Y163798D02*
X52852Y158782D01*
X52852Y163798D02*
X63868Y163798D01*
X63868Y158782D01*
X52852Y158782D01*
X52852Y160923D02*
X63868Y160923D01*
X63868Y163064D02*
X52852Y163064D01*
X108852Y163798D02*
X108852Y158782D01*
X108852Y163798D02*
X119868Y163798D01*
X119868Y158782D01*
X108852Y158782D01*
X108852Y160923D02*
X119868Y160923D01*
X119868Y163064D02*
X108852Y163064D01*
X108852Y171482D02*
X108852Y176498D01*
X119868Y176498D01*
X119868Y171482D01*
X108852Y171482D01*
X108852Y173623D02*
X119868Y173623D01*
X119868Y175764D02*
X108852Y175764D01*
X108852Y184182D02*
X108852Y189198D01*
X119868Y189198D01*
X119868Y184182D01*
X108852Y184182D01*
X108852Y186323D02*
X119868Y186323D01*
X119868Y188464D02*
X108852Y188464D01*
X108852Y196882D02*
X108852Y201898D01*
X119868Y201898D01*
X119868Y196882D01*
X108852Y196882D01*
X108852Y199023D02*
X119868Y199023D01*
X119868Y201164D02*
X108852Y201164D01*
D21*
X562198Y324294D02*
X570210Y324294D01*
X562198Y324294D02*
X562198Y338306D01*
X570210Y338306D01*
X570210Y324294D01*
X570210Y326440D02*
X562198Y326440D01*
X562198Y328586D02*
X570210Y328586D01*
X570210Y330732D02*
X562198Y330732D01*
X562198Y332878D02*
X570210Y332878D01*
X570210Y335024D02*
X562198Y335024D01*
X562198Y337170D02*
X570210Y337170D01*
X557510Y324294D02*
X549498Y324294D01*
X549498Y338306D01*
X557510Y338306D01*
X557510Y324294D01*
X557510Y326440D02*
X549498Y326440D01*
X549498Y328586D02*
X557510Y328586D01*
X557510Y330732D02*
X549498Y330732D01*
X549498Y332878D02*
X557510Y332878D01*
X557510Y335024D02*
X549498Y335024D01*
X549498Y337170D02*
X557510Y337170D01*
X544810Y324294D02*
X536798Y324294D01*
X536798Y338306D01*
X544810Y338306D01*
X544810Y324294D01*
X544810Y326440D02*
X536798Y326440D01*
X536798Y328586D02*
X544810Y328586D01*
X544810Y330732D02*
X536798Y330732D01*
X536798Y332878D02*
X544810Y332878D01*
X544810Y335024D02*
X536798Y335024D01*
X536798Y337170D02*
X544810Y337170D01*
X532110Y324294D02*
X524098Y324294D01*
X524098Y338306D01*
X532110Y338306D01*
X532110Y324294D01*
X532110Y326440D02*
X524098Y326440D01*
X524098Y328586D02*
X532110Y328586D01*
X532110Y330732D02*
X524098Y330732D01*
X524098Y332878D02*
X532110Y332878D01*
X532110Y335024D02*
X524098Y335024D01*
X524098Y337170D02*
X532110Y337170D01*
X519410Y324294D02*
X511398Y324294D01*
X511398Y338306D01*
X519410Y338306D01*
X519410Y324294D01*
X519410Y326440D02*
X511398Y326440D01*
X511398Y328586D02*
X519410Y328586D01*
X519410Y330732D02*
X511398Y330732D01*
X511398Y332878D02*
X519410Y332878D01*
X519410Y335024D02*
X511398Y335024D01*
X511398Y337170D02*
X519410Y337170D01*
X506710Y324294D02*
X498698Y324294D01*
X498698Y338306D01*
X506710Y338306D01*
X506710Y324294D01*
X506710Y326440D02*
X498698Y326440D01*
X498698Y328586D02*
X506710Y328586D01*
X506710Y330732D02*
X498698Y330732D01*
X498698Y332878D02*
X506710Y332878D01*
X506710Y335024D02*
X498698Y335024D01*
X498698Y337170D02*
X506710Y337170D01*
X494010Y324294D02*
X485998Y324294D01*
X485998Y338306D01*
X494010Y338306D01*
X494010Y324294D01*
X494010Y326440D02*
X485998Y326440D01*
X485998Y328586D02*
X494010Y328586D01*
X494010Y330732D02*
X485998Y330732D01*
X485998Y332878D02*
X494010Y332878D01*
X494010Y335024D02*
X485998Y335024D01*
X485998Y337170D02*
X494010Y337170D01*
X481310Y324294D02*
X473298Y324294D01*
X473298Y338306D01*
X481310Y338306D01*
X481310Y324294D01*
X481310Y326440D02*
X473298Y326440D01*
X473298Y328586D02*
X481310Y328586D01*
X481310Y330732D02*
X473298Y330732D01*
X473298Y332878D02*
X481310Y332878D01*
X481310Y335024D02*
X473298Y335024D01*
X473298Y337170D02*
X481310Y337170D01*
X468610Y324294D02*
X460598Y324294D01*
X460598Y338306D01*
X468610Y338306D01*
X468610Y324294D01*
X468610Y326440D02*
X460598Y326440D01*
X460598Y328586D02*
X468610Y328586D01*
X468610Y330732D02*
X460598Y330732D01*
X460598Y332878D02*
X468610Y332878D01*
X468610Y335024D02*
X460598Y335024D01*
X460598Y337170D02*
X468610Y337170D01*
X455910Y324294D02*
X447898Y324294D01*
X447898Y338306D01*
X455910Y338306D01*
X455910Y324294D01*
X455910Y326440D02*
X447898Y326440D01*
X447898Y328586D02*
X455910Y328586D01*
X455910Y330732D02*
X447898Y330732D01*
X447898Y332878D02*
X455910Y332878D01*
X455910Y335024D02*
X447898Y335024D01*
X447898Y337170D02*
X455910Y337170D01*
X443210Y324294D02*
X435198Y324294D01*
X435198Y338306D01*
X443210Y338306D01*
X443210Y324294D01*
X443210Y326440D02*
X435198Y326440D01*
X435198Y328586D02*
X443210Y328586D01*
X443210Y330732D02*
X435198Y330732D01*
X435198Y332878D02*
X443210Y332878D01*
X443210Y335024D02*
X435198Y335024D01*
X435198Y337170D02*
X443210Y337170D01*
X430510Y324294D02*
X422498Y324294D01*
X422498Y338306D01*
X430510Y338306D01*
X430510Y324294D01*
X430510Y326440D02*
X422498Y326440D01*
X422498Y328586D02*
X430510Y328586D01*
X430510Y330732D02*
X422498Y330732D01*
X422498Y332878D02*
X430510Y332878D01*
X430510Y335024D02*
X422498Y335024D01*
X422498Y337170D02*
X430510Y337170D01*
X417810Y324294D02*
X409798Y324294D01*
X409798Y338306D01*
X417810Y338306D01*
X417810Y324294D01*
X417810Y326440D02*
X409798Y326440D01*
X409798Y328586D02*
X417810Y328586D01*
X417810Y330732D02*
X409798Y330732D01*
X409798Y332878D02*
X417810Y332878D01*
X417810Y335024D02*
X409798Y335024D01*
X409798Y337170D02*
X417810Y337170D01*
X405110Y324294D02*
X397098Y324294D01*
X397098Y338306D01*
X405110Y338306D01*
X405110Y324294D01*
X405110Y326440D02*
X397098Y326440D01*
X397098Y328586D02*
X405110Y328586D01*
X405110Y330732D02*
X397098Y330732D01*
X397098Y332878D02*
X405110Y332878D01*
X405110Y335024D02*
X397098Y335024D01*
X397098Y337170D02*
X405110Y337170D01*
X393210Y310076D02*
X393210Y302064D01*
X379198Y302064D01*
X379198Y310076D01*
X393210Y310076D01*
X393210Y304210D02*
X379198Y304210D01*
X379198Y306356D02*
X393210Y306356D01*
X393210Y308502D02*
X379198Y308502D01*
X393210Y297376D02*
X393210Y289364D01*
X379198Y289364D01*
X379198Y297376D01*
X393210Y297376D01*
X393210Y291510D02*
X379198Y291510D01*
X379198Y293656D02*
X393210Y293656D01*
X393210Y295802D02*
X379198Y295802D01*
X393210Y284676D02*
X393210Y276664D01*
X379198Y276664D01*
X379198Y284676D01*
X393210Y284676D01*
X393210Y278810D02*
X379198Y278810D01*
X379198Y280956D02*
X393210Y280956D01*
X393210Y283102D02*
X379198Y283102D01*
X393210Y271976D02*
X393210Y263964D01*
X379198Y263964D01*
X379198Y271976D01*
X393210Y271976D01*
X393210Y266110D02*
X379198Y266110D01*
X379198Y268256D02*
X393210Y268256D01*
X393210Y270402D02*
X379198Y270402D01*
X393210Y259276D02*
X393210Y251264D01*
X379198Y251264D01*
X379198Y259276D01*
X393210Y259276D01*
X393210Y253410D02*
X379198Y253410D01*
X379198Y255556D02*
X393210Y255556D01*
X393210Y257702D02*
X379198Y257702D01*
X393210Y246576D02*
X393210Y238564D01*
X379198Y238564D01*
X379198Y246576D01*
X393210Y246576D01*
X393210Y240710D02*
X379198Y240710D01*
X379198Y242856D02*
X393210Y242856D01*
X393210Y245002D02*
X379198Y245002D01*
X393210Y233876D02*
X393210Y225864D01*
X379198Y225864D01*
X379198Y233876D01*
X393210Y233876D01*
X393210Y228010D02*
X379198Y228010D01*
X379198Y230156D02*
X393210Y230156D01*
X393210Y232302D02*
X379198Y232302D01*
X393210Y221176D02*
X393210Y213164D01*
X379198Y213164D01*
X379198Y221176D01*
X393210Y221176D01*
X393210Y215310D02*
X379198Y215310D01*
X379198Y217456D02*
X393210Y217456D01*
X393210Y219602D02*
X379198Y219602D01*
X393210Y208476D02*
X393210Y200464D01*
X379198Y200464D01*
X379198Y208476D01*
X393210Y208476D01*
X393210Y202610D02*
X379198Y202610D01*
X379198Y204756D02*
X393210Y204756D01*
X393210Y206902D02*
X379198Y206902D01*
X393210Y195776D02*
X393210Y187764D01*
X379198Y187764D01*
X379198Y195776D01*
X393210Y195776D01*
X393210Y189910D02*
X379198Y189910D01*
X379198Y192056D02*
X393210Y192056D01*
X393210Y194202D02*
X379198Y194202D01*
X397098Y159534D02*
X405110Y159534D01*
X397098Y159534D02*
X397098Y173546D01*
X405110Y173546D01*
X405110Y159534D01*
X405110Y161680D02*
X397098Y161680D01*
X397098Y163826D02*
X405110Y163826D01*
X405110Y165972D02*
X397098Y165972D01*
X397098Y168118D02*
X405110Y168118D01*
X405110Y170264D02*
X397098Y170264D01*
X397098Y172410D02*
X405110Y172410D01*
X409798Y159534D02*
X417810Y159534D01*
X409798Y159534D02*
X409798Y173546D01*
X417810Y173546D01*
X417810Y159534D01*
X417810Y161680D02*
X409798Y161680D01*
X409798Y163826D02*
X417810Y163826D01*
X417810Y165972D02*
X409798Y165972D01*
X409798Y168118D02*
X417810Y168118D01*
X417810Y170264D02*
X409798Y170264D01*
X409798Y172410D02*
X417810Y172410D01*
X422498Y159534D02*
X430510Y159534D01*
X422498Y159534D02*
X422498Y173546D01*
X430510Y173546D01*
X430510Y159534D01*
X430510Y161680D02*
X422498Y161680D01*
X422498Y163826D02*
X430510Y163826D01*
X430510Y165972D02*
X422498Y165972D01*
X422498Y168118D02*
X430510Y168118D01*
X430510Y170264D02*
X422498Y170264D01*
X422498Y172410D02*
X430510Y172410D01*
X435198Y159534D02*
X443210Y159534D01*
X435198Y159534D02*
X435198Y173546D01*
X443210Y173546D01*
X443210Y159534D01*
X443210Y161680D02*
X435198Y161680D01*
X435198Y163826D02*
X443210Y163826D01*
X443210Y165972D02*
X435198Y165972D01*
X435198Y168118D02*
X443210Y168118D01*
X443210Y170264D02*
X435198Y170264D01*
X435198Y172410D02*
X443210Y172410D01*
X447898Y159534D02*
X455910Y159534D01*
X447898Y159534D02*
X447898Y173546D01*
X455910Y173546D01*
X455910Y159534D01*
X455910Y161680D02*
X447898Y161680D01*
X447898Y163826D02*
X455910Y163826D01*
X455910Y165972D02*
X447898Y165972D01*
X447898Y168118D02*
X455910Y168118D01*
X455910Y170264D02*
X447898Y170264D01*
X447898Y172410D02*
X455910Y172410D01*
X460598Y159534D02*
X468610Y159534D01*
X460598Y159534D02*
X460598Y173546D01*
X468610Y173546D01*
X468610Y159534D01*
X468610Y161680D02*
X460598Y161680D01*
X460598Y163826D02*
X468610Y163826D01*
X468610Y165972D02*
X460598Y165972D01*
X460598Y168118D02*
X468610Y168118D01*
X468610Y170264D02*
X460598Y170264D01*
X460598Y172410D02*
X468610Y172410D01*
X473298Y159534D02*
X481310Y159534D01*
X473298Y159534D02*
X473298Y173546D01*
X481310Y173546D01*
X481310Y159534D01*
X481310Y161680D02*
X473298Y161680D01*
X473298Y163826D02*
X481310Y163826D01*
X481310Y165972D02*
X473298Y165972D01*
X473298Y168118D02*
X481310Y168118D01*
X481310Y170264D02*
X473298Y170264D01*
X473298Y172410D02*
X481310Y172410D01*
X485998Y159534D02*
X494010Y159534D01*
X485998Y159534D02*
X485998Y173546D01*
X494010Y173546D01*
X494010Y159534D01*
X494010Y161680D02*
X485998Y161680D01*
X485998Y163826D02*
X494010Y163826D01*
X494010Y165972D02*
X485998Y165972D01*
X485998Y168118D02*
X494010Y168118D01*
X494010Y170264D02*
X485998Y170264D01*
X485998Y172410D02*
X494010Y172410D01*
X498698Y159534D02*
X506710Y159534D01*
X498698Y159534D02*
X498698Y173546D01*
X506710Y173546D01*
X506710Y159534D01*
X506710Y161680D02*
X498698Y161680D01*
X498698Y163826D02*
X506710Y163826D01*
X506710Y165972D02*
X498698Y165972D01*
X498698Y168118D02*
X506710Y168118D01*
X506710Y170264D02*
X498698Y170264D01*
X498698Y172410D02*
X506710Y172410D01*
X511398Y159534D02*
X519410Y159534D01*
X511398Y159534D02*
X511398Y173546D01*
X519410Y173546D01*
X519410Y159534D01*
X519410Y161680D02*
X511398Y161680D01*
X511398Y163826D02*
X519410Y163826D01*
X519410Y165972D02*
X511398Y165972D01*
X511398Y168118D02*
X519410Y168118D01*
X519410Y170264D02*
X511398Y170264D01*
X511398Y172410D02*
X519410Y172410D01*
X524098Y159534D02*
X532110Y159534D01*
X524098Y159534D02*
X524098Y173546D01*
X532110Y173546D01*
X532110Y159534D01*
X532110Y161680D02*
X524098Y161680D01*
X524098Y163826D02*
X532110Y163826D01*
X532110Y165972D02*
X524098Y165972D01*
X524098Y168118D02*
X532110Y168118D01*
X532110Y170264D02*
X524098Y170264D01*
X524098Y172410D02*
X532110Y172410D01*
X536798Y159534D02*
X544810Y159534D01*
X536798Y159534D02*
X536798Y173546D01*
X544810Y173546D01*
X544810Y159534D01*
X544810Y161680D02*
X536798Y161680D01*
X536798Y163826D02*
X544810Y163826D01*
X544810Y165972D02*
X536798Y165972D01*
X536798Y168118D02*
X544810Y168118D01*
X544810Y170264D02*
X536798Y170264D01*
X536798Y172410D02*
X544810Y172410D01*
X549498Y159534D02*
X557510Y159534D01*
X549498Y159534D02*
X549498Y173546D01*
X557510Y173546D01*
X557510Y159534D01*
X557510Y161680D02*
X549498Y161680D01*
X549498Y163826D02*
X557510Y163826D01*
X557510Y165972D02*
X549498Y165972D01*
X549498Y168118D02*
X557510Y168118D01*
X557510Y170264D02*
X549498Y170264D01*
X549498Y172410D02*
X557510Y172410D01*
X562198Y159534D02*
X570210Y159534D01*
X562198Y159534D02*
X562198Y173546D01*
X570210Y173546D01*
X570210Y159534D01*
X570210Y161680D02*
X562198Y161680D01*
X562198Y163826D02*
X570210Y163826D01*
X570210Y165972D02*
X562198Y165972D01*
X562198Y168118D02*
X570210Y168118D01*
X570210Y170264D02*
X562198Y170264D01*
X562198Y172410D02*
X570210Y172410D01*
D22*
X498904Y258110D02*
X486664Y258110D01*
X486664Y270350D01*
X498904Y270350D01*
X498904Y258110D01*
X498904Y260324D02*
X486664Y260324D01*
X486664Y262538D02*
X498904Y262538D01*
X498904Y264752D02*
X486664Y264752D01*
X486664Y266966D02*
X498904Y266966D01*
X498904Y269180D02*
X486664Y269180D01*
X504874Y239660D02*
X517114Y239660D01*
X504874Y239660D02*
X504874Y251900D01*
X517114Y251900D01*
X517114Y239660D01*
X517114Y241874D02*
X504874Y241874D01*
X504874Y244088D02*
X517114Y244088D01*
X517114Y246302D02*
X504874Y246302D01*
X504874Y248516D02*
X517114Y248516D01*
X517114Y250730D02*
X504874Y250730D01*
X504874Y257960D02*
X517114Y257960D01*
X504874Y257960D02*
X504874Y270200D01*
X517114Y270200D01*
X517114Y257960D01*
X517114Y260174D02*
X504874Y260174D01*
X504874Y262388D02*
X517114Y262388D01*
X517114Y264602D02*
X504874Y264602D01*
X504874Y266816D02*
X517114Y266816D01*
X517114Y269030D02*
X504874Y269030D01*
X504874Y276260D02*
X517114Y276260D01*
X504874Y276260D02*
X504874Y288500D01*
X517114Y288500D01*
X517114Y276260D01*
X517114Y278474D02*
X504874Y278474D01*
X504874Y280688D02*
X517114Y280688D01*
X517114Y282902D02*
X504874Y282902D01*
X504874Y285116D02*
X517114Y285116D01*
X517114Y287330D02*
X504874Y287330D01*
X498814Y276260D02*
X486574Y276260D01*
X486574Y288500D01*
X498814Y288500D01*
X498814Y276260D01*
X498814Y278474D02*
X486574Y278474D01*
X486574Y280688D02*
X498814Y280688D01*
X498814Y282902D02*
X486574Y282902D01*
X486574Y285116D02*
X498814Y285116D01*
X498814Y287330D02*
X486574Y287330D01*
X486874Y239560D02*
X499114Y239560D01*
X486874Y239560D02*
X486874Y251800D01*
X499114Y251800D01*
X499114Y239560D01*
X499114Y241774D02*
X486874Y241774D01*
X486874Y243988D02*
X499114Y243988D01*
X499114Y246202D02*
X486874Y246202D01*
X486874Y248416D02*
X499114Y248416D01*
X499114Y250630D02*
X486874Y250630D01*
X480514Y239660D02*
X468274Y239660D01*
X468274Y251900D01*
X480514Y251900D01*
X480514Y239660D01*
X480514Y241874D02*
X468274Y241874D01*
X468274Y244088D02*
X480514Y244088D01*
X480514Y246302D02*
X468274Y246302D01*
X468274Y248516D02*
X480514Y248516D01*
X480514Y250730D02*
X468274Y250730D01*
X468174Y257960D02*
X480414Y257960D01*
X468174Y257960D02*
X468174Y270200D01*
X480414Y270200D01*
X480414Y257960D01*
X480414Y260174D02*
X468174Y260174D01*
X468174Y262388D02*
X480414Y262388D01*
X480414Y264602D02*
X468174Y264602D01*
X468174Y266816D02*
X480414Y266816D01*
X480414Y269030D02*
X468174Y269030D01*
X468274Y276260D02*
X480514Y276260D01*
X468274Y276260D02*
X468274Y288500D01*
X480514Y288500D01*
X480514Y276260D01*
X480514Y278474D02*
X468274Y278474D01*
X468274Y280688D02*
X480514Y280688D01*
X480514Y282902D02*
X468274Y282902D01*
X468274Y285116D02*
X480514Y285116D01*
X480514Y287330D02*
X468274Y287330D01*
M02*
