G04 EAGLE Gerber RS-274X export*
G75*
%MOMM*%
%FSLAX34Y34*%
%LPD*%
%INSilkscreen Bottom*%
%IPPOS*%
%AMOC8*
5,1,8,0,0,1.08239X$1,22.5*%
G01*
%ADD10C,0.203200*%

G36*
X1003820Y625386D02*
X1003820Y625386D01*
X1003828Y625388D01*
X1004028Y625888D01*
X1004024Y625901D01*
X1004031Y625906D01*
X1004031Y638806D01*
X1004002Y638844D01*
X1004000Y638852D01*
X1003500Y639052D01*
X1003488Y639048D01*
X1003487Y639048D01*
X1003482Y639055D01*
X972382Y639055D01*
X972335Y639019D01*
X972339Y639014D01*
X972337Y639012D01*
X972343Y639004D01*
X972337Y638996D01*
X972329Y639021D01*
X972284Y639053D01*
X972282Y639055D01*
X971682Y639055D01*
X971678Y639052D01*
X971675Y639055D01*
X970275Y638855D01*
X970272Y638851D01*
X970270Y638851D01*
X970269Y638851D01*
X970266Y638853D01*
X969666Y638653D01*
X969663Y638648D01*
X969660Y638650D01*
X968460Y638050D01*
X968458Y638046D01*
X968455Y638047D01*
X967855Y637647D01*
X967854Y637644D01*
X967851Y637644D01*
X967351Y637244D01*
X967350Y637240D01*
X967347Y637241D01*
X966847Y636741D01*
X966846Y636734D01*
X966841Y636733D01*
X966442Y636135D01*
X966044Y635637D01*
X966043Y635629D01*
X966038Y635628D01*
X965738Y635028D01*
X965739Y635025D01*
X965736Y635023D01*
X965738Y635021D01*
X965735Y635020D01*
X965708Y634925D01*
X965665Y634777D01*
X965651Y634728D01*
X965609Y634580D01*
X965567Y634432D01*
X965553Y634383D01*
X965535Y634321D01*
X965335Y633722D01*
X965337Y633715D01*
X965333Y633713D01*
X965133Y632313D01*
X965139Y632303D01*
X965133Y632298D01*
X965233Y631702D01*
X965233Y631006D01*
X965239Y630998D01*
X965235Y630992D01*
X965435Y630292D01*
X965436Y630291D01*
X965435Y630290D01*
X965635Y629690D01*
X965640Y629687D01*
X965638Y629684D01*
X966238Y628484D01*
X966245Y628481D01*
X966244Y628475D01*
X966644Y627975D01*
X966644Y627974D01*
X967144Y627374D01*
X967151Y627373D01*
X967151Y627368D01*
X968151Y626568D01*
X968155Y626567D01*
X968155Y626565D01*
X968755Y626165D01*
X968759Y626165D01*
X968760Y626162D01*
X969360Y625862D01*
X969365Y625863D01*
X969366Y625859D01*
X969966Y625659D01*
X969973Y625661D01*
X969975Y625657D01*
X970675Y625557D01*
X971374Y625457D01*
X971974Y625357D01*
X971979Y625360D01*
X971982Y625357D01*
X1003782Y625357D01*
X1003820Y625386D01*
G37*
G36*
X231660Y625386D02*
X231660Y625386D01*
X231668Y625388D01*
X231868Y625888D01*
X231864Y625901D01*
X231871Y625906D01*
X231871Y638806D01*
X231842Y638844D01*
X231840Y638852D01*
X231340Y639052D01*
X231328Y639048D01*
X231327Y639048D01*
X231322Y639055D01*
X200222Y639055D01*
X200175Y639019D01*
X200179Y639014D01*
X200177Y639012D01*
X200183Y639004D01*
X200177Y638996D01*
X200169Y639021D01*
X200124Y639053D01*
X200122Y639055D01*
X199522Y639055D01*
X199518Y639052D01*
X199515Y639055D01*
X198115Y638855D01*
X198112Y638851D01*
X198110Y638851D01*
X198109Y638851D01*
X198106Y638853D01*
X197506Y638653D01*
X197503Y638648D01*
X197500Y638650D01*
X196300Y638050D01*
X196298Y638046D01*
X196295Y638047D01*
X195695Y637647D01*
X195694Y637644D01*
X195691Y637644D01*
X195191Y637244D01*
X195190Y637240D01*
X195187Y637241D01*
X194687Y636741D01*
X194686Y636734D01*
X194681Y636733D01*
X194282Y636135D01*
X193884Y635637D01*
X193883Y635629D01*
X193878Y635628D01*
X193578Y635028D01*
X193579Y635025D01*
X193576Y635023D01*
X193578Y635021D01*
X193575Y635020D01*
X193548Y634925D01*
X193505Y634777D01*
X193491Y634728D01*
X193449Y634580D01*
X193407Y634432D01*
X193393Y634383D01*
X193375Y634321D01*
X193175Y633722D01*
X193177Y633715D01*
X193173Y633713D01*
X192973Y632313D01*
X192979Y632303D01*
X192973Y632298D01*
X193073Y631702D01*
X193073Y631006D01*
X193079Y630998D01*
X193075Y630992D01*
X193275Y630292D01*
X193276Y630291D01*
X193275Y630290D01*
X193475Y629690D01*
X193480Y629687D01*
X193478Y629684D01*
X194078Y628484D01*
X194085Y628481D01*
X194084Y628475D01*
X194484Y627975D01*
X194484Y627974D01*
X194984Y627374D01*
X194991Y627373D01*
X194991Y627368D01*
X195991Y626568D01*
X195995Y626567D01*
X195995Y626565D01*
X196595Y626165D01*
X196599Y626165D01*
X196600Y626162D01*
X197200Y625862D01*
X197205Y625863D01*
X197206Y625859D01*
X197806Y625659D01*
X197813Y625661D01*
X197815Y625657D01*
X198515Y625557D01*
X199214Y625457D01*
X199814Y625357D01*
X199819Y625360D01*
X199822Y625357D01*
X231622Y625357D01*
X231660Y625386D01*
G37*
G36*
X617740Y625386D02*
X617740Y625386D01*
X617748Y625388D01*
X617948Y625888D01*
X617944Y625901D01*
X617951Y625906D01*
X617951Y638806D01*
X617922Y638844D01*
X617920Y638852D01*
X617420Y639052D01*
X617408Y639048D01*
X617407Y639048D01*
X617402Y639055D01*
X586302Y639055D01*
X586255Y639019D01*
X586259Y639014D01*
X586257Y639012D01*
X586263Y639004D01*
X586257Y638996D01*
X586249Y639021D01*
X586204Y639053D01*
X586202Y639055D01*
X585602Y639055D01*
X585598Y639052D01*
X585595Y639055D01*
X584195Y638855D01*
X584192Y638851D01*
X584190Y638851D01*
X584189Y638851D01*
X584186Y638853D01*
X583586Y638653D01*
X583583Y638648D01*
X583580Y638650D01*
X582380Y638050D01*
X582378Y638046D01*
X582375Y638047D01*
X581775Y637647D01*
X581774Y637644D01*
X581771Y637644D01*
X581271Y637244D01*
X581270Y637240D01*
X581267Y637241D01*
X580767Y636741D01*
X580766Y636734D01*
X580761Y636733D01*
X580362Y636135D01*
X579964Y635637D01*
X579963Y635629D01*
X579958Y635628D01*
X579658Y635028D01*
X579659Y635025D01*
X579656Y635023D01*
X579658Y635021D01*
X579655Y635020D01*
X579628Y634925D01*
X579585Y634777D01*
X579571Y634728D01*
X579529Y634580D01*
X579487Y634432D01*
X579473Y634383D01*
X579455Y634321D01*
X579255Y633722D01*
X579257Y633715D01*
X579253Y633713D01*
X579053Y632313D01*
X579059Y632303D01*
X579053Y632298D01*
X579153Y631702D01*
X579153Y631006D01*
X579159Y630998D01*
X579155Y630992D01*
X579355Y630292D01*
X579356Y630291D01*
X579355Y630290D01*
X579555Y629690D01*
X579560Y629687D01*
X579558Y629684D01*
X580158Y628484D01*
X580165Y628481D01*
X580164Y628475D01*
X580564Y627975D01*
X580564Y627974D01*
X581064Y627374D01*
X581071Y627373D01*
X581071Y627368D01*
X582071Y626568D01*
X582075Y626567D01*
X582075Y626565D01*
X582675Y626165D01*
X582679Y626165D01*
X582680Y626162D01*
X583280Y625862D01*
X583285Y625863D01*
X583286Y625859D01*
X583886Y625659D01*
X583893Y625661D01*
X583895Y625657D01*
X584595Y625557D01*
X585294Y625457D01*
X585894Y625357D01*
X585899Y625360D01*
X585902Y625357D01*
X617702Y625357D01*
X617740Y625386D01*
G37*
G36*
X952985Y724199D02*
X952985Y724199D01*
X952975Y724212D01*
X952983Y724222D01*
X952991Y724197D01*
X953036Y724165D01*
X953038Y724163D01*
X953638Y724163D01*
X953642Y724166D01*
X953645Y724163D01*
X955045Y724363D01*
X955050Y724368D01*
X955054Y724365D01*
X955654Y724565D01*
X955657Y724570D01*
X955660Y724568D01*
X956860Y725168D01*
X956862Y725172D01*
X956865Y725171D01*
X957465Y725571D01*
X957466Y725574D01*
X957469Y725574D01*
X957969Y725974D01*
X957970Y725978D01*
X957973Y725977D01*
X958473Y726477D01*
X958474Y726484D01*
X958479Y726485D01*
X958878Y727083D01*
X959276Y727581D01*
X959277Y727589D01*
X959282Y727590D01*
X959582Y728190D01*
X959581Y728197D01*
X959585Y728198D01*
X959610Y728286D01*
X959611Y728286D01*
X959610Y728286D01*
X959653Y728434D01*
X959667Y728483D01*
X959709Y728631D01*
X959751Y728779D01*
X959765Y728828D01*
X959785Y728897D01*
X959985Y729496D01*
X959983Y729503D01*
X959987Y729505D01*
X960187Y730905D01*
X960181Y730915D01*
X960187Y730920D01*
X960087Y731516D01*
X960087Y732212D01*
X960081Y732220D01*
X960085Y732226D01*
X959885Y732926D01*
X959884Y732927D01*
X959885Y732928D01*
X959685Y733528D01*
X959680Y733531D01*
X959682Y733534D01*
X959082Y734734D01*
X959075Y734737D01*
X959076Y734743D01*
X958676Y735243D01*
X958676Y735244D01*
X958176Y735844D01*
X958169Y735845D01*
X958169Y735850D01*
X957169Y736650D01*
X957165Y736651D01*
X957165Y736653D01*
X956565Y737053D01*
X956561Y737053D01*
X956560Y737056D01*
X955960Y737356D01*
X955955Y737355D01*
X955954Y737359D01*
X955354Y737559D01*
X955347Y737557D01*
X955345Y737561D01*
X954645Y737661D01*
X953946Y737761D01*
X953346Y737861D01*
X953341Y737858D01*
X953338Y737861D01*
X921538Y737861D01*
X921500Y737832D01*
X921492Y737830D01*
X921292Y737330D01*
X921293Y737328D01*
X921291Y737326D01*
X921295Y737320D01*
X921296Y737317D01*
X921289Y737312D01*
X921289Y724412D01*
X921318Y724374D01*
X921320Y724366D01*
X921820Y724166D01*
X921833Y724170D01*
X921838Y724163D01*
X952938Y724163D01*
X952985Y724199D01*
G37*
G36*
X180825Y724199D02*
X180825Y724199D01*
X180815Y724212D01*
X180823Y724222D01*
X180831Y724197D01*
X180876Y724165D01*
X180878Y724163D01*
X181478Y724163D01*
X181482Y724166D01*
X181485Y724163D01*
X182885Y724363D01*
X182890Y724368D01*
X182894Y724365D01*
X183494Y724565D01*
X183497Y724570D01*
X183500Y724568D01*
X184700Y725168D01*
X184702Y725172D01*
X184705Y725171D01*
X185305Y725571D01*
X185306Y725574D01*
X185309Y725574D01*
X185809Y725974D01*
X185810Y725978D01*
X185813Y725977D01*
X186313Y726477D01*
X186314Y726484D01*
X186319Y726485D01*
X186718Y727083D01*
X187116Y727581D01*
X187117Y727589D01*
X187122Y727590D01*
X187422Y728190D01*
X187421Y728197D01*
X187425Y728198D01*
X187450Y728286D01*
X187451Y728286D01*
X187450Y728286D01*
X187493Y728434D01*
X187507Y728483D01*
X187549Y728631D01*
X187591Y728779D01*
X187605Y728828D01*
X187625Y728897D01*
X187825Y729496D01*
X187823Y729503D01*
X187827Y729505D01*
X188027Y730905D01*
X188021Y730915D01*
X188027Y730920D01*
X187927Y731516D01*
X187927Y732212D01*
X187921Y732220D01*
X187925Y732226D01*
X187725Y732926D01*
X187724Y732927D01*
X187725Y732928D01*
X187525Y733528D01*
X187520Y733531D01*
X187522Y733534D01*
X186922Y734734D01*
X186915Y734737D01*
X186916Y734743D01*
X186516Y735243D01*
X186516Y735244D01*
X186016Y735844D01*
X186009Y735845D01*
X186009Y735850D01*
X185009Y736650D01*
X185005Y736651D01*
X185005Y736653D01*
X184405Y737053D01*
X184401Y737053D01*
X184400Y737056D01*
X183800Y737356D01*
X183795Y737355D01*
X183794Y737359D01*
X183194Y737559D01*
X183187Y737557D01*
X183185Y737561D01*
X182485Y737661D01*
X181786Y737761D01*
X181186Y737861D01*
X181181Y737858D01*
X181178Y737861D01*
X149378Y737861D01*
X149340Y737832D01*
X149332Y737830D01*
X149132Y737330D01*
X149133Y737328D01*
X149131Y737326D01*
X149135Y737320D01*
X149136Y737317D01*
X149129Y737312D01*
X149129Y724412D01*
X149158Y724374D01*
X149160Y724366D01*
X149660Y724166D01*
X149673Y724170D01*
X149678Y724163D01*
X180778Y724163D01*
X180825Y724199D01*
G37*
G36*
X566905Y724199D02*
X566905Y724199D01*
X566895Y724212D01*
X566903Y724222D01*
X566911Y724197D01*
X566956Y724165D01*
X566958Y724163D01*
X567558Y724163D01*
X567562Y724166D01*
X567565Y724163D01*
X568965Y724363D01*
X568970Y724368D01*
X568974Y724365D01*
X569574Y724565D01*
X569577Y724570D01*
X569580Y724568D01*
X570780Y725168D01*
X570782Y725172D01*
X570785Y725171D01*
X571385Y725571D01*
X571386Y725574D01*
X571389Y725574D01*
X571889Y725974D01*
X571890Y725978D01*
X571893Y725977D01*
X572393Y726477D01*
X572394Y726484D01*
X572399Y726485D01*
X572798Y727083D01*
X573196Y727581D01*
X573197Y727589D01*
X573202Y727590D01*
X573502Y728190D01*
X573501Y728197D01*
X573505Y728198D01*
X573530Y728286D01*
X573531Y728286D01*
X573530Y728286D01*
X573573Y728434D01*
X573587Y728483D01*
X573629Y728631D01*
X573671Y728779D01*
X573685Y728828D01*
X573705Y728897D01*
X573905Y729496D01*
X573903Y729503D01*
X573907Y729505D01*
X574107Y730905D01*
X574101Y730915D01*
X574107Y730920D01*
X574007Y731516D01*
X574007Y732212D01*
X574001Y732220D01*
X574005Y732226D01*
X573805Y732926D01*
X573804Y732927D01*
X573805Y732928D01*
X573605Y733528D01*
X573600Y733531D01*
X573602Y733534D01*
X573002Y734734D01*
X572995Y734737D01*
X572996Y734743D01*
X572596Y735243D01*
X572596Y735244D01*
X572096Y735844D01*
X572089Y735845D01*
X572089Y735850D01*
X571089Y736650D01*
X571085Y736651D01*
X571085Y736653D01*
X570485Y737053D01*
X570481Y737053D01*
X570480Y737056D01*
X569880Y737356D01*
X569875Y737355D01*
X569874Y737359D01*
X569274Y737559D01*
X569267Y737557D01*
X569265Y737561D01*
X568565Y737661D01*
X567866Y737761D01*
X567266Y737861D01*
X567261Y737858D01*
X567258Y737861D01*
X535458Y737861D01*
X535420Y737832D01*
X535412Y737830D01*
X535212Y737330D01*
X535213Y737328D01*
X535211Y737326D01*
X535215Y737320D01*
X535216Y737317D01*
X535209Y737312D01*
X535209Y724412D01*
X535238Y724374D01*
X535240Y724366D01*
X535740Y724166D01*
X535753Y724170D01*
X535758Y724163D01*
X566858Y724163D01*
X566905Y724199D01*
G37*
G36*
X22509Y1282066D02*
X22509Y1282066D01*
X22617Y1282080D01*
X22629Y1282086D01*
X22643Y1282088D01*
X22739Y1282140D01*
X22836Y1282187D01*
X22846Y1282197D01*
X22858Y1282203D01*
X22932Y1282283D01*
X23009Y1282359D01*
X23015Y1282371D01*
X23025Y1282382D01*
X23070Y1282480D01*
X23118Y1282577D01*
X23122Y1282595D01*
X23126Y1282604D01*
X23128Y1282625D01*
X23147Y1282722D01*
X23590Y1287073D01*
X24749Y1287444D01*
X24767Y1287454D01*
X24864Y1287492D01*
X25946Y1288049D01*
X29336Y1285285D01*
X29430Y1285231D01*
X29522Y1285174D01*
X29535Y1285171D01*
X29547Y1285164D01*
X29654Y1285143D01*
X29759Y1285118D01*
X29773Y1285120D01*
X29787Y1285117D01*
X29894Y1285132D01*
X30002Y1285142D01*
X30015Y1285148D01*
X30029Y1285150D01*
X30126Y1285198D01*
X30225Y1285243D01*
X30238Y1285254D01*
X30247Y1285258D01*
X30262Y1285274D01*
X30339Y1285336D01*
X32924Y1287921D01*
X32987Y1288010D01*
X33053Y1288095D01*
X33058Y1288108D01*
X33066Y1288120D01*
X33097Y1288223D01*
X33133Y1288326D01*
X33133Y1288340D01*
X33137Y1288353D01*
X33133Y1288461D01*
X33134Y1288570D01*
X33129Y1288583D01*
X33129Y1288597D01*
X33091Y1288699D01*
X33056Y1288801D01*
X33047Y1288816D01*
X33043Y1288825D01*
X33029Y1288842D01*
X32975Y1288924D01*
X30211Y1292314D01*
X30768Y1293396D01*
X30774Y1293416D01*
X30816Y1293511D01*
X31187Y1294670D01*
X35538Y1295113D01*
X35642Y1295141D01*
X35748Y1295166D01*
X35760Y1295173D01*
X35773Y1295176D01*
X35863Y1295237D01*
X35956Y1295294D01*
X35964Y1295305D01*
X35976Y1295313D01*
X36042Y1295399D01*
X36111Y1295483D01*
X36115Y1295496D01*
X36124Y1295507D01*
X36158Y1295610D01*
X36197Y1295711D01*
X36198Y1295729D01*
X36202Y1295738D01*
X36202Y1295760D01*
X36211Y1295858D01*
X36211Y1299514D01*
X36194Y1299621D01*
X36180Y1299729D01*
X36174Y1299741D01*
X36172Y1299755D01*
X36120Y1299851D01*
X36073Y1299948D01*
X36063Y1299958D01*
X36057Y1299970D01*
X35977Y1300044D01*
X35901Y1300121D01*
X35889Y1300127D01*
X35879Y1300137D01*
X35780Y1300182D01*
X35683Y1300230D01*
X35665Y1300234D01*
X35656Y1300238D01*
X35635Y1300240D01*
X35538Y1300259D01*
X31187Y1300702D01*
X30816Y1301861D01*
X30806Y1301879D01*
X30768Y1301976D01*
X30211Y1303058D01*
X32975Y1306448D01*
X33029Y1306542D01*
X33086Y1306634D01*
X33089Y1306647D01*
X33096Y1306659D01*
X33117Y1306766D01*
X33142Y1306871D01*
X33140Y1306885D01*
X33143Y1306899D01*
X33128Y1307006D01*
X33118Y1307114D01*
X33112Y1307127D01*
X33110Y1307141D01*
X33062Y1307238D01*
X33017Y1307337D01*
X33006Y1307350D01*
X33002Y1307359D01*
X32986Y1307374D01*
X32924Y1307451D01*
X30339Y1310036D01*
X30250Y1310099D01*
X30165Y1310165D01*
X30152Y1310170D01*
X30140Y1310178D01*
X30037Y1310209D01*
X29934Y1310245D01*
X29920Y1310245D01*
X29907Y1310249D01*
X29799Y1310245D01*
X29690Y1310246D01*
X29677Y1310241D01*
X29663Y1310241D01*
X29561Y1310203D01*
X29459Y1310168D01*
X29444Y1310159D01*
X29435Y1310155D01*
X29418Y1310141D01*
X29336Y1310087D01*
X25946Y1307323D01*
X24864Y1307880D01*
X24844Y1307886D01*
X24749Y1307928D01*
X23590Y1308299D01*
X23147Y1312650D01*
X23119Y1312754D01*
X23094Y1312860D01*
X23087Y1312872D01*
X23084Y1312885D01*
X23023Y1312975D01*
X22966Y1313068D01*
X22955Y1313076D01*
X22947Y1313088D01*
X22861Y1313154D01*
X22777Y1313223D01*
X22764Y1313227D01*
X22753Y1313236D01*
X22650Y1313270D01*
X22549Y1313309D01*
X22531Y1313310D01*
X22522Y1313314D01*
X22500Y1313314D01*
X22402Y1313323D01*
X18746Y1313323D01*
X18639Y1313306D01*
X18531Y1313292D01*
X18519Y1313286D01*
X18505Y1313284D01*
X18409Y1313232D01*
X18312Y1313185D01*
X18302Y1313175D01*
X18290Y1313169D01*
X18216Y1313089D01*
X18139Y1313013D01*
X18133Y1313001D01*
X18123Y1312991D01*
X18078Y1312892D01*
X18030Y1312795D01*
X18026Y1312777D01*
X18022Y1312768D01*
X18020Y1312747D01*
X18001Y1312650D01*
X17558Y1308299D01*
X16399Y1307928D01*
X16381Y1307918D01*
X16284Y1307880D01*
X15202Y1307323D01*
X11812Y1310087D01*
X11718Y1310141D01*
X11626Y1310198D01*
X11613Y1310201D01*
X11601Y1310208D01*
X11494Y1310229D01*
X11389Y1310254D01*
X11375Y1310252D01*
X11361Y1310255D01*
X11254Y1310240D01*
X11146Y1310230D01*
X11133Y1310224D01*
X11120Y1310222D01*
X11022Y1310174D01*
X10923Y1310129D01*
X10910Y1310118D01*
X10901Y1310114D01*
X10886Y1310098D01*
X10809Y1310036D01*
X8224Y1307451D01*
X8161Y1307362D01*
X8095Y1307277D01*
X8090Y1307264D01*
X8082Y1307252D01*
X8051Y1307149D01*
X8015Y1307046D01*
X8015Y1307032D01*
X8011Y1307019D01*
X8015Y1306911D01*
X8014Y1306802D01*
X8019Y1306789D01*
X8019Y1306775D01*
X8057Y1306673D01*
X8092Y1306571D01*
X8101Y1306556D01*
X8105Y1306547D01*
X8119Y1306530D01*
X8173Y1306448D01*
X10937Y1303058D01*
X10380Y1301976D01*
X10363Y1301923D01*
X10337Y1301874D01*
X10326Y1301808D01*
X10305Y1301744D01*
X10306Y1301688D01*
X10297Y1301634D01*
X10308Y1301567D01*
X10309Y1301500D01*
X10327Y1301448D01*
X10336Y1301393D01*
X10368Y1301333D01*
X10391Y1301270D01*
X10425Y1301227D01*
X10451Y1301178D01*
X10500Y1301131D01*
X10542Y1301079D01*
X10589Y1301049D01*
X10629Y1301011D01*
X10734Y1300954D01*
X10747Y1300946D01*
X10752Y1300945D01*
X10759Y1300941D01*
X15956Y1298788D01*
X16055Y1298765D01*
X16153Y1298736D01*
X16174Y1298737D01*
X16194Y1298732D01*
X16295Y1298742D01*
X16396Y1298747D01*
X16416Y1298754D01*
X16437Y1298756D01*
X16529Y1298798D01*
X16624Y1298835D01*
X16640Y1298848D01*
X16659Y1298857D01*
X16733Y1298926D01*
X16811Y1298991D01*
X16827Y1299014D01*
X16837Y1299024D01*
X16849Y1299045D01*
X16896Y1299112D01*
X17402Y1300011D01*
X18046Y1300698D01*
X18834Y1301213D01*
X19722Y1301525D01*
X20659Y1301617D01*
X21591Y1301484D01*
X22465Y1301133D01*
X23230Y1300584D01*
X23843Y1299870D01*
X24268Y1299030D01*
X24482Y1298114D01*
X24472Y1297172D01*
X24238Y1296260D01*
X23795Y1295430D01*
X23166Y1294729D01*
X22389Y1294197D01*
X21508Y1293866D01*
X20573Y1293753D01*
X19656Y1293861D01*
X18788Y1294181D01*
X18019Y1294695D01*
X17392Y1295374D01*
X16897Y1296258D01*
X16833Y1296338D01*
X16773Y1296421D01*
X16757Y1296433D01*
X16744Y1296449D01*
X16658Y1296504D01*
X16575Y1296564D01*
X16556Y1296570D01*
X16539Y1296580D01*
X16440Y1296605D01*
X16342Y1296635D01*
X16322Y1296634D01*
X16302Y1296639D01*
X16200Y1296630D01*
X16098Y1296627D01*
X16073Y1296619D01*
X16059Y1296618D01*
X16037Y1296609D01*
X15956Y1296584D01*
X10759Y1294431D01*
X10712Y1294402D01*
X10660Y1294381D01*
X10609Y1294338D01*
X10552Y1294302D01*
X10517Y1294259D01*
X10474Y1294223D01*
X10440Y1294166D01*
X10397Y1294114D01*
X10378Y1294062D01*
X10349Y1294014D01*
X10335Y1293948D01*
X10311Y1293885D01*
X10309Y1293830D01*
X10298Y1293776D01*
X10305Y1293709D01*
X10303Y1293642D01*
X10319Y1293588D01*
X10326Y1293533D01*
X10370Y1293422D01*
X10374Y1293408D01*
X10377Y1293404D01*
X10380Y1293396D01*
X10937Y1292314D01*
X8173Y1288924D01*
X8119Y1288830D01*
X8062Y1288738D01*
X8059Y1288725D01*
X8052Y1288713D01*
X8031Y1288606D01*
X8006Y1288501D01*
X8008Y1288487D01*
X8005Y1288473D01*
X8020Y1288366D01*
X8030Y1288258D01*
X8036Y1288245D01*
X8038Y1288232D01*
X8086Y1288134D01*
X8131Y1288035D01*
X8142Y1288022D01*
X8146Y1288013D01*
X8162Y1287998D01*
X8224Y1287921D01*
X10809Y1285336D01*
X10898Y1285273D01*
X10983Y1285207D01*
X10996Y1285202D01*
X11008Y1285194D01*
X11111Y1285163D01*
X11214Y1285127D01*
X11228Y1285127D01*
X11241Y1285123D01*
X11349Y1285127D01*
X11458Y1285126D01*
X11471Y1285131D01*
X11485Y1285131D01*
X11587Y1285169D01*
X11689Y1285204D01*
X11704Y1285213D01*
X11713Y1285217D01*
X11730Y1285231D01*
X11812Y1285285D01*
X15202Y1288049D01*
X16284Y1287492D01*
X16304Y1287486D01*
X16399Y1287444D01*
X17558Y1287073D01*
X18001Y1282722D01*
X18029Y1282618D01*
X18054Y1282512D01*
X18061Y1282500D01*
X18064Y1282487D01*
X18125Y1282397D01*
X18182Y1282304D01*
X18193Y1282296D01*
X18201Y1282284D01*
X18287Y1282218D01*
X18371Y1282150D01*
X18384Y1282145D01*
X18395Y1282136D01*
X18498Y1282102D01*
X18599Y1282063D01*
X18617Y1282062D01*
X18626Y1282058D01*
X18648Y1282059D01*
X18746Y1282049D01*
X22402Y1282049D01*
X22509Y1282066D01*
G37*
G36*
X408589Y1282066D02*
X408589Y1282066D01*
X408697Y1282080D01*
X408709Y1282086D01*
X408723Y1282088D01*
X408819Y1282140D01*
X408916Y1282187D01*
X408926Y1282197D01*
X408938Y1282203D01*
X409012Y1282283D01*
X409089Y1282359D01*
X409095Y1282371D01*
X409105Y1282382D01*
X409150Y1282480D01*
X409198Y1282577D01*
X409202Y1282595D01*
X409206Y1282604D01*
X409208Y1282625D01*
X409227Y1282722D01*
X409670Y1287073D01*
X410829Y1287444D01*
X410847Y1287454D01*
X410944Y1287492D01*
X412026Y1288049D01*
X415416Y1285285D01*
X415510Y1285231D01*
X415602Y1285174D01*
X415615Y1285171D01*
X415627Y1285164D01*
X415734Y1285143D01*
X415839Y1285118D01*
X415853Y1285120D01*
X415867Y1285117D01*
X415974Y1285132D01*
X416082Y1285142D01*
X416095Y1285148D01*
X416109Y1285150D01*
X416206Y1285198D01*
X416305Y1285243D01*
X416318Y1285254D01*
X416327Y1285258D01*
X416342Y1285274D01*
X416419Y1285336D01*
X419004Y1287921D01*
X419067Y1288010D01*
X419133Y1288095D01*
X419138Y1288108D01*
X419146Y1288120D01*
X419177Y1288223D01*
X419213Y1288326D01*
X419213Y1288340D01*
X419217Y1288353D01*
X419213Y1288461D01*
X419214Y1288570D01*
X419209Y1288583D01*
X419209Y1288597D01*
X419171Y1288699D01*
X419136Y1288801D01*
X419127Y1288816D01*
X419123Y1288825D01*
X419109Y1288842D01*
X419055Y1288924D01*
X416291Y1292314D01*
X416848Y1293396D01*
X416854Y1293416D01*
X416896Y1293511D01*
X417267Y1294670D01*
X421618Y1295113D01*
X421722Y1295141D01*
X421828Y1295166D01*
X421840Y1295173D01*
X421853Y1295176D01*
X421943Y1295237D01*
X422036Y1295294D01*
X422044Y1295305D01*
X422056Y1295313D01*
X422122Y1295399D01*
X422191Y1295483D01*
X422195Y1295496D01*
X422204Y1295507D01*
X422238Y1295610D01*
X422277Y1295711D01*
X422278Y1295729D01*
X422282Y1295738D01*
X422282Y1295760D01*
X422291Y1295858D01*
X422291Y1299514D01*
X422274Y1299621D01*
X422260Y1299729D01*
X422254Y1299741D01*
X422252Y1299755D01*
X422200Y1299851D01*
X422153Y1299948D01*
X422143Y1299958D01*
X422137Y1299970D01*
X422057Y1300044D01*
X421981Y1300121D01*
X421969Y1300127D01*
X421959Y1300137D01*
X421860Y1300182D01*
X421763Y1300230D01*
X421745Y1300234D01*
X421736Y1300238D01*
X421715Y1300240D01*
X421618Y1300259D01*
X417267Y1300702D01*
X416896Y1301861D01*
X416886Y1301879D01*
X416848Y1301976D01*
X416291Y1303058D01*
X419055Y1306448D01*
X419109Y1306542D01*
X419166Y1306634D01*
X419169Y1306647D01*
X419176Y1306659D01*
X419197Y1306766D01*
X419222Y1306871D01*
X419220Y1306885D01*
X419223Y1306899D01*
X419208Y1307006D01*
X419198Y1307114D01*
X419192Y1307127D01*
X419190Y1307141D01*
X419142Y1307238D01*
X419097Y1307337D01*
X419086Y1307350D01*
X419082Y1307359D01*
X419066Y1307374D01*
X419004Y1307451D01*
X416419Y1310036D01*
X416330Y1310099D01*
X416245Y1310165D01*
X416232Y1310170D01*
X416220Y1310178D01*
X416117Y1310209D01*
X416014Y1310245D01*
X416000Y1310245D01*
X415987Y1310249D01*
X415879Y1310245D01*
X415770Y1310246D01*
X415757Y1310241D01*
X415743Y1310241D01*
X415641Y1310203D01*
X415539Y1310168D01*
X415524Y1310159D01*
X415515Y1310155D01*
X415498Y1310141D01*
X415416Y1310087D01*
X412026Y1307323D01*
X410944Y1307880D01*
X410924Y1307886D01*
X410829Y1307928D01*
X409670Y1308299D01*
X409227Y1312650D01*
X409199Y1312754D01*
X409174Y1312860D01*
X409167Y1312872D01*
X409164Y1312885D01*
X409103Y1312975D01*
X409046Y1313068D01*
X409035Y1313076D01*
X409027Y1313088D01*
X408941Y1313154D01*
X408857Y1313223D01*
X408844Y1313227D01*
X408833Y1313236D01*
X408730Y1313270D01*
X408629Y1313309D01*
X408611Y1313310D01*
X408602Y1313314D01*
X408580Y1313314D01*
X408482Y1313323D01*
X404826Y1313323D01*
X404719Y1313306D01*
X404611Y1313292D01*
X404599Y1313286D01*
X404585Y1313284D01*
X404489Y1313232D01*
X404392Y1313185D01*
X404382Y1313175D01*
X404370Y1313169D01*
X404296Y1313089D01*
X404219Y1313013D01*
X404213Y1313001D01*
X404203Y1312991D01*
X404158Y1312892D01*
X404110Y1312795D01*
X404106Y1312777D01*
X404102Y1312768D01*
X404100Y1312747D01*
X404081Y1312650D01*
X403638Y1308299D01*
X402479Y1307928D01*
X402461Y1307918D01*
X402364Y1307880D01*
X401282Y1307323D01*
X397892Y1310087D01*
X397798Y1310141D01*
X397706Y1310198D01*
X397693Y1310201D01*
X397681Y1310208D01*
X397574Y1310229D01*
X397469Y1310254D01*
X397455Y1310252D01*
X397441Y1310255D01*
X397334Y1310240D01*
X397226Y1310230D01*
X397213Y1310224D01*
X397200Y1310222D01*
X397102Y1310174D01*
X397003Y1310129D01*
X396990Y1310118D01*
X396981Y1310114D01*
X396966Y1310098D01*
X396889Y1310036D01*
X394304Y1307451D01*
X394241Y1307362D01*
X394175Y1307277D01*
X394170Y1307264D01*
X394162Y1307252D01*
X394131Y1307149D01*
X394095Y1307046D01*
X394095Y1307032D01*
X394091Y1307019D01*
X394095Y1306911D01*
X394094Y1306802D01*
X394099Y1306789D01*
X394099Y1306775D01*
X394137Y1306673D01*
X394172Y1306571D01*
X394181Y1306556D01*
X394185Y1306547D01*
X394199Y1306530D01*
X394253Y1306448D01*
X397017Y1303058D01*
X396460Y1301976D01*
X396443Y1301923D01*
X396417Y1301874D01*
X396406Y1301808D01*
X396385Y1301744D01*
X396386Y1301688D01*
X396377Y1301634D01*
X396388Y1301567D01*
X396389Y1301500D01*
X396407Y1301448D01*
X396416Y1301393D01*
X396448Y1301333D01*
X396471Y1301270D01*
X396505Y1301227D01*
X396531Y1301178D01*
X396580Y1301131D01*
X396622Y1301079D01*
X396669Y1301049D01*
X396709Y1301011D01*
X396814Y1300954D01*
X396827Y1300946D01*
X396832Y1300945D01*
X396839Y1300941D01*
X402036Y1298788D01*
X402135Y1298765D01*
X402233Y1298736D01*
X402254Y1298737D01*
X402274Y1298732D01*
X402375Y1298742D01*
X402476Y1298747D01*
X402496Y1298754D01*
X402517Y1298756D01*
X402609Y1298798D01*
X402704Y1298835D01*
X402720Y1298848D01*
X402739Y1298857D01*
X402813Y1298926D01*
X402891Y1298991D01*
X402907Y1299014D01*
X402917Y1299024D01*
X402929Y1299045D01*
X402976Y1299112D01*
X403482Y1300011D01*
X404126Y1300698D01*
X404914Y1301213D01*
X405802Y1301525D01*
X406739Y1301617D01*
X407671Y1301484D01*
X408545Y1301133D01*
X409310Y1300584D01*
X409923Y1299870D01*
X410348Y1299030D01*
X410562Y1298114D01*
X410552Y1297172D01*
X410318Y1296260D01*
X409875Y1295430D01*
X409246Y1294729D01*
X408469Y1294197D01*
X407588Y1293866D01*
X406653Y1293753D01*
X405736Y1293861D01*
X404868Y1294181D01*
X404099Y1294695D01*
X403472Y1295374D01*
X402977Y1296258D01*
X402913Y1296338D01*
X402853Y1296421D01*
X402837Y1296433D01*
X402824Y1296449D01*
X402738Y1296504D01*
X402655Y1296564D01*
X402636Y1296570D01*
X402619Y1296580D01*
X402520Y1296605D01*
X402422Y1296635D01*
X402402Y1296634D01*
X402382Y1296639D01*
X402280Y1296630D01*
X402178Y1296627D01*
X402153Y1296619D01*
X402139Y1296618D01*
X402117Y1296609D01*
X402036Y1296584D01*
X396839Y1294431D01*
X396792Y1294402D01*
X396740Y1294381D01*
X396689Y1294338D01*
X396632Y1294302D01*
X396597Y1294259D01*
X396554Y1294223D01*
X396520Y1294166D01*
X396477Y1294114D01*
X396458Y1294062D01*
X396429Y1294014D01*
X396415Y1293948D01*
X396391Y1293885D01*
X396389Y1293830D01*
X396378Y1293776D01*
X396385Y1293709D01*
X396383Y1293642D01*
X396399Y1293588D01*
X396406Y1293533D01*
X396450Y1293422D01*
X396454Y1293408D01*
X396457Y1293404D01*
X396460Y1293396D01*
X397017Y1292314D01*
X394253Y1288924D01*
X394199Y1288830D01*
X394142Y1288738D01*
X394139Y1288725D01*
X394132Y1288713D01*
X394111Y1288606D01*
X394086Y1288501D01*
X394088Y1288487D01*
X394085Y1288473D01*
X394100Y1288366D01*
X394110Y1288258D01*
X394116Y1288245D01*
X394118Y1288232D01*
X394166Y1288134D01*
X394211Y1288035D01*
X394222Y1288022D01*
X394226Y1288013D01*
X394242Y1287998D01*
X394304Y1287921D01*
X396889Y1285336D01*
X396978Y1285273D01*
X397063Y1285207D01*
X397076Y1285202D01*
X397088Y1285194D01*
X397191Y1285163D01*
X397294Y1285127D01*
X397308Y1285127D01*
X397321Y1285123D01*
X397429Y1285127D01*
X397538Y1285126D01*
X397551Y1285131D01*
X397565Y1285131D01*
X397667Y1285169D01*
X397769Y1285204D01*
X397784Y1285213D01*
X397793Y1285217D01*
X397810Y1285231D01*
X397892Y1285285D01*
X401282Y1288049D01*
X402364Y1287492D01*
X402384Y1287486D01*
X402479Y1287444D01*
X403638Y1287073D01*
X404081Y1282722D01*
X404109Y1282618D01*
X404134Y1282512D01*
X404141Y1282500D01*
X404144Y1282487D01*
X404205Y1282397D01*
X404262Y1282304D01*
X404273Y1282296D01*
X404281Y1282284D01*
X404367Y1282218D01*
X404451Y1282150D01*
X404464Y1282145D01*
X404475Y1282136D01*
X404578Y1282102D01*
X404679Y1282063D01*
X404697Y1282062D01*
X404706Y1282058D01*
X404728Y1282059D01*
X404826Y1282049D01*
X408482Y1282049D01*
X408589Y1282066D01*
G37*
G36*
X794669Y1282066D02*
X794669Y1282066D01*
X794777Y1282080D01*
X794789Y1282086D01*
X794803Y1282088D01*
X794899Y1282140D01*
X794996Y1282187D01*
X795006Y1282197D01*
X795018Y1282203D01*
X795092Y1282283D01*
X795169Y1282359D01*
X795175Y1282371D01*
X795185Y1282382D01*
X795230Y1282480D01*
X795278Y1282577D01*
X795282Y1282595D01*
X795286Y1282604D01*
X795288Y1282625D01*
X795307Y1282722D01*
X795750Y1287073D01*
X796909Y1287444D01*
X796927Y1287454D01*
X797024Y1287492D01*
X798106Y1288049D01*
X801496Y1285285D01*
X801590Y1285231D01*
X801682Y1285174D01*
X801695Y1285171D01*
X801707Y1285164D01*
X801814Y1285143D01*
X801919Y1285118D01*
X801933Y1285120D01*
X801947Y1285117D01*
X802054Y1285132D01*
X802162Y1285142D01*
X802175Y1285148D01*
X802189Y1285150D01*
X802286Y1285198D01*
X802385Y1285243D01*
X802398Y1285254D01*
X802407Y1285258D01*
X802422Y1285274D01*
X802499Y1285336D01*
X805084Y1287921D01*
X805147Y1288010D01*
X805213Y1288095D01*
X805218Y1288108D01*
X805226Y1288120D01*
X805257Y1288223D01*
X805293Y1288326D01*
X805293Y1288340D01*
X805297Y1288353D01*
X805293Y1288461D01*
X805294Y1288570D01*
X805289Y1288583D01*
X805289Y1288597D01*
X805251Y1288699D01*
X805216Y1288801D01*
X805207Y1288816D01*
X805203Y1288825D01*
X805189Y1288842D01*
X805135Y1288924D01*
X802371Y1292314D01*
X802928Y1293396D01*
X802934Y1293416D01*
X802976Y1293511D01*
X803347Y1294670D01*
X807698Y1295113D01*
X807802Y1295141D01*
X807908Y1295166D01*
X807920Y1295173D01*
X807933Y1295176D01*
X808023Y1295237D01*
X808116Y1295294D01*
X808124Y1295305D01*
X808136Y1295313D01*
X808202Y1295399D01*
X808271Y1295483D01*
X808275Y1295496D01*
X808284Y1295507D01*
X808318Y1295610D01*
X808357Y1295711D01*
X808358Y1295729D01*
X808362Y1295738D01*
X808362Y1295760D01*
X808371Y1295858D01*
X808371Y1299514D01*
X808354Y1299621D01*
X808340Y1299729D01*
X808334Y1299741D01*
X808332Y1299755D01*
X808280Y1299851D01*
X808233Y1299948D01*
X808223Y1299958D01*
X808217Y1299970D01*
X808137Y1300044D01*
X808061Y1300121D01*
X808049Y1300127D01*
X808039Y1300137D01*
X807940Y1300182D01*
X807843Y1300230D01*
X807825Y1300234D01*
X807816Y1300238D01*
X807795Y1300240D01*
X807698Y1300259D01*
X803347Y1300702D01*
X802976Y1301861D01*
X802966Y1301879D01*
X802928Y1301976D01*
X802371Y1303058D01*
X805135Y1306448D01*
X805189Y1306542D01*
X805246Y1306634D01*
X805249Y1306647D01*
X805256Y1306659D01*
X805277Y1306766D01*
X805302Y1306871D01*
X805300Y1306885D01*
X805303Y1306899D01*
X805288Y1307006D01*
X805278Y1307114D01*
X805272Y1307127D01*
X805270Y1307141D01*
X805222Y1307238D01*
X805177Y1307337D01*
X805166Y1307350D01*
X805162Y1307359D01*
X805146Y1307374D01*
X805084Y1307451D01*
X802499Y1310036D01*
X802410Y1310099D01*
X802325Y1310165D01*
X802312Y1310170D01*
X802300Y1310178D01*
X802197Y1310209D01*
X802094Y1310245D01*
X802080Y1310245D01*
X802067Y1310249D01*
X801959Y1310245D01*
X801850Y1310246D01*
X801837Y1310241D01*
X801823Y1310241D01*
X801721Y1310203D01*
X801619Y1310168D01*
X801604Y1310159D01*
X801595Y1310155D01*
X801578Y1310141D01*
X801496Y1310087D01*
X798106Y1307323D01*
X797024Y1307880D01*
X797004Y1307886D01*
X796909Y1307928D01*
X795750Y1308299D01*
X795307Y1312650D01*
X795279Y1312754D01*
X795254Y1312860D01*
X795247Y1312872D01*
X795244Y1312885D01*
X795183Y1312975D01*
X795126Y1313068D01*
X795115Y1313076D01*
X795107Y1313088D01*
X795021Y1313154D01*
X794937Y1313223D01*
X794924Y1313227D01*
X794913Y1313236D01*
X794810Y1313270D01*
X794709Y1313309D01*
X794691Y1313310D01*
X794682Y1313314D01*
X794660Y1313314D01*
X794562Y1313323D01*
X790906Y1313323D01*
X790799Y1313306D01*
X790691Y1313292D01*
X790679Y1313286D01*
X790665Y1313284D01*
X790569Y1313232D01*
X790472Y1313185D01*
X790462Y1313175D01*
X790450Y1313169D01*
X790376Y1313089D01*
X790299Y1313013D01*
X790293Y1313001D01*
X790283Y1312991D01*
X790238Y1312892D01*
X790190Y1312795D01*
X790186Y1312777D01*
X790182Y1312768D01*
X790180Y1312747D01*
X790161Y1312650D01*
X789718Y1308299D01*
X788559Y1307928D01*
X788541Y1307918D01*
X788444Y1307880D01*
X787362Y1307323D01*
X783972Y1310087D01*
X783878Y1310141D01*
X783786Y1310198D01*
X783773Y1310201D01*
X783761Y1310208D01*
X783654Y1310229D01*
X783549Y1310254D01*
X783535Y1310252D01*
X783521Y1310255D01*
X783414Y1310240D01*
X783306Y1310230D01*
X783293Y1310224D01*
X783280Y1310222D01*
X783182Y1310174D01*
X783083Y1310129D01*
X783070Y1310118D01*
X783061Y1310114D01*
X783046Y1310098D01*
X782969Y1310036D01*
X780384Y1307451D01*
X780321Y1307362D01*
X780255Y1307277D01*
X780250Y1307264D01*
X780242Y1307252D01*
X780211Y1307149D01*
X780175Y1307046D01*
X780175Y1307032D01*
X780171Y1307019D01*
X780175Y1306911D01*
X780174Y1306802D01*
X780179Y1306789D01*
X780179Y1306775D01*
X780217Y1306673D01*
X780252Y1306571D01*
X780261Y1306556D01*
X780265Y1306547D01*
X780279Y1306530D01*
X780333Y1306448D01*
X783097Y1303058D01*
X782540Y1301976D01*
X782523Y1301923D01*
X782497Y1301874D01*
X782486Y1301808D01*
X782465Y1301744D01*
X782466Y1301688D01*
X782457Y1301634D01*
X782468Y1301567D01*
X782469Y1301500D01*
X782487Y1301448D01*
X782496Y1301393D01*
X782528Y1301333D01*
X782551Y1301270D01*
X782585Y1301227D01*
X782611Y1301178D01*
X782660Y1301131D01*
X782702Y1301079D01*
X782749Y1301049D01*
X782789Y1301011D01*
X782894Y1300954D01*
X782907Y1300946D01*
X782912Y1300945D01*
X782919Y1300941D01*
X788116Y1298788D01*
X788215Y1298765D01*
X788313Y1298736D01*
X788334Y1298737D01*
X788354Y1298732D01*
X788455Y1298742D01*
X788556Y1298747D01*
X788576Y1298754D01*
X788597Y1298756D01*
X788689Y1298798D01*
X788784Y1298835D01*
X788800Y1298848D01*
X788819Y1298857D01*
X788893Y1298926D01*
X788971Y1298991D01*
X788987Y1299014D01*
X788997Y1299024D01*
X789009Y1299045D01*
X789056Y1299112D01*
X789562Y1300011D01*
X790206Y1300698D01*
X790994Y1301213D01*
X791882Y1301525D01*
X792819Y1301617D01*
X793751Y1301484D01*
X794625Y1301133D01*
X795390Y1300584D01*
X796003Y1299870D01*
X796428Y1299030D01*
X796642Y1298114D01*
X796632Y1297172D01*
X796398Y1296260D01*
X795955Y1295430D01*
X795326Y1294729D01*
X794549Y1294197D01*
X793668Y1293866D01*
X792733Y1293753D01*
X791816Y1293861D01*
X790948Y1294181D01*
X790179Y1294695D01*
X789552Y1295374D01*
X789057Y1296258D01*
X788993Y1296338D01*
X788933Y1296421D01*
X788917Y1296433D01*
X788904Y1296449D01*
X788818Y1296504D01*
X788735Y1296564D01*
X788716Y1296570D01*
X788699Y1296580D01*
X788600Y1296605D01*
X788502Y1296635D01*
X788482Y1296634D01*
X788462Y1296639D01*
X788360Y1296630D01*
X788258Y1296627D01*
X788233Y1296619D01*
X788219Y1296618D01*
X788197Y1296609D01*
X788116Y1296584D01*
X782919Y1294431D01*
X782872Y1294402D01*
X782820Y1294381D01*
X782769Y1294338D01*
X782712Y1294302D01*
X782677Y1294259D01*
X782634Y1294223D01*
X782600Y1294166D01*
X782557Y1294114D01*
X782538Y1294062D01*
X782509Y1294014D01*
X782495Y1293948D01*
X782471Y1293885D01*
X782469Y1293830D01*
X782458Y1293776D01*
X782465Y1293709D01*
X782463Y1293642D01*
X782479Y1293588D01*
X782486Y1293533D01*
X782530Y1293422D01*
X782534Y1293408D01*
X782537Y1293404D01*
X782540Y1293396D01*
X783097Y1292314D01*
X780333Y1288924D01*
X780279Y1288830D01*
X780222Y1288738D01*
X780219Y1288725D01*
X780212Y1288713D01*
X780191Y1288606D01*
X780166Y1288501D01*
X780168Y1288487D01*
X780165Y1288473D01*
X780180Y1288366D01*
X780190Y1288258D01*
X780196Y1288245D01*
X780198Y1288232D01*
X780246Y1288134D01*
X780291Y1288035D01*
X780302Y1288022D01*
X780306Y1288013D01*
X780322Y1287998D01*
X780384Y1287921D01*
X782969Y1285336D01*
X783058Y1285273D01*
X783143Y1285207D01*
X783156Y1285202D01*
X783168Y1285194D01*
X783271Y1285163D01*
X783374Y1285127D01*
X783388Y1285127D01*
X783401Y1285123D01*
X783509Y1285127D01*
X783618Y1285126D01*
X783631Y1285131D01*
X783645Y1285131D01*
X783747Y1285169D01*
X783849Y1285204D01*
X783864Y1285213D01*
X783873Y1285217D01*
X783890Y1285231D01*
X783972Y1285285D01*
X787362Y1288049D01*
X788444Y1287492D01*
X788464Y1287486D01*
X788559Y1287444D01*
X789718Y1287073D01*
X790161Y1282722D01*
X790189Y1282618D01*
X790214Y1282512D01*
X790221Y1282500D01*
X790224Y1282487D01*
X790285Y1282397D01*
X790342Y1282304D01*
X790353Y1282296D01*
X790361Y1282284D01*
X790447Y1282218D01*
X790531Y1282150D01*
X790544Y1282145D01*
X790555Y1282136D01*
X790658Y1282102D01*
X790759Y1282063D01*
X790777Y1282062D01*
X790786Y1282058D01*
X790808Y1282059D01*
X790906Y1282049D01*
X794562Y1282049D01*
X794669Y1282066D01*
G37*
G36*
X362361Y49912D02*
X362361Y49912D01*
X362469Y49926D01*
X362481Y49932D01*
X362495Y49934D01*
X362591Y49986D01*
X362688Y50033D01*
X362698Y50043D01*
X362710Y50049D01*
X362784Y50129D01*
X362861Y50205D01*
X362867Y50217D01*
X362877Y50228D01*
X362922Y50326D01*
X362970Y50423D01*
X362974Y50441D01*
X362978Y50450D01*
X362980Y50471D01*
X362999Y50568D01*
X363442Y54919D01*
X364601Y55290D01*
X364619Y55300D01*
X364716Y55338D01*
X365798Y55895D01*
X369188Y53131D01*
X369282Y53077D01*
X369374Y53020D01*
X369387Y53017D01*
X369399Y53010D01*
X369506Y52989D01*
X369611Y52964D01*
X369625Y52966D01*
X369639Y52963D01*
X369746Y52978D01*
X369854Y52988D01*
X369867Y52994D01*
X369881Y52996D01*
X369978Y53044D01*
X370077Y53089D01*
X370090Y53100D01*
X370099Y53104D01*
X370114Y53120D01*
X370191Y53182D01*
X372776Y55767D01*
X372839Y55856D01*
X372905Y55941D01*
X372910Y55954D01*
X372918Y55966D01*
X372949Y56069D01*
X372985Y56172D01*
X372985Y56186D01*
X372989Y56199D01*
X372985Y56307D01*
X372986Y56416D01*
X372981Y56429D01*
X372981Y56443D01*
X372943Y56545D01*
X372908Y56647D01*
X372899Y56662D01*
X372895Y56671D01*
X372881Y56688D01*
X372827Y56770D01*
X370063Y60160D01*
X370620Y61242D01*
X370637Y61295D01*
X370663Y61344D01*
X370674Y61410D01*
X370695Y61474D01*
X370694Y61530D01*
X370703Y61584D01*
X370692Y61651D01*
X370691Y61718D01*
X370673Y61770D01*
X370664Y61825D01*
X370632Y61885D01*
X370609Y61948D01*
X370575Y61991D01*
X370549Y62041D01*
X370500Y62087D01*
X370458Y62139D01*
X370411Y62170D01*
X370371Y62208D01*
X370266Y62264D01*
X370253Y62272D01*
X370248Y62273D01*
X370241Y62277D01*
X365044Y64430D01*
X364945Y64453D01*
X364847Y64482D01*
X364826Y64481D01*
X364806Y64486D01*
X364705Y64476D01*
X364604Y64471D01*
X364584Y64464D01*
X364563Y64462D01*
X364471Y64420D01*
X364376Y64383D01*
X364360Y64370D01*
X364341Y64361D01*
X364267Y64292D01*
X364189Y64227D01*
X364173Y64204D01*
X364163Y64194D01*
X364151Y64173D01*
X364104Y64106D01*
X363598Y63207D01*
X362954Y62520D01*
X362166Y62005D01*
X361278Y61693D01*
X360341Y61601D01*
X359409Y61734D01*
X358535Y62085D01*
X357770Y62634D01*
X357157Y63348D01*
X356732Y64188D01*
X356518Y65105D01*
X356528Y66046D01*
X356762Y66958D01*
X357205Y67788D01*
X357834Y68489D01*
X358611Y69021D01*
X359492Y69352D01*
X360427Y69465D01*
X361344Y69357D01*
X362212Y69037D01*
X362981Y68523D01*
X363608Y67844D01*
X364103Y66960D01*
X364167Y66880D01*
X364227Y66797D01*
X364243Y66785D01*
X364256Y66769D01*
X364342Y66714D01*
X364425Y66654D01*
X364444Y66648D01*
X364461Y66638D01*
X364560Y66613D01*
X364659Y66583D01*
X364678Y66584D01*
X364698Y66579D01*
X364800Y66588D01*
X364902Y66591D01*
X364927Y66599D01*
X364941Y66600D01*
X364963Y66610D01*
X365044Y66634D01*
X370241Y68787D01*
X370288Y68816D01*
X370340Y68837D01*
X370391Y68880D01*
X370448Y68916D01*
X370483Y68959D01*
X370526Y68995D01*
X370560Y69052D01*
X370603Y69104D01*
X370622Y69156D01*
X370651Y69204D01*
X370665Y69270D01*
X370689Y69333D01*
X370691Y69388D01*
X370702Y69442D01*
X370695Y69509D01*
X370697Y69576D01*
X370681Y69630D01*
X370674Y69685D01*
X370630Y69796D01*
X370626Y69810D01*
X370623Y69814D01*
X370620Y69822D01*
X370063Y70904D01*
X372827Y74294D01*
X372881Y74388D01*
X372938Y74480D01*
X372941Y74493D01*
X372948Y74505D01*
X372969Y74612D01*
X372994Y74717D01*
X372992Y74731D01*
X372995Y74745D01*
X372980Y74852D01*
X372970Y74960D01*
X372964Y74973D01*
X372962Y74987D01*
X372914Y75084D01*
X372869Y75183D01*
X372858Y75196D01*
X372854Y75205D01*
X372838Y75220D01*
X372776Y75297D01*
X370191Y77882D01*
X370102Y77945D01*
X370017Y78011D01*
X370004Y78016D01*
X369992Y78024D01*
X369889Y78055D01*
X369786Y78091D01*
X369772Y78091D01*
X369759Y78095D01*
X369651Y78091D01*
X369542Y78092D01*
X369529Y78087D01*
X369515Y78087D01*
X369413Y78049D01*
X369311Y78014D01*
X369296Y78005D01*
X369287Y78001D01*
X369270Y77987D01*
X369188Y77933D01*
X365798Y75169D01*
X364716Y75726D01*
X364696Y75732D01*
X364601Y75774D01*
X363442Y76145D01*
X362999Y80496D01*
X362971Y80600D01*
X362946Y80706D01*
X362939Y80718D01*
X362936Y80731D01*
X362875Y80821D01*
X362818Y80914D01*
X362807Y80922D01*
X362799Y80934D01*
X362713Y81000D01*
X362629Y81069D01*
X362616Y81073D01*
X362605Y81082D01*
X362502Y81116D01*
X362401Y81155D01*
X362383Y81156D01*
X362374Y81160D01*
X362352Y81160D01*
X362254Y81169D01*
X358598Y81169D01*
X358491Y81152D01*
X358383Y81138D01*
X358371Y81132D01*
X358357Y81130D01*
X358261Y81078D01*
X358164Y81031D01*
X358154Y81021D01*
X358142Y81015D01*
X358068Y80935D01*
X357991Y80859D01*
X357985Y80847D01*
X357975Y80837D01*
X357930Y80738D01*
X357882Y80641D01*
X357878Y80623D01*
X357874Y80614D01*
X357872Y80593D01*
X357853Y80496D01*
X357410Y76145D01*
X356251Y75774D01*
X356233Y75764D01*
X356136Y75726D01*
X355054Y75169D01*
X351664Y77933D01*
X351570Y77987D01*
X351478Y78044D01*
X351465Y78047D01*
X351453Y78054D01*
X351346Y78075D01*
X351241Y78100D01*
X351227Y78098D01*
X351213Y78101D01*
X351106Y78086D01*
X350998Y78076D01*
X350985Y78070D01*
X350972Y78068D01*
X350874Y78020D01*
X350775Y77975D01*
X350762Y77964D01*
X350753Y77960D01*
X350738Y77944D01*
X350661Y77882D01*
X348076Y75297D01*
X348013Y75208D01*
X347947Y75123D01*
X347942Y75110D01*
X347934Y75098D01*
X347903Y74995D01*
X347867Y74892D01*
X347867Y74878D01*
X347863Y74865D01*
X347867Y74757D01*
X347866Y74648D01*
X347871Y74635D01*
X347871Y74621D01*
X347909Y74519D01*
X347944Y74417D01*
X347953Y74402D01*
X347957Y74393D01*
X347971Y74376D01*
X348025Y74294D01*
X350789Y70904D01*
X350232Y69822D01*
X350226Y69802D01*
X350184Y69707D01*
X349813Y68548D01*
X345462Y68105D01*
X345358Y68077D01*
X345252Y68052D01*
X345240Y68045D01*
X345227Y68042D01*
X345137Y67981D01*
X345044Y67924D01*
X345036Y67913D01*
X345024Y67905D01*
X344958Y67819D01*
X344890Y67735D01*
X344885Y67722D01*
X344876Y67711D01*
X344842Y67608D01*
X344803Y67507D01*
X344802Y67489D01*
X344798Y67480D01*
X344799Y67458D01*
X344789Y67360D01*
X344789Y63704D01*
X344806Y63597D01*
X344820Y63489D01*
X344826Y63477D01*
X344828Y63463D01*
X344880Y63367D01*
X344927Y63270D01*
X344937Y63260D01*
X344943Y63248D01*
X345023Y63174D01*
X345099Y63097D01*
X345111Y63091D01*
X345122Y63081D01*
X345220Y63036D01*
X345317Y62988D01*
X345335Y62984D01*
X345344Y62980D01*
X345365Y62978D01*
X345462Y62959D01*
X349813Y62516D01*
X350184Y61357D01*
X350194Y61339D01*
X350232Y61242D01*
X350789Y60160D01*
X348025Y56770D01*
X347971Y56676D01*
X347914Y56584D01*
X347911Y56571D01*
X347904Y56559D01*
X347883Y56452D01*
X347858Y56347D01*
X347860Y56333D01*
X347857Y56319D01*
X347872Y56212D01*
X347882Y56104D01*
X347888Y56091D01*
X347890Y56078D01*
X347938Y55980D01*
X347983Y55881D01*
X347994Y55868D01*
X347998Y55859D01*
X348014Y55844D01*
X348076Y55767D01*
X350661Y53182D01*
X350750Y53119D01*
X350835Y53053D01*
X350848Y53048D01*
X350860Y53040D01*
X350963Y53009D01*
X351066Y52973D01*
X351080Y52973D01*
X351093Y52969D01*
X351201Y52973D01*
X351310Y52972D01*
X351323Y52977D01*
X351337Y52977D01*
X351439Y53015D01*
X351541Y53050D01*
X351556Y53059D01*
X351565Y53063D01*
X351582Y53077D01*
X351664Y53131D01*
X355054Y55895D01*
X356136Y55338D01*
X356156Y55332D01*
X356251Y55290D01*
X357410Y54919D01*
X357853Y50568D01*
X357881Y50464D01*
X357906Y50358D01*
X357913Y50346D01*
X357916Y50333D01*
X357977Y50243D01*
X358034Y50150D01*
X358045Y50142D01*
X358053Y50130D01*
X358139Y50064D01*
X358223Y49996D01*
X358236Y49991D01*
X358247Y49982D01*
X358350Y49948D01*
X358451Y49909D01*
X358469Y49908D01*
X358478Y49904D01*
X358500Y49905D01*
X358598Y49895D01*
X362254Y49895D01*
X362361Y49912D01*
G37*
G36*
X748441Y49912D02*
X748441Y49912D01*
X748549Y49926D01*
X748561Y49932D01*
X748575Y49934D01*
X748671Y49986D01*
X748768Y50033D01*
X748778Y50043D01*
X748790Y50049D01*
X748864Y50129D01*
X748941Y50205D01*
X748947Y50217D01*
X748957Y50228D01*
X749002Y50326D01*
X749050Y50423D01*
X749054Y50441D01*
X749058Y50450D01*
X749060Y50471D01*
X749079Y50568D01*
X749522Y54919D01*
X750681Y55290D01*
X750699Y55300D01*
X750796Y55338D01*
X751878Y55895D01*
X755268Y53131D01*
X755362Y53077D01*
X755454Y53020D01*
X755467Y53017D01*
X755479Y53010D01*
X755586Y52989D01*
X755691Y52964D01*
X755705Y52966D01*
X755719Y52963D01*
X755826Y52978D01*
X755934Y52988D01*
X755947Y52994D01*
X755961Y52996D01*
X756058Y53044D01*
X756157Y53089D01*
X756170Y53100D01*
X756179Y53104D01*
X756194Y53120D01*
X756271Y53182D01*
X758856Y55767D01*
X758919Y55856D01*
X758985Y55941D01*
X758990Y55954D01*
X758998Y55966D01*
X759029Y56069D01*
X759065Y56172D01*
X759065Y56186D01*
X759069Y56199D01*
X759065Y56307D01*
X759066Y56416D01*
X759061Y56429D01*
X759061Y56443D01*
X759023Y56545D01*
X758988Y56647D01*
X758979Y56662D01*
X758975Y56671D01*
X758961Y56688D01*
X758907Y56770D01*
X756143Y60160D01*
X756700Y61242D01*
X756717Y61295D01*
X756743Y61344D01*
X756754Y61410D01*
X756775Y61474D01*
X756774Y61530D01*
X756783Y61584D01*
X756772Y61651D01*
X756771Y61718D01*
X756753Y61770D01*
X756744Y61825D01*
X756712Y61885D01*
X756689Y61948D01*
X756655Y61991D01*
X756629Y62041D01*
X756580Y62087D01*
X756538Y62139D01*
X756491Y62170D01*
X756451Y62208D01*
X756346Y62264D01*
X756333Y62272D01*
X756328Y62273D01*
X756321Y62277D01*
X751124Y64430D01*
X751025Y64453D01*
X750927Y64482D01*
X750906Y64481D01*
X750886Y64486D01*
X750785Y64476D01*
X750684Y64471D01*
X750664Y64464D01*
X750643Y64462D01*
X750551Y64420D01*
X750456Y64383D01*
X750440Y64370D01*
X750421Y64361D01*
X750347Y64292D01*
X750269Y64227D01*
X750253Y64204D01*
X750243Y64194D01*
X750231Y64173D01*
X750184Y64106D01*
X749678Y63207D01*
X749034Y62520D01*
X748246Y62005D01*
X747358Y61693D01*
X746421Y61601D01*
X745489Y61734D01*
X744615Y62085D01*
X743850Y62634D01*
X743237Y63348D01*
X742812Y64188D01*
X742598Y65105D01*
X742608Y66046D01*
X742842Y66958D01*
X743285Y67788D01*
X743914Y68489D01*
X744691Y69021D01*
X745572Y69352D01*
X746507Y69465D01*
X747424Y69357D01*
X748292Y69037D01*
X749061Y68523D01*
X749688Y67844D01*
X750183Y66960D01*
X750247Y66880D01*
X750307Y66797D01*
X750323Y66785D01*
X750336Y66769D01*
X750422Y66714D01*
X750505Y66654D01*
X750524Y66648D01*
X750541Y66638D01*
X750640Y66613D01*
X750739Y66583D01*
X750758Y66584D01*
X750778Y66579D01*
X750880Y66588D01*
X750982Y66591D01*
X751007Y66599D01*
X751021Y66600D01*
X751043Y66610D01*
X751124Y66634D01*
X756321Y68787D01*
X756368Y68816D01*
X756420Y68837D01*
X756471Y68880D01*
X756528Y68916D01*
X756563Y68959D01*
X756606Y68995D01*
X756640Y69052D01*
X756683Y69104D01*
X756702Y69156D01*
X756731Y69204D01*
X756745Y69270D01*
X756769Y69333D01*
X756771Y69388D01*
X756782Y69442D01*
X756775Y69509D01*
X756777Y69576D01*
X756761Y69630D01*
X756754Y69685D01*
X756710Y69796D01*
X756706Y69810D01*
X756703Y69814D01*
X756700Y69822D01*
X756143Y70904D01*
X758907Y74294D01*
X758961Y74388D01*
X759018Y74480D01*
X759021Y74493D01*
X759028Y74505D01*
X759049Y74612D01*
X759074Y74717D01*
X759072Y74731D01*
X759075Y74745D01*
X759060Y74852D01*
X759050Y74960D01*
X759044Y74973D01*
X759042Y74987D01*
X758994Y75084D01*
X758949Y75183D01*
X758938Y75196D01*
X758934Y75205D01*
X758918Y75220D01*
X758856Y75297D01*
X756271Y77882D01*
X756182Y77945D01*
X756097Y78011D01*
X756084Y78016D01*
X756072Y78024D01*
X755969Y78055D01*
X755866Y78091D01*
X755852Y78091D01*
X755839Y78095D01*
X755731Y78091D01*
X755622Y78092D01*
X755609Y78087D01*
X755595Y78087D01*
X755493Y78049D01*
X755391Y78014D01*
X755376Y78005D01*
X755367Y78001D01*
X755350Y77987D01*
X755268Y77933D01*
X751878Y75169D01*
X750796Y75726D01*
X750776Y75732D01*
X750681Y75774D01*
X749522Y76145D01*
X749079Y80496D01*
X749051Y80600D01*
X749026Y80706D01*
X749019Y80718D01*
X749016Y80731D01*
X748955Y80821D01*
X748898Y80914D01*
X748887Y80922D01*
X748879Y80934D01*
X748793Y81000D01*
X748709Y81069D01*
X748696Y81073D01*
X748685Y81082D01*
X748582Y81116D01*
X748481Y81155D01*
X748463Y81156D01*
X748454Y81160D01*
X748432Y81160D01*
X748334Y81169D01*
X744678Y81169D01*
X744571Y81152D01*
X744463Y81138D01*
X744451Y81132D01*
X744437Y81130D01*
X744341Y81078D01*
X744244Y81031D01*
X744234Y81021D01*
X744222Y81015D01*
X744148Y80935D01*
X744071Y80859D01*
X744065Y80847D01*
X744055Y80837D01*
X744010Y80738D01*
X743962Y80641D01*
X743958Y80623D01*
X743954Y80614D01*
X743952Y80593D01*
X743933Y80496D01*
X743490Y76145D01*
X742331Y75774D01*
X742313Y75764D01*
X742216Y75726D01*
X741134Y75169D01*
X737744Y77933D01*
X737650Y77987D01*
X737558Y78044D01*
X737545Y78047D01*
X737533Y78054D01*
X737426Y78075D01*
X737321Y78100D01*
X737307Y78098D01*
X737293Y78101D01*
X737186Y78086D01*
X737078Y78076D01*
X737065Y78070D01*
X737052Y78068D01*
X736954Y78020D01*
X736855Y77975D01*
X736842Y77964D01*
X736833Y77960D01*
X736818Y77944D01*
X736741Y77882D01*
X734156Y75297D01*
X734093Y75208D01*
X734027Y75123D01*
X734022Y75110D01*
X734014Y75098D01*
X733983Y74995D01*
X733947Y74892D01*
X733947Y74878D01*
X733943Y74865D01*
X733947Y74757D01*
X733946Y74648D01*
X733951Y74635D01*
X733951Y74621D01*
X733989Y74519D01*
X734024Y74417D01*
X734033Y74402D01*
X734037Y74393D01*
X734051Y74376D01*
X734105Y74294D01*
X736869Y70904D01*
X736312Y69822D01*
X736306Y69802D01*
X736264Y69707D01*
X735893Y68548D01*
X731542Y68105D01*
X731438Y68077D01*
X731332Y68052D01*
X731320Y68045D01*
X731307Y68042D01*
X731217Y67981D01*
X731124Y67924D01*
X731116Y67913D01*
X731104Y67905D01*
X731038Y67819D01*
X730970Y67735D01*
X730965Y67722D01*
X730956Y67711D01*
X730922Y67608D01*
X730883Y67507D01*
X730882Y67489D01*
X730878Y67480D01*
X730879Y67458D01*
X730869Y67360D01*
X730869Y63704D01*
X730886Y63597D01*
X730900Y63489D01*
X730906Y63477D01*
X730908Y63463D01*
X730960Y63367D01*
X731007Y63270D01*
X731017Y63260D01*
X731023Y63248D01*
X731103Y63174D01*
X731179Y63097D01*
X731191Y63091D01*
X731202Y63081D01*
X731300Y63036D01*
X731397Y62988D01*
X731415Y62984D01*
X731424Y62980D01*
X731445Y62978D01*
X731542Y62959D01*
X735893Y62516D01*
X736264Y61357D01*
X736274Y61339D01*
X736312Y61242D01*
X736869Y60160D01*
X734105Y56770D01*
X734051Y56676D01*
X733994Y56584D01*
X733991Y56571D01*
X733984Y56559D01*
X733963Y56452D01*
X733938Y56347D01*
X733940Y56333D01*
X733937Y56319D01*
X733952Y56212D01*
X733962Y56104D01*
X733968Y56091D01*
X733970Y56078D01*
X734018Y55980D01*
X734063Y55881D01*
X734074Y55868D01*
X734078Y55859D01*
X734094Y55844D01*
X734156Y55767D01*
X736741Y53182D01*
X736830Y53119D01*
X736915Y53053D01*
X736928Y53048D01*
X736940Y53040D01*
X737043Y53009D01*
X737146Y52973D01*
X737160Y52973D01*
X737173Y52969D01*
X737281Y52973D01*
X737390Y52972D01*
X737403Y52977D01*
X737417Y52977D01*
X737519Y53015D01*
X737621Y53050D01*
X737636Y53059D01*
X737645Y53063D01*
X737662Y53077D01*
X737744Y53131D01*
X741134Y55895D01*
X742216Y55338D01*
X742236Y55332D01*
X742331Y55290D01*
X743490Y54919D01*
X743933Y50568D01*
X743961Y50464D01*
X743986Y50358D01*
X743993Y50346D01*
X743996Y50333D01*
X744057Y50243D01*
X744114Y50150D01*
X744125Y50142D01*
X744133Y50130D01*
X744219Y50064D01*
X744303Y49996D01*
X744316Y49991D01*
X744327Y49982D01*
X744430Y49948D01*
X744531Y49909D01*
X744549Y49908D01*
X744558Y49904D01*
X744580Y49905D01*
X744678Y49895D01*
X748334Y49895D01*
X748441Y49912D01*
G37*
G36*
X1134521Y49912D02*
X1134521Y49912D01*
X1134629Y49926D01*
X1134641Y49932D01*
X1134655Y49934D01*
X1134751Y49986D01*
X1134848Y50033D01*
X1134858Y50043D01*
X1134870Y50049D01*
X1134944Y50129D01*
X1135021Y50205D01*
X1135027Y50217D01*
X1135037Y50228D01*
X1135082Y50326D01*
X1135130Y50423D01*
X1135134Y50441D01*
X1135138Y50450D01*
X1135140Y50471D01*
X1135159Y50568D01*
X1135602Y54919D01*
X1136761Y55290D01*
X1136779Y55300D01*
X1136876Y55338D01*
X1137958Y55895D01*
X1141348Y53131D01*
X1141442Y53077D01*
X1141534Y53020D01*
X1141547Y53017D01*
X1141559Y53010D01*
X1141666Y52989D01*
X1141771Y52964D01*
X1141785Y52966D01*
X1141799Y52963D01*
X1141906Y52978D01*
X1142014Y52988D01*
X1142027Y52994D01*
X1142041Y52996D01*
X1142138Y53044D01*
X1142237Y53089D01*
X1142250Y53100D01*
X1142259Y53104D01*
X1142274Y53120D01*
X1142351Y53182D01*
X1144936Y55767D01*
X1144999Y55856D01*
X1145065Y55941D01*
X1145070Y55954D01*
X1145078Y55966D01*
X1145109Y56069D01*
X1145145Y56172D01*
X1145145Y56186D01*
X1145149Y56199D01*
X1145145Y56307D01*
X1145146Y56416D01*
X1145141Y56429D01*
X1145141Y56443D01*
X1145103Y56545D01*
X1145068Y56647D01*
X1145059Y56662D01*
X1145055Y56671D01*
X1145041Y56688D01*
X1144987Y56770D01*
X1142223Y60160D01*
X1142780Y61242D01*
X1142797Y61295D01*
X1142823Y61344D01*
X1142834Y61410D01*
X1142855Y61474D01*
X1142854Y61530D01*
X1142863Y61584D01*
X1142852Y61651D01*
X1142851Y61718D01*
X1142833Y61770D01*
X1142824Y61825D01*
X1142792Y61885D01*
X1142769Y61948D01*
X1142735Y61991D01*
X1142709Y62041D01*
X1142660Y62087D01*
X1142618Y62139D01*
X1142571Y62170D01*
X1142531Y62208D01*
X1142426Y62264D01*
X1142413Y62272D01*
X1142408Y62273D01*
X1142401Y62277D01*
X1137204Y64430D01*
X1137105Y64453D01*
X1137007Y64482D01*
X1136986Y64481D01*
X1136966Y64486D01*
X1136865Y64476D01*
X1136764Y64471D01*
X1136744Y64464D01*
X1136723Y64462D01*
X1136631Y64420D01*
X1136536Y64383D01*
X1136520Y64370D01*
X1136501Y64361D01*
X1136427Y64292D01*
X1136349Y64227D01*
X1136333Y64204D01*
X1136323Y64194D01*
X1136311Y64173D01*
X1136264Y64106D01*
X1135758Y63207D01*
X1135114Y62520D01*
X1134326Y62005D01*
X1133438Y61693D01*
X1132501Y61601D01*
X1131569Y61734D01*
X1130695Y62085D01*
X1129930Y62634D01*
X1129317Y63348D01*
X1128892Y64188D01*
X1128678Y65105D01*
X1128688Y66046D01*
X1128922Y66958D01*
X1129365Y67788D01*
X1129994Y68489D01*
X1130771Y69021D01*
X1131652Y69352D01*
X1132587Y69465D01*
X1133504Y69357D01*
X1134372Y69037D01*
X1135141Y68523D01*
X1135768Y67844D01*
X1136263Y66960D01*
X1136327Y66880D01*
X1136387Y66797D01*
X1136403Y66785D01*
X1136416Y66769D01*
X1136502Y66714D01*
X1136585Y66654D01*
X1136604Y66648D01*
X1136621Y66638D01*
X1136720Y66613D01*
X1136819Y66583D01*
X1136838Y66584D01*
X1136858Y66579D01*
X1136960Y66588D01*
X1137062Y66591D01*
X1137087Y66599D01*
X1137101Y66600D01*
X1137123Y66610D01*
X1137204Y66634D01*
X1142401Y68787D01*
X1142448Y68816D01*
X1142500Y68837D01*
X1142551Y68880D01*
X1142608Y68916D01*
X1142643Y68959D01*
X1142686Y68995D01*
X1142720Y69052D01*
X1142763Y69104D01*
X1142782Y69156D01*
X1142811Y69204D01*
X1142825Y69270D01*
X1142849Y69333D01*
X1142851Y69388D01*
X1142862Y69442D01*
X1142855Y69509D01*
X1142857Y69576D01*
X1142841Y69630D01*
X1142834Y69685D01*
X1142790Y69796D01*
X1142786Y69810D01*
X1142783Y69814D01*
X1142780Y69822D01*
X1142223Y70904D01*
X1144987Y74294D01*
X1145041Y74388D01*
X1145098Y74480D01*
X1145101Y74493D01*
X1145108Y74505D01*
X1145129Y74612D01*
X1145154Y74717D01*
X1145152Y74731D01*
X1145155Y74745D01*
X1145140Y74852D01*
X1145130Y74960D01*
X1145124Y74973D01*
X1145122Y74987D01*
X1145074Y75084D01*
X1145029Y75183D01*
X1145018Y75196D01*
X1145014Y75205D01*
X1144998Y75220D01*
X1144936Y75297D01*
X1142351Y77882D01*
X1142262Y77945D01*
X1142177Y78011D01*
X1142164Y78016D01*
X1142152Y78024D01*
X1142049Y78055D01*
X1141946Y78091D01*
X1141932Y78091D01*
X1141919Y78095D01*
X1141811Y78091D01*
X1141702Y78092D01*
X1141689Y78087D01*
X1141675Y78087D01*
X1141573Y78049D01*
X1141471Y78014D01*
X1141456Y78005D01*
X1141447Y78001D01*
X1141430Y77987D01*
X1141348Y77933D01*
X1137958Y75169D01*
X1136876Y75726D01*
X1136856Y75732D01*
X1136761Y75774D01*
X1135602Y76145D01*
X1135159Y80496D01*
X1135131Y80600D01*
X1135106Y80706D01*
X1135099Y80718D01*
X1135096Y80731D01*
X1135035Y80821D01*
X1134978Y80914D01*
X1134967Y80922D01*
X1134959Y80934D01*
X1134873Y81000D01*
X1134789Y81069D01*
X1134776Y81073D01*
X1134765Y81082D01*
X1134662Y81116D01*
X1134561Y81155D01*
X1134543Y81156D01*
X1134534Y81160D01*
X1134512Y81160D01*
X1134414Y81169D01*
X1130758Y81169D01*
X1130651Y81152D01*
X1130543Y81138D01*
X1130531Y81132D01*
X1130517Y81130D01*
X1130421Y81078D01*
X1130324Y81031D01*
X1130314Y81021D01*
X1130302Y81015D01*
X1130228Y80935D01*
X1130151Y80859D01*
X1130145Y80847D01*
X1130135Y80837D01*
X1130090Y80738D01*
X1130042Y80641D01*
X1130038Y80623D01*
X1130034Y80614D01*
X1130032Y80593D01*
X1130013Y80496D01*
X1129570Y76145D01*
X1128411Y75774D01*
X1128393Y75764D01*
X1128296Y75726D01*
X1127214Y75169D01*
X1123824Y77933D01*
X1123730Y77987D01*
X1123638Y78044D01*
X1123625Y78047D01*
X1123613Y78054D01*
X1123506Y78075D01*
X1123401Y78100D01*
X1123387Y78098D01*
X1123373Y78101D01*
X1123266Y78086D01*
X1123158Y78076D01*
X1123145Y78070D01*
X1123132Y78068D01*
X1123034Y78020D01*
X1122935Y77975D01*
X1122922Y77964D01*
X1122913Y77960D01*
X1122898Y77944D01*
X1122821Y77882D01*
X1120236Y75297D01*
X1120173Y75208D01*
X1120107Y75123D01*
X1120102Y75110D01*
X1120094Y75098D01*
X1120063Y74995D01*
X1120027Y74892D01*
X1120027Y74878D01*
X1120023Y74865D01*
X1120027Y74757D01*
X1120026Y74648D01*
X1120031Y74635D01*
X1120031Y74621D01*
X1120069Y74519D01*
X1120104Y74417D01*
X1120113Y74402D01*
X1120117Y74393D01*
X1120131Y74376D01*
X1120185Y74294D01*
X1122949Y70904D01*
X1122392Y69822D01*
X1122386Y69802D01*
X1122344Y69707D01*
X1121973Y68548D01*
X1117622Y68105D01*
X1117518Y68077D01*
X1117412Y68052D01*
X1117400Y68045D01*
X1117387Y68042D01*
X1117297Y67981D01*
X1117204Y67924D01*
X1117196Y67913D01*
X1117184Y67905D01*
X1117118Y67819D01*
X1117050Y67735D01*
X1117045Y67722D01*
X1117036Y67711D01*
X1117002Y67608D01*
X1116963Y67507D01*
X1116962Y67489D01*
X1116958Y67480D01*
X1116959Y67458D01*
X1116949Y67360D01*
X1116949Y63704D01*
X1116966Y63597D01*
X1116980Y63489D01*
X1116986Y63477D01*
X1116988Y63463D01*
X1117040Y63367D01*
X1117087Y63270D01*
X1117097Y63260D01*
X1117103Y63248D01*
X1117183Y63174D01*
X1117259Y63097D01*
X1117271Y63091D01*
X1117282Y63081D01*
X1117380Y63036D01*
X1117477Y62988D01*
X1117495Y62984D01*
X1117504Y62980D01*
X1117525Y62978D01*
X1117622Y62959D01*
X1121973Y62516D01*
X1122344Y61357D01*
X1122354Y61339D01*
X1122392Y61242D01*
X1122949Y60160D01*
X1120185Y56770D01*
X1120131Y56676D01*
X1120074Y56584D01*
X1120071Y56571D01*
X1120064Y56559D01*
X1120043Y56452D01*
X1120018Y56347D01*
X1120020Y56333D01*
X1120017Y56319D01*
X1120032Y56212D01*
X1120042Y56104D01*
X1120048Y56091D01*
X1120050Y56078D01*
X1120098Y55980D01*
X1120143Y55881D01*
X1120154Y55868D01*
X1120158Y55859D01*
X1120174Y55844D01*
X1120236Y55767D01*
X1122821Y53182D01*
X1122910Y53119D01*
X1122995Y53053D01*
X1123008Y53048D01*
X1123020Y53040D01*
X1123123Y53009D01*
X1123226Y52973D01*
X1123240Y52973D01*
X1123253Y52969D01*
X1123361Y52973D01*
X1123470Y52972D01*
X1123483Y52977D01*
X1123497Y52977D01*
X1123599Y53015D01*
X1123701Y53050D01*
X1123716Y53059D01*
X1123725Y53063D01*
X1123742Y53077D01*
X1123824Y53131D01*
X1127214Y55895D01*
X1128296Y55338D01*
X1128316Y55332D01*
X1128411Y55290D01*
X1129570Y54919D01*
X1130013Y50568D01*
X1130041Y50464D01*
X1130066Y50358D01*
X1130073Y50346D01*
X1130076Y50333D01*
X1130137Y50243D01*
X1130194Y50150D01*
X1130205Y50142D01*
X1130213Y50130D01*
X1130299Y50064D01*
X1130383Y49996D01*
X1130396Y49991D01*
X1130407Y49982D01*
X1130510Y49948D01*
X1130611Y49909D01*
X1130629Y49908D01*
X1130638Y49904D01*
X1130660Y49905D01*
X1130758Y49895D01*
X1134414Y49895D01*
X1134521Y49912D01*
G37*
%LPC*%
G36*
X544461Y726361D02*
X544461Y726361D01*
X543769Y726460D01*
X543177Y726658D01*
X542581Y726955D01*
X542087Y727252D01*
X541495Y727745D01*
X541099Y728339D01*
X541096Y728340D01*
X541096Y728343D01*
X540702Y728836D01*
X540505Y729427D01*
X540306Y730123D01*
X540207Y730716D01*
X540207Y731409D01*
X540306Y732102D01*
X540314Y732128D01*
X540356Y732276D01*
X540398Y732423D01*
X540412Y732473D01*
X540454Y732620D01*
X540455Y732620D01*
X540454Y732620D01*
X540497Y732768D01*
X540504Y732794D01*
X540801Y733389D01*
X541097Y733882D01*
X542087Y734871D01*
X543277Y735466D01*
X543869Y735664D01*
X544561Y735763D01*
X547842Y735763D01*
X548216Y735482D01*
X548409Y734904D01*
X548409Y733732D01*
X546074Y733265D01*
X545793Y733547D01*
X545766Y733551D01*
X545758Y733561D01*
X544358Y733561D01*
X544345Y733552D01*
X544336Y733556D01*
X543736Y733256D01*
X543734Y733252D01*
X543731Y733253D01*
X543131Y732853D01*
X543127Y732843D01*
X543120Y732843D01*
X542720Y732343D01*
X542719Y732330D01*
X542711Y732328D01*
X542511Y731728D01*
X542513Y731721D01*
X542509Y731719D01*
X542409Y731019D01*
X542414Y731010D01*
X542409Y731005D01*
X542509Y730305D01*
X542517Y730297D01*
X542514Y730290D01*
X542814Y729690D01*
X542821Y729687D01*
X542820Y729681D01*
X543220Y729181D01*
X543224Y729180D01*
X543223Y729177D01*
X543723Y728677D01*
X543735Y728676D01*
X543736Y728668D01*
X543936Y728568D01*
X543952Y728571D01*
X543958Y728563D01*
X546058Y728563D01*
X546105Y728599D01*
X546103Y728602D01*
X546107Y728604D01*
X546207Y729204D01*
X546204Y729209D01*
X546207Y729212D01*
X546207Y733171D01*
X548409Y733571D01*
X548409Y727415D01*
X548312Y726739D01*
X547939Y726459D01*
X547155Y726361D01*
X544461Y726361D01*
G37*
%LPD*%
%LPC*%
G36*
X158381Y726361D02*
X158381Y726361D01*
X157689Y726460D01*
X157097Y726658D01*
X156501Y726955D01*
X156007Y727252D01*
X155415Y727745D01*
X155019Y728339D01*
X155016Y728340D01*
X155016Y728343D01*
X154622Y728836D01*
X154425Y729427D01*
X154226Y730123D01*
X154127Y730716D01*
X154127Y731409D01*
X154226Y732102D01*
X154234Y732128D01*
X154276Y732276D01*
X154318Y732423D01*
X154332Y732473D01*
X154374Y732620D01*
X154375Y732620D01*
X154374Y732620D01*
X154417Y732768D01*
X154424Y732794D01*
X154721Y733389D01*
X155017Y733882D01*
X156007Y734871D01*
X157197Y735466D01*
X157789Y735664D01*
X158481Y735763D01*
X161762Y735763D01*
X162136Y735482D01*
X162329Y734904D01*
X162329Y733732D01*
X159994Y733265D01*
X159713Y733547D01*
X159686Y733551D01*
X159678Y733561D01*
X158278Y733561D01*
X158265Y733552D01*
X158256Y733556D01*
X157656Y733256D01*
X157654Y733252D01*
X157651Y733253D01*
X157051Y732853D01*
X157047Y732843D01*
X157040Y732843D01*
X156640Y732343D01*
X156639Y732330D01*
X156631Y732328D01*
X156431Y731728D01*
X156433Y731721D01*
X156429Y731719D01*
X156329Y731019D01*
X156334Y731010D01*
X156329Y731005D01*
X156429Y730305D01*
X156437Y730297D01*
X156434Y730290D01*
X156734Y729690D01*
X156741Y729687D01*
X156740Y729681D01*
X157140Y729181D01*
X157144Y729180D01*
X157143Y729177D01*
X157643Y728677D01*
X157655Y728676D01*
X157656Y728668D01*
X157856Y728568D01*
X157872Y728571D01*
X157878Y728563D01*
X159978Y728563D01*
X160025Y728599D01*
X160023Y728602D01*
X160027Y728604D01*
X160127Y729204D01*
X160124Y729209D01*
X160127Y729212D01*
X160127Y733171D01*
X162329Y733571D01*
X162329Y727415D01*
X162232Y726739D01*
X161859Y726459D01*
X161075Y726361D01*
X158381Y726361D01*
G37*
%LPD*%
%LPC*%
G36*
X930541Y726361D02*
X930541Y726361D01*
X929849Y726460D01*
X929257Y726658D01*
X928661Y726955D01*
X928167Y727252D01*
X927575Y727745D01*
X927179Y728339D01*
X927176Y728340D01*
X927176Y728343D01*
X926782Y728836D01*
X926585Y729427D01*
X926386Y730123D01*
X926287Y730716D01*
X926287Y731409D01*
X926386Y732102D01*
X926394Y732128D01*
X926436Y732276D01*
X926478Y732423D01*
X926492Y732473D01*
X926534Y732620D01*
X926535Y732620D01*
X926534Y732620D01*
X926577Y732768D01*
X926584Y732794D01*
X926881Y733389D01*
X927177Y733882D01*
X928167Y734871D01*
X929357Y735466D01*
X929949Y735664D01*
X930641Y735763D01*
X933922Y735763D01*
X934296Y735482D01*
X934489Y734904D01*
X934489Y733732D01*
X932154Y733265D01*
X931873Y733547D01*
X931846Y733551D01*
X931838Y733561D01*
X930438Y733561D01*
X930425Y733552D01*
X930416Y733556D01*
X929816Y733256D01*
X929814Y733252D01*
X929811Y733253D01*
X929211Y732853D01*
X929207Y732843D01*
X929200Y732843D01*
X928800Y732343D01*
X928799Y732330D01*
X928791Y732328D01*
X928591Y731728D01*
X928593Y731721D01*
X928589Y731719D01*
X928489Y731019D01*
X928494Y731010D01*
X928489Y731005D01*
X928589Y730305D01*
X928597Y730297D01*
X928594Y730290D01*
X928894Y729690D01*
X928901Y729687D01*
X928900Y729681D01*
X929300Y729181D01*
X929304Y729180D01*
X929303Y729177D01*
X929803Y728677D01*
X929815Y728676D01*
X929816Y728668D01*
X930016Y728568D01*
X930032Y728571D01*
X930038Y728563D01*
X932138Y728563D01*
X932185Y728599D01*
X932183Y728602D01*
X932187Y728604D01*
X932287Y729204D01*
X932284Y729209D01*
X932287Y729212D01*
X932287Y733171D01*
X934489Y733571D01*
X934489Y727415D01*
X934392Y726739D01*
X934019Y726459D01*
X933235Y726361D01*
X930541Y726361D01*
G37*
%LPD*%
%LPC*%
G36*
X991398Y627455D02*
X991398Y627455D01*
X991024Y627736D01*
X990831Y628314D01*
X990831Y629486D01*
X993166Y629953D01*
X993447Y629671D01*
X993474Y629668D01*
X993482Y629657D01*
X994882Y629657D01*
X994895Y629666D01*
X994904Y629662D01*
X995504Y629962D01*
X995506Y629966D01*
X995509Y629965D01*
X996109Y630365D01*
X996113Y630375D01*
X996120Y630375D01*
X996520Y630875D01*
X996521Y630888D01*
X996529Y630890D01*
X996729Y631490D01*
X996727Y631497D01*
X996731Y631499D01*
X996831Y632199D01*
X996826Y632208D01*
X996831Y632213D01*
X996731Y632913D01*
X996723Y632921D01*
X996726Y632928D01*
X996426Y633528D01*
X996419Y633531D01*
X996420Y633537D01*
X996020Y634037D01*
X996016Y634038D01*
X996017Y634041D01*
X995517Y634541D01*
X995505Y634542D01*
X995504Y634550D01*
X995304Y634650D01*
X995288Y634647D01*
X995282Y634655D01*
X993182Y634655D01*
X993135Y634619D01*
X993137Y634616D01*
X993133Y634614D01*
X993033Y634014D01*
X993036Y634009D01*
X993033Y634006D01*
X993033Y630047D01*
X990831Y629647D01*
X990831Y635803D01*
X990928Y636479D01*
X991301Y636759D01*
X992085Y636857D01*
X994779Y636857D01*
X995471Y636758D01*
X996063Y636560D01*
X996659Y636263D01*
X997153Y635966D01*
X997745Y635473D01*
X998141Y634879D01*
X998144Y634878D01*
X998144Y634875D01*
X998538Y634382D01*
X998735Y633791D01*
X998934Y633095D01*
X999033Y632502D01*
X999033Y631809D01*
X998934Y631116D01*
X998924Y631083D01*
X998882Y630935D01*
X998840Y630788D01*
X998826Y630738D01*
X998784Y630591D01*
X998741Y630443D01*
X998736Y630424D01*
X998439Y629829D01*
X998143Y629337D01*
X997153Y628347D01*
X995963Y627752D01*
X995371Y627554D01*
X994679Y627455D01*
X991398Y627455D01*
G37*
%LPD*%
%LPC*%
G36*
X219238Y627455D02*
X219238Y627455D01*
X218864Y627736D01*
X218671Y628314D01*
X218671Y629486D01*
X221006Y629953D01*
X221287Y629671D01*
X221314Y629668D01*
X221322Y629657D01*
X222722Y629657D01*
X222735Y629666D01*
X222744Y629662D01*
X223344Y629962D01*
X223346Y629966D01*
X223349Y629965D01*
X223949Y630365D01*
X223953Y630375D01*
X223960Y630375D01*
X224360Y630875D01*
X224361Y630888D01*
X224369Y630890D01*
X224569Y631490D01*
X224567Y631497D01*
X224571Y631499D01*
X224671Y632199D01*
X224666Y632208D01*
X224671Y632213D01*
X224571Y632913D01*
X224563Y632921D01*
X224566Y632928D01*
X224266Y633528D01*
X224259Y633531D01*
X224260Y633537D01*
X223860Y634037D01*
X223856Y634038D01*
X223857Y634041D01*
X223357Y634541D01*
X223345Y634542D01*
X223344Y634550D01*
X223144Y634650D01*
X223128Y634647D01*
X223122Y634655D01*
X221022Y634655D01*
X220975Y634619D01*
X220977Y634616D01*
X220973Y634614D01*
X220873Y634014D01*
X220876Y634009D01*
X220873Y634006D01*
X220873Y630047D01*
X218671Y629647D01*
X218671Y635803D01*
X218768Y636479D01*
X219141Y636759D01*
X219925Y636857D01*
X222619Y636857D01*
X223311Y636758D01*
X223903Y636560D01*
X224499Y636263D01*
X224993Y635966D01*
X225585Y635473D01*
X225981Y634879D01*
X225984Y634878D01*
X225984Y634875D01*
X226378Y634382D01*
X226575Y633791D01*
X226774Y633095D01*
X226873Y632502D01*
X226873Y631809D01*
X226774Y631116D01*
X226764Y631083D01*
X226722Y630935D01*
X226680Y630788D01*
X226666Y630738D01*
X226624Y630591D01*
X226581Y630443D01*
X226576Y630424D01*
X226279Y629829D01*
X225983Y629337D01*
X224993Y628347D01*
X223803Y627752D01*
X223211Y627554D01*
X222519Y627455D01*
X219238Y627455D01*
G37*
%LPD*%
%LPC*%
G36*
X605318Y627455D02*
X605318Y627455D01*
X604944Y627736D01*
X604751Y628314D01*
X604751Y629486D01*
X607086Y629953D01*
X607367Y629671D01*
X607394Y629668D01*
X607402Y629657D01*
X608802Y629657D01*
X608815Y629666D01*
X608824Y629662D01*
X609424Y629962D01*
X609426Y629966D01*
X609429Y629965D01*
X610029Y630365D01*
X610033Y630375D01*
X610040Y630375D01*
X610440Y630875D01*
X610441Y630888D01*
X610449Y630890D01*
X610649Y631490D01*
X610647Y631497D01*
X610651Y631499D01*
X610751Y632199D01*
X610746Y632208D01*
X610751Y632213D01*
X610651Y632913D01*
X610643Y632921D01*
X610646Y632928D01*
X610346Y633528D01*
X610339Y633531D01*
X610340Y633537D01*
X609940Y634037D01*
X609936Y634038D01*
X609937Y634041D01*
X609437Y634541D01*
X609425Y634542D01*
X609424Y634550D01*
X609224Y634650D01*
X609208Y634647D01*
X609202Y634655D01*
X607102Y634655D01*
X607055Y634619D01*
X607057Y634616D01*
X607053Y634614D01*
X606953Y634014D01*
X606956Y634009D01*
X606953Y634006D01*
X606953Y630047D01*
X604751Y629647D01*
X604751Y635803D01*
X604848Y636479D01*
X605221Y636759D01*
X606005Y636857D01*
X608699Y636857D01*
X609391Y636758D01*
X609983Y636560D01*
X610579Y636263D01*
X611073Y635966D01*
X611665Y635473D01*
X612061Y634879D01*
X612064Y634878D01*
X612064Y634875D01*
X612458Y634382D01*
X612655Y633791D01*
X612854Y633095D01*
X612953Y632502D01*
X612953Y631809D01*
X612854Y631116D01*
X612844Y631083D01*
X612802Y630935D01*
X612760Y630788D01*
X612746Y630738D01*
X612704Y630591D01*
X612661Y630443D01*
X612656Y630424D01*
X612359Y629829D01*
X612063Y629337D01*
X611073Y628347D01*
X609883Y627752D01*
X609291Y627554D01*
X608599Y627455D01*
X605318Y627455D01*
G37*
%LPD*%
%LPC*%
G36*
X596505Y627455D02*
X596505Y627455D01*
X595822Y627553D01*
X595448Y627833D01*
X595351Y628509D01*
X595351Y636002D01*
X595447Y636578D01*
X595818Y636857D01*
X602086Y636857D01*
X602459Y636577D01*
X602652Y635902D01*
X602555Y635129D01*
X602178Y634752D01*
X601598Y634655D01*
X598202Y634655D01*
X598197Y634652D01*
X598194Y634655D01*
X597594Y634555D01*
X597553Y634511D01*
X597556Y634509D01*
X597553Y634506D01*
X597553Y633806D01*
X597562Y633793D01*
X597558Y633784D01*
X597758Y633384D01*
X597795Y633366D01*
X597802Y633357D01*
X599799Y633357D01*
X600489Y633258D01*
X600965Y633068D01*
X601251Y632399D01*
X601155Y631625D01*
X600873Y631249D01*
X600195Y631055D01*
X597602Y631055D01*
X597555Y631019D01*
X597560Y631012D01*
X597553Y631006D01*
X597553Y629706D01*
X597589Y629659D01*
X597596Y629664D01*
X597602Y629657D01*
X601698Y629657D01*
X602274Y629561D01*
X602563Y629176D01*
X602603Y629165D01*
X602610Y629158D01*
X602592Y629154D01*
X602557Y629114D01*
X602555Y629113D01*
X602556Y629113D01*
X602553Y629110D01*
X602558Y629105D01*
X602553Y629100D01*
X602652Y628311D01*
X602461Y627739D01*
X601988Y627455D01*
X596505Y627455D01*
G37*
%LPD*%
%LPC*%
G36*
X210425Y627455D02*
X210425Y627455D01*
X209742Y627553D01*
X209368Y627833D01*
X209271Y628509D01*
X209271Y636002D01*
X209367Y636578D01*
X209738Y636857D01*
X216006Y636857D01*
X216379Y636577D01*
X216572Y635902D01*
X216475Y635129D01*
X216098Y634752D01*
X215518Y634655D01*
X212122Y634655D01*
X212117Y634652D01*
X212114Y634655D01*
X211514Y634555D01*
X211473Y634511D01*
X211476Y634509D01*
X211473Y634506D01*
X211473Y633806D01*
X211482Y633793D01*
X211478Y633784D01*
X211678Y633384D01*
X211715Y633366D01*
X211722Y633357D01*
X213719Y633357D01*
X214409Y633258D01*
X214885Y633068D01*
X215171Y632399D01*
X215075Y631625D01*
X214793Y631249D01*
X214115Y631055D01*
X211522Y631055D01*
X211475Y631019D01*
X211480Y631012D01*
X211473Y631006D01*
X211473Y629706D01*
X211509Y629659D01*
X211516Y629664D01*
X211522Y629657D01*
X215618Y629657D01*
X216194Y629561D01*
X216483Y629176D01*
X216523Y629165D01*
X216530Y629158D01*
X216512Y629154D01*
X216477Y629114D01*
X216475Y629113D01*
X216476Y629113D01*
X216473Y629110D01*
X216478Y629105D01*
X216473Y629100D01*
X216572Y628311D01*
X216381Y627739D01*
X215908Y627455D01*
X210425Y627455D01*
G37*
%LPD*%
%LPC*%
G36*
X982585Y627455D02*
X982585Y627455D01*
X981902Y627553D01*
X981528Y627833D01*
X981431Y628509D01*
X981431Y636002D01*
X981527Y636578D01*
X981898Y636857D01*
X988166Y636857D01*
X988539Y636577D01*
X988732Y635902D01*
X988635Y635129D01*
X988258Y634752D01*
X987678Y634655D01*
X984282Y634655D01*
X984277Y634652D01*
X984274Y634655D01*
X983674Y634555D01*
X983633Y634511D01*
X983636Y634509D01*
X983633Y634506D01*
X983633Y633806D01*
X983642Y633793D01*
X983638Y633784D01*
X983838Y633384D01*
X983875Y633366D01*
X983882Y633357D01*
X985879Y633357D01*
X986569Y633258D01*
X987045Y633068D01*
X987331Y632399D01*
X987235Y631625D01*
X986953Y631249D01*
X986275Y631055D01*
X983682Y631055D01*
X983635Y631019D01*
X983640Y631012D01*
X983633Y631006D01*
X983633Y629706D01*
X983669Y629659D01*
X983676Y629664D01*
X983682Y629657D01*
X987778Y629657D01*
X988354Y629561D01*
X988643Y629176D01*
X988683Y629165D01*
X988690Y629158D01*
X988672Y629154D01*
X988637Y629114D01*
X988635Y629113D01*
X988636Y629113D01*
X988633Y629110D01*
X988638Y629105D01*
X988633Y629100D01*
X988732Y628311D01*
X988541Y627739D01*
X988068Y627455D01*
X982585Y627455D01*
G37*
%LPD*%
%LPC*%
G36*
X164994Y726361D02*
X164994Y726361D01*
X164621Y726642D01*
X164428Y727316D01*
X164525Y728089D01*
X164902Y728466D01*
X165482Y728563D01*
X168878Y728563D01*
X168883Y728566D01*
X168886Y728563D01*
X169486Y728663D01*
X169527Y728707D01*
X169524Y728710D01*
X169527Y728712D01*
X169527Y729412D01*
X169518Y729425D01*
X169522Y729434D01*
X169322Y729834D01*
X169285Y729853D01*
X169278Y729861D01*
X167281Y729861D01*
X166591Y729960D01*
X166115Y730150D01*
X165829Y730819D01*
X165925Y731593D01*
X166208Y731969D01*
X166885Y732163D01*
X169478Y732163D01*
X169525Y732199D01*
X169520Y732206D01*
X169527Y732212D01*
X169527Y733512D01*
X169491Y733559D01*
X169484Y733554D01*
X169478Y733561D01*
X165382Y733561D01*
X164806Y733657D01*
X164517Y734042D01*
X164477Y734053D01*
X164470Y734060D01*
X164488Y734064D01*
X164510Y734089D01*
X164522Y734098D01*
X164520Y734100D01*
X164527Y734108D01*
X164522Y734113D01*
X164527Y734118D01*
X164428Y734907D01*
X164619Y735479D01*
X165092Y735763D01*
X170575Y735763D01*
X171259Y735665D01*
X171632Y735385D01*
X171729Y734709D01*
X171729Y727216D01*
X171633Y726640D01*
X171262Y726361D01*
X164994Y726361D01*
G37*
%LPD*%
%LPC*%
G36*
X551074Y726361D02*
X551074Y726361D01*
X550701Y726642D01*
X550508Y727316D01*
X550605Y728089D01*
X550982Y728466D01*
X551562Y728563D01*
X554958Y728563D01*
X554963Y728566D01*
X554966Y728563D01*
X555566Y728663D01*
X555607Y728707D01*
X555604Y728710D01*
X555607Y728712D01*
X555607Y729412D01*
X555598Y729425D01*
X555602Y729434D01*
X555402Y729834D01*
X555365Y729853D01*
X555358Y729861D01*
X553361Y729861D01*
X552671Y729960D01*
X552195Y730150D01*
X551909Y730819D01*
X552005Y731593D01*
X552288Y731969D01*
X552965Y732163D01*
X555558Y732163D01*
X555605Y732199D01*
X555600Y732206D01*
X555607Y732212D01*
X555607Y733512D01*
X555571Y733559D01*
X555564Y733554D01*
X555558Y733561D01*
X551462Y733561D01*
X550886Y733657D01*
X550597Y734042D01*
X550557Y734053D01*
X550550Y734060D01*
X550568Y734064D01*
X550590Y734089D01*
X550602Y734098D01*
X550600Y734100D01*
X550607Y734108D01*
X550602Y734113D01*
X550607Y734118D01*
X550508Y734907D01*
X550699Y735479D01*
X551172Y735763D01*
X556655Y735763D01*
X557339Y735665D01*
X557712Y735385D01*
X557809Y734709D01*
X557809Y727216D01*
X557713Y726640D01*
X557342Y726361D01*
X551074Y726361D01*
G37*
%LPD*%
%LPC*%
G36*
X937154Y726361D02*
X937154Y726361D01*
X936781Y726642D01*
X936588Y727316D01*
X936685Y728089D01*
X937062Y728466D01*
X937642Y728563D01*
X941038Y728563D01*
X941043Y728566D01*
X941046Y728563D01*
X941646Y728663D01*
X941687Y728707D01*
X941684Y728710D01*
X941687Y728712D01*
X941687Y729412D01*
X941678Y729425D01*
X941682Y729434D01*
X941482Y729834D01*
X941445Y729853D01*
X941438Y729861D01*
X939441Y729861D01*
X938751Y729960D01*
X938275Y730150D01*
X937989Y730819D01*
X938085Y731593D01*
X938368Y731969D01*
X939045Y732163D01*
X941638Y732163D01*
X941685Y732199D01*
X941680Y732206D01*
X941687Y732212D01*
X941687Y733512D01*
X941651Y733559D01*
X941644Y733554D01*
X941638Y733561D01*
X937542Y733561D01*
X936966Y733657D01*
X936677Y734042D01*
X936637Y734053D01*
X936630Y734060D01*
X936648Y734064D01*
X936670Y734089D01*
X936682Y734098D01*
X936680Y734100D01*
X936687Y734108D01*
X936682Y734113D01*
X936687Y734118D01*
X936588Y734907D01*
X936779Y735479D01*
X937252Y735763D01*
X942735Y735763D01*
X943419Y735665D01*
X943792Y735385D01*
X943889Y734709D01*
X943889Y727216D01*
X943793Y726640D01*
X943422Y726361D01*
X937154Y726361D01*
G37*
%LPD*%
%LPC*%
G36*
X973196Y627455D02*
X973196Y627455D01*
X972727Y627737D01*
X972631Y628310D01*
X972631Y636481D01*
X973001Y636759D01*
X973785Y636857D01*
X978478Y636857D01*
X979043Y636763D01*
X979233Y636099D01*
X979233Y635434D01*
X978765Y635153D01*
X978079Y635055D01*
X974882Y635055D01*
X974835Y635019D01*
X974840Y635012D01*
X974833Y635006D01*
X974833Y628909D01*
X974733Y628214D01*
X974638Y627739D01*
X974070Y627455D01*
X973196Y627455D01*
G37*
%LPD*%
%LPC*%
G36*
X201036Y627455D02*
X201036Y627455D01*
X200567Y627737D01*
X200471Y628310D01*
X200471Y636481D01*
X200841Y636759D01*
X201625Y636857D01*
X206318Y636857D01*
X206883Y636763D01*
X207073Y636099D01*
X207073Y635434D01*
X206605Y635153D01*
X205919Y635055D01*
X202722Y635055D01*
X202675Y635019D01*
X202680Y635012D01*
X202673Y635006D01*
X202673Y628909D01*
X202573Y628214D01*
X202478Y627739D01*
X201910Y627455D01*
X201036Y627455D01*
G37*
%LPD*%
%LPC*%
G36*
X174682Y726361D02*
X174682Y726361D01*
X174117Y726455D01*
X173927Y727119D01*
X173927Y727784D01*
X174395Y728065D01*
X175081Y728163D01*
X178278Y728163D01*
X178325Y728199D01*
X178320Y728206D01*
X178327Y728212D01*
X178327Y734309D01*
X178427Y735004D01*
X178522Y735479D01*
X179090Y735763D01*
X179964Y735763D01*
X180433Y735482D01*
X180529Y734908D01*
X180529Y726737D01*
X180159Y726459D01*
X179375Y726361D01*
X174682Y726361D01*
G37*
%LPD*%
%LPC*%
G36*
X587116Y627455D02*
X587116Y627455D01*
X586647Y627737D01*
X586551Y628310D01*
X586551Y636481D01*
X586921Y636759D01*
X587705Y636857D01*
X592398Y636857D01*
X592963Y636763D01*
X593153Y636099D01*
X593153Y635434D01*
X592685Y635153D01*
X591999Y635055D01*
X588802Y635055D01*
X588755Y635019D01*
X588760Y635012D01*
X588753Y635006D01*
X588753Y628909D01*
X588653Y628214D01*
X588558Y627739D01*
X587990Y627455D01*
X587116Y627455D01*
G37*
%LPD*%
%LPC*%
G36*
X560762Y726361D02*
X560762Y726361D01*
X560197Y726455D01*
X560007Y727119D01*
X560007Y727784D01*
X560475Y728065D01*
X561161Y728163D01*
X564358Y728163D01*
X564405Y728199D01*
X564400Y728206D01*
X564407Y728212D01*
X564407Y734309D01*
X564507Y735004D01*
X564602Y735479D01*
X565170Y735763D01*
X566044Y735763D01*
X566513Y735482D01*
X566609Y734908D01*
X566609Y726737D01*
X566239Y726459D01*
X565455Y726361D01*
X560762Y726361D01*
G37*
%LPD*%
%LPC*%
G36*
X946842Y726361D02*
X946842Y726361D01*
X946277Y726455D01*
X946087Y727119D01*
X946087Y727784D01*
X946555Y728065D01*
X947241Y728163D01*
X950438Y728163D01*
X950485Y728199D01*
X950480Y728206D01*
X950487Y728212D01*
X950487Y734309D01*
X950587Y735004D01*
X950682Y735479D01*
X951250Y735763D01*
X952124Y735763D01*
X952593Y735482D01*
X952689Y734908D01*
X952689Y726737D01*
X952319Y726459D01*
X951535Y726361D01*
X946842Y726361D01*
G37*
%LPD*%
D10*
X251714Y643890D02*
X236474Y643890D01*
X256286Y628142D02*
X256284Y628009D01*
X256278Y627876D01*
X256269Y627744D01*
X256255Y627611D01*
X256238Y627479D01*
X256217Y627348D01*
X256192Y627217D01*
X256163Y627088D01*
X256130Y626959D01*
X256094Y626831D01*
X256054Y626704D01*
X256010Y626578D01*
X255963Y626454D01*
X255912Y626331D01*
X255858Y626210D01*
X255800Y626090D01*
X255738Y625972D01*
X255673Y625856D01*
X255605Y625742D01*
X255534Y625630D01*
X255459Y625520D01*
X255381Y625412D01*
X255300Y625306D01*
X255216Y625203D01*
X255129Y625103D01*
X255040Y625005D01*
X254947Y624909D01*
X254851Y624816D01*
X254753Y624727D01*
X254653Y624640D01*
X254550Y624556D01*
X254444Y624475D01*
X254336Y624397D01*
X254226Y624322D01*
X254114Y624251D01*
X254000Y624183D01*
X253884Y624118D01*
X253766Y624056D01*
X253646Y623998D01*
X253525Y623944D01*
X253402Y623893D01*
X253278Y623846D01*
X253152Y623802D01*
X253025Y623762D01*
X252897Y623726D01*
X252768Y623693D01*
X252639Y623664D01*
X252508Y623639D01*
X252377Y623618D01*
X252245Y623601D01*
X252112Y623587D01*
X251980Y623578D01*
X251847Y623572D01*
X251714Y623570D01*
X236474Y623570D02*
X236341Y623572D01*
X236208Y623578D01*
X236076Y623587D01*
X235943Y623601D01*
X235811Y623618D01*
X235680Y623639D01*
X235549Y623664D01*
X235420Y623693D01*
X235291Y623726D01*
X235163Y623762D01*
X235036Y623802D01*
X234910Y623846D01*
X234786Y623893D01*
X234663Y623944D01*
X234542Y623998D01*
X234422Y624056D01*
X234304Y624118D01*
X234188Y624183D01*
X234074Y624251D01*
X233962Y624322D01*
X233852Y624397D01*
X233744Y624475D01*
X233638Y624556D01*
X233535Y624640D01*
X233435Y624727D01*
X233337Y624816D01*
X233241Y624909D01*
X233148Y625005D01*
X233059Y625103D01*
X232972Y625203D01*
X232888Y625306D01*
X232807Y625412D01*
X232729Y625520D01*
X232654Y625630D01*
X232583Y625742D01*
X232515Y625856D01*
X232450Y625972D01*
X232388Y626090D01*
X232330Y626210D01*
X232276Y626331D01*
X232225Y626454D01*
X232178Y626578D01*
X232134Y626704D01*
X232094Y626831D01*
X232058Y626959D01*
X232025Y627088D01*
X231996Y627217D01*
X231971Y627348D01*
X231950Y627479D01*
X231933Y627611D01*
X231919Y627744D01*
X231910Y627876D01*
X231904Y628009D01*
X231902Y628142D01*
X231902Y639318D02*
X231904Y639451D01*
X231910Y639584D01*
X231919Y639716D01*
X231933Y639849D01*
X231950Y639981D01*
X231971Y640112D01*
X231996Y640243D01*
X232025Y640372D01*
X232058Y640501D01*
X232094Y640629D01*
X232134Y640756D01*
X232178Y640882D01*
X232225Y641006D01*
X232276Y641129D01*
X232330Y641250D01*
X232388Y641370D01*
X232450Y641488D01*
X232515Y641604D01*
X232583Y641718D01*
X232654Y641830D01*
X232729Y641940D01*
X232807Y642048D01*
X232888Y642154D01*
X232972Y642257D01*
X233059Y642357D01*
X233148Y642455D01*
X233241Y642551D01*
X233337Y642644D01*
X233435Y642733D01*
X233535Y642820D01*
X233638Y642904D01*
X233744Y642985D01*
X233852Y643063D01*
X233962Y643138D01*
X234074Y643209D01*
X234188Y643277D01*
X234304Y643342D01*
X234422Y643404D01*
X234542Y643462D01*
X234663Y643516D01*
X234786Y643567D01*
X234910Y643614D01*
X235036Y643658D01*
X235163Y643698D01*
X235291Y643734D01*
X235420Y643767D01*
X235549Y643796D01*
X235680Y643821D01*
X235811Y643842D01*
X235943Y643859D01*
X236076Y643873D01*
X236208Y643882D01*
X236341Y643888D01*
X236474Y643890D01*
X251714Y643890D02*
X251847Y643888D01*
X251980Y643882D01*
X252112Y643873D01*
X252245Y643859D01*
X252377Y643842D01*
X252508Y643821D01*
X252639Y643796D01*
X252768Y643767D01*
X252897Y643734D01*
X253025Y643698D01*
X253152Y643658D01*
X253278Y643614D01*
X253402Y643567D01*
X253525Y643516D01*
X253646Y643462D01*
X253766Y643404D01*
X253884Y643342D01*
X254000Y643277D01*
X254114Y643209D01*
X254226Y643138D01*
X254336Y643063D01*
X254444Y642985D01*
X254550Y642904D01*
X254653Y642820D01*
X254753Y642733D01*
X254851Y642644D01*
X254947Y642551D01*
X255040Y642455D01*
X255129Y642357D01*
X255216Y642257D01*
X255300Y642154D01*
X255381Y642048D01*
X255459Y641940D01*
X255534Y641830D01*
X255605Y641718D01*
X255673Y641604D01*
X255738Y641488D01*
X255800Y641370D01*
X255858Y641250D01*
X255912Y641129D01*
X255963Y641006D01*
X256010Y640882D01*
X256054Y640756D01*
X256094Y640629D01*
X256130Y640501D01*
X256163Y640372D01*
X256192Y640243D01*
X256217Y640112D01*
X256238Y639981D01*
X256255Y639849D01*
X256269Y639716D01*
X256278Y639584D01*
X256284Y639451D01*
X256286Y639318D01*
X256286Y628142D01*
X231902Y628142D02*
X231902Y639318D01*
X236474Y623570D02*
X251714Y623570D01*
X622554Y643890D02*
X637794Y643890D01*
X642366Y628142D02*
X642364Y628009D01*
X642358Y627876D01*
X642349Y627744D01*
X642335Y627611D01*
X642318Y627479D01*
X642297Y627348D01*
X642272Y627217D01*
X642243Y627088D01*
X642210Y626959D01*
X642174Y626831D01*
X642134Y626704D01*
X642090Y626578D01*
X642043Y626454D01*
X641992Y626331D01*
X641938Y626210D01*
X641880Y626090D01*
X641818Y625972D01*
X641753Y625856D01*
X641685Y625742D01*
X641614Y625630D01*
X641539Y625520D01*
X641461Y625412D01*
X641380Y625306D01*
X641296Y625203D01*
X641209Y625103D01*
X641120Y625005D01*
X641027Y624909D01*
X640931Y624816D01*
X640833Y624727D01*
X640733Y624640D01*
X640630Y624556D01*
X640524Y624475D01*
X640416Y624397D01*
X640306Y624322D01*
X640194Y624251D01*
X640080Y624183D01*
X639964Y624118D01*
X639846Y624056D01*
X639726Y623998D01*
X639605Y623944D01*
X639482Y623893D01*
X639358Y623846D01*
X639232Y623802D01*
X639105Y623762D01*
X638977Y623726D01*
X638848Y623693D01*
X638719Y623664D01*
X638588Y623639D01*
X638457Y623618D01*
X638325Y623601D01*
X638192Y623587D01*
X638060Y623578D01*
X637927Y623572D01*
X637794Y623570D01*
X622554Y623570D02*
X622421Y623572D01*
X622288Y623578D01*
X622156Y623587D01*
X622023Y623601D01*
X621891Y623618D01*
X621760Y623639D01*
X621629Y623664D01*
X621500Y623693D01*
X621371Y623726D01*
X621243Y623762D01*
X621116Y623802D01*
X620990Y623846D01*
X620866Y623893D01*
X620743Y623944D01*
X620622Y623998D01*
X620502Y624056D01*
X620384Y624118D01*
X620268Y624183D01*
X620154Y624251D01*
X620042Y624322D01*
X619932Y624397D01*
X619824Y624475D01*
X619718Y624556D01*
X619615Y624640D01*
X619515Y624727D01*
X619417Y624816D01*
X619321Y624909D01*
X619228Y625005D01*
X619139Y625103D01*
X619052Y625203D01*
X618968Y625306D01*
X618887Y625412D01*
X618809Y625520D01*
X618734Y625630D01*
X618663Y625742D01*
X618595Y625856D01*
X618530Y625972D01*
X618468Y626090D01*
X618410Y626210D01*
X618356Y626331D01*
X618305Y626454D01*
X618258Y626578D01*
X618214Y626704D01*
X618174Y626831D01*
X618138Y626959D01*
X618105Y627088D01*
X618076Y627217D01*
X618051Y627348D01*
X618030Y627479D01*
X618013Y627611D01*
X617999Y627744D01*
X617990Y627876D01*
X617984Y628009D01*
X617982Y628142D01*
X617982Y639318D02*
X617984Y639451D01*
X617990Y639584D01*
X617999Y639716D01*
X618013Y639849D01*
X618030Y639981D01*
X618051Y640112D01*
X618076Y640243D01*
X618105Y640372D01*
X618138Y640501D01*
X618174Y640629D01*
X618214Y640756D01*
X618258Y640882D01*
X618305Y641006D01*
X618356Y641129D01*
X618410Y641250D01*
X618468Y641370D01*
X618530Y641488D01*
X618595Y641604D01*
X618663Y641718D01*
X618734Y641830D01*
X618809Y641940D01*
X618887Y642048D01*
X618968Y642154D01*
X619052Y642257D01*
X619139Y642357D01*
X619228Y642455D01*
X619321Y642551D01*
X619417Y642644D01*
X619515Y642733D01*
X619615Y642820D01*
X619718Y642904D01*
X619824Y642985D01*
X619932Y643063D01*
X620042Y643138D01*
X620154Y643209D01*
X620268Y643277D01*
X620384Y643342D01*
X620502Y643404D01*
X620622Y643462D01*
X620743Y643516D01*
X620866Y643567D01*
X620990Y643614D01*
X621116Y643658D01*
X621243Y643698D01*
X621371Y643734D01*
X621500Y643767D01*
X621629Y643796D01*
X621760Y643821D01*
X621891Y643842D01*
X622023Y643859D01*
X622156Y643873D01*
X622288Y643882D01*
X622421Y643888D01*
X622554Y643890D01*
X637794Y643890D02*
X637927Y643888D01*
X638060Y643882D01*
X638192Y643873D01*
X638325Y643859D01*
X638457Y643842D01*
X638588Y643821D01*
X638719Y643796D01*
X638848Y643767D01*
X638977Y643734D01*
X639105Y643698D01*
X639232Y643658D01*
X639358Y643614D01*
X639482Y643567D01*
X639605Y643516D01*
X639726Y643462D01*
X639846Y643404D01*
X639964Y643342D01*
X640080Y643277D01*
X640194Y643209D01*
X640306Y643138D01*
X640416Y643063D01*
X640524Y642985D01*
X640630Y642904D01*
X640733Y642820D01*
X640833Y642733D01*
X640931Y642644D01*
X641027Y642551D01*
X641120Y642455D01*
X641209Y642357D01*
X641296Y642257D01*
X641380Y642154D01*
X641461Y642048D01*
X641539Y641940D01*
X641614Y641830D01*
X641685Y641718D01*
X641753Y641604D01*
X641818Y641488D01*
X641880Y641370D01*
X641938Y641250D01*
X641992Y641129D01*
X642043Y641006D01*
X642090Y640882D01*
X642134Y640756D01*
X642174Y640629D01*
X642210Y640501D01*
X642243Y640372D01*
X642272Y640243D01*
X642297Y640112D01*
X642318Y639981D01*
X642335Y639849D01*
X642349Y639716D01*
X642358Y639584D01*
X642364Y639451D01*
X642366Y639318D01*
X642366Y628142D01*
X617982Y628142D02*
X617982Y639318D01*
X622554Y623570D02*
X637794Y623570D01*
X1008634Y643890D02*
X1023874Y643890D01*
X1028446Y628142D02*
X1028444Y628009D01*
X1028438Y627876D01*
X1028429Y627744D01*
X1028415Y627611D01*
X1028398Y627479D01*
X1028377Y627348D01*
X1028352Y627217D01*
X1028323Y627088D01*
X1028290Y626959D01*
X1028254Y626831D01*
X1028214Y626704D01*
X1028170Y626578D01*
X1028123Y626454D01*
X1028072Y626331D01*
X1028018Y626210D01*
X1027960Y626090D01*
X1027898Y625972D01*
X1027833Y625856D01*
X1027765Y625742D01*
X1027694Y625630D01*
X1027619Y625520D01*
X1027541Y625412D01*
X1027460Y625306D01*
X1027376Y625203D01*
X1027289Y625103D01*
X1027200Y625005D01*
X1027107Y624909D01*
X1027011Y624816D01*
X1026913Y624727D01*
X1026813Y624640D01*
X1026710Y624556D01*
X1026604Y624475D01*
X1026496Y624397D01*
X1026386Y624322D01*
X1026274Y624251D01*
X1026160Y624183D01*
X1026044Y624118D01*
X1025926Y624056D01*
X1025806Y623998D01*
X1025685Y623944D01*
X1025562Y623893D01*
X1025438Y623846D01*
X1025312Y623802D01*
X1025185Y623762D01*
X1025057Y623726D01*
X1024928Y623693D01*
X1024799Y623664D01*
X1024668Y623639D01*
X1024537Y623618D01*
X1024405Y623601D01*
X1024272Y623587D01*
X1024140Y623578D01*
X1024007Y623572D01*
X1023874Y623570D01*
X1008634Y623570D02*
X1008501Y623572D01*
X1008368Y623578D01*
X1008236Y623587D01*
X1008103Y623601D01*
X1007971Y623618D01*
X1007840Y623639D01*
X1007709Y623664D01*
X1007580Y623693D01*
X1007451Y623726D01*
X1007323Y623762D01*
X1007196Y623802D01*
X1007070Y623846D01*
X1006946Y623893D01*
X1006823Y623944D01*
X1006702Y623998D01*
X1006582Y624056D01*
X1006464Y624118D01*
X1006348Y624183D01*
X1006234Y624251D01*
X1006122Y624322D01*
X1006012Y624397D01*
X1005904Y624475D01*
X1005798Y624556D01*
X1005695Y624640D01*
X1005595Y624727D01*
X1005497Y624816D01*
X1005401Y624909D01*
X1005308Y625005D01*
X1005219Y625103D01*
X1005132Y625203D01*
X1005048Y625306D01*
X1004967Y625412D01*
X1004889Y625520D01*
X1004814Y625630D01*
X1004743Y625742D01*
X1004675Y625856D01*
X1004610Y625972D01*
X1004548Y626090D01*
X1004490Y626210D01*
X1004436Y626331D01*
X1004385Y626454D01*
X1004338Y626578D01*
X1004294Y626704D01*
X1004254Y626831D01*
X1004218Y626959D01*
X1004185Y627088D01*
X1004156Y627217D01*
X1004131Y627348D01*
X1004110Y627479D01*
X1004093Y627611D01*
X1004079Y627744D01*
X1004070Y627876D01*
X1004064Y628009D01*
X1004062Y628142D01*
X1004062Y639318D02*
X1004064Y639451D01*
X1004070Y639584D01*
X1004079Y639716D01*
X1004093Y639849D01*
X1004110Y639981D01*
X1004131Y640112D01*
X1004156Y640243D01*
X1004185Y640372D01*
X1004218Y640501D01*
X1004254Y640629D01*
X1004294Y640756D01*
X1004338Y640882D01*
X1004385Y641006D01*
X1004436Y641129D01*
X1004490Y641250D01*
X1004548Y641370D01*
X1004610Y641488D01*
X1004675Y641604D01*
X1004743Y641718D01*
X1004814Y641830D01*
X1004889Y641940D01*
X1004967Y642048D01*
X1005048Y642154D01*
X1005132Y642257D01*
X1005219Y642357D01*
X1005308Y642455D01*
X1005401Y642551D01*
X1005497Y642644D01*
X1005595Y642733D01*
X1005695Y642820D01*
X1005798Y642904D01*
X1005904Y642985D01*
X1006012Y643063D01*
X1006122Y643138D01*
X1006234Y643209D01*
X1006348Y643277D01*
X1006464Y643342D01*
X1006582Y643404D01*
X1006702Y643462D01*
X1006823Y643516D01*
X1006946Y643567D01*
X1007070Y643614D01*
X1007196Y643658D01*
X1007323Y643698D01*
X1007451Y643734D01*
X1007580Y643767D01*
X1007709Y643796D01*
X1007840Y643821D01*
X1007971Y643842D01*
X1008103Y643859D01*
X1008236Y643873D01*
X1008368Y643882D01*
X1008501Y643888D01*
X1008634Y643890D01*
X1023874Y643890D02*
X1024007Y643888D01*
X1024140Y643882D01*
X1024272Y643873D01*
X1024405Y643859D01*
X1024537Y643842D01*
X1024668Y643821D01*
X1024799Y643796D01*
X1024928Y643767D01*
X1025057Y643734D01*
X1025185Y643698D01*
X1025312Y643658D01*
X1025438Y643614D01*
X1025562Y643567D01*
X1025685Y643516D01*
X1025806Y643462D01*
X1025926Y643404D01*
X1026044Y643342D01*
X1026160Y643277D01*
X1026274Y643209D01*
X1026386Y643138D01*
X1026496Y643063D01*
X1026604Y642985D01*
X1026710Y642904D01*
X1026813Y642820D01*
X1026913Y642733D01*
X1027011Y642644D01*
X1027107Y642551D01*
X1027200Y642455D01*
X1027289Y642357D01*
X1027376Y642257D01*
X1027460Y642154D01*
X1027541Y642048D01*
X1027619Y641940D01*
X1027694Y641830D01*
X1027765Y641718D01*
X1027833Y641604D01*
X1027898Y641488D01*
X1027960Y641370D01*
X1028018Y641250D01*
X1028072Y641129D01*
X1028123Y641006D01*
X1028170Y640882D01*
X1028214Y640756D01*
X1028254Y640629D01*
X1028290Y640501D01*
X1028323Y640372D01*
X1028352Y640243D01*
X1028377Y640112D01*
X1028398Y639981D01*
X1028415Y639849D01*
X1028429Y639716D01*
X1028438Y639584D01*
X1028444Y639451D01*
X1028446Y639318D01*
X1028446Y628142D01*
X1004062Y628142D02*
X1004062Y639318D01*
X1008634Y623570D02*
X1023874Y623570D01*
X144526Y719328D02*
X129286Y719328D01*
X124714Y735076D02*
X124716Y735209D01*
X124722Y735342D01*
X124731Y735474D01*
X124745Y735607D01*
X124762Y735739D01*
X124783Y735870D01*
X124808Y736001D01*
X124837Y736130D01*
X124870Y736259D01*
X124906Y736387D01*
X124946Y736514D01*
X124990Y736640D01*
X125037Y736764D01*
X125088Y736887D01*
X125142Y737008D01*
X125200Y737128D01*
X125262Y737246D01*
X125327Y737362D01*
X125395Y737476D01*
X125466Y737588D01*
X125541Y737698D01*
X125619Y737806D01*
X125700Y737912D01*
X125784Y738015D01*
X125871Y738115D01*
X125960Y738213D01*
X126053Y738309D01*
X126149Y738402D01*
X126247Y738491D01*
X126347Y738578D01*
X126450Y738662D01*
X126556Y738743D01*
X126664Y738821D01*
X126774Y738896D01*
X126886Y738967D01*
X127000Y739035D01*
X127116Y739100D01*
X127234Y739162D01*
X127354Y739220D01*
X127475Y739274D01*
X127598Y739325D01*
X127722Y739372D01*
X127848Y739416D01*
X127975Y739456D01*
X128103Y739492D01*
X128232Y739525D01*
X128361Y739554D01*
X128492Y739579D01*
X128623Y739600D01*
X128755Y739617D01*
X128888Y739631D01*
X129020Y739640D01*
X129153Y739646D01*
X129286Y739648D01*
X144526Y739648D02*
X144659Y739646D01*
X144792Y739640D01*
X144924Y739631D01*
X145057Y739617D01*
X145189Y739600D01*
X145320Y739579D01*
X145451Y739554D01*
X145580Y739525D01*
X145709Y739492D01*
X145837Y739456D01*
X145964Y739416D01*
X146090Y739372D01*
X146214Y739325D01*
X146337Y739274D01*
X146458Y739220D01*
X146578Y739162D01*
X146696Y739100D01*
X146812Y739035D01*
X146926Y738967D01*
X147038Y738896D01*
X147148Y738821D01*
X147256Y738743D01*
X147362Y738662D01*
X147465Y738578D01*
X147565Y738491D01*
X147663Y738402D01*
X147759Y738309D01*
X147852Y738213D01*
X147941Y738115D01*
X148028Y738015D01*
X148112Y737912D01*
X148193Y737806D01*
X148271Y737698D01*
X148346Y737588D01*
X148417Y737476D01*
X148485Y737362D01*
X148550Y737246D01*
X148612Y737128D01*
X148670Y737008D01*
X148724Y736887D01*
X148775Y736764D01*
X148822Y736640D01*
X148866Y736514D01*
X148906Y736387D01*
X148942Y736259D01*
X148975Y736130D01*
X149004Y736001D01*
X149029Y735870D01*
X149050Y735739D01*
X149067Y735607D01*
X149081Y735474D01*
X149090Y735342D01*
X149096Y735209D01*
X149098Y735076D01*
X149098Y723900D02*
X149096Y723767D01*
X149090Y723634D01*
X149081Y723502D01*
X149067Y723369D01*
X149050Y723237D01*
X149029Y723106D01*
X149004Y722975D01*
X148975Y722846D01*
X148942Y722717D01*
X148906Y722589D01*
X148866Y722462D01*
X148822Y722336D01*
X148775Y722212D01*
X148724Y722089D01*
X148670Y721968D01*
X148612Y721848D01*
X148550Y721730D01*
X148485Y721614D01*
X148417Y721500D01*
X148346Y721388D01*
X148271Y721278D01*
X148193Y721170D01*
X148112Y721064D01*
X148028Y720961D01*
X147941Y720861D01*
X147852Y720763D01*
X147759Y720667D01*
X147663Y720574D01*
X147565Y720485D01*
X147465Y720398D01*
X147362Y720314D01*
X147256Y720233D01*
X147148Y720155D01*
X147038Y720080D01*
X146926Y720009D01*
X146812Y719941D01*
X146696Y719876D01*
X146578Y719814D01*
X146458Y719756D01*
X146337Y719702D01*
X146214Y719651D01*
X146090Y719604D01*
X145964Y719560D01*
X145837Y719520D01*
X145709Y719484D01*
X145580Y719451D01*
X145451Y719422D01*
X145320Y719397D01*
X145189Y719376D01*
X145057Y719359D01*
X144924Y719345D01*
X144792Y719336D01*
X144659Y719330D01*
X144526Y719328D01*
X129286Y719328D02*
X129153Y719330D01*
X129020Y719336D01*
X128888Y719345D01*
X128755Y719359D01*
X128623Y719376D01*
X128492Y719397D01*
X128361Y719422D01*
X128232Y719451D01*
X128103Y719484D01*
X127975Y719520D01*
X127848Y719560D01*
X127722Y719604D01*
X127598Y719651D01*
X127475Y719702D01*
X127354Y719756D01*
X127234Y719814D01*
X127116Y719876D01*
X127000Y719941D01*
X126886Y720009D01*
X126774Y720080D01*
X126664Y720155D01*
X126556Y720233D01*
X126450Y720314D01*
X126347Y720398D01*
X126247Y720485D01*
X126149Y720574D01*
X126053Y720667D01*
X125960Y720763D01*
X125871Y720861D01*
X125784Y720961D01*
X125700Y721064D01*
X125619Y721170D01*
X125541Y721278D01*
X125466Y721388D01*
X125395Y721500D01*
X125327Y721614D01*
X125262Y721730D01*
X125200Y721848D01*
X125142Y721968D01*
X125088Y722089D01*
X125037Y722212D01*
X124990Y722336D01*
X124946Y722462D01*
X124906Y722589D01*
X124870Y722717D01*
X124837Y722846D01*
X124808Y722975D01*
X124783Y723106D01*
X124762Y723237D01*
X124745Y723369D01*
X124731Y723502D01*
X124722Y723634D01*
X124716Y723767D01*
X124714Y723900D01*
X124714Y735076D01*
X149098Y735076D02*
X149098Y723900D01*
X144526Y739648D02*
X129286Y739648D01*
X515366Y719328D02*
X530606Y719328D01*
X510794Y735076D02*
X510796Y735209D01*
X510802Y735342D01*
X510811Y735474D01*
X510825Y735607D01*
X510842Y735739D01*
X510863Y735870D01*
X510888Y736001D01*
X510917Y736130D01*
X510950Y736259D01*
X510986Y736387D01*
X511026Y736514D01*
X511070Y736640D01*
X511117Y736764D01*
X511168Y736887D01*
X511222Y737008D01*
X511280Y737128D01*
X511342Y737246D01*
X511407Y737362D01*
X511475Y737476D01*
X511546Y737588D01*
X511621Y737698D01*
X511699Y737806D01*
X511780Y737912D01*
X511864Y738015D01*
X511951Y738115D01*
X512040Y738213D01*
X512133Y738309D01*
X512229Y738402D01*
X512327Y738491D01*
X512427Y738578D01*
X512530Y738662D01*
X512636Y738743D01*
X512744Y738821D01*
X512854Y738896D01*
X512966Y738967D01*
X513080Y739035D01*
X513196Y739100D01*
X513314Y739162D01*
X513434Y739220D01*
X513555Y739274D01*
X513678Y739325D01*
X513802Y739372D01*
X513928Y739416D01*
X514055Y739456D01*
X514183Y739492D01*
X514312Y739525D01*
X514441Y739554D01*
X514572Y739579D01*
X514703Y739600D01*
X514835Y739617D01*
X514968Y739631D01*
X515100Y739640D01*
X515233Y739646D01*
X515366Y739648D01*
X530606Y739648D02*
X530739Y739646D01*
X530872Y739640D01*
X531004Y739631D01*
X531137Y739617D01*
X531269Y739600D01*
X531400Y739579D01*
X531531Y739554D01*
X531660Y739525D01*
X531789Y739492D01*
X531917Y739456D01*
X532044Y739416D01*
X532170Y739372D01*
X532294Y739325D01*
X532417Y739274D01*
X532538Y739220D01*
X532658Y739162D01*
X532776Y739100D01*
X532892Y739035D01*
X533006Y738967D01*
X533118Y738896D01*
X533228Y738821D01*
X533336Y738743D01*
X533442Y738662D01*
X533545Y738578D01*
X533645Y738491D01*
X533743Y738402D01*
X533839Y738309D01*
X533932Y738213D01*
X534021Y738115D01*
X534108Y738015D01*
X534192Y737912D01*
X534273Y737806D01*
X534351Y737698D01*
X534426Y737588D01*
X534497Y737476D01*
X534565Y737362D01*
X534630Y737246D01*
X534692Y737128D01*
X534750Y737008D01*
X534804Y736887D01*
X534855Y736764D01*
X534902Y736640D01*
X534946Y736514D01*
X534986Y736387D01*
X535022Y736259D01*
X535055Y736130D01*
X535084Y736001D01*
X535109Y735870D01*
X535130Y735739D01*
X535147Y735607D01*
X535161Y735474D01*
X535170Y735342D01*
X535176Y735209D01*
X535178Y735076D01*
X535178Y723900D02*
X535176Y723767D01*
X535170Y723634D01*
X535161Y723502D01*
X535147Y723369D01*
X535130Y723237D01*
X535109Y723106D01*
X535084Y722975D01*
X535055Y722846D01*
X535022Y722717D01*
X534986Y722589D01*
X534946Y722462D01*
X534902Y722336D01*
X534855Y722212D01*
X534804Y722089D01*
X534750Y721968D01*
X534692Y721848D01*
X534630Y721730D01*
X534565Y721614D01*
X534497Y721500D01*
X534426Y721388D01*
X534351Y721278D01*
X534273Y721170D01*
X534192Y721064D01*
X534108Y720961D01*
X534021Y720861D01*
X533932Y720763D01*
X533839Y720667D01*
X533743Y720574D01*
X533645Y720485D01*
X533545Y720398D01*
X533442Y720314D01*
X533336Y720233D01*
X533228Y720155D01*
X533118Y720080D01*
X533006Y720009D01*
X532892Y719941D01*
X532776Y719876D01*
X532658Y719814D01*
X532538Y719756D01*
X532417Y719702D01*
X532294Y719651D01*
X532170Y719604D01*
X532044Y719560D01*
X531917Y719520D01*
X531789Y719484D01*
X531660Y719451D01*
X531531Y719422D01*
X531400Y719397D01*
X531269Y719376D01*
X531137Y719359D01*
X531004Y719345D01*
X530872Y719336D01*
X530739Y719330D01*
X530606Y719328D01*
X515366Y719328D02*
X515233Y719330D01*
X515100Y719336D01*
X514968Y719345D01*
X514835Y719359D01*
X514703Y719376D01*
X514572Y719397D01*
X514441Y719422D01*
X514312Y719451D01*
X514183Y719484D01*
X514055Y719520D01*
X513928Y719560D01*
X513802Y719604D01*
X513678Y719651D01*
X513555Y719702D01*
X513434Y719756D01*
X513314Y719814D01*
X513196Y719876D01*
X513080Y719941D01*
X512966Y720009D01*
X512854Y720080D01*
X512744Y720155D01*
X512636Y720233D01*
X512530Y720314D01*
X512427Y720398D01*
X512327Y720485D01*
X512229Y720574D01*
X512133Y720667D01*
X512040Y720763D01*
X511951Y720861D01*
X511864Y720961D01*
X511780Y721064D01*
X511699Y721170D01*
X511621Y721278D01*
X511546Y721388D01*
X511475Y721500D01*
X511407Y721614D01*
X511342Y721730D01*
X511280Y721848D01*
X511222Y721968D01*
X511168Y722089D01*
X511117Y722212D01*
X511070Y722336D01*
X511026Y722462D01*
X510986Y722589D01*
X510950Y722717D01*
X510917Y722846D01*
X510888Y722975D01*
X510863Y723106D01*
X510842Y723237D01*
X510825Y723369D01*
X510811Y723502D01*
X510802Y723634D01*
X510796Y723767D01*
X510794Y723900D01*
X510794Y735076D01*
X535178Y735076D02*
X535178Y723900D01*
X530606Y739648D02*
X515366Y739648D01*
X901446Y719328D02*
X916686Y719328D01*
X896874Y735076D02*
X896876Y735209D01*
X896882Y735342D01*
X896891Y735474D01*
X896905Y735607D01*
X896922Y735739D01*
X896943Y735870D01*
X896968Y736001D01*
X896997Y736130D01*
X897030Y736259D01*
X897066Y736387D01*
X897106Y736514D01*
X897150Y736640D01*
X897197Y736764D01*
X897248Y736887D01*
X897302Y737008D01*
X897360Y737128D01*
X897422Y737246D01*
X897487Y737362D01*
X897555Y737476D01*
X897626Y737588D01*
X897701Y737698D01*
X897779Y737806D01*
X897860Y737912D01*
X897944Y738015D01*
X898031Y738115D01*
X898120Y738213D01*
X898213Y738309D01*
X898309Y738402D01*
X898407Y738491D01*
X898507Y738578D01*
X898610Y738662D01*
X898716Y738743D01*
X898824Y738821D01*
X898934Y738896D01*
X899046Y738967D01*
X899160Y739035D01*
X899276Y739100D01*
X899394Y739162D01*
X899514Y739220D01*
X899635Y739274D01*
X899758Y739325D01*
X899882Y739372D01*
X900008Y739416D01*
X900135Y739456D01*
X900263Y739492D01*
X900392Y739525D01*
X900521Y739554D01*
X900652Y739579D01*
X900783Y739600D01*
X900915Y739617D01*
X901048Y739631D01*
X901180Y739640D01*
X901313Y739646D01*
X901446Y739648D01*
X916686Y739648D02*
X916819Y739646D01*
X916952Y739640D01*
X917084Y739631D01*
X917217Y739617D01*
X917349Y739600D01*
X917480Y739579D01*
X917611Y739554D01*
X917740Y739525D01*
X917869Y739492D01*
X917997Y739456D01*
X918124Y739416D01*
X918250Y739372D01*
X918374Y739325D01*
X918497Y739274D01*
X918618Y739220D01*
X918738Y739162D01*
X918856Y739100D01*
X918972Y739035D01*
X919086Y738967D01*
X919198Y738896D01*
X919308Y738821D01*
X919416Y738743D01*
X919522Y738662D01*
X919625Y738578D01*
X919725Y738491D01*
X919823Y738402D01*
X919919Y738309D01*
X920012Y738213D01*
X920101Y738115D01*
X920188Y738015D01*
X920272Y737912D01*
X920353Y737806D01*
X920431Y737698D01*
X920506Y737588D01*
X920577Y737476D01*
X920645Y737362D01*
X920710Y737246D01*
X920772Y737128D01*
X920830Y737008D01*
X920884Y736887D01*
X920935Y736764D01*
X920982Y736640D01*
X921026Y736514D01*
X921066Y736387D01*
X921102Y736259D01*
X921135Y736130D01*
X921164Y736001D01*
X921189Y735870D01*
X921210Y735739D01*
X921227Y735607D01*
X921241Y735474D01*
X921250Y735342D01*
X921256Y735209D01*
X921258Y735076D01*
X921258Y723900D02*
X921256Y723767D01*
X921250Y723634D01*
X921241Y723502D01*
X921227Y723369D01*
X921210Y723237D01*
X921189Y723106D01*
X921164Y722975D01*
X921135Y722846D01*
X921102Y722717D01*
X921066Y722589D01*
X921026Y722462D01*
X920982Y722336D01*
X920935Y722212D01*
X920884Y722089D01*
X920830Y721968D01*
X920772Y721848D01*
X920710Y721730D01*
X920645Y721614D01*
X920577Y721500D01*
X920506Y721388D01*
X920431Y721278D01*
X920353Y721170D01*
X920272Y721064D01*
X920188Y720961D01*
X920101Y720861D01*
X920012Y720763D01*
X919919Y720667D01*
X919823Y720574D01*
X919725Y720485D01*
X919625Y720398D01*
X919522Y720314D01*
X919416Y720233D01*
X919308Y720155D01*
X919198Y720080D01*
X919086Y720009D01*
X918972Y719941D01*
X918856Y719876D01*
X918738Y719814D01*
X918618Y719756D01*
X918497Y719702D01*
X918374Y719651D01*
X918250Y719604D01*
X918124Y719560D01*
X917997Y719520D01*
X917869Y719484D01*
X917740Y719451D01*
X917611Y719422D01*
X917480Y719397D01*
X917349Y719376D01*
X917217Y719359D01*
X917084Y719345D01*
X916952Y719336D01*
X916819Y719330D01*
X916686Y719328D01*
X901446Y719328D02*
X901313Y719330D01*
X901180Y719336D01*
X901048Y719345D01*
X900915Y719359D01*
X900783Y719376D01*
X900652Y719397D01*
X900521Y719422D01*
X900392Y719451D01*
X900263Y719484D01*
X900135Y719520D01*
X900008Y719560D01*
X899882Y719604D01*
X899758Y719651D01*
X899635Y719702D01*
X899514Y719756D01*
X899394Y719814D01*
X899276Y719876D01*
X899160Y719941D01*
X899046Y720009D01*
X898934Y720080D01*
X898824Y720155D01*
X898716Y720233D01*
X898610Y720314D01*
X898507Y720398D01*
X898407Y720485D01*
X898309Y720574D01*
X898213Y720667D01*
X898120Y720763D01*
X898031Y720861D01*
X897944Y720961D01*
X897860Y721064D01*
X897779Y721170D01*
X897701Y721278D01*
X897626Y721388D01*
X897555Y721500D01*
X897487Y721614D01*
X897422Y721730D01*
X897360Y721848D01*
X897302Y721968D01*
X897248Y722089D01*
X897197Y722212D01*
X897150Y722336D01*
X897106Y722462D01*
X897066Y722589D01*
X897030Y722717D01*
X896997Y722846D01*
X896968Y722975D01*
X896943Y723106D01*
X896922Y723237D01*
X896905Y723369D01*
X896891Y723502D01*
X896882Y723634D01*
X896876Y723767D01*
X896874Y723900D01*
X896874Y735076D01*
X921258Y735076D02*
X921258Y723900D01*
X916686Y739648D02*
X901446Y739648D01*
M02*
