M48
;GenerationSoftware,Autodesk,EAGLE,9.6.2*%
;CreationDate,2021-08-02T18:52:43Z*%
FMAT,2
ICI,OFF
METRIC,TZ,000.000
T4C0.305
T3C0.381
T2C0.400
T1C0.650
%
G90
M71
T1
X59992Y2444
X59992Y8224
T2
X59462Y1016
X63642Y1016
X63642Y9652
X59462Y9652
T3
X63246Y11684
X40513Y10363
T4
X39624Y14224
X50724Y6147
X15621Y26162
X7747Y27559
X19748Y10919
X3670Y10030
X4623Y15977
X47396Y27330
X48336Y28118
X50216Y28169
X49301Y27330
X51130Y27330
X51130Y25502
X49276Y25502
X47447Y25502
X48362Y24562
X50241Y24562
X4687Y20954
X57035Y9598
X56604Y3985
X50711Y2969
X43142Y9852
X37757Y14450
X38036Y11935
X33680Y21692
X37033Y30404
X56769Y31725
X56490Y18034
X47663Y7516
X4597Y27838
X55880Y5092
X55880Y4064
X51562Y2794
X51867Y6960
X36830Y11938
X4572Y17526
X36830Y14224
X4699Y19939
X54102Y37338
X54013Y31915
X46088Y1016
X41888Y1016
X43988Y2316
X4826Y18669
X46088Y37016
X43988Y35716
X42926Y6198
X40513Y6198
X44679Y8865
X42901Y9169
X41888Y37016
M30