M48
;GenerationSoftware,Autodesk,EAGLE,9.6.2*%
;CreationDate,2021-09-10T21:25:44Z*%
FMAT,2
ICI,OFF
METRIC,TZ,000.000
T4C0.305
T3C0.381
T2C0.400
T1C0.650
%
G90
M71
T1
X112872Y59992
X85440Y76330
X107092Y59992
X2444Y76330
X8224Y76330
X41052Y76330
X46832Y76330
X79660Y76330
X35656Y59992
X29876Y59992
X74264Y59992
X68484Y59992
T2
X39624Y72680
X78232Y76860
X48260Y72680
X48260Y76860
X39624Y76860
X75692Y59462
X78232Y72680
X86868Y72680
X86868Y76860
X37084Y63642
X28448Y63642
X28448Y59462
X37084Y59462
X75692Y63642
X67056Y63642
X67056Y59462
X114300Y63642
X105664Y63642
X105664Y59462
X114300Y59462
X1016Y72680
X9652Y72680
X9652Y76860
X1016Y76860
T3
X103632Y63246
X26416Y63246
X11684Y73076
X50292Y73076
X88900Y73076
X65024Y63246
X27737Y39624
X48971Y96698
X87579Y96698
X104953Y39624
X10363Y96698
X66345Y39624
T4
X62484Y36830
X39370Y54102
X44793Y54013
X71399Y41529
X70510Y39624
X67843Y44679
X66548Y42545
X62484Y39624
X70561Y50724
X50673Y15113
X65789Y19748
X66678Y3670
X60731Y4623
X49378Y47396
X48590Y48336
X48539Y50216
X49378Y49301
X49378Y51130
X51206Y51130
X51206Y49276
X51206Y47447
X52146Y48362
X52146Y50241
X55754Y4687
X66983Y57162
X73739Y53302
X64951Y42634
X62258Y37757
X64773Y38036
X55016Y33680
X46304Y37033
X44983Y56769
X58674Y56490
X69192Y47663
X72415Y40538
X58040Y12688
X48743Y4470
X71616Y55880
X72644Y55880
X69748Y51867
X73750Y51181
X19431Y4826
X59182Y4572
X58039Y4826
X56769Y4699
X103378Y36830
X101092Y36830
X77978Y54102
X83401Y54013
X110007Y41529
X109118Y39624
X106451Y44679
X105156Y42545
X101092Y39624
X109169Y50724
X89281Y15113
X104397Y19748
X105286Y3670
X99339Y4623
X87986Y47396
X87198Y48336
X87147Y50216
X87986Y49301
X87986Y51130
X89814Y51130
X89814Y49276
X89814Y47447
X90754Y48362
X90754Y50241
X94362Y4687
X105591Y57162
X112347Y53302
X103559Y42634
X100866Y37757
X103381Y38036
X93624Y33680
X84912Y37033
X83591Y56769
X97282Y56490
X107800Y47663
X111023Y40538
X96648Y12688
X87351Y4470
X110224Y55880
X111252Y55880
X108356Y51867
X112358Y51181
X97790Y4572
X96647Y4826
X95377Y4699
X11938Y99492
X14224Y99492
X37338Y82220
X31915Y82309
X5309Y94793
X6198Y96698
X8865Y91643
X10160Y93777
X14224Y96698
X6147Y85598
X26035Y121209
X10919Y116574
X10030Y132652
X15977Y131699
X27330Y88925
X28118Y87986
X28169Y86106
X27330Y87020
X27330Y85192
X25502Y85192
X25502Y87046
X25502Y88875
X24562Y87960
X24562Y86081
X20954Y131635
X9725Y79159
X2969Y83020
X11757Y93688
X14450Y98565
X11935Y98286
X21692Y102641
X30404Y99289
X31725Y79553
X18034Y79832
X7516Y88659
X4293Y95783
X18668Y123634
X27965Y131851
X5092Y80442
X26162Y36830
X6960Y84455
X2958Y85141
X23876Y36830
X17526Y131750
X18669Y131496
X19939Y131623
X50546Y99492
X52832Y99492
X75946Y82220
X70523Y82309
X43917Y94793
X44806Y96698
X47473Y91643
X48768Y93777
X52832Y96698
X44755Y85598
X64643Y121209
X49527Y116574
X48638Y132652
X54585Y131699
X65938Y88925
X66726Y87986
X66777Y86106
X65938Y87020
X65938Y85192
X64110Y85192
X64110Y87046
X64110Y88875
X63170Y87960
X63170Y86081
X59562Y131635
X48333Y79159
X41577Y83020
X50365Y93688
X53058Y98565
X50543Y98286
X60300Y102641
X69012Y99289
X70333Y79553
X56642Y79832
X46124Y88659
X42901Y95783
X57276Y123634
X66573Y131851
X43700Y80442
X42672Y80442
X45568Y84455
X41566Y85141
X762Y54102
X56134Y131750
X57277Y131496
X58547Y131623
X89154Y99492
X91440Y99492
X114554Y82220
X109131Y82309
X82525Y94793
X83414Y96698
X86081Y91643
X87376Y93777
X91440Y96698
X83363Y85598
X103251Y121209
X88135Y116574
X87246Y132652
X93193Y131699
X104546Y88925
X105334Y87986
X105385Y86106
X104546Y87020
X104546Y85192
X102718Y85192
X102718Y87046
X102718Y88875
X101778Y87960
X101778Y86081
X98170Y131635
X86941Y79159
X80185Y83020
X88973Y93688
X91666Y98565
X89151Y98286
X98908Y102641
X107620Y99289
X108941Y79553
X95250Y79832
X84732Y88659
X6185Y54013
X95884Y123634
X105181Y131851
X82308Y80442
X81280Y80442
X84176Y84455
X80174Y85141
X32791Y41529
X94742Y131750
X95885Y131496
X97155Y131623
X31902Y39624
X29235Y44679
X27940Y42545
X23876Y39624
X31953Y50724
X12065Y15113
X27181Y19748
X28070Y3670
X22123Y4623
X10770Y47396
X9982Y48336
X9931Y50216
X37084Y46088
X37084Y41888
X35784Y43988
X1084Y41888
X1084Y46088
X2384Y43988
X10770Y49301
X10770Y51130
X12598Y51130
X12598Y49276
X12598Y47447
X75692Y46088
X75692Y41888
X74392Y43988
X39692Y41888
X39692Y46088
X40992Y43988
X13538Y48362
X13538Y50241
X17146Y4687
X28375Y57162
X4064Y80442
X114300Y46088
X114300Y41888
X113000Y43988
X78300Y41888
X78300Y46088
X79600Y43988
X35131Y53302
X26343Y42634
X23650Y37757
X26165Y38036
X16408Y33680
X1016Y90234
X1016Y94434
X2316Y92334
X37016Y94434
X37016Y90234
X35716Y92334
X7696Y37033
X6375Y56769
X20066Y56490
X30584Y47663
X33807Y40538
X39624Y90234
X39624Y94434
X40924Y92334
X75624Y94434
X75624Y90234
X74324Y92334
X19432Y12688
X10135Y4470
X33008Y55880
X34036Y55880
X31140Y51867
X78232Y90234
X78232Y94434
X79532Y92334
X114232Y94434
X114232Y90234
X112932Y92334
X35142Y51181
X20574Y4572
X18161Y4699
X64770Y36830
X81509Y95783
M30