G04 EAGLE Gerber RS-274X export*
G75*
%MOMM*%
%FSLAX34Y34*%
%LPD*%
%INSoldermask Bottom*%
%IPPOS*%
%AMOC8*
5,1,8,0,0,1.08239X$1,22.5*%
G01*
%ADD10C,1.127000*%
%ADD11C,0.228959*%
%ADD12C,0.736600*%
%ADD13C,0.762000*%
%ADD14C,0.777000*%
%ADD15C,0.228344*%
%ADD16C,1.270000*%
%ADD17C,1.627000*%

G36*
X911036Y727595D02*
X911036Y727595D01*
X911102Y727597D01*
X911145Y727615D01*
X911192Y727623D01*
X911249Y727657D01*
X911309Y727682D01*
X911344Y727713D01*
X911385Y727738D01*
X911427Y727789D01*
X911475Y727833D01*
X911497Y727875D01*
X911526Y727912D01*
X911547Y727974D01*
X911578Y728033D01*
X911586Y728087D01*
X911598Y728124D01*
X911597Y728164D01*
X911605Y728218D01*
X911605Y730758D01*
X911594Y730823D01*
X911592Y730889D01*
X911574Y730932D01*
X911566Y730979D01*
X911532Y731036D01*
X911507Y731096D01*
X911476Y731131D01*
X911451Y731172D01*
X911400Y731214D01*
X911356Y731262D01*
X911314Y731284D01*
X911277Y731313D01*
X911215Y731334D01*
X911156Y731365D01*
X911102Y731373D01*
X911065Y731385D01*
X911025Y731384D01*
X910971Y731392D01*
X907161Y731392D01*
X907096Y731381D01*
X907030Y731379D01*
X906987Y731361D01*
X906940Y731353D01*
X906883Y731319D01*
X906823Y731294D01*
X906788Y731263D01*
X906747Y731238D01*
X906706Y731187D01*
X906657Y731143D01*
X906635Y731101D01*
X906606Y731064D01*
X906585Y731002D01*
X906554Y730943D01*
X906546Y730889D01*
X906534Y730852D01*
X906534Y730849D01*
X906535Y730812D01*
X906527Y730758D01*
X906527Y728218D01*
X906538Y728153D01*
X906540Y728087D01*
X906558Y728044D01*
X906566Y727997D01*
X906600Y727940D01*
X906625Y727880D01*
X906656Y727845D01*
X906681Y727804D01*
X906732Y727763D01*
X906776Y727714D01*
X906818Y727692D01*
X906855Y727663D01*
X906917Y727642D01*
X906976Y727611D01*
X907030Y727603D01*
X907067Y727591D01*
X907107Y727592D01*
X907161Y727584D01*
X910971Y727584D01*
X911036Y727595D01*
G37*
G36*
X524956Y727595D02*
X524956Y727595D01*
X525022Y727597D01*
X525065Y727615D01*
X525112Y727623D01*
X525169Y727657D01*
X525229Y727682D01*
X525264Y727713D01*
X525305Y727738D01*
X525347Y727789D01*
X525395Y727833D01*
X525417Y727875D01*
X525446Y727912D01*
X525467Y727974D01*
X525498Y728033D01*
X525506Y728087D01*
X525518Y728124D01*
X525517Y728164D01*
X525525Y728218D01*
X525525Y730758D01*
X525514Y730823D01*
X525512Y730889D01*
X525494Y730932D01*
X525486Y730979D01*
X525452Y731036D01*
X525427Y731096D01*
X525396Y731131D01*
X525371Y731172D01*
X525320Y731214D01*
X525276Y731262D01*
X525234Y731284D01*
X525197Y731313D01*
X525135Y731334D01*
X525076Y731365D01*
X525022Y731373D01*
X524985Y731385D01*
X524945Y731384D01*
X524891Y731392D01*
X521081Y731392D01*
X521016Y731381D01*
X520950Y731379D01*
X520907Y731361D01*
X520860Y731353D01*
X520803Y731319D01*
X520743Y731294D01*
X520708Y731263D01*
X520667Y731238D01*
X520626Y731187D01*
X520577Y731143D01*
X520555Y731101D01*
X520526Y731064D01*
X520505Y731002D01*
X520474Y730943D01*
X520466Y730889D01*
X520454Y730852D01*
X520454Y730849D01*
X520455Y730812D01*
X520447Y730758D01*
X520447Y728218D01*
X520458Y728153D01*
X520460Y728087D01*
X520478Y728044D01*
X520486Y727997D01*
X520520Y727940D01*
X520545Y727880D01*
X520576Y727845D01*
X520601Y727804D01*
X520652Y727763D01*
X520696Y727714D01*
X520738Y727692D01*
X520775Y727663D01*
X520837Y727642D01*
X520896Y727611D01*
X520950Y727603D01*
X520987Y727591D01*
X521027Y727592D01*
X521081Y727584D01*
X524891Y727584D01*
X524956Y727595D01*
G37*
G36*
X138876Y727595D02*
X138876Y727595D01*
X138942Y727597D01*
X138985Y727615D01*
X139032Y727623D01*
X139089Y727657D01*
X139149Y727682D01*
X139184Y727713D01*
X139225Y727738D01*
X139267Y727789D01*
X139315Y727833D01*
X139337Y727875D01*
X139366Y727912D01*
X139387Y727974D01*
X139418Y728033D01*
X139426Y728087D01*
X139438Y728124D01*
X139437Y728164D01*
X139445Y728218D01*
X139445Y730758D01*
X139434Y730823D01*
X139432Y730889D01*
X139414Y730932D01*
X139406Y730979D01*
X139372Y731036D01*
X139347Y731096D01*
X139316Y731131D01*
X139291Y731172D01*
X139240Y731214D01*
X139196Y731262D01*
X139154Y731284D01*
X139117Y731313D01*
X139055Y731334D01*
X138996Y731365D01*
X138942Y731373D01*
X138905Y731385D01*
X138865Y731384D01*
X138811Y731392D01*
X135001Y731392D01*
X134936Y731381D01*
X134870Y731379D01*
X134827Y731361D01*
X134780Y731353D01*
X134723Y731319D01*
X134663Y731294D01*
X134628Y731263D01*
X134587Y731238D01*
X134546Y731187D01*
X134497Y731143D01*
X134475Y731101D01*
X134446Y731064D01*
X134425Y731002D01*
X134394Y730943D01*
X134386Y730889D01*
X134374Y730852D01*
X134374Y730849D01*
X134375Y730812D01*
X134367Y730758D01*
X134367Y728218D01*
X134378Y728153D01*
X134380Y728087D01*
X134398Y728044D01*
X134406Y727997D01*
X134440Y727940D01*
X134465Y727880D01*
X134496Y727845D01*
X134521Y727804D01*
X134572Y727763D01*
X134616Y727714D01*
X134658Y727692D01*
X134695Y727663D01*
X134757Y727642D01*
X134816Y727611D01*
X134870Y727603D01*
X134907Y727591D01*
X134947Y727592D01*
X135001Y727584D01*
X138811Y727584D01*
X138876Y727595D01*
G37*
G36*
X1018224Y631837D02*
X1018224Y631837D01*
X1018290Y631839D01*
X1018333Y631857D01*
X1018380Y631865D01*
X1018437Y631899D01*
X1018497Y631924D01*
X1018532Y631955D01*
X1018573Y631980D01*
X1018615Y632031D01*
X1018663Y632075D01*
X1018685Y632117D01*
X1018714Y632154D01*
X1018735Y632216D01*
X1018766Y632275D01*
X1018774Y632329D01*
X1018786Y632366D01*
X1018785Y632406D01*
X1018793Y632460D01*
X1018793Y635000D01*
X1018782Y635065D01*
X1018780Y635131D01*
X1018762Y635174D01*
X1018754Y635221D01*
X1018720Y635278D01*
X1018695Y635338D01*
X1018664Y635373D01*
X1018639Y635414D01*
X1018588Y635456D01*
X1018544Y635504D01*
X1018502Y635526D01*
X1018465Y635555D01*
X1018403Y635576D01*
X1018344Y635607D01*
X1018290Y635615D01*
X1018253Y635627D01*
X1018213Y635626D01*
X1018159Y635634D01*
X1014349Y635634D01*
X1014284Y635623D01*
X1014218Y635621D01*
X1014175Y635603D01*
X1014128Y635595D01*
X1014071Y635561D01*
X1014011Y635536D01*
X1013976Y635505D01*
X1013935Y635480D01*
X1013894Y635429D01*
X1013845Y635385D01*
X1013823Y635343D01*
X1013794Y635306D01*
X1013773Y635244D01*
X1013742Y635185D01*
X1013734Y635131D01*
X1013722Y635094D01*
X1013722Y635091D01*
X1013723Y635054D01*
X1013715Y635000D01*
X1013715Y632460D01*
X1013726Y632395D01*
X1013728Y632329D01*
X1013746Y632286D01*
X1013754Y632239D01*
X1013788Y632182D01*
X1013813Y632122D01*
X1013844Y632087D01*
X1013869Y632046D01*
X1013920Y632005D01*
X1013964Y631956D01*
X1014006Y631934D01*
X1014043Y631905D01*
X1014105Y631884D01*
X1014164Y631853D01*
X1014218Y631845D01*
X1014255Y631833D01*
X1014295Y631834D01*
X1014349Y631826D01*
X1018159Y631826D01*
X1018224Y631837D01*
G37*
G36*
X632144Y631837D02*
X632144Y631837D01*
X632210Y631839D01*
X632253Y631857D01*
X632300Y631865D01*
X632357Y631899D01*
X632417Y631924D01*
X632452Y631955D01*
X632493Y631980D01*
X632535Y632031D01*
X632583Y632075D01*
X632605Y632117D01*
X632634Y632154D01*
X632655Y632216D01*
X632686Y632275D01*
X632694Y632329D01*
X632706Y632366D01*
X632705Y632406D01*
X632713Y632460D01*
X632713Y635000D01*
X632702Y635065D01*
X632700Y635131D01*
X632682Y635174D01*
X632674Y635221D01*
X632640Y635278D01*
X632615Y635338D01*
X632584Y635373D01*
X632559Y635414D01*
X632508Y635456D01*
X632464Y635504D01*
X632422Y635526D01*
X632385Y635555D01*
X632323Y635576D01*
X632264Y635607D01*
X632210Y635615D01*
X632173Y635627D01*
X632133Y635626D01*
X632079Y635634D01*
X628269Y635634D01*
X628204Y635623D01*
X628138Y635621D01*
X628095Y635603D01*
X628048Y635595D01*
X627991Y635561D01*
X627931Y635536D01*
X627896Y635505D01*
X627855Y635480D01*
X627814Y635429D01*
X627765Y635385D01*
X627743Y635343D01*
X627714Y635306D01*
X627693Y635244D01*
X627662Y635185D01*
X627654Y635131D01*
X627642Y635094D01*
X627642Y635091D01*
X627643Y635054D01*
X627635Y635000D01*
X627635Y632460D01*
X627646Y632395D01*
X627648Y632329D01*
X627666Y632286D01*
X627674Y632239D01*
X627708Y632182D01*
X627733Y632122D01*
X627764Y632087D01*
X627789Y632046D01*
X627840Y632005D01*
X627884Y631956D01*
X627926Y631934D01*
X627963Y631905D01*
X628025Y631884D01*
X628084Y631853D01*
X628138Y631845D01*
X628175Y631833D01*
X628215Y631834D01*
X628269Y631826D01*
X632079Y631826D01*
X632144Y631837D01*
G37*
G36*
X246064Y631837D02*
X246064Y631837D01*
X246130Y631839D01*
X246173Y631857D01*
X246220Y631865D01*
X246277Y631899D01*
X246337Y631924D01*
X246372Y631955D01*
X246413Y631980D01*
X246455Y632031D01*
X246503Y632075D01*
X246525Y632117D01*
X246554Y632154D01*
X246575Y632216D01*
X246606Y632275D01*
X246614Y632329D01*
X246626Y632366D01*
X246625Y632406D01*
X246633Y632460D01*
X246633Y635000D01*
X246622Y635065D01*
X246620Y635131D01*
X246602Y635174D01*
X246594Y635221D01*
X246560Y635278D01*
X246535Y635338D01*
X246504Y635373D01*
X246479Y635414D01*
X246428Y635456D01*
X246384Y635504D01*
X246342Y635526D01*
X246305Y635555D01*
X246243Y635576D01*
X246184Y635607D01*
X246130Y635615D01*
X246093Y635627D01*
X246053Y635626D01*
X245999Y635634D01*
X242189Y635634D01*
X242124Y635623D01*
X242058Y635621D01*
X242015Y635603D01*
X241968Y635595D01*
X241911Y635561D01*
X241851Y635536D01*
X241816Y635505D01*
X241775Y635480D01*
X241734Y635429D01*
X241685Y635385D01*
X241663Y635343D01*
X241634Y635306D01*
X241613Y635244D01*
X241582Y635185D01*
X241574Y635131D01*
X241562Y635094D01*
X241562Y635091D01*
X241563Y635054D01*
X241555Y635000D01*
X241555Y632460D01*
X241566Y632395D01*
X241568Y632329D01*
X241586Y632286D01*
X241594Y632239D01*
X241628Y632182D01*
X241653Y632122D01*
X241684Y632087D01*
X241709Y632046D01*
X241760Y632005D01*
X241804Y631956D01*
X241846Y631934D01*
X241883Y631905D01*
X241945Y631884D01*
X242004Y631853D01*
X242058Y631845D01*
X242095Y631833D01*
X242135Y631834D01*
X242189Y631826D01*
X245999Y631826D01*
X246064Y631837D01*
G37*
D10*
X22860Y58420D03*
X369824Y393446D03*
D11*
X282080Y5892D02*
X279600Y5892D01*
X279600Y24372D01*
X282080Y24372D01*
X282080Y5892D01*
X282080Y8067D02*
X279600Y8067D01*
X279600Y10242D02*
X282080Y10242D01*
X282080Y12417D02*
X279600Y12417D01*
X279600Y14592D02*
X282080Y14592D01*
X282080Y16767D02*
X279600Y16767D01*
X279600Y18942D02*
X282080Y18942D01*
X282080Y21117D02*
X279600Y21117D01*
X279600Y23292D02*
X282080Y23292D01*
X277080Y5892D02*
X274600Y5892D01*
X274600Y24372D01*
X277080Y24372D01*
X277080Y5892D01*
X277080Y8067D02*
X274600Y8067D01*
X274600Y10242D02*
X277080Y10242D01*
X277080Y12417D02*
X274600Y12417D01*
X274600Y14592D02*
X277080Y14592D01*
X277080Y16767D02*
X274600Y16767D01*
X274600Y18942D02*
X277080Y18942D01*
X277080Y21117D02*
X274600Y21117D01*
X274600Y23292D02*
X277080Y23292D01*
X272080Y5892D02*
X269600Y5892D01*
X269600Y24372D01*
X272080Y24372D01*
X272080Y5892D01*
X272080Y8067D02*
X269600Y8067D01*
X269600Y10242D02*
X272080Y10242D01*
X272080Y12417D02*
X269600Y12417D01*
X269600Y14592D02*
X272080Y14592D01*
X272080Y16767D02*
X269600Y16767D01*
X269600Y18942D02*
X272080Y18942D01*
X272080Y21117D02*
X269600Y21117D01*
X269600Y23292D02*
X272080Y23292D01*
X267080Y5892D02*
X264600Y5892D01*
X264600Y24372D01*
X267080Y24372D01*
X267080Y5892D01*
X267080Y8067D02*
X264600Y8067D01*
X264600Y10242D02*
X267080Y10242D01*
X267080Y12417D02*
X264600Y12417D01*
X264600Y14592D02*
X267080Y14592D01*
X267080Y16767D02*
X264600Y16767D01*
X264600Y18942D02*
X267080Y18942D01*
X267080Y21117D02*
X264600Y21117D01*
X264600Y23292D02*
X267080Y23292D01*
X262080Y5892D02*
X259600Y5892D01*
X259600Y24372D01*
X262080Y24372D01*
X262080Y5892D01*
X262080Y8067D02*
X259600Y8067D01*
X259600Y10242D02*
X262080Y10242D01*
X262080Y12417D02*
X259600Y12417D01*
X259600Y14592D02*
X262080Y14592D01*
X262080Y16767D02*
X259600Y16767D01*
X259600Y18942D02*
X262080Y18942D01*
X262080Y21117D02*
X259600Y21117D01*
X259600Y23292D02*
X262080Y23292D01*
X257080Y5892D02*
X254600Y5892D01*
X254600Y24372D01*
X257080Y24372D01*
X257080Y5892D01*
X257080Y8067D02*
X254600Y8067D01*
X254600Y10242D02*
X257080Y10242D01*
X257080Y12417D02*
X254600Y12417D01*
X254600Y14592D02*
X257080Y14592D01*
X257080Y16767D02*
X254600Y16767D01*
X254600Y18942D02*
X257080Y18942D01*
X257080Y21117D02*
X254600Y21117D01*
X254600Y23292D02*
X257080Y23292D01*
X252080Y5892D02*
X249600Y5892D01*
X249600Y24372D01*
X252080Y24372D01*
X252080Y5892D01*
X252080Y8067D02*
X249600Y8067D01*
X249600Y10242D02*
X252080Y10242D01*
X252080Y12417D02*
X249600Y12417D01*
X249600Y14592D02*
X252080Y14592D01*
X252080Y16767D02*
X249600Y16767D01*
X249600Y18942D02*
X252080Y18942D01*
X252080Y21117D02*
X249600Y21117D01*
X249600Y23292D02*
X252080Y23292D01*
X247080Y5892D02*
X244600Y5892D01*
X244600Y24372D01*
X247080Y24372D01*
X247080Y5892D01*
X247080Y8067D02*
X244600Y8067D01*
X244600Y10242D02*
X247080Y10242D01*
X247080Y12417D02*
X244600Y12417D01*
X244600Y14592D02*
X247080Y14592D01*
X247080Y16767D02*
X244600Y16767D01*
X244600Y18942D02*
X247080Y18942D01*
X247080Y21117D02*
X244600Y21117D01*
X244600Y23292D02*
X247080Y23292D01*
X242080Y5892D02*
X239600Y5892D01*
X239600Y24372D01*
X242080Y24372D01*
X242080Y5892D01*
X242080Y8067D02*
X239600Y8067D01*
X239600Y10242D02*
X242080Y10242D01*
X242080Y12417D02*
X239600Y12417D01*
X239600Y14592D02*
X242080Y14592D01*
X242080Y16767D02*
X239600Y16767D01*
X239600Y18942D02*
X242080Y18942D01*
X242080Y21117D02*
X239600Y21117D01*
X239600Y23292D02*
X242080Y23292D01*
X237080Y5892D02*
X234600Y5892D01*
X234600Y24372D01*
X237080Y24372D01*
X237080Y5892D01*
X237080Y8067D02*
X234600Y8067D01*
X234600Y10242D02*
X237080Y10242D01*
X237080Y12417D02*
X234600Y12417D01*
X234600Y14592D02*
X237080Y14592D01*
X237080Y16767D02*
X234600Y16767D01*
X234600Y18942D02*
X237080Y18942D01*
X237080Y21117D02*
X234600Y21117D01*
X234600Y23292D02*
X237080Y23292D01*
X232080Y5892D02*
X229600Y5892D01*
X229600Y24372D01*
X232080Y24372D01*
X232080Y5892D01*
X232080Y8067D02*
X229600Y8067D01*
X229600Y10242D02*
X232080Y10242D01*
X232080Y12417D02*
X229600Y12417D01*
X229600Y14592D02*
X232080Y14592D01*
X232080Y16767D02*
X229600Y16767D01*
X229600Y18942D02*
X232080Y18942D01*
X232080Y21117D02*
X229600Y21117D01*
X229600Y23292D02*
X232080Y23292D01*
X207080Y5892D02*
X204600Y5892D01*
X204600Y24372D01*
X207080Y24372D01*
X207080Y5892D01*
X207080Y8067D02*
X204600Y8067D01*
X204600Y10242D02*
X207080Y10242D01*
X207080Y12417D02*
X204600Y12417D01*
X204600Y14592D02*
X207080Y14592D01*
X207080Y16767D02*
X204600Y16767D01*
X204600Y18942D02*
X207080Y18942D01*
X207080Y21117D02*
X204600Y21117D01*
X204600Y23292D02*
X207080Y23292D01*
X202080Y5892D02*
X199600Y5892D01*
X199600Y24372D01*
X202080Y24372D01*
X202080Y5892D01*
X202080Y8067D02*
X199600Y8067D01*
X199600Y10242D02*
X202080Y10242D01*
X202080Y12417D02*
X199600Y12417D01*
X199600Y14592D02*
X202080Y14592D01*
X202080Y16767D02*
X199600Y16767D01*
X199600Y18942D02*
X202080Y18942D01*
X202080Y21117D02*
X199600Y21117D01*
X199600Y23292D02*
X202080Y23292D01*
X197080Y5892D02*
X194600Y5892D01*
X194600Y24372D01*
X197080Y24372D01*
X197080Y5892D01*
X197080Y8067D02*
X194600Y8067D01*
X194600Y10242D02*
X197080Y10242D01*
X197080Y12417D02*
X194600Y12417D01*
X194600Y14592D02*
X197080Y14592D01*
X197080Y16767D02*
X194600Y16767D01*
X194600Y18942D02*
X197080Y18942D01*
X197080Y21117D02*
X194600Y21117D01*
X194600Y23292D02*
X197080Y23292D01*
X192080Y5892D02*
X189600Y5892D01*
X189600Y24372D01*
X192080Y24372D01*
X192080Y5892D01*
X192080Y8067D02*
X189600Y8067D01*
X189600Y10242D02*
X192080Y10242D01*
X192080Y12417D02*
X189600Y12417D01*
X189600Y14592D02*
X192080Y14592D01*
X192080Y16767D02*
X189600Y16767D01*
X189600Y18942D02*
X192080Y18942D01*
X192080Y21117D02*
X189600Y21117D01*
X189600Y23292D02*
X192080Y23292D01*
X187080Y5892D02*
X184600Y5892D01*
X184600Y24372D01*
X187080Y24372D01*
X187080Y5892D01*
X187080Y8067D02*
X184600Y8067D01*
X184600Y10242D02*
X187080Y10242D01*
X187080Y12417D02*
X184600Y12417D01*
X184600Y14592D02*
X187080Y14592D01*
X187080Y16767D02*
X184600Y16767D01*
X184600Y18942D02*
X187080Y18942D01*
X187080Y21117D02*
X184600Y21117D01*
X184600Y23292D02*
X187080Y23292D01*
X182080Y5892D02*
X179600Y5892D01*
X179600Y24372D01*
X182080Y24372D01*
X182080Y5892D01*
X182080Y8067D02*
X179600Y8067D01*
X179600Y10242D02*
X182080Y10242D01*
X182080Y12417D02*
X179600Y12417D01*
X179600Y14592D02*
X182080Y14592D01*
X182080Y16767D02*
X179600Y16767D01*
X179600Y18942D02*
X182080Y18942D01*
X182080Y21117D02*
X179600Y21117D01*
X179600Y23292D02*
X182080Y23292D01*
X177080Y5892D02*
X174600Y5892D01*
X174600Y24372D01*
X177080Y24372D01*
X177080Y5892D01*
X177080Y8067D02*
X174600Y8067D01*
X174600Y10242D02*
X177080Y10242D01*
X177080Y12417D02*
X174600Y12417D01*
X174600Y14592D02*
X177080Y14592D01*
X177080Y16767D02*
X174600Y16767D01*
X174600Y18942D02*
X177080Y18942D01*
X177080Y21117D02*
X174600Y21117D01*
X174600Y23292D02*
X177080Y23292D01*
X172080Y5892D02*
X169600Y5892D01*
X169600Y24372D01*
X172080Y24372D01*
X172080Y5892D01*
X172080Y8067D02*
X169600Y8067D01*
X169600Y10242D02*
X172080Y10242D01*
X172080Y12417D02*
X169600Y12417D01*
X169600Y14592D02*
X172080Y14592D01*
X172080Y16767D02*
X169600Y16767D01*
X169600Y18942D02*
X172080Y18942D01*
X172080Y21117D02*
X169600Y21117D01*
X169600Y23292D02*
X172080Y23292D01*
X167080Y5892D02*
X164600Y5892D01*
X164600Y24372D01*
X167080Y24372D01*
X167080Y5892D01*
X167080Y8067D02*
X164600Y8067D01*
X164600Y10242D02*
X167080Y10242D01*
X167080Y12417D02*
X164600Y12417D01*
X164600Y14592D02*
X167080Y14592D01*
X167080Y16767D02*
X164600Y16767D01*
X164600Y18942D02*
X167080Y18942D01*
X167080Y21117D02*
X164600Y21117D01*
X164600Y23292D02*
X167080Y23292D01*
X162080Y5892D02*
X159600Y5892D01*
X159600Y24372D01*
X162080Y24372D01*
X162080Y5892D01*
X162080Y8067D02*
X159600Y8067D01*
X159600Y10242D02*
X162080Y10242D01*
X162080Y12417D02*
X159600Y12417D01*
X159600Y14592D02*
X162080Y14592D01*
X162080Y16767D02*
X159600Y16767D01*
X159600Y18942D02*
X162080Y18942D01*
X162080Y21117D02*
X159600Y21117D01*
X159600Y23292D02*
X162080Y23292D01*
X157080Y5892D02*
X154600Y5892D01*
X154600Y24372D01*
X157080Y24372D01*
X157080Y5892D01*
X157080Y8067D02*
X154600Y8067D01*
X154600Y10242D02*
X157080Y10242D01*
X157080Y12417D02*
X154600Y12417D01*
X154600Y14592D02*
X157080Y14592D01*
X157080Y16767D02*
X154600Y16767D01*
X154600Y18942D02*
X157080Y18942D01*
X157080Y21117D02*
X154600Y21117D01*
X154600Y23292D02*
X157080Y23292D01*
X152080Y5892D02*
X149600Y5892D01*
X149600Y24372D01*
X152080Y24372D01*
X152080Y5892D01*
X152080Y8067D02*
X149600Y8067D01*
X149600Y10242D02*
X152080Y10242D01*
X152080Y12417D02*
X149600Y12417D01*
X149600Y14592D02*
X152080Y14592D01*
X152080Y16767D02*
X149600Y16767D01*
X149600Y18942D02*
X152080Y18942D01*
X152080Y21117D02*
X149600Y21117D01*
X149600Y23292D02*
X152080Y23292D01*
X147080Y5892D02*
X144600Y5892D01*
X144600Y24372D01*
X147080Y24372D01*
X147080Y5892D01*
X147080Y8067D02*
X144600Y8067D01*
X144600Y10242D02*
X147080Y10242D01*
X147080Y12417D02*
X144600Y12417D01*
X144600Y14592D02*
X147080Y14592D01*
X147080Y16767D02*
X144600Y16767D01*
X144600Y18942D02*
X147080Y18942D01*
X147080Y21117D02*
X144600Y21117D01*
X144600Y23292D02*
X147080Y23292D01*
X142080Y5892D02*
X139600Y5892D01*
X139600Y24372D01*
X142080Y24372D01*
X142080Y5892D01*
X142080Y8067D02*
X139600Y8067D01*
X139600Y10242D02*
X142080Y10242D01*
X142080Y12417D02*
X139600Y12417D01*
X139600Y14592D02*
X142080Y14592D01*
X142080Y16767D02*
X139600Y16767D01*
X139600Y18942D02*
X142080Y18942D01*
X142080Y21117D02*
X139600Y21117D01*
X139600Y23292D02*
X142080Y23292D01*
X137080Y5892D02*
X134600Y5892D01*
X134600Y24372D01*
X137080Y24372D01*
X137080Y5892D01*
X137080Y8067D02*
X134600Y8067D01*
X134600Y10242D02*
X137080Y10242D01*
X137080Y12417D02*
X134600Y12417D01*
X134600Y14592D02*
X137080Y14592D01*
X137080Y16767D02*
X134600Y16767D01*
X134600Y18942D02*
X137080Y18942D01*
X137080Y21117D02*
X134600Y21117D01*
X134600Y23292D02*
X137080Y23292D01*
X132080Y5892D02*
X129600Y5892D01*
X129600Y24372D01*
X132080Y24372D01*
X132080Y5892D01*
X132080Y8067D02*
X129600Y8067D01*
X129600Y10242D02*
X132080Y10242D01*
X132080Y12417D02*
X129600Y12417D01*
X129600Y14592D02*
X132080Y14592D01*
X132080Y16767D02*
X129600Y16767D01*
X129600Y18942D02*
X132080Y18942D01*
X132080Y21117D02*
X129600Y21117D01*
X129600Y23292D02*
X132080Y23292D01*
X127080Y5892D02*
X124600Y5892D01*
X124600Y24372D01*
X127080Y24372D01*
X127080Y5892D01*
X127080Y8067D02*
X124600Y8067D01*
X124600Y10242D02*
X127080Y10242D01*
X127080Y12417D02*
X124600Y12417D01*
X124600Y14592D02*
X127080Y14592D01*
X127080Y16767D02*
X124600Y16767D01*
X124600Y18942D02*
X127080Y18942D01*
X127080Y21117D02*
X124600Y21117D01*
X124600Y23292D02*
X127080Y23292D01*
X122080Y5892D02*
X119600Y5892D01*
X119600Y24372D01*
X122080Y24372D01*
X122080Y5892D01*
X122080Y8067D02*
X119600Y8067D01*
X119600Y10242D02*
X122080Y10242D01*
X122080Y12417D02*
X119600Y12417D01*
X119600Y14592D02*
X122080Y14592D01*
X122080Y16767D02*
X119600Y16767D01*
X119600Y18942D02*
X122080Y18942D01*
X122080Y21117D02*
X119600Y21117D01*
X119600Y23292D02*
X122080Y23292D01*
X117080Y5892D02*
X114600Y5892D01*
X114600Y24372D01*
X117080Y24372D01*
X117080Y5892D01*
X117080Y8067D02*
X114600Y8067D01*
X114600Y10242D02*
X117080Y10242D01*
X117080Y12417D02*
X114600Y12417D01*
X114600Y14592D02*
X117080Y14592D01*
X117080Y16767D02*
X114600Y16767D01*
X114600Y18942D02*
X117080Y18942D01*
X117080Y21117D02*
X114600Y21117D01*
X114600Y23292D02*
X117080Y23292D01*
X112080Y5892D02*
X109600Y5892D01*
X109600Y24372D01*
X112080Y24372D01*
X112080Y5892D01*
X112080Y8067D02*
X109600Y8067D01*
X109600Y10242D02*
X112080Y10242D01*
X112080Y12417D02*
X109600Y12417D01*
X109600Y14592D02*
X112080Y14592D01*
X112080Y16767D02*
X109600Y16767D01*
X109600Y18942D02*
X112080Y18942D01*
X112080Y21117D02*
X109600Y21117D01*
X109600Y23292D02*
X112080Y23292D01*
X107080Y5892D02*
X104600Y5892D01*
X104600Y24372D01*
X107080Y24372D01*
X107080Y5892D01*
X107080Y8067D02*
X104600Y8067D01*
X104600Y10242D02*
X107080Y10242D01*
X107080Y12417D02*
X104600Y12417D01*
X104600Y14592D02*
X107080Y14592D01*
X107080Y16767D02*
X104600Y16767D01*
X104600Y18942D02*
X107080Y18942D01*
X107080Y21117D02*
X104600Y21117D01*
X104600Y23292D02*
X107080Y23292D01*
X102080Y5892D02*
X99600Y5892D01*
X99600Y24372D01*
X102080Y24372D01*
X102080Y5892D01*
X102080Y8067D02*
X99600Y8067D01*
X99600Y10242D02*
X102080Y10242D01*
X102080Y12417D02*
X99600Y12417D01*
X99600Y14592D02*
X102080Y14592D01*
X102080Y16767D02*
X99600Y16767D01*
X99600Y18942D02*
X102080Y18942D01*
X102080Y21117D02*
X99600Y21117D01*
X99600Y23292D02*
X102080Y23292D01*
D12*
X370840Y460882D03*
X370840Y418882D03*
X357840Y439882D03*
X10840Y418882D03*
X10840Y460882D03*
X23840Y439882D03*
D13*
X277368Y396240D03*
D14*
X356560Y599920D03*
X298760Y599920D03*
D15*
X241683Y627886D02*
X236091Y627886D01*
X236091Y639574D01*
X241683Y639574D01*
X241683Y627886D01*
X241683Y630055D02*
X236091Y630055D01*
X236091Y632224D02*
X241683Y632224D01*
X241683Y634393D02*
X236091Y634393D01*
X236091Y636562D02*
X241683Y636562D01*
X241683Y638731D02*
X236091Y638731D01*
X246505Y627886D02*
X252097Y627886D01*
X246505Y627886D02*
X246505Y639574D01*
X252097Y639574D01*
X252097Y627886D01*
X252097Y630055D02*
X246505Y630055D01*
X246505Y632224D02*
X252097Y632224D01*
X252097Y634393D02*
X246505Y634393D01*
X246505Y636562D02*
X252097Y636562D01*
X252097Y638731D02*
X246505Y638731D01*
D10*
X408940Y58420D03*
X755904Y393446D03*
D11*
X668160Y5892D02*
X665680Y5892D01*
X665680Y24372D01*
X668160Y24372D01*
X668160Y5892D01*
X668160Y8067D02*
X665680Y8067D01*
X665680Y10242D02*
X668160Y10242D01*
X668160Y12417D02*
X665680Y12417D01*
X665680Y14592D02*
X668160Y14592D01*
X668160Y16767D02*
X665680Y16767D01*
X665680Y18942D02*
X668160Y18942D01*
X668160Y21117D02*
X665680Y21117D01*
X665680Y23292D02*
X668160Y23292D01*
X663160Y5892D02*
X660680Y5892D01*
X660680Y24372D01*
X663160Y24372D01*
X663160Y5892D01*
X663160Y8067D02*
X660680Y8067D01*
X660680Y10242D02*
X663160Y10242D01*
X663160Y12417D02*
X660680Y12417D01*
X660680Y14592D02*
X663160Y14592D01*
X663160Y16767D02*
X660680Y16767D01*
X660680Y18942D02*
X663160Y18942D01*
X663160Y21117D02*
X660680Y21117D01*
X660680Y23292D02*
X663160Y23292D01*
X658160Y5892D02*
X655680Y5892D01*
X655680Y24372D01*
X658160Y24372D01*
X658160Y5892D01*
X658160Y8067D02*
X655680Y8067D01*
X655680Y10242D02*
X658160Y10242D01*
X658160Y12417D02*
X655680Y12417D01*
X655680Y14592D02*
X658160Y14592D01*
X658160Y16767D02*
X655680Y16767D01*
X655680Y18942D02*
X658160Y18942D01*
X658160Y21117D02*
X655680Y21117D01*
X655680Y23292D02*
X658160Y23292D01*
X653160Y5892D02*
X650680Y5892D01*
X650680Y24372D01*
X653160Y24372D01*
X653160Y5892D01*
X653160Y8067D02*
X650680Y8067D01*
X650680Y10242D02*
X653160Y10242D01*
X653160Y12417D02*
X650680Y12417D01*
X650680Y14592D02*
X653160Y14592D01*
X653160Y16767D02*
X650680Y16767D01*
X650680Y18942D02*
X653160Y18942D01*
X653160Y21117D02*
X650680Y21117D01*
X650680Y23292D02*
X653160Y23292D01*
X648160Y5892D02*
X645680Y5892D01*
X645680Y24372D01*
X648160Y24372D01*
X648160Y5892D01*
X648160Y8067D02*
X645680Y8067D01*
X645680Y10242D02*
X648160Y10242D01*
X648160Y12417D02*
X645680Y12417D01*
X645680Y14592D02*
X648160Y14592D01*
X648160Y16767D02*
X645680Y16767D01*
X645680Y18942D02*
X648160Y18942D01*
X648160Y21117D02*
X645680Y21117D01*
X645680Y23292D02*
X648160Y23292D01*
X643160Y5892D02*
X640680Y5892D01*
X640680Y24372D01*
X643160Y24372D01*
X643160Y5892D01*
X643160Y8067D02*
X640680Y8067D01*
X640680Y10242D02*
X643160Y10242D01*
X643160Y12417D02*
X640680Y12417D01*
X640680Y14592D02*
X643160Y14592D01*
X643160Y16767D02*
X640680Y16767D01*
X640680Y18942D02*
X643160Y18942D01*
X643160Y21117D02*
X640680Y21117D01*
X640680Y23292D02*
X643160Y23292D01*
X638160Y5892D02*
X635680Y5892D01*
X635680Y24372D01*
X638160Y24372D01*
X638160Y5892D01*
X638160Y8067D02*
X635680Y8067D01*
X635680Y10242D02*
X638160Y10242D01*
X638160Y12417D02*
X635680Y12417D01*
X635680Y14592D02*
X638160Y14592D01*
X638160Y16767D02*
X635680Y16767D01*
X635680Y18942D02*
X638160Y18942D01*
X638160Y21117D02*
X635680Y21117D01*
X635680Y23292D02*
X638160Y23292D01*
X633160Y5892D02*
X630680Y5892D01*
X630680Y24372D01*
X633160Y24372D01*
X633160Y5892D01*
X633160Y8067D02*
X630680Y8067D01*
X630680Y10242D02*
X633160Y10242D01*
X633160Y12417D02*
X630680Y12417D01*
X630680Y14592D02*
X633160Y14592D01*
X633160Y16767D02*
X630680Y16767D01*
X630680Y18942D02*
X633160Y18942D01*
X633160Y21117D02*
X630680Y21117D01*
X630680Y23292D02*
X633160Y23292D01*
X628160Y5892D02*
X625680Y5892D01*
X625680Y24372D01*
X628160Y24372D01*
X628160Y5892D01*
X628160Y8067D02*
X625680Y8067D01*
X625680Y10242D02*
X628160Y10242D01*
X628160Y12417D02*
X625680Y12417D01*
X625680Y14592D02*
X628160Y14592D01*
X628160Y16767D02*
X625680Y16767D01*
X625680Y18942D02*
X628160Y18942D01*
X628160Y21117D02*
X625680Y21117D01*
X625680Y23292D02*
X628160Y23292D01*
X623160Y5892D02*
X620680Y5892D01*
X620680Y24372D01*
X623160Y24372D01*
X623160Y5892D01*
X623160Y8067D02*
X620680Y8067D01*
X620680Y10242D02*
X623160Y10242D01*
X623160Y12417D02*
X620680Y12417D01*
X620680Y14592D02*
X623160Y14592D01*
X623160Y16767D02*
X620680Y16767D01*
X620680Y18942D02*
X623160Y18942D01*
X623160Y21117D02*
X620680Y21117D01*
X620680Y23292D02*
X623160Y23292D01*
X618160Y5892D02*
X615680Y5892D01*
X615680Y24372D01*
X618160Y24372D01*
X618160Y5892D01*
X618160Y8067D02*
X615680Y8067D01*
X615680Y10242D02*
X618160Y10242D01*
X618160Y12417D02*
X615680Y12417D01*
X615680Y14592D02*
X618160Y14592D01*
X618160Y16767D02*
X615680Y16767D01*
X615680Y18942D02*
X618160Y18942D01*
X618160Y21117D02*
X615680Y21117D01*
X615680Y23292D02*
X618160Y23292D01*
X593160Y5892D02*
X590680Y5892D01*
X590680Y24372D01*
X593160Y24372D01*
X593160Y5892D01*
X593160Y8067D02*
X590680Y8067D01*
X590680Y10242D02*
X593160Y10242D01*
X593160Y12417D02*
X590680Y12417D01*
X590680Y14592D02*
X593160Y14592D01*
X593160Y16767D02*
X590680Y16767D01*
X590680Y18942D02*
X593160Y18942D01*
X593160Y21117D02*
X590680Y21117D01*
X590680Y23292D02*
X593160Y23292D01*
X588160Y5892D02*
X585680Y5892D01*
X585680Y24372D01*
X588160Y24372D01*
X588160Y5892D01*
X588160Y8067D02*
X585680Y8067D01*
X585680Y10242D02*
X588160Y10242D01*
X588160Y12417D02*
X585680Y12417D01*
X585680Y14592D02*
X588160Y14592D01*
X588160Y16767D02*
X585680Y16767D01*
X585680Y18942D02*
X588160Y18942D01*
X588160Y21117D02*
X585680Y21117D01*
X585680Y23292D02*
X588160Y23292D01*
X583160Y5892D02*
X580680Y5892D01*
X580680Y24372D01*
X583160Y24372D01*
X583160Y5892D01*
X583160Y8067D02*
X580680Y8067D01*
X580680Y10242D02*
X583160Y10242D01*
X583160Y12417D02*
X580680Y12417D01*
X580680Y14592D02*
X583160Y14592D01*
X583160Y16767D02*
X580680Y16767D01*
X580680Y18942D02*
X583160Y18942D01*
X583160Y21117D02*
X580680Y21117D01*
X580680Y23292D02*
X583160Y23292D01*
X578160Y5892D02*
X575680Y5892D01*
X575680Y24372D01*
X578160Y24372D01*
X578160Y5892D01*
X578160Y8067D02*
X575680Y8067D01*
X575680Y10242D02*
X578160Y10242D01*
X578160Y12417D02*
X575680Y12417D01*
X575680Y14592D02*
X578160Y14592D01*
X578160Y16767D02*
X575680Y16767D01*
X575680Y18942D02*
X578160Y18942D01*
X578160Y21117D02*
X575680Y21117D01*
X575680Y23292D02*
X578160Y23292D01*
X573160Y5892D02*
X570680Y5892D01*
X570680Y24372D01*
X573160Y24372D01*
X573160Y5892D01*
X573160Y8067D02*
X570680Y8067D01*
X570680Y10242D02*
X573160Y10242D01*
X573160Y12417D02*
X570680Y12417D01*
X570680Y14592D02*
X573160Y14592D01*
X573160Y16767D02*
X570680Y16767D01*
X570680Y18942D02*
X573160Y18942D01*
X573160Y21117D02*
X570680Y21117D01*
X570680Y23292D02*
X573160Y23292D01*
X568160Y5892D02*
X565680Y5892D01*
X565680Y24372D01*
X568160Y24372D01*
X568160Y5892D01*
X568160Y8067D02*
X565680Y8067D01*
X565680Y10242D02*
X568160Y10242D01*
X568160Y12417D02*
X565680Y12417D01*
X565680Y14592D02*
X568160Y14592D01*
X568160Y16767D02*
X565680Y16767D01*
X565680Y18942D02*
X568160Y18942D01*
X568160Y21117D02*
X565680Y21117D01*
X565680Y23292D02*
X568160Y23292D01*
X563160Y5892D02*
X560680Y5892D01*
X560680Y24372D01*
X563160Y24372D01*
X563160Y5892D01*
X563160Y8067D02*
X560680Y8067D01*
X560680Y10242D02*
X563160Y10242D01*
X563160Y12417D02*
X560680Y12417D01*
X560680Y14592D02*
X563160Y14592D01*
X563160Y16767D02*
X560680Y16767D01*
X560680Y18942D02*
X563160Y18942D01*
X563160Y21117D02*
X560680Y21117D01*
X560680Y23292D02*
X563160Y23292D01*
X558160Y5892D02*
X555680Y5892D01*
X555680Y24372D01*
X558160Y24372D01*
X558160Y5892D01*
X558160Y8067D02*
X555680Y8067D01*
X555680Y10242D02*
X558160Y10242D01*
X558160Y12417D02*
X555680Y12417D01*
X555680Y14592D02*
X558160Y14592D01*
X558160Y16767D02*
X555680Y16767D01*
X555680Y18942D02*
X558160Y18942D01*
X558160Y21117D02*
X555680Y21117D01*
X555680Y23292D02*
X558160Y23292D01*
X553160Y5892D02*
X550680Y5892D01*
X550680Y24372D01*
X553160Y24372D01*
X553160Y5892D01*
X553160Y8067D02*
X550680Y8067D01*
X550680Y10242D02*
X553160Y10242D01*
X553160Y12417D02*
X550680Y12417D01*
X550680Y14592D02*
X553160Y14592D01*
X553160Y16767D02*
X550680Y16767D01*
X550680Y18942D02*
X553160Y18942D01*
X553160Y21117D02*
X550680Y21117D01*
X550680Y23292D02*
X553160Y23292D01*
X548160Y5892D02*
X545680Y5892D01*
X545680Y24372D01*
X548160Y24372D01*
X548160Y5892D01*
X548160Y8067D02*
X545680Y8067D01*
X545680Y10242D02*
X548160Y10242D01*
X548160Y12417D02*
X545680Y12417D01*
X545680Y14592D02*
X548160Y14592D01*
X548160Y16767D02*
X545680Y16767D01*
X545680Y18942D02*
X548160Y18942D01*
X548160Y21117D02*
X545680Y21117D01*
X545680Y23292D02*
X548160Y23292D01*
X543160Y5892D02*
X540680Y5892D01*
X540680Y24372D01*
X543160Y24372D01*
X543160Y5892D01*
X543160Y8067D02*
X540680Y8067D01*
X540680Y10242D02*
X543160Y10242D01*
X543160Y12417D02*
X540680Y12417D01*
X540680Y14592D02*
X543160Y14592D01*
X543160Y16767D02*
X540680Y16767D01*
X540680Y18942D02*
X543160Y18942D01*
X543160Y21117D02*
X540680Y21117D01*
X540680Y23292D02*
X543160Y23292D01*
X538160Y5892D02*
X535680Y5892D01*
X535680Y24372D01*
X538160Y24372D01*
X538160Y5892D01*
X538160Y8067D02*
X535680Y8067D01*
X535680Y10242D02*
X538160Y10242D01*
X538160Y12417D02*
X535680Y12417D01*
X535680Y14592D02*
X538160Y14592D01*
X538160Y16767D02*
X535680Y16767D01*
X535680Y18942D02*
X538160Y18942D01*
X538160Y21117D02*
X535680Y21117D01*
X535680Y23292D02*
X538160Y23292D01*
X533160Y5892D02*
X530680Y5892D01*
X530680Y24372D01*
X533160Y24372D01*
X533160Y5892D01*
X533160Y8067D02*
X530680Y8067D01*
X530680Y10242D02*
X533160Y10242D01*
X533160Y12417D02*
X530680Y12417D01*
X530680Y14592D02*
X533160Y14592D01*
X533160Y16767D02*
X530680Y16767D01*
X530680Y18942D02*
X533160Y18942D01*
X533160Y21117D02*
X530680Y21117D01*
X530680Y23292D02*
X533160Y23292D01*
X528160Y5892D02*
X525680Y5892D01*
X525680Y24372D01*
X528160Y24372D01*
X528160Y5892D01*
X528160Y8067D02*
X525680Y8067D01*
X525680Y10242D02*
X528160Y10242D01*
X528160Y12417D02*
X525680Y12417D01*
X525680Y14592D02*
X528160Y14592D01*
X528160Y16767D02*
X525680Y16767D01*
X525680Y18942D02*
X528160Y18942D01*
X528160Y21117D02*
X525680Y21117D01*
X525680Y23292D02*
X528160Y23292D01*
X523160Y5892D02*
X520680Y5892D01*
X520680Y24372D01*
X523160Y24372D01*
X523160Y5892D01*
X523160Y8067D02*
X520680Y8067D01*
X520680Y10242D02*
X523160Y10242D01*
X523160Y12417D02*
X520680Y12417D01*
X520680Y14592D02*
X523160Y14592D01*
X523160Y16767D02*
X520680Y16767D01*
X520680Y18942D02*
X523160Y18942D01*
X523160Y21117D02*
X520680Y21117D01*
X520680Y23292D02*
X523160Y23292D01*
X518160Y5892D02*
X515680Y5892D01*
X515680Y24372D01*
X518160Y24372D01*
X518160Y5892D01*
X518160Y8067D02*
X515680Y8067D01*
X515680Y10242D02*
X518160Y10242D01*
X518160Y12417D02*
X515680Y12417D01*
X515680Y14592D02*
X518160Y14592D01*
X518160Y16767D02*
X515680Y16767D01*
X515680Y18942D02*
X518160Y18942D01*
X518160Y21117D02*
X515680Y21117D01*
X515680Y23292D02*
X518160Y23292D01*
X513160Y5892D02*
X510680Y5892D01*
X510680Y24372D01*
X513160Y24372D01*
X513160Y5892D01*
X513160Y8067D02*
X510680Y8067D01*
X510680Y10242D02*
X513160Y10242D01*
X513160Y12417D02*
X510680Y12417D01*
X510680Y14592D02*
X513160Y14592D01*
X513160Y16767D02*
X510680Y16767D01*
X510680Y18942D02*
X513160Y18942D01*
X513160Y21117D02*
X510680Y21117D01*
X510680Y23292D02*
X513160Y23292D01*
X508160Y5892D02*
X505680Y5892D01*
X505680Y24372D01*
X508160Y24372D01*
X508160Y5892D01*
X508160Y8067D02*
X505680Y8067D01*
X505680Y10242D02*
X508160Y10242D01*
X508160Y12417D02*
X505680Y12417D01*
X505680Y14592D02*
X508160Y14592D01*
X508160Y16767D02*
X505680Y16767D01*
X505680Y18942D02*
X508160Y18942D01*
X508160Y21117D02*
X505680Y21117D01*
X505680Y23292D02*
X508160Y23292D01*
X503160Y5892D02*
X500680Y5892D01*
X500680Y24372D01*
X503160Y24372D01*
X503160Y5892D01*
X503160Y8067D02*
X500680Y8067D01*
X500680Y10242D02*
X503160Y10242D01*
X503160Y12417D02*
X500680Y12417D01*
X500680Y14592D02*
X503160Y14592D01*
X503160Y16767D02*
X500680Y16767D01*
X500680Y18942D02*
X503160Y18942D01*
X503160Y21117D02*
X500680Y21117D01*
X500680Y23292D02*
X503160Y23292D01*
X498160Y5892D02*
X495680Y5892D01*
X495680Y24372D01*
X498160Y24372D01*
X498160Y5892D01*
X498160Y8067D02*
X495680Y8067D01*
X495680Y10242D02*
X498160Y10242D01*
X498160Y12417D02*
X495680Y12417D01*
X495680Y14592D02*
X498160Y14592D01*
X498160Y16767D02*
X495680Y16767D01*
X495680Y18942D02*
X498160Y18942D01*
X498160Y21117D02*
X495680Y21117D01*
X495680Y23292D02*
X498160Y23292D01*
X493160Y5892D02*
X490680Y5892D01*
X490680Y24372D01*
X493160Y24372D01*
X493160Y5892D01*
X493160Y8067D02*
X490680Y8067D01*
X490680Y10242D02*
X493160Y10242D01*
X493160Y12417D02*
X490680Y12417D01*
X490680Y14592D02*
X493160Y14592D01*
X493160Y16767D02*
X490680Y16767D01*
X490680Y18942D02*
X493160Y18942D01*
X493160Y21117D02*
X490680Y21117D01*
X490680Y23292D02*
X493160Y23292D01*
X488160Y5892D02*
X485680Y5892D01*
X485680Y24372D01*
X488160Y24372D01*
X488160Y5892D01*
X488160Y8067D02*
X485680Y8067D01*
X485680Y10242D02*
X488160Y10242D01*
X488160Y12417D02*
X485680Y12417D01*
X485680Y14592D02*
X488160Y14592D01*
X488160Y16767D02*
X485680Y16767D01*
X485680Y18942D02*
X488160Y18942D01*
X488160Y21117D02*
X485680Y21117D01*
X485680Y23292D02*
X488160Y23292D01*
D12*
X756920Y460882D03*
X756920Y418882D03*
X743920Y439882D03*
X396920Y418882D03*
X396920Y460882D03*
X409920Y439882D03*
D13*
X663448Y396240D03*
D14*
X742640Y599920D03*
X684840Y599920D03*
D15*
X627763Y627886D02*
X622171Y627886D01*
X622171Y639574D01*
X627763Y639574D01*
X627763Y627886D01*
X627763Y630055D02*
X622171Y630055D01*
X622171Y632224D02*
X627763Y632224D01*
X627763Y634393D02*
X622171Y634393D01*
X622171Y636562D02*
X627763Y636562D01*
X627763Y638731D02*
X622171Y638731D01*
X632585Y627886D02*
X638177Y627886D01*
X632585Y627886D02*
X632585Y639574D01*
X638177Y639574D01*
X638177Y627886D01*
X638177Y630055D02*
X632585Y630055D01*
X632585Y632224D02*
X638177Y632224D01*
X638177Y634393D02*
X632585Y634393D01*
X632585Y636562D02*
X638177Y636562D01*
X638177Y638731D02*
X632585Y638731D01*
D10*
X795020Y58420D03*
X1141984Y393446D03*
D11*
X1054240Y5892D02*
X1051760Y5892D01*
X1051760Y24372D01*
X1054240Y24372D01*
X1054240Y5892D01*
X1054240Y8067D02*
X1051760Y8067D01*
X1051760Y10242D02*
X1054240Y10242D01*
X1054240Y12417D02*
X1051760Y12417D01*
X1051760Y14592D02*
X1054240Y14592D01*
X1054240Y16767D02*
X1051760Y16767D01*
X1051760Y18942D02*
X1054240Y18942D01*
X1054240Y21117D02*
X1051760Y21117D01*
X1051760Y23292D02*
X1054240Y23292D01*
X1049240Y5892D02*
X1046760Y5892D01*
X1046760Y24372D01*
X1049240Y24372D01*
X1049240Y5892D01*
X1049240Y8067D02*
X1046760Y8067D01*
X1046760Y10242D02*
X1049240Y10242D01*
X1049240Y12417D02*
X1046760Y12417D01*
X1046760Y14592D02*
X1049240Y14592D01*
X1049240Y16767D02*
X1046760Y16767D01*
X1046760Y18942D02*
X1049240Y18942D01*
X1049240Y21117D02*
X1046760Y21117D01*
X1046760Y23292D02*
X1049240Y23292D01*
X1044240Y5892D02*
X1041760Y5892D01*
X1041760Y24372D01*
X1044240Y24372D01*
X1044240Y5892D01*
X1044240Y8067D02*
X1041760Y8067D01*
X1041760Y10242D02*
X1044240Y10242D01*
X1044240Y12417D02*
X1041760Y12417D01*
X1041760Y14592D02*
X1044240Y14592D01*
X1044240Y16767D02*
X1041760Y16767D01*
X1041760Y18942D02*
X1044240Y18942D01*
X1044240Y21117D02*
X1041760Y21117D01*
X1041760Y23292D02*
X1044240Y23292D01*
X1039240Y5892D02*
X1036760Y5892D01*
X1036760Y24372D01*
X1039240Y24372D01*
X1039240Y5892D01*
X1039240Y8067D02*
X1036760Y8067D01*
X1036760Y10242D02*
X1039240Y10242D01*
X1039240Y12417D02*
X1036760Y12417D01*
X1036760Y14592D02*
X1039240Y14592D01*
X1039240Y16767D02*
X1036760Y16767D01*
X1036760Y18942D02*
X1039240Y18942D01*
X1039240Y21117D02*
X1036760Y21117D01*
X1036760Y23292D02*
X1039240Y23292D01*
X1034240Y5892D02*
X1031760Y5892D01*
X1031760Y24372D01*
X1034240Y24372D01*
X1034240Y5892D01*
X1034240Y8067D02*
X1031760Y8067D01*
X1031760Y10242D02*
X1034240Y10242D01*
X1034240Y12417D02*
X1031760Y12417D01*
X1031760Y14592D02*
X1034240Y14592D01*
X1034240Y16767D02*
X1031760Y16767D01*
X1031760Y18942D02*
X1034240Y18942D01*
X1034240Y21117D02*
X1031760Y21117D01*
X1031760Y23292D02*
X1034240Y23292D01*
X1029240Y5892D02*
X1026760Y5892D01*
X1026760Y24372D01*
X1029240Y24372D01*
X1029240Y5892D01*
X1029240Y8067D02*
X1026760Y8067D01*
X1026760Y10242D02*
X1029240Y10242D01*
X1029240Y12417D02*
X1026760Y12417D01*
X1026760Y14592D02*
X1029240Y14592D01*
X1029240Y16767D02*
X1026760Y16767D01*
X1026760Y18942D02*
X1029240Y18942D01*
X1029240Y21117D02*
X1026760Y21117D01*
X1026760Y23292D02*
X1029240Y23292D01*
X1024240Y5892D02*
X1021760Y5892D01*
X1021760Y24372D01*
X1024240Y24372D01*
X1024240Y5892D01*
X1024240Y8067D02*
X1021760Y8067D01*
X1021760Y10242D02*
X1024240Y10242D01*
X1024240Y12417D02*
X1021760Y12417D01*
X1021760Y14592D02*
X1024240Y14592D01*
X1024240Y16767D02*
X1021760Y16767D01*
X1021760Y18942D02*
X1024240Y18942D01*
X1024240Y21117D02*
X1021760Y21117D01*
X1021760Y23292D02*
X1024240Y23292D01*
X1019240Y5892D02*
X1016760Y5892D01*
X1016760Y24372D01*
X1019240Y24372D01*
X1019240Y5892D01*
X1019240Y8067D02*
X1016760Y8067D01*
X1016760Y10242D02*
X1019240Y10242D01*
X1019240Y12417D02*
X1016760Y12417D01*
X1016760Y14592D02*
X1019240Y14592D01*
X1019240Y16767D02*
X1016760Y16767D01*
X1016760Y18942D02*
X1019240Y18942D01*
X1019240Y21117D02*
X1016760Y21117D01*
X1016760Y23292D02*
X1019240Y23292D01*
X1014240Y5892D02*
X1011760Y5892D01*
X1011760Y24372D01*
X1014240Y24372D01*
X1014240Y5892D01*
X1014240Y8067D02*
X1011760Y8067D01*
X1011760Y10242D02*
X1014240Y10242D01*
X1014240Y12417D02*
X1011760Y12417D01*
X1011760Y14592D02*
X1014240Y14592D01*
X1014240Y16767D02*
X1011760Y16767D01*
X1011760Y18942D02*
X1014240Y18942D01*
X1014240Y21117D02*
X1011760Y21117D01*
X1011760Y23292D02*
X1014240Y23292D01*
X1009240Y5892D02*
X1006760Y5892D01*
X1006760Y24372D01*
X1009240Y24372D01*
X1009240Y5892D01*
X1009240Y8067D02*
X1006760Y8067D01*
X1006760Y10242D02*
X1009240Y10242D01*
X1009240Y12417D02*
X1006760Y12417D01*
X1006760Y14592D02*
X1009240Y14592D01*
X1009240Y16767D02*
X1006760Y16767D01*
X1006760Y18942D02*
X1009240Y18942D01*
X1009240Y21117D02*
X1006760Y21117D01*
X1006760Y23292D02*
X1009240Y23292D01*
X1004240Y5892D02*
X1001760Y5892D01*
X1001760Y24372D01*
X1004240Y24372D01*
X1004240Y5892D01*
X1004240Y8067D02*
X1001760Y8067D01*
X1001760Y10242D02*
X1004240Y10242D01*
X1004240Y12417D02*
X1001760Y12417D01*
X1001760Y14592D02*
X1004240Y14592D01*
X1004240Y16767D02*
X1001760Y16767D01*
X1001760Y18942D02*
X1004240Y18942D01*
X1004240Y21117D02*
X1001760Y21117D01*
X1001760Y23292D02*
X1004240Y23292D01*
X979240Y5892D02*
X976760Y5892D01*
X976760Y24372D01*
X979240Y24372D01*
X979240Y5892D01*
X979240Y8067D02*
X976760Y8067D01*
X976760Y10242D02*
X979240Y10242D01*
X979240Y12417D02*
X976760Y12417D01*
X976760Y14592D02*
X979240Y14592D01*
X979240Y16767D02*
X976760Y16767D01*
X976760Y18942D02*
X979240Y18942D01*
X979240Y21117D02*
X976760Y21117D01*
X976760Y23292D02*
X979240Y23292D01*
X974240Y5892D02*
X971760Y5892D01*
X971760Y24372D01*
X974240Y24372D01*
X974240Y5892D01*
X974240Y8067D02*
X971760Y8067D01*
X971760Y10242D02*
X974240Y10242D01*
X974240Y12417D02*
X971760Y12417D01*
X971760Y14592D02*
X974240Y14592D01*
X974240Y16767D02*
X971760Y16767D01*
X971760Y18942D02*
X974240Y18942D01*
X974240Y21117D02*
X971760Y21117D01*
X971760Y23292D02*
X974240Y23292D01*
X969240Y5892D02*
X966760Y5892D01*
X966760Y24372D01*
X969240Y24372D01*
X969240Y5892D01*
X969240Y8067D02*
X966760Y8067D01*
X966760Y10242D02*
X969240Y10242D01*
X969240Y12417D02*
X966760Y12417D01*
X966760Y14592D02*
X969240Y14592D01*
X969240Y16767D02*
X966760Y16767D01*
X966760Y18942D02*
X969240Y18942D01*
X969240Y21117D02*
X966760Y21117D01*
X966760Y23292D02*
X969240Y23292D01*
X964240Y5892D02*
X961760Y5892D01*
X961760Y24372D01*
X964240Y24372D01*
X964240Y5892D01*
X964240Y8067D02*
X961760Y8067D01*
X961760Y10242D02*
X964240Y10242D01*
X964240Y12417D02*
X961760Y12417D01*
X961760Y14592D02*
X964240Y14592D01*
X964240Y16767D02*
X961760Y16767D01*
X961760Y18942D02*
X964240Y18942D01*
X964240Y21117D02*
X961760Y21117D01*
X961760Y23292D02*
X964240Y23292D01*
X959240Y5892D02*
X956760Y5892D01*
X956760Y24372D01*
X959240Y24372D01*
X959240Y5892D01*
X959240Y8067D02*
X956760Y8067D01*
X956760Y10242D02*
X959240Y10242D01*
X959240Y12417D02*
X956760Y12417D01*
X956760Y14592D02*
X959240Y14592D01*
X959240Y16767D02*
X956760Y16767D01*
X956760Y18942D02*
X959240Y18942D01*
X959240Y21117D02*
X956760Y21117D01*
X956760Y23292D02*
X959240Y23292D01*
X954240Y5892D02*
X951760Y5892D01*
X951760Y24372D01*
X954240Y24372D01*
X954240Y5892D01*
X954240Y8067D02*
X951760Y8067D01*
X951760Y10242D02*
X954240Y10242D01*
X954240Y12417D02*
X951760Y12417D01*
X951760Y14592D02*
X954240Y14592D01*
X954240Y16767D02*
X951760Y16767D01*
X951760Y18942D02*
X954240Y18942D01*
X954240Y21117D02*
X951760Y21117D01*
X951760Y23292D02*
X954240Y23292D01*
X949240Y5892D02*
X946760Y5892D01*
X946760Y24372D01*
X949240Y24372D01*
X949240Y5892D01*
X949240Y8067D02*
X946760Y8067D01*
X946760Y10242D02*
X949240Y10242D01*
X949240Y12417D02*
X946760Y12417D01*
X946760Y14592D02*
X949240Y14592D01*
X949240Y16767D02*
X946760Y16767D01*
X946760Y18942D02*
X949240Y18942D01*
X949240Y21117D02*
X946760Y21117D01*
X946760Y23292D02*
X949240Y23292D01*
X944240Y5892D02*
X941760Y5892D01*
X941760Y24372D01*
X944240Y24372D01*
X944240Y5892D01*
X944240Y8067D02*
X941760Y8067D01*
X941760Y10242D02*
X944240Y10242D01*
X944240Y12417D02*
X941760Y12417D01*
X941760Y14592D02*
X944240Y14592D01*
X944240Y16767D02*
X941760Y16767D01*
X941760Y18942D02*
X944240Y18942D01*
X944240Y21117D02*
X941760Y21117D01*
X941760Y23292D02*
X944240Y23292D01*
X939240Y5892D02*
X936760Y5892D01*
X936760Y24372D01*
X939240Y24372D01*
X939240Y5892D01*
X939240Y8067D02*
X936760Y8067D01*
X936760Y10242D02*
X939240Y10242D01*
X939240Y12417D02*
X936760Y12417D01*
X936760Y14592D02*
X939240Y14592D01*
X939240Y16767D02*
X936760Y16767D01*
X936760Y18942D02*
X939240Y18942D01*
X939240Y21117D02*
X936760Y21117D01*
X936760Y23292D02*
X939240Y23292D01*
X934240Y5892D02*
X931760Y5892D01*
X931760Y24372D01*
X934240Y24372D01*
X934240Y5892D01*
X934240Y8067D02*
X931760Y8067D01*
X931760Y10242D02*
X934240Y10242D01*
X934240Y12417D02*
X931760Y12417D01*
X931760Y14592D02*
X934240Y14592D01*
X934240Y16767D02*
X931760Y16767D01*
X931760Y18942D02*
X934240Y18942D01*
X934240Y21117D02*
X931760Y21117D01*
X931760Y23292D02*
X934240Y23292D01*
X929240Y5892D02*
X926760Y5892D01*
X926760Y24372D01*
X929240Y24372D01*
X929240Y5892D01*
X929240Y8067D02*
X926760Y8067D01*
X926760Y10242D02*
X929240Y10242D01*
X929240Y12417D02*
X926760Y12417D01*
X926760Y14592D02*
X929240Y14592D01*
X929240Y16767D02*
X926760Y16767D01*
X926760Y18942D02*
X929240Y18942D01*
X929240Y21117D02*
X926760Y21117D01*
X926760Y23292D02*
X929240Y23292D01*
X924240Y5892D02*
X921760Y5892D01*
X921760Y24372D01*
X924240Y24372D01*
X924240Y5892D01*
X924240Y8067D02*
X921760Y8067D01*
X921760Y10242D02*
X924240Y10242D01*
X924240Y12417D02*
X921760Y12417D01*
X921760Y14592D02*
X924240Y14592D01*
X924240Y16767D02*
X921760Y16767D01*
X921760Y18942D02*
X924240Y18942D01*
X924240Y21117D02*
X921760Y21117D01*
X921760Y23292D02*
X924240Y23292D01*
X919240Y5892D02*
X916760Y5892D01*
X916760Y24372D01*
X919240Y24372D01*
X919240Y5892D01*
X919240Y8067D02*
X916760Y8067D01*
X916760Y10242D02*
X919240Y10242D01*
X919240Y12417D02*
X916760Y12417D01*
X916760Y14592D02*
X919240Y14592D01*
X919240Y16767D02*
X916760Y16767D01*
X916760Y18942D02*
X919240Y18942D01*
X919240Y21117D02*
X916760Y21117D01*
X916760Y23292D02*
X919240Y23292D01*
X914240Y5892D02*
X911760Y5892D01*
X911760Y24372D01*
X914240Y24372D01*
X914240Y5892D01*
X914240Y8067D02*
X911760Y8067D01*
X911760Y10242D02*
X914240Y10242D01*
X914240Y12417D02*
X911760Y12417D01*
X911760Y14592D02*
X914240Y14592D01*
X914240Y16767D02*
X911760Y16767D01*
X911760Y18942D02*
X914240Y18942D01*
X914240Y21117D02*
X911760Y21117D01*
X911760Y23292D02*
X914240Y23292D01*
X909240Y5892D02*
X906760Y5892D01*
X906760Y24372D01*
X909240Y24372D01*
X909240Y5892D01*
X909240Y8067D02*
X906760Y8067D01*
X906760Y10242D02*
X909240Y10242D01*
X909240Y12417D02*
X906760Y12417D01*
X906760Y14592D02*
X909240Y14592D01*
X909240Y16767D02*
X906760Y16767D01*
X906760Y18942D02*
X909240Y18942D01*
X909240Y21117D02*
X906760Y21117D01*
X906760Y23292D02*
X909240Y23292D01*
X904240Y5892D02*
X901760Y5892D01*
X901760Y24372D01*
X904240Y24372D01*
X904240Y5892D01*
X904240Y8067D02*
X901760Y8067D01*
X901760Y10242D02*
X904240Y10242D01*
X904240Y12417D02*
X901760Y12417D01*
X901760Y14592D02*
X904240Y14592D01*
X904240Y16767D02*
X901760Y16767D01*
X901760Y18942D02*
X904240Y18942D01*
X904240Y21117D02*
X901760Y21117D01*
X901760Y23292D02*
X904240Y23292D01*
X899240Y5892D02*
X896760Y5892D01*
X896760Y24372D01*
X899240Y24372D01*
X899240Y5892D01*
X899240Y8067D02*
X896760Y8067D01*
X896760Y10242D02*
X899240Y10242D01*
X899240Y12417D02*
X896760Y12417D01*
X896760Y14592D02*
X899240Y14592D01*
X899240Y16767D02*
X896760Y16767D01*
X896760Y18942D02*
X899240Y18942D01*
X899240Y21117D02*
X896760Y21117D01*
X896760Y23292D02*
X899240Y23292D01*
X894240Y5892D02*
X891760Y5892D01*
X891760Y24372D01*
X894240Y24372D01*
X894240Y5892D01*
X894240Y8067D02*
X891760Y8067D01*
X891760Y10242D02*
X894240Y10242D01*
X894240Y12417D02*
X891760Y12417D01*
X891760Y14592D02*
X894240Y14592D01*
X894240Y16767D02*
X891760Y16767D01*
X891760Y18942D02*
X894240Y18942D01*
X894240Y21117D02*
X891760Y21117D01*
X891760Y23292D02*
X894240Y23292D01*
X889240Y5892D02*
X886760Y5892D01*
X886760Y24372D01*
X889240Y24372D01*
X889240Y5892D01*
X889240Y8067D02*
X886760Y8067D01*
X886760Y10242D02*
X889240Y10242D01*
X889240Y12417D02*
X886760Y12417D01*
X886760Y14592D02*
X889240Y14592D01*
X889240Y16767D02*
X886760Y16767D01*
X886760Y18942D02*
X889240Y18942D01*
X889240Y21117D02*
X886760Y21117D01*
X886760Y23292D02*
X889240Y23292D01*
X884240Y5892D02*
X881760Y5892D01*
X881760Y24372D01*
X884240Y24372D01*
X884240Y5892D01*
X884240Y8067D02*
X881760Y8067D01*
X881760Y10242D02*
X884240Y10242D01*
X884240Y12417D02*
X881760Y12417D01*
X881760Y14592D02*
X884240Y14592D01*
X884240Y16767D02*
X881760Y16767D01*
X881760Y18942D02*
X884240Y18942D01*
X884240Y21117D02*
X881760Y21117D01*
X881760Y23292D02*
X884240Y23292D01*
X879240Y5892D02*
X876760Y5892D01*
X876760Y24372D01*
X879240Y24372D01*
X879240Y5892D01*
X879240Y8067D02*
X876760Y8067D01*
X876760Y10242D02*
X879240Y10242D01*
X879240Y12417D02*
X876760Y12417D01*
X876760Y14592D02*
X879240Y14592D01*
X879240Y16767D02*
X876760Y16767D01*
X876760Y18942D02*
X879240Y18942D01*
X879240Y21117D02*
X876760Y21117D01*
X876760Y23292D02*
X879240Y23292D01*
X874240Y5892D02*
X871760Y5892D01*
X871760Y24372D01*
X874240Y24372D01*
X874240Y5892D01*
X874240Y8067D02*
X871760Y8067D01*
X871760Y10242D02*
X874240Y10242D01*
X874240Y12417D02*
X871760Y12417D01*
X871760Y14592D02*
X874240Y14592D01*
X874240Y16767D02*
X871760Y16767D01*
X871760Y18942D02*
X874240Y18942D01*
X874240Y21117D02*
X871760Y21117D01*
X871760Y23292D02*
X874240Y23292D01*
D12*
X1143000Y460882D03*
X1143000Y418882D03*
X1130000Y439882D03*
X783000Y418882D03*
X783000Y460882D03*
X796000Y439882D03*
D13*
X1049528Y396240D03*
D14*
X1128720Y599920D03*
X1070920Y599920D03*
D15*
X1013843Y627886D02*
X1008251Y627886D01*
X1008251Y639574D01*
X1013843Y639574D01*
X1013843Y627886D01*
X1013843Y630055D02*
X1008251Y630055D01*
X1008251Y632224D02*
X1013843Y632224D01*
X1013843Y634393D02*
X1008251Y634393D01*
X1008251Y636562D02*
X1013843Y636562D01*
X1013843Y638731D02*
X1008251Y638731D01*
X1018665Y627886D02*
X1024257Y627886D01*
X1018665Y627886D02*
X1018665Y639574D01*
X1024257Y639574D01*
X1024257Y627886D01*
X1024257Y630055D02*
X1018665Y630055D01*
X1018665Y632224D02*
X1024257Y632224D01*
X1024257Y634393D02*
X1018665Y634393D01*
X1018665Y636562D02*
X1024257Y636562D01*
X1024257Y638731D02*
X1018665Y638731D01*
D10*
X358140Y1304798D03*
X11176Y969772D03*
D11*
X98920Y1357326D02*
X101400Y1357326D01*
X101400Y1338846D01*
X98920Y1338846D01*
X98920Y1357326D01*
X98920Y1341021D02*
X101400Y1341021D01*
X101400Y1343196D02*
X98920Y1343196D01*
X98920Y1345371D02*
X101400Y1345371D01*
X101400Y1347546D02*
X98920Y1347546D01*
X98920Y1349721D02*
X101400Y1349721D01*
X101400Y1351896D02*
X98920Y1351896D01*
X98920Y1354071D02*
X101400Y1354071D01*
X101400Y1356246D02*
X98920Y1356246D01*
X103920Y1357326D02*
X106400Y1357326D01*
X106400Y1338846D01*
X103920Y1338846D01*
X103920Y1357326D01*
X103920Y1341021D02*
X106400Y1341021D01*
X106400Y1343196D02*
X103920Y1343196D01*
X103920Y1345371D02*
X106400Y1345371D01*
X106400Y1347546D02*
X103920Y1347546D01*
X103920Y1349721D02*
X106400Y1349721D01*
X106400Y1351896D02*
X103920Y1351896D01*
X103920Y1354071D02*
X106400Y1354071D01*
X106400Y1356246D02*
X103920Y1356246D01*
X108920Y1357326D02*
X111400Y1357326D01*
X111400Y1338846D01*
X108920Y1338846D01*
X108920Y1357326D01*
X108920Y1341021D02*
X111400Y1341021D01*
X111400Y1343196D02*
X108920Y1343196D01*
X108920Y1345371D02*
X111400Y1345371D01*
X111400Y1347546D02*
X108920Y1347546D01*
X108920Y1349721D02*
X111400Y1349721D01*
X111400Y1351896D02*
X108920Y1351896D01*
X108920Y1354071D02*
X111400Y1354071D01*
X111400Y1356246D02*
X108920Y1356246D01*
X113920Y1357326D02*
X116400Y1357326D01*
X116400Y1338846D01*
X113920Y1338846D01*
X113920Y1357326D01*
X113920Y1341021D02*
X116400Y1341021D01*
X116400Y1343196D02*
X113920Y1343196D01*
X113920Y1345371D02*
X116400Y1345371D01*
X116400Y1347546D02*
X113920Y1347546D01*
X113920Y1349721D02*
X116400Y1349721D01*
X116400Y1351896D02*
X113920Y1351896D01*
X113920Y1354071D02*
X116400Y1354071D01*
X116400Y1356246D02*
X113920Y1356246D01*
X118920Y1357326D02*
X121400Y1357326D01*
X121400Y1338846D01*
X118920Y1338846D01*
X118920Y1357326D01*
X118920Y1341021D02*
X121400Y1341021D01*
X121400Y1343196D02*
X118920Y1343196D01*
X118920Y1345371D02*
X121400Y1345371D01*
X121400Y1347546D02*
X118920Y1347546D01*
X118920Y1349721D02*
X121400Y1349721D01*
X121400Y1351896D02*
X118920Y1351896D01*
X118920Y1354071D02*
X121400Y1354071D01*
X121400Y1356246D02*
X118920Y1356246D01*
X123920Y1357326D02*
X126400Y1357326D01*
X126400Y1338846D01*
X123920Y1338846D01*
X123920Y1357326D01*
X123920Y1341021D02*
X126400Y1341021D01*
X126400Y1343196D02*
X123920Y1343196D01*
X123920Y1345371D02*
X126400Y1345371D01*
X126400Y1347546D02*
X123920Y1347546D01*
X123920Y1349721D02*
X126400Y1349721D01*
X126400Y1351896D02*
X123920Y1351896D01*
X123920Y1354071D02*
X126400Y1354071D01*
X126400Y1356246D02*
X123920Y1356246D01*
X128920Y1357326D02*
X131400Y1357326D01*
X131400Y1338846D01*
X128920Y1338846D01*
X128920Y1357326D01*
X128920Y1341021D02*
X131400Y1341021D01*
X131400Y1343196D02*
X128920Y1343196D01*
X128920Y1345371D02*
X131400Y1345371D01*
X131400Y1347546D02*
X128920Y1347546D01*
X128920Y1349721D02*
X131400Y1349721D01*
X131400Y1351896D02*
X128920Y1351896D01*
X128920Y1354071D02*
X131400Y1354071D01*
X131400Y1356246D02*
X128920Y1356246D01*
X133920Y1357326D02*
X136400Y1357326D01*
X136400Y1338846D01*
X133920Y1338846D01*
X133920Y1357326D01*
X133920Y1341021D02*
X136400Y1341021D01*
X136400Y1343196D02*
X133920Y1343196D01*
X133920Y1345371D02*
X136400Y1345371D01*
X136400Y1347546D02*
X133920Y1347546D01*
X133920Y1349721D02*
X136400Y1349721D01*
X136400Y1351896D02*
X133920Y1351896D01*
X133920Y1354071D02*
X136400Y1354071D01*
X136400Y1356246D02*
X133920Y1356246D01*
X138920Y1357326D02*
X141400Y1357326D01*
X141400Y1338846D01*
X138920Y1338846D01*
X138920Y1357326D01*
X138920Y1341021D02*
X141400Y1341021D01*
X141400Y1343196D02*
X138920Y1343196D01*
X138920Y1345371D02*
X141400Y1345371D01*
X141400Y1347546D02*
X138920Y1347546D01*
X138920Y1349721D02*
X141400Y1349721D01*
X141400Y1351896D02*
X138920Y1351896D01*
X138920Y1354071D02*
X141400Y1354071D01*
X141400Y1356246D02*
X138920Y1356246D01*
X143920Y1357326D02*
X146400Y1357326D01*
X146400Y1338846D01*
X143920Y1338846D01*
X143920Y1357326D01*
X143920Y1341021D02*
X146400Y1341021D01*
X146400Y1343196D02*
X143920Y1343196D01*
X143920Y1345371D02*
X146400Y1345371D01*
X146400Y1347546D02*
X143920Y1347546D01*
X143920Y1349721D02*
X146400Y1349721D01*
X146400Y1351896D02*
X143920Y1351896D01*
X143920Y1354071D02*
X146400Y1354071D01*
X146400Y1356246D02*
X143920Y1356246D01*
X148920Y1357326D02*
X151400Y1357326D01*
X151400Y1338846D01*
X148920Y1338846D01*
X148920Y1357326D01*
X148920Y1341021D02*
X151400Y1341021D01*
X151400Y1343196D02*
X148920Y1343196D01*
X148920Y1345371D02*
X151400Y1345371D01*
X151400Y1347546D02*
X148920Y1347546D01*
X148920Y1349721D02*
X151400Y1349721D01*
X151400Y1351896D02*
X148920Y1351896D01*
X148920Y1354071D02*
X151400Y1354071D01*
X151400Y1356246D02*
X148920Y1356246D01*
X173920Y1357326D02*
X176400Y1357326D01*
X176400Y1338846D01*
X173920Y1338846D01*
X173920Y1357326D01*
X173920Y1341021D02*
X176400Y1341021D01*
X176400Y1343196D02*
X173920Y1343196D01*
X173920Y1345371D02*
X176400Y1345371D01*
X176400Y1347546D02*
X173920Y1347546D01*
X173920Y1349721D02*
X176400Y1349721D01*
X176400Y1351896D02*
X173920Y1351896D01*
X173920Y1354071D02*
X176400Y1354071D01*
X176400Y1356246D02*
X173920Y1356246D01*
X178920Y1357326D02*
X181400Y1357326D01*
X181400Y1338846D01*
X178920Y1338846D01*
X178920Y1357326D01*
X178920Y1341021D02*
X181400Y1341021D01*
X181400Y1343196D02*
X178920Y1343196D01*
X178920Y1345371D02*
X181400Y1345371D01*
X181400Y1347546D02*
X178920Y1347546D01*
X178920Y1349721D02*
X181400Y1349721D01*
X181400Y1351896D02*
X178920Y1351896D01*
X178920Y1354071D02*
X181400Y1354071D01*
X181400Y1356246D02*
X178920Y1356246D01*
X183920Y1357326D02*
X186400Y1357326D01*
X186400Y1338846D01*
X183920Y1338846D01*
X183920Y1357326D01*
X183920Y1341021D02*
X186400Y1341021D01*
X186400Y1343196D02*
X183920Y1343196D01*
X183920Y1345371D02*
X186400Y1345371D01*
X186400Y1347546D02*
X183920Y1347546D01*
X183920Y1349721D02*
X186400Y1349721D01*
X186400Y1351896D02*
X183920Y1351896D01*
X183920Y1354071D02*
X186400Y1354071D01*
X186400Y1356246D02*
X183920Y1356246D01*
X188920Y1357326D02*
X191400Y1357326D01*
X191400Y1338846D01*
X188920Y1338846D01*
X188920Y1357326D01*
X188920Y1341021D02*
X191400Y1341021D01*
X191400Y1343196D02*
X188920Y1343196D01*
X188920Y1345371D02*
X191400Y1345371D01*
X191400Y1347546D02*
X188920Y1347546D01*
X188920Y1349721D02*
X191400Y1349721D01*
X191400Y1351896D02*
X188920Y1351896D01*
X188920Y1354071D02*
X191400Y1354071D01*
X191400Y1356246D02*
X188920Y1356246D01*
X193920Y1357326D02*
X196400Y1357326D01*
X196400Y1338846D01*
X193920Y1338846D01*
X193920Y1357326D01*
X193920Y1341021D02*
X196400Y1341021D01*
X196400Y1343196D02*
X193920Y1343196D01*
X193920Y1345371D02*
X196400Y1345371D01*
X196400Y1347546D02*
X193920Y1347546D01*
X193920Y1349721D02*
X196400Y1349721D01*
X196400Y1351896D02*
X193920Y1351896D01*
X193920Y1354071D02*
X196400Y1354071D01*
X196400Y1356246D02*
X193920Y1356246D01*
X198920Y1357326D02*
X201400Y1357326D01*
X201400Y1338846D01*
X198920Y1338846D01*
X198920Y1357326D01*
X198920Y1341021D02*
X201400Y1341021D01*
X201400Y1343196D02*
X198920Y1343196D01*
X198920Y1345371D02*
X201400Y1345371D01*
X201400Y1347546D02*
X198920Y1347546D01*
X198920Y1349721D02*
X201400Y1349721D01*
X201400Y1351896D02*
X198920Y1351896D01*
X198920Y1354071D02*
X201400Y1354071D01*
X201400Y1356246D02*
X198920Y1356246D01*
X203920Y1357326D02*
X206400Y1357326D01*
X206400Y1338846D01*
X203920Y1338846D01*
X203920Y1357326D01*
X203920Y1341021D02*
X206400Y1341021D01*
X206400Y1343196D02*
X203920Y1343196D01*
X203920Y1345371D02*
X206400Y1345371D01*
X206400Y1347546D02*
X203920Y1347546D01*
X203920Y1349721D02*
X206400Y1349721D01*
X206400Y1351896D02*
X203920Y1351896D01*
X203920Y1354071D02*
X206400Y1354071D01*
X206400Y1356246D02*
X203920Y1356246D01*
X208920Y1357326D02*
X211400Y1357326D01*
X211400Y1338846D01*
X208920Y1338846D01*
X208920Y1357326D01*
X208920Y1341021D02*
X211400Y1341021D01*
X211400Y1343196D02*
X208920Y1343196D01*
X208920Y1345371D02*
X211400Y1345371D01*
X211400Y1347546D02*
X208920Y1347546D01*
X208920Y1349721D02*
X211400Y1349721D01*
X211400Y1351896D02*
X208920Y1351896D01*
X208920Y1354071D02*
X211400Y1354071D01*
X211400Y1356246D02*
X208920Y1356246D01*
X213920Y1357326D02*
X216400Y1357326D01*
X216400Y1338846D01*
X213920Y1338846D01*
X213920Y1357326D01*
X213920Y1341021D02*
X216400Y1341021D01*
X216400Y1343196D02*
X213920Y1343196D01*
X213920Y1345371D02*
X216400Y1345371D01*
X216400Y1347546D02*
X213920Y1347546D01*
X213920Y1349721D02*
X216400Y1349721D01*
X216400Y1351896D02*
X213920Y1351896D01*
X213920Y1354071D02*
X216400Y1354071D01*
X216400Y1356246D02*
X213920Y1356246D01*
X218920Y1357326D02*
X221400Y1357326D01*
X221400Y1338846D01*
X218920Y1338846D01*
X218920Y1357326D01*
X218920Y1341021D02*
X221400Y1341021D01*
X221400Y1343196D02*
X218920Y1343196D01*
X218920Y1345371D02*
X221400Y1345371D01*
X221400Y1347546D02*
X218920Y1347546D01*
X218920Y1349721D02*
X221400Y1349721D01*
X221400Y1351896D02*
X218920Y1351896D01*
X218920Y1354071D02*
X221400Y1354071D01*
X221400Y1356246D02*
X218920Y1356246D01*
X223920Y1357326D02*
X226400Y1357326D01*
X226400Y1338846D01*
X223920Y1338846D01*
X223920Y1357326D01*
X223920Y1341021D02*
X226400Y1341021D01*
X226400Y1343196D02*
X223920Y1343196D01*
X223920Y1345371D02*
X226400Y1345371D01*
X226400Y1347546D02*
X223920Y1347546D01*
X223920Y1349721D02*
X226400Y1349721D01*
X226400Y1351896D02*
X223920Y1351896D01*
X223920Y1354071D02*
X226400Y1354071D01*
X226400Y1356246D02*
X223920Y1356246D01*
X228920Y1357326D02*
X231400Y1357326D01*
X231400Y1338846D01*
X228920Y1338846D01*
X228920Y1357326D01*
X228920Y1341021D02*
X231400Y1341021D01*
X231400Y1343196D02*
X228920Y1343196D01*
X228920Y1345371D02*
X231400Y1345371D01*
X231400Y1347546D02*
X228920Y1347546D01*
X228920Y1349721D02*
X231400Y1349721D01*
X231400Y1351896D02*
X228920Y1351896D01*
X228920Y1354071D02*
X231400Y1354071D01*
X231400Y1356246D02*
X228920Y1356246D01*
X233920Y1357326D02*
X236400Y1357326D01*
X236400Y1338846D01*
X233920Y1338846D01*
X233920Y1357326D01*
X233920Y1341021D02*
X236400Y1341021D01*
X236400Y1343196D02*
X233920Y1343196D01*
X233920Y1345371D02*
X236400Y1345371D01*
X236400Y1347546D02*
X233920Y1347546D01*
X233920Y1349721D02*
X236400Y1349721D01*
X236400Y1351896D02*
X233920Y1351896D01*
X233920Y1354071D02*
X236400Y1354071D01*
X236400Y1356246D02*
X233920Y1356246D01*
X238920Y1357326D02*
X241400Y1357326D01*
X241400Y1338846D01*
X238920Y1338846D01*
X238920Y1357326D01*
X238920Y1341021D02*
X241400Y1341021D01*
X241400Y1343196D02*
X238920Y1343196D01*
X238920Y1345371D02*
X241400Y1345371D01*
X241400Y1347546D02*
X238920Y1347546D01*
X238920Y1349721D02*
X241400Y1349721D01*
X241400Y1351896D02*
X238920Y1351896D01*
X238920Y1354071D02*
X241400Y1354071D01*
X241400Y1356246D02*
X238920Y1356246D01*
X243920Y1357326D02*
X246400Y1357326D01*
X246400Y1338846D01*
X243920Y1338846D01*
X243920Y1357326D01*
X243920Y1341021D02*
X246400Y1341021D01*
X246400Y1343196D02*
X243920Y1343196D01*
X243920Y1345371D02*
X246400Y1345371D01*
X246400Y1347546D02*
X243920Y1347546D01*
X243920Y1349721D02*
X246400Y1349721D01*
X246400Y1351896D02*
X243920Y1351896D01*
X243920Y1354071D02*
X246400Y1354071D01*
X246400Y1356246D02*
X243920Y1356246D01*
X248920Y1357326D02*
X251400Y1357326D01*
X251400Y1338846D01*
X248920Y1338846D01*
X248920Y1357326D01*
X248920Y1341021D02*
X251400Y1341021D01*
X251400Y1343196D02*
X248920Y1343196D01*
X248920Y1345371D02*
X251400Y1345371D01*
X251400Y1347546D02*
X248920Y1347546D01*
X248920Y1349721D02*
X251400Y1349721D01*
X251400Y1351896D02*
X248920Y1351896D01*
X248920Y1354071D02*
X251400Y1354071D01*
X251400Y1356246D02*
X248920Y1356246D01*
X253920Y1357326D02*
X256400Y1357326D01*
X256400Y1338846D01*
X253920Y1338846D01*
X253920Y1357326D01*
X253920Y1341021D02*
X256400Y1341021D01*
X256400Y1343196D02*
X253920Y1343196D01*
X253920Y1345371D02*
X256400Y1345371D01*
X256400Y1347546D02*
X253920Y1347546D01*
X253920Y1349721D02*
X256400Y1349721D01*
X256400Y1351896D02*
X253920Y1351896D01*
X253920Y1354071D02*
X256400Y1354071D01*
X256400Y1356246D02*
X253920Y1356246D01*
X258920Y1357326D02*
X261400Y1357326D01*
X261400Y1338846D01*
X258920Y1338846D01*
X258920Y1357326D01*
X258920Y1341021D02*
X261400Y1341021D01*
X261400Y1343196D02*
X258920Y1343196D01*
X258920Y1345371D02*
X261400Y1345371D01*
X261400Y1347546D02*
X258920Y1347546D01*
X258920Y1349721D02*
X261400Y1349721D01*
X261400Y1351896D02*
X258920Y1351896D01*
X258920Y1354071D02*
X261400Y1354071D01*
X261400Y1356246D02*
X258920Y1356246D01*
X263920Y1357326D02*
X266400Y1357326D01*
X266400Y1338846D01*
X263920Y1338846D01*
X263920Y1357326D01*
X263920Y1341021D02*
X266400Y1341021D01*
X266400Y1343196D02*
X263920Y1343196D01*
X263920Y1345371D02*
X266400Y1345371D01*
X266400Y1347546D02*
X263920Y1347546D01*
X263920Y1349721D02*
X266400Y1349721D01*
X266400Y1351896D02*
X263920Y1351896D01*
X263920Y1354071D02*
X266400Y1354071D01*
X266400Y1356246D02*
X263920Y1356246D01*
X268920Y1357326D02*
X271400Y1357326D01*
X271400Y1338846D01*
X268920Y1338846D01*
X268920Y1357326D01*
X268920Y1341021D02*
X271400Y1341021D01*
X271400Y1343196D02*
X268920Y1343196D01*
X268920Y1345371D02*
X271400Y1345371D01*
X271400Y1347546D02*
X268920Y1347546D01*
X268920Y1349721D02*
X271400Y1349721D01*
X271400Y1351896D02*
X268920Y1351896D01*
X268920Y1354071D02*
X271400Y1354071D01*
X271400Y1356246D02*
X268920Y1356246D01*
X273920Y1357326D02*
X276400Y1357326D01*
X276400Y1338846D01*
X273920Y1338846D01*
X273920Y1357326D01*
X273920Y1341021D02*
X276400Y1341021D01*
X276400Y1343196D02*
X273920Y1343196D01*
X273920Y1345371D02*
X276400Y1345371D01*
X276400Y1347546D02*
X273920Y1347546D01*
X273920Y1349721D02*
X276400Y1349721D01*
X276400Y1351896D02*
X273920Y1351896D01*
X273920Y1354071D02*
X276400Y1354071D01*
X276400Y1356246D02*
X273920Y1356246D01*
X278920Y1357326D02*
X281400Y1357326D01*
X281400Y1338846D01*
X278920Y1338846D01*
X278920Y1357326D01*
X278920Y1341021D02*
X281400Y1341021D01*
X281400Y1343196D02*
X278920Y1343196D01*
X278920Y1345371D02*
X281400Y1345371D01*
X281400Y1347546D02*
X278920Y1347546D01*
X278920Y1349721D02*
X281400Y1349721D01*
X281400Y1351896D02*
X278920Y1351896D01*
X278920Y1354071D02*
X281400Y1354071D01*
X281400Y1356246D02*
X278920Y1356246D01*
D12*
X10160Y902336D03*
X10160Y944336D03*
X23160Y923336D03*
X370160Y944336D03*
X370160Y902336D03*
X357160Y923336D03*
D13*
X103632Y966978D03*
D14*
X24440Y763298D03*
X82240Y763298D03*
D15*
X139317Y735332D02*
X144909Y735332D01*
X144909Y723644D01*
X139317Y723644D01*
X139317Y735332D01*
X139317Y725813D02*
X144909Y725813D01*
X144909Y727982D02*
X139317Y727982D01*
X139317Y730151D02*
X144909Y730151D01*
X144909Y732320D02*
X139317Y732320D01*
X139317Y734489D02*
X144909Y734489D01*
X134495Y735332D02*
X128903Y735332D01*
X134495Y735332D02*
X134495Y723644D01*
X128903Y723644D01*
X128903Y735332D01*
X128903Y725813D02*
X134495Y725813D01*
X134495Y727982D02*
X128903Y727982D01*
X128903Y730151D02*
X134495Y730151D01*
X134495Y732320D02*
X128903Y732320D01*
X128903Y734489D02*
X134495Y734489D01*
D10*
X744220Y1304798D03*
X397256Y969772D03*
D11*
X485000Y1357326D02*
X487480Y1357326D01*
X487480Y1338846D01*
X485000Y1338846D01*
X485000Y1357326D01*
X485000Y1341021D02*
X487480Y1341021D01*
X487480Y1343196D02*
X485000Y1343196D01*
X485000Y1345371D02*
X487480Y1345371D01*
X487480Y1347546D02*
X485000Y1347546D01*
X485000Y1349721D02*
X487480Y1349721D01*
X487480Y1351896D02*
X485000Y1351896D01*
X485000Y1354071D02*
X487480Y1354071D01*
X487480Y1356246D02*
X485000Y1356246D01*
X490000Y1357326D02*
X492480Y1357326D01*
X492480Y1338846D01*
X490000Y1338846D01*
X490000Y1357326D01*
X490000Y1341021D02*
X492480Y1341021D01*
X492480Y1343196D02*
X490000Y1343196D01*
X490000Y1345371D02*
X492480Y1345371D01*
X492480Y1347546D02*
X490000Y1347546D01*
X490000Y1349721D02*
X492480Y1349721D01*
X492480Y1351896D02*
X490000Y1351896D01*
X490000Y1354071D02*
X492480Y1354071D01*
X492480Y1356246D02*
X490000Y1356246D01*
X495000Y1357326D02*
X497480Y1357326D01*
X497480Y1338846D01*
X495000Y1338846D01*
X495000Y1357326D01*
X495000Y1341021D02*
X497480Y1341021D01*
X497480Y1343196D02*
X495000Y1343196D01*
X495000Y1345371D02*
X497480Y1345371D01*
X497480Y1347546D02*
X495000Y1347546D01*
X495000Y1349721D02*
X497480Y1349721D01*
X497480Y1351896D02*
X495000Y1351896D01*
X495000Y1354071D02*
X497480Y1354071D01*
X497480Y1356246D02*
X495000Y1356246D01*
X500000Y1357326D02*
X502480Y1357326D01*
X502480Y1338846D01*
X500000Y1338846D01*
X500000Y1357326D01*
X500000Y1341021D02*
X502480Y1341021D01*
X502480Y1343196D02*
X500000Y1343196D01*
X500000Y1345371D02*
X502480Y1345371D01*
X502480Y1347546D02*
X500000Y1347546D01*
X500000Y1349721D02*
X502480Y1349721D01*
X502480Y1351896D02*
X500000Y1351896D01*
X500000Y1354071D02*
X502480Y1354071D01*
X502480Y1356246D02*
X500000Y1356246D01*
X505000Y1357326D02*
X507480Y1357326D01*
X507480Y1338846D01*
X505000Y1338846D01*
X505000Y1357326D01*
X505000Y1341021D02*
X507480Y1341021D01*
X507480Y1343196D02*
X505000Y1343196D01*
X505000Y1345371D02*
X507480Y1345371D01*
X507480Y1347546D02*
X505000Y1347546D01*
X505000Y1349721D02*
X507480Y1349721D01*
X507480Y1351896D02*
X505000Y1351896D01*
X505000Y1354071D02*
X507480Y1354071D01*
X507480Y1356246D02*
X505000Y1356246D01*
X510000Y1357326D02*
X512480Y1357326D01*
X512480Y1338846D01*
X510000Y1338846D01*
X510000Y1357326D01*
X510000Y1341021D02*
X512480Y1341021D01*
X512480Y1343196D02*
X510000Y1343196D01*
X510000Y1345371D02*
X512480Y1345371D01*
X512480Y1347546D02*
X510000Y1347546D01*
X510000Y1349721D02*
X512480Y1349721D01*
X512480Y1351896D02*
X510000Y1351896D01*
X510000Y1354071D02*
X512480Y1354071D01*
X512480Y1356246D02*
X510000Y1356246D01*
X515000Y1357326D02*
X517480Y1357326D01*
X517480Y1338846D01*
X515000Y1338846D01*
X515000Y1357326D01*
X515000Y1341021D02*
X517480Y1341021D01*
X517480Y1343196D02*
X515000Y1343196D01*
X515000Y1345371D02*
X517480Y1345371D01*
X517480Y1347546D02*
X515000Y1347546D01*
X515000Y1349721D02*
X517480Y1349721D01*
X517480Y1351896D02*
X515000Y1351896D01*
X515000Y1354071D02*
X517480Y1354071D01*
X517480Y1356246D02*
X515000Y1356246D01*
X520000Y1357326D02*
X522480Y1357326D01*
X522480Y1338846D01*
X520000Y1338846D01*
X520000Y1357326D01*
X520000Y1341021D02*
X522480Y1341021D01*
X522480Y1343196D02*
X520000Y1343196D01*
X520000Y1345371D02*
X522480Y1345371D01*
X522480Y1347546D02*
X520000Y1347546D01*
X520000Y1349721D02*
X522480Y1349721D01*
X522480Y1351896D02*
X520000Y1351896D01*
X520000Y1354071D02*
X522480Y1354071D01*
X522480Y1356246D02*
X520000Y1356246D01*
X525000Y1357326D02*
X527480Y1357326D01*
X527480Y1338846D01*
X525000Y1338846D01*
X525000Y1357326D01*
X525000Y1341021D02*
X527480Y1341021D01*
X527480Y1343196D02*
X525000Y1343196D01*
X525000Y1345371D02*
X527480Y1345371D01*
X527480Y1347546D02*
X525000Y1347546D01*
X525000Y1349721D02*
X527480Y1349721D01*
X527480Y1351896D02*
X525000Y1351896D01*
X525000Y1354071D02*
X527480Y1354071D01*
X527480Y1356246D02*
X525000Y1356246D01*
X530000Y1357326D02*
X532480Y1357326D01*
X532480Y1338846D01*
X530000Y1338846D01*
X530000Y1357326D01*
X530000Y1341021D02*
X532480Y1341021D01*
X532480Y1343196D02*
X530000Y1343196D01*
X530000Y1345371D02*
X532480Y1345371D01*
X532480Y1347546D02*
X530000Y1347546D01*
X530000Y1349721D02*
X532480Y1349721D01*
X532480Y1351896D02*
X530000Y1351896D01*
X530000Y1354071D02*
X532480Y1354071D01*
X532480Y1356246D02*
X530000Y1356246D01*
X535000Y1357326D02*
X537480Y1357326D01*
X537480Y1338846D01*
X535000Y1338846D01*
X535000Y1357326D01*
X535000Y1341021D02*
X537480Y1341021D01*
X537480Y1343196D02*
X535000Y1343196D01*
X535000Y1345371D02*
X537480Y1345371D01*
X537480Y1347546D02*
X535000Y1347546D01*
X535000Y1349721D02*
X537480Y1349721D01*
X537480Y1351896D02*
X535000Y1351896D01*
X535000Y1354071D02*
X537480Y1354071D01*
X537480Y1356246D02*
X535000Y1356246D01*
X560000Y1357326D02*
X562480Y1357326D01*
X562480Y1338846D01*
X560000Y1338846D01*
X560000Y1357326D01*
X560000Y1341021D02*
X562480Y1341021D01*
X562480Y1343196D02*
X560000Y1343196D01*
X560000Y1345371D02*
X562480Y1345371D01*
X562480Y1347546D02*
X560000Y1347546D01*
X560000Y1349721D02*
X562480Y1349721D01*
X562480Y1351896D02*
X560000Y1351896D01*
X560000Y1354071D02*
X562480Y1354071D01*
X562480Y1356246D02*
X560000Y1356246D01*
X565000Y1357326D02*
X567480Y1357326D01*
X567480Y1338846D01*
X565000Y1338846D01*
X565000Y1357326D01*
X565000Y1341021D02*
X567480Y1341021D01*
X567480Y1343196D02*
X565000Y1343196D01*
X565000Y1345371D02*
X567480Y1345371D01*
X567480Y1347546D02*
X565000Y1347546D01*
X565000Y1349721D02*
X567480Y1349721D01*
X567480Y1351896D02*
X565000Y1351896D01*
X565000Y1354071D02*
X567480Y1354071D01*
X567480Y1356246D02*
X565000Y1356246D01*
X570000Y1357326D02*
X572480Y1357326D01*
X572480Y1338846D01*
X570000Y1338846D01*
X570000Y1357326D01*
X570000Y1341021D02*
X572480Y1341021D01*
X572480Y1343196D02*
X570000Y1343196D01*
X570000Y1345371D02*
X572480Y1345371D01*
X572480Y1347546D02*
X570000Y1347546D01*
X570000Y1349721D02*
X572480Y1349721D01*
X572480Y1351896D02*
X570000Y1351896D01*
X570000Y1354071D02*
X572480Y1354071D01*
X572480Y1356246D02*
X570000Y1356246D01*
X575000Y1357326D02*
X577480Y1357326D01*
X577480Y1338846D01*
X575000Y1338846D01*
X575000Y1357326D01*
X575000Y1341021D02*
X577480Y1341021D01*
X577480Y1343196D02*
X575000Y1343196D01*
X575000Y1345371D02*
X577480Y1345371D01*
X577480Y1347546D02*
X575000Y1347546D01*
X575000Y1349721D02*
X577480Y1349721D01*
X577480Y1351896D02*
X575000Y1351896D01*
X575000Y1354071D02*
X577480Y1354071D01*
X577480Y1356246D02*
X575000Y1356246D01*
X580000Y1357326D02*
X582480Y1357326D01*
X582480Y1338846D01*
X580000Y1338846D01*
X580000Y1357326D01*
X580000Y1341021D02*
X582480Y1341021D01*
X582480Y1343196D02*
X580000Y1343196D01*
X580000Y1345371D02*
X582480Y1345371D01*
X582480Y1347546D02*
X580000Y1347546D01*
X580000Y1349721D02*
X582480Y1349721D01*
X582480Y1351896D02*
X580000Y1351896D01*
X580000Y1354071D02*
X582480Y1354071D01*
X582480Y1356246D02*
X580000Y1356246D01*
X585000Y1357326D02*
X587480Y1357326D01*
X587480Y1338846D01*
X585000Y1338846D01*
X585000Y1357326D01*
X585000Y1341021D02*
X587480Y1341021D01*
X587480Y1343196D02*
X585000Y1343196D01*
X585000Y1345371D02*
X587480Y1345371D01*
X587480Y1347546D02*
X585000Y1347546D01*
X585000Y1349721D02*
X587480Y1349721D01*
X587480Y1351896D02*
X585000Y1351896D01*
X585000Y1354071D02*
X587480Y1354071D01*
X587480Y1356246D02*
X585000Y1356246D01*
X590000Y1357326D02*
X592480Y1357326D01*
X592480Y1338846D01*
X590000Y1338846D01*
X590000Y1357326D01*
X590000Y1341021D02*
X592480Y1341021D01*
X592480Y1343196D02*
X590000Y1343196D01*
X590000Y1345371D02*
X592480Y1345371D01*
X592480Y1347546D02*
X590000Y1347546D01*
X590000Y1349721D02*
X592480Y1349721D01*
X592480Y1351896D02*
X590000Y1351896D01*
X590000Y1354071D02*
X592480Y1354071D01*
X592480Y1356246D02*
X590000Y1356246D01*
X595000Y1357326D02*
X597480Y1357326D01*
X597480Y1338846D01*
X595000Y1338846D01*
X595000Y1357326D01*
X595000Y1341021D02*
X597480Y1341021D01*
X597480Y1343196D02*
X595000Y1343196D01*
X595000Y1345371D02*
X597480Y1345371D01*
X597480Y1347546D02*
X595000Y1347546D01*
X595000Y1349721D02*
X597480Y1349721D01*
X597480Y1351896D02*
X595000Y1351896D01*
X595000Y1354071D02*
X597480Y1354071D01*
X597480Y1356246D02*
X595000Y1356246D01*
X600000Y1357326D02*
X602480Y1357326D01*
X602480Y1338846D01*
X600000Y1338846D01*
X600000Y1357326D01*
X600000Y1341021D02*
X602480Y1341021D01*
X602480Y1343196D02*
X600000Y1343196D01*
X600000Y1345371D02*
X602480Y1345371D01*
X602480Y1347546D02*
X600000Y1347546D01*
X600000Y1349721D02*
X602480Y1349721D01*
X602480Y1351896D02*
X600000Y1351896D01*
X600000Y1354071D02*
X602480Y1354071D01*
X602480Y1356246D02*
X600000Y1356246D01*
X605000Y1357326D02*
X607480Y1357326D01*
X607480Y1338846D01*
X605000Y1338846D01*
X605000Y1357326D01*
X605000Y1341021D02*
X607480Y1341021D01*
X607480Y1343196D02*
X605000Y1343196D01*
X605000Y1345371D02*
X607480Y1345371D01*
X607480Y1347546D02*
X605000Y1347546D01*
X605000Y1349721D02*
X607480Y1349721D01*
X607480Y1351896D02*
X605000Y1351896D01*
X605000Y1354071D02*
X607480Y1354071D01*
X607480Y1356246D02*
X605000Y1356246D01*
X610000Y1357326D02*
X612480Y1357326D01*
X612480Y1338846D01*
X610000Y1338846D01*
X610000Y1357326D01*
X610000Y1341021D02*
X612480Y1341021D01*
X612480Y1343196D02*
X610000Y1343196D01*
X610000Y1345371D02*
X612480Y1345371D01*
X612480Y1347546D02*
X610000Y1347546D01*
X610000Y1349721D02*
X612480Y1349721D01*
X612480Y1351896D02*
X610000Y1351896D01*
X610000Y1354071D02*
X612480Y1354071D01*
X612480Y1356246D02*
X610000Y1356246D01*
X615000Y1357326D02*
X617480Y1357326D01*
X617480Y1338846D01*
X615000Y1338846D01*
X615000Y1357326D01*
X615000Y1341021D02*
X617480Y1341021D01*
X617480Y1343196D02*
X615000Y1343196D01*
X615000Y1345371D02*
X617480Y1345371D01*
X617480Y1347546D02*
X615000Y1347546D01*
X615000Y1349721D02*
X617480Y1349721D01*
X617480Y1351896D02*
X615000Y1351896D01*
X615000Y1354071D02*
X617480Y1354071D01*
X617480Y1356246D02*
X615000Y1356246D01*
X620000Y1357326D02*
X622480Y1357326D01*
X622480Y1338846D01*
X620000Y1338846D01*
X620000Y1357326D01*
X620000Y1341021D02*
X622480Y1341021D01*
X622480Y1343196D02*
X620000Y1343196D01*
X620000Y1345371D02*
X622480Y1345371D01*
X622480Y1347546D02*
X620000Y1347546D01*
X620000Y1349721D02*
X622480Y1349721D01*
X622480Y1351896D02*
X620000Y1351896D01*
X620000Y1354071D02*
X622480Y1354071D01*
X622480Y1356246D02*
X620000Y1356246D01*
X625000Y1357326D02*
X627480Y1357326D01*
X627480Y1338846D01*
X625000Y1338846D01*
X625000Y1357326D01*
X625000Y1341021D02*
X627480Y1341021D01*
X627480Y1343196D02*
X625000Y1343196D01*
X625000Y1345371D02*
X627480Y1345371D01*
X627480Y1347546D02*
X625000Y1347546D01*
X625000Y1349721D02*
X627480Y1349721D01*
X627480Y1351896D02*
X625000Y1351896D01*
X625000Y1354071D02*
X627480Y1354071D01*
X627480Y1356246D02*
X625000Y1356246D01*
X630000Y1357326D02*
X632480Y1357326D01*
X632480Y1338846D01*
X630000Y1338846D01*
X630000Y1357326D01*
X630000Y1341021D02*
X632480Y1341021D01*
X632480Y1343196D02*
X630000Y1343196D01*
X630000Y1345371D02*
X632480Y1345371D01*
X632480Y1347546D02*
X630000Y1347546D01*
X630000Y1349721D02*
X632480Y1349721D01*
X632480Y1351896D02*
X630000Y1351896D01*
X630000Y1354071D02*
X632480Y1354071D01*
X632480Y1356246D02*
X630000Y1356246D01*
X635000Y1357326D02*
X637480Y1357326D01*
X637480Y1338846D01*
X635000Y1338846D01*
X635000Y1357326D01*
X635000Y1341021D02*
X637480Y1341021D01*
X637480Y1343196D02*
X635000Y1343196D01*
X635000Y1345371D02*
X637480Y1345371D01*
X637480Y1347546D02*
X635000Y1347546D01*
X635000Y1349721D02*
X637480Y1349721D01*
X637480Y1351896D02*
X635000Y1351896D01*
X635000Y1354071D02*
X637480Y1354071D01*
X637480Y1356246D02*
X635000Y1356246D01*
X640000Y1357326D02*
X642480Y1357326D01*
X642480Y1338846D01*
X640000Y1338846D01*
X640000Y1357326D01*
X640000Y1341021D02*
X642480Y1341021D01*
X642480Y1343196D02*
X640000Y1343196D01*
X640000Y1345371D02*
X642480Y1345371D01*
X642480Y1347546D02*
X640000Y1347546D01*
X640000Y1349721D02*
X642480Y1349721D01*
X642480Y1351896D02*
X640000Y1351896D01*
X640000Y1354071D02*
X642480Y1354071D01*
X642480Y1356246D02*
X640000Y1356246D01*
X645000Y1357326D02*
X647480Y1357326D01*
X647480Y1338846D01*
X645000Y1338846D01*
X645000Y1357326D01*
X645000Y1341021D02*
X647480Y1341021D01*
X647480Y1343196D02*
X645000Y1343196D01*
X645000Y1345371D02*
X647480Y1345371D01*
X647480Y1347546D02*
X645000Y1347546D01*
X645000Y1349721D02*
X647480Y1349721D01*
X647480Y1351896D02*
X645000Y1351896D01*
X645000Y1354071D02*
X647480Y1354071D01*
X647480Y1356246D02*
X645000Y1356246D01*
X650000Y1357326D02*
X652480Y1357326D01*
X652480Y1338846D01*
X650000Y1338846D01*
X650000Y1357326D01*
X650000Y1341021D02*
X652480Y1341021D01*
X652480Y1343196D02*
X650000Y1343196D01*
X650000Y1345371D02*
X652480Y1345371D01*
X652480Y1347546D02*
X650000Y1347546D01*
X650000Y1349721D02*
X652480Y1349721D01*
X652480Y1351896D02*
X650000Y1351896D01*
X650000Y1354071D02*
X652480Y1354071D01*
X652480Y1356246D02*
X650000Y1356246D01*
X655000Y1357326D02*
X657480Y1357326D01*
X657480Y1338846D01*
X655000Y1338846D01*
X655000Y1357326D01*
X655000Y1341021D02*
X657480Y1341021D01*
X657480Y1343196D02*
X655000Y1343196D01*
X655000Y1345371D02*
X657480Y1345371D01*
X657480Y1347546D02*
X655000Y1347546D01*
X655000Y1349721D02*
X657480Y1349721D01*
X657480Y1351896D02*
X655000Y1351896D01*
X655000Y1354071D02*
X657480Y1354071D01*
X657480Y1356246D02*
X655000Y1356246D01*
X660000Y1357326D02*
X662480Y1357326D01*
X662480Y1338846D01*
X660000Y1338846D01*
X660000Y1357326D01*
X660000Y1341021D02*
X662480Y1341021D01*
X662480Y1343196D02*
X660000Y1343196D01*
X660000Y1345371D02*
X662480Y1345371D01*
X662480Y1347546D02*
X660000Y1347546D01*
X660000Y1349721D02*
X662480Y1349721D01*
X662480Y1351896D02*
X660000Y1351896D01*
X660000Y1354071D02*
X662480Y1354071D01*
X662480Y1356246D02*
X660000Y1356246D01*
X665000Y1357326D02*
X667480Y1357326D01*
X667480Y1338846D01*
X665000Y1338846D01*
X665000Y1357326D01*
X665000Y1341021D02*
X667480Y1341021D01*
X667480Y1343196D02*
X665000Y1343196D01*
X665000Y1345371D02*
X667480Y1345371D01*
X667480Y1347546D02*
X665000Y1347546D01*
X665000Y1349721D02*
X667480Y1349721D01*
X667480Y1351896D02*
X665000Y1351896D01*
X665000Y1354071D02*
X667480Y1354071D01*
X667480Y1356246D02*
X665000Y1356246D01*
D12*
X396240Y902336D03*
X396240Y944336D03*
X409240Y923336D03*
X756240Y944336D03*
X756240Y902336D03*
X743240Y923336D03*
D13*
X489712Y966978D03*
D14*
X410520Y763298D03*
X468320Y763298D03*
D15*
X525397Y735332D02*
X530989Y735332D01*
X530989Y723644D01*
X525397Y723644D01*
X525397Y735332D01*
X525397Y725813D02*
X530989Y725813D01*
X530989Y727982D02*
X525397Y727982D01*
X525397Y730151D02*
X530989Y730151D01*
X530989Y732320D02*
X525397Y732320D01*
X525397Y734489D02*
X530989Y734489D01*
X520575Y735332D02*
X514983Y735332D01*
X520575Y735332D02*
X520575Y723644D01*
X514983Y723644D01*
X514983Y735332D01*
X514983Y725813D02*
X520575Y725813D01*
X520575Y727982D02*
X514983Y727982D01*
X514983Y730151D02*
X520575Y730151D01*
X520575Y732320D02*
X514983Y732320D01*
X514983Y734489D02*
X520575Y734489D01*
D10*
X1130300Y1304798D03*
X783336Y969772D03*
D11*
X871080Y1357326D02*
X873560Y1357326D01*
X873560Y1338846D01*
X871080Y1338846D01*
X871080Y1357326D01*
X871080Y1341021D02*
X873560Y1341021D01*
X873560Y1343196D02*
X871080Y1343196D01*
X871080Y1345371D02*
X873560Y1345371D01*
X873560Y1347546D02*
X871080Y1347546D01*
X871080Y1349721D02*
X873560Y1349721D01*
X873560Y1351896D02*
X871080Y1351896D01*
X871080Y1354071D02*
X873560Y1354071D01*
X873560Y1356246D02*
X871080Y1356246D01*
X876080Y1357326D02*
X878560Y1357326D01*
X878560Y1338846D01*
X876080Y1338846D01*
X876080Y1357326D01*
X876080Y1341021D02*
X878560Y1341021D01*
X878560Y1343196D02*
X876080Y1343196D01*
X876080Y1345371D02*
X878560Y1345371D01*
X878560Y1347546D02*
X876080Y1347546D01*
X876080Y1349721D02*
X878560Y1349721D01*
X878560Y1351896D02*
X876080Y1351896D01*
X876080Y1354071D02*
X878560Y1354071D01*
X878560Y1356246D02*
X876080Y1356246D01*
X881080Y1357326D02*
X883560Y1357326D01*
X883560Y1338846D01*
X881080Y1338846D01*
X881080Y1357326D01*
X881080Y1341021D02*
X883560Y1341021D01*
X883560Y1343196D02*
X881080Y1343196D01*
X881080Y1345371D02*
X883560Y1345371D01*
X883560Y1347546D02*
X881080Y1347546D01*
X881080Y1349721D02*
X883560Y1349721D01*
X883560Y1351896D02*
X881080Y1351896D01*
X881080Y1354071D02*
X883560Y1354071D01*
X883560Y1356246D02*
X881080Y1356246D01*
X886080Y1357326D02*
X888560Y1357326D01*
X888560Y1338846D01*
X886080Y1338846D01*
X886080Y1357326D01*
X886080Y1341021D02*
X888560Y1341021D01*
X888560Y1343196D02*
X886080Y1343196D01*
X886080Y1345371D02*
X888560Y1345371D01*
X888560Y1347546D02*
X886080Y1347546D01*
X886080Y1349721D02*
X888560Y1349721D01*
X888560Y1351896D02*
X886080Y1351896D01*
X886080Y1354071D02*
X888560Y1354071D01*
X888560Y1356246D02*
X886080Y1356246D01*
X891080Y1357326D02*
X893560Y1357326D01*
X893560Y1338846D01*
X891080Y1338846D01*
X891080Y1357326D01*
X891080Y1341021D02*
X893560Y1341021D01*
X893560Y1343196D02*
X891080Y1343196D01*
X891080Y1345371D02*
X893560Y1345371D01*
X893560Y1347546D02*
X891080Y1347546D01*
X891080Y1349721D02*
X893560Y1349721D01*
X893560Y1351896D02*
X891080Y1351896D01*
X891080Y1354071D02*
X893560Y1354071D01*
X893560Y1356246D02*
X891080Y1356246D01*
X896080Y1357326D02*
X898560Y1357326D01*
X898560Y1338846D01*
X896080Y1338846D01*
X896080Y1357326D01*
X896080Y1341021D02*
X898560Y1341021D01*
X898560Y1343196D02*
X896080Y1343196D01*
X896080Y1345371D02*
X898560Y1345371D01*
X898560Y1347546D02*
X896080Y1347546D01*
X896080Y1349721D02*
X898560Y1349721D01*
X898560Y1351896D02*
X896080Y1351896D01*
X896080Y1354071D02*
X898560Y1354071D01*
X898560Y1356246D02*
X896080Y1356246D01*
X901080Y1357326D02*
X903560Y1357326D01*
X903560Y1338846D01*
X901080Y1338846D01*
X901080Y1357326D01*
X901080Y1341021D02*
X903560Y1341021D01*
X903560Y1343196D02*
X901080Y1343196D01*
X901080Y1345371D02*
X903560Y1345371D01*
X903560Y1347546D02*
X901080Y1347546D01*
X901080Y1349721D02*
X903560Y1349721D01*
X903560Y1351896D02*
X901080Y1351896D01*
X901080Y1354071D02*
X903560Y1354071D01*
X903560Y1356246D02*
X901080Y1356246D01*
X906080Y1357326D02*
X908560Y1357326D01*
X908560Y1338846D01*
X906080Y1338846D01*
X906080Y1357326D01*
X906080Y1341021D02*
X908560Y1341021D01*
X908560Y1343196D02*
X906080Y1343196D01*
X906080Y1345371D02*
X908560Y1345371D01*
X908560Y1347546D02*
X906080Y1347546D01*
X906080Y1349721D02*
X908560Y1349721D01*
X908560Y1351896D02*
X906080Y1351896D01*
X906080Y1354071D02*
X908560Y1354071D01*
X908560Y1356246D02*
X906080Y1356246D01*
X911080Y1357326D02*
X913560Y1357326D01*
X913560Y1338846D01*
X911080Y1338846D01*
X911080Y1357326D01*
X911080Y1341021D02*
X913560Y1341021D01*
X913560Y1343196D02*
X911080Y1343196D01*
X911080Y1345371D02*
X913560Y1345371D01*
X913560Y1347546D02*
X911080Y1347546D01*
X911080Y1349721D02*
X913560Y1349721D01*
X913560Y1351896D02*
X911080Y1351896D01*
X911080Y1354071D02*
X913560Y1354071D01*
X913560Y1356246D02*
X911080Y1356246D01*
X916080Y1357326D02*
X918560Y1357326D01*
X918560Y1338846D01*
X916080Y1338846D01*
X916080Y1357326D01*
X916080Y1341021D02*
X918560Y1341021D01*
X918560Y1343196D02*
X916080Y1343196D01*
X916080Y1345371D02*
X918560Y1345371D01*
X918560Y1347546D02*
X916080Y1347546D01*
X916080Y1349721D02*
X918560Y1349721D01*
X918560Y1351896D02*
X916080Y1351896D01*
X916080Y1354071D02*
X918560Y1354071D01*
X918560Y1356246D02*
X916080Y1356246D01*
X921080Y1357326D02*
X923560Y1357326D01*
X923560Y1338846D01*
X921080Y1338846D01*
X921080Y1357326D01*
X921080Y1341021D02*
X923560Y1341021D01*
X923560Y1343196D02*
X921080Y1343196D01*
X921080Y1345371D02*
X923560Y1345371D01*
X923560Y1347546D02*
X921080Y1347546D01*
X921080Y1349721D02*
X923560Y1349721D01*
X923560Y1351896D02*
X921080Y1351896D01*
X921080Y1354071D02*
X923560Y1354071D01*
X923560Y1356246D02*
X921080Y1356246D01*
X946080Y1357326D02*
X948560Y1357326D01*
X948560Y1338846D01*
X946080Y1338846D01*
X946080Y1357326D01*
X946080Y1341021D02*
X948560Y1341021D01*
X948560Y1343196D02*
X946080Y1343196D01*
X946080Y1345371D02*
X948560Y1345371D01*
X948560Y1347546D02*
X946080Y1347546D01*
X946080Y1349721D02*
X948560Y1349721D01*
X948560Y1351896D02*
X946080Y1351896D01*
X946080Y1354071D02*
X948560Y1354071D01*
X948560Y1356246D02*
X946080Y1356246D01*
X951080Y1357326D02*
X953560Y1357326D01*
X953560Y1338846D01*
X951080Y1338846D01*
X951080Y1357326D01*
X951080Y1341021D02*
X953560Y1341021D01*
X953560Y1343196D02*
X951080Y1343196D01*
X951080Y1345371D02*
X953560Y1345371D01*
X953560Y1347546D02*
X951080Y1347546D01*
X951080Y1349721D02*
X953560Y1349721D01*
X953560Y1351896D02*
X951080Y1351896D01*
X951080Y1354071D02*
X953560Y1354071D01*
X953560Y1356246D02*
X951080Y1356246D01*
X956080Y1357326D02*
X958560Y1357326D01*
X958560Y1338846D01*
X956080Y1338846D01*
X956080Y1357326D01*
X956080Y1341021D02*
X958560Y1341021D01*
X958560Y1343196D02*
X956080Y1343196D01*
X956080Y1345371D02*
X958560Y1345371D01*
X958560Y1347546D02*
X956080Y1347546D01*
X956080Y1349721D02*
X958560Y1349721D01*
X958560Y1351896D02*
X956080Y1351896D01*
X956080Y1354071D02*
X958560Y1354071D01*
X958560Y1356246D02*
X956080Y1356246D01*
X961080Y1357326D02*
X963560Y1357326D01*
X963560Y1338846D01*
X961080Y1338846D01*
X961080Y1357326D01*
X961080Y1341021D02*
X963560Y1341021D01*
X963560Y1343196D02*
X961080Y1343196D01*
X961080Y1345371D02*
X963560Y1345371D01*
X963560Y1347546D02*
X961080Y1347546D01*
X961080Y1349721D02*
X963560Y1349721D01*
X963560Y1351896D02*
X961080Y1351896D01*
X961080Y1354071D02*
X963560Y1354071D01*
X963560Y1356246D02*
X961080Y1356246D01*
X966080Y1357326D02*
X968560Y1357326D01*
X968560Y1338846D01*
X966080Y1338846D01*
X966080Y1357326D01*
X966080Y1341021D02*
X968560Y1341021D01*
X968560Y1343196D02*
X966080Y1343196D01*
X966080Y1345371D02*
X968560Y1345371D01*
X968560Y1347546D02*
X966080Y1347546D01*
X966080Y1349721D02*
X968560Y1349721D01*
X968560Y1351896D02*
X966080Y1351896D01*
X966080Y1354071D02*
X968560Y1354071D01*
X968560Y1356246D02*
X966080Y1356246D01*
X971080Y1357326D02*
X973560Y1357326D01*
X973560Y1338846D01*
X971080Y1338846D01*
X971080Y1357326D01*
X971080Y1341021D02*
X973560Y1341021D01*
X973560Y1343196D02*
X971080Y1343196D01*
X971080Y1345371D02*
X973560Y1345371D01*
X973560Y1347546D02*
X971080Y1347546D01*
X971080Y1349721D02*
X973560Y1349721D01*
X973560Y1351896D02*
X971080Y1351896D01*
X971080Y1354071D02*
X973560Y1354071D01*
X973560Y1356246D02*
X971080Y1356246D01*
X976080Y1357326D02*
X978560Y1357326D01*
X978560Y1338846D01*
X976080Y1338846D01*
X976080Y1357326D01*
X976080Y1341021D02*
X978560Y1341021D01*
X978560Y1343196D02*
X976080Y1343196D01*
X976080Y1345371D02*
X978560Y1345371D01*
X978560Y1347546D02*
X976080Y1347546D01*
X976080Y1349721D02*
X978560Y1349721D01*
X978560Y1351896D02*
X976080Y1351896D01*
X976080Y1354071D02*
X978560Y1354071D01*
X978560Y1356246D02*
X976080Y1356246D01*
X981080Y1357326D02*
X983560Y1357326D01*
X983560Y1338846D01*
X981080Y1338846D01*
X981080Y1357326D01*
X981080Y1341021D02*
X983560Y1341021D01*
X983560Y1343196D02*
X981080Y1343196D01*
X981080Y1345371D02*
X983560Y1345371D01*
X983560Y1347546D02*
X981080Y1347546D01*
X981080Y1349721D02*
X983560Y1349721D01*
X983560Y1351896D02*
X981080Y1351896D01*
X981080Y1354071D02*
X983560Y1354071D01*
X983560Y1356246D02*
X981080Y1356246D01*
X986080Y1357326D02*
X988560Y1357326D01*
X988560Y1338846D01*
X986080Y1338846D01*
X986080Y1357326D01*
X986080Y1341021D02*
X988560Y1341021D01*
X988560Y1343196D02*
X986080Y1343196D01*
X986080Y1345371D02*
X988560Y1345371D01*
X988560Y1347546D02*
X986080Y1347546D01*
X986080Y1349721D02*
X988560Y1349721D01*
X988560Y1351896D02*
X986080Y1351896D01*
X986080Y1354071D02*
X988560Y1354071D01*
X988560Y1356246D02*
X986080Y1356246D01*
X991080Y1357326D02*
X993560Y1357326D01*
X993560Y1338846D01*
X991080Y1338846D01*
X991080Y1357326D01*
X991080Y1341021D02*
X993560Y1341021D01*
X993560Y1343196D02*
X991080Y1343196D01*
X991080Y1345371D02*
X993560Y1345371D01*
X993560Y1347546D02*
X991080Y1347546D01*
X991080Y1349721D02*
X993560Y1349721D01*
X993560Y1351896D02*
X991080Y1351896D01*
X991080Y1354071D02*
X993560Y1354071D01*
X993560Y1356246D02*
X991080Y1356246D01*
X996080Y1357326D02*
X998560Y1357326D01*
X998560Y1338846D01*
X996080Y1338846D01*
X996080Y1357326D01*
X996080Y1341021D02*
X998560Y1341021D01*
X998560Y1343196D02*
X996080Y1343196D01*
X996080Y1345371D02*
X998560Y1345371D01*
X998560Y1347546D02*
X996080Y1347546D01*
X996080Y1349721D02*
X998560Y1349721D01*
X998560Y1351896D02*
X996080Y1351896D01*
X996080Y1354071D02*
X998560Y1354071D01*
X998560Y1356246D02*
X996080Y1356246D01*
X1001080Y1357326D02*
X1003560Y1357326D01*
X1003560Y1338846D01*
X1001080Y1338846D01*
X1001080Y1357326D01*
X1001080Y1341021D02*
X1003560Y1341021D01*
X1003560Y1343196D02*
X1001080Y1343196D01*
X1001080Y1345371D02*
X1003560Y1345371D01*
X1003560Y1347546D02*
X1001080Y1347546D01*
X1001080Y1349721D02*
X1003560Y1349721D01*
X1003560Y1351896D02*
X1001080Y1351896D01*
X1001080Y1354071D02*
X1003560Y1354071D01*
X1003560Y1356246D02*
X1001080Y1356246D01*
X1006080Y1357326D02*
X1008560Y1357326D01*
X1008560Y1338846D01*
X1006080Y1338846D01*
X1006080Y1357326D01*
X1006080Y1341021D02*
X1008560Y1341021D01*
X1008560Y1343196D02*
X1006080Y1343196D01*
X1006080Y1345371D02*
X1008560Y1345371D01*
X1008560Y1347546D02*
X1006080Y1347546D01*
X1006080Y1349721D02*
X1008560Y1349721D01*
X1008560Y1351896D02*
X1006080Y1351896D01*
X1006080Y1354071D02*
X1008560Y1354071D01*
X1008560Y1356246D02*
X1006080Y1356246D01*
X1011080Y1357326D02*
X1013560Y1357326D01*
X1013560Y1338846D01*
X1011080Y1338846D01*
X1011080Y1357326D01*
X1011080Y1341021D02*
X1013560Y1341021D01*
X1013560Y1343196D02*
X1011080Y1343196D01*
X1011080Y1345371D02*
X1013560Y1345371D01*
X1013560Y1347546D02*
X1011080Y1347546D01*
X1011080Y1349721D02*
X1013560Y1349721D01*
X1013560Y1351896D02*
X1011080Y1351896D01*
X1011080Y1354071D02*
X1013560Y1354071D01*
X1013560Y1356246D02*
X1011080Y1356246D01*
X1016080Y1357326D02*
X1018560Y1357326D01*
X1018560Y1338846D01*
X1016080Y1338846D01*
X1016080Y1357326D01*
X1016080Y1341021D02*
X1018560Y1341021D01*
X1018560Y1343196D02*
X1016080Y1343196D01*
X1016080Y1345371D02*
X1018560Y1345371D01*
X1018560Y1347546D02*
X1016080Y1347546D01*
X1016080Y1349721D02*
X1018560Y1349721D01*
X1018560Y1351896D02*
X1016080Y1351896D01*
X1016080Y1354071D02*
X1018560Y1354071D01*
X1018560Y1356246D02*
X1016080Y1356246D01*
X1021080Y1357326D02*
X1023560Y1357326D01*
X1023560Y1338846D01*
X1021080Y1338846D01*
X1021080Y1357326D01*
X1021080Y1341021D02*
X1023560Y1341021D01*
X1023560Y1343196D02*
X1021080Y1343196D01*
X1021080Y1345371D02*
X1023560Y1345371D01*
X1023560Y1347546D02*
X1021080Y1347546D01*
X1021080Y1349721D02*
X1023560Y1349721D01*
X1023560Y1351896D02*
X1021080Y1351896D01*
X1021080Y1354071D02*
X1023560Y1354071D01*
X1023560Y1356246D02*
X1021080Y1356246D01*
X1026080Y1357326D02*
X1028560Y1357326D01*
X1028560Y1338846D01*
X1026080Y1338846D01*
X1026080Y1357326D01*
X1026080Y1341021D02*
X1028560Y1341021D01*
X1028560Y1343196D02*
X1026080Y1343196D01*
X1026080Y1345371D02*
X1028560Y1345371D01*
X1028560Y1347546D02*
X1026080Y1347546D01*
X1026080Y1349721D02*
X1028560Y1349721D01*
X1028560Y1351896D02*
X1026080Y1351896D01*
X1026080Y1354071D02*
X1028560Y1354071D01*
X1028560Y1356246D02*
X1026080Y1356246D01*
X1031080Y1357326D02*
X1033560Y1357326D01*
X1033560Y1338846D01*
X1031080Y1338846D01*
X1031080Y1357326D01*
X1031080Y1341021D02*
X1033560Y1341021D01*
X1033560Y1343196D02*
X1031080Y1343196D01*
X1031080Y1345371D02*
X1033560Y1345371D01*
X1033560Y1347546D02*
X1031080Y1347546D01*
X1031080Y1349721D02*
X1033560Y1349721D01*
X1033560Y1351896D02*
X1031080Y1351896D01*
X1031080Y1354071D02*
X1033560Y1354071D01*
X1033560Y1356246D02*
X1031080Y1356246D01*
X1036080Y1357326D02*
X1038560Y1357326D01*
X1038560Y1338846D01*
X1036080Y1338846D01*
X1036080Y1357326D01*
X1036080Y1341021D02*
X1038560Y1341021D01*
X1038560Y1343196D02*
X1036080Y1343196D01*
X1036080Y1345371D02*
X1038560Y1345371D01*
X1038560Y1347546D02*
X1036080Y1347546D01*
X1036080Y1349721D02*
X1038560Y1349721D01*
X1038560Y1351896D02*
X1036080Y1351896D01*
X1036080Y1354071D02*
X1038560Y1354071D01*
X1038560Y1356246D02*
X1036080Y1356246D01*
X1041080Y1357326D02*
X1043560Y1357326D01*
X1043560Y1338846D01*
X1041080Y1338846D01*
X1041080Y1357326D01*
X1041080Y1341021D02*
X1043560Y1341021D01*
X1043560Y1343196D02*
X1041080Y1343196D01*
X1041080Y1345371D02*
X1043560Y1345371D01*
X1043560Y1347546D02*
X1041080Y1347546D01*
X1041080Y1349721D02*
X1043560Y1349721D01*
X1043560Y1351896D02*
X1041080Y1351896D01*
X1041080Y1354071D02*
X1043560Y1354071D01*
X1043560Y1356246D02*
X1041080Y1356246D01*
X1046080Y1357326D02*
X1048560Y1357326D01*
X1048560Y1338846D01*
X1046080Y1338846D01*
X1046080Y1357326D01*
X1046080Y1341021D02*
X1048560Y1341021D01*
X1048560Y1343196D02*
X1046080Y1343196D01*
X1046080Y1345371D02*
X1048560Y1345371D01*
X1048560Y1347546D02*
X1046080Y1347546D01*
X1046080Y1349721D02*
X1048560Y1349721D01*
X1048560Y1351896D02*
X1046080Y1351896D01*
X1046080Y1354071D02*
X1048560Y1354071D01*
X1048560Y1356246D02*
X1046080Y1356246D01*
X1051080Y1357326D02*
X1053560Y1357326D01*
X1053560Y1338846D01*
X1051080Y1338846D01*
X1051080Y1357326D01*
X1051080Y1341021D02*
X1053560Y1341021D01*
X1053560Y1343196D02*
X1051080Y1343196D01*
X1051080Y1345371D02*
X1053560Y1345371D01*
X1053560Y1347546D02*
X1051080Y1347546D01*
X1051080Y1349721D02*
X1053560Y1349721D01*
X1053560Y1351896D02*
X1051080Y1351896D01*
X1051080Y1354071D02*
X1053560Y1354071D01*
X1053560Y1356246D02*
X1051080Y1356246D01*
D12*
X782320Y902336D03*
X782320Y944336D03*
X795320Y923336D03*
X1142320Y944336D03*
X1142320Y902336D03*
X1129320Y923336D03*
D13*
X875792Y966978D03*
D14*
X796600Y763298D03*
X854400Y763298D03*
D15*
X911477Y735332D02*
X917069Y735332D01*
X917069Y723644D01*
X911477Y723644D01*
X911477Y735332D01*
X911477Y725813D02*
X917069Y725813D01*
X917069Y727982D02*
X911477Y727982D01*
X911477Y730151D02*
X917069Y730151D01*
X917069Y732320D02*
X911477Y732320D01*
X911477Y734489D02*
X917069Y734489D01*
X906655Y735332D02*
X901063Y735332D01*
X906655Y735332D02*
X906655Y723644D01*
X901063Y723644D01*
X901063Y735332D01*
X901063Y725813D02*
X906655Y725813D01*
X906655Y727982D02*
X901063Y727982D01*
X901063Y730151D02*
X906655Y730151D01*
X906655Y732320D02*
X901063Y732320D01*
X901063Y734489D02*
X906655Y734489D01*
D10*
X-26238Y1299718D03*
X1179398Y1299718D03*
D16*
X-35293Y63500D02*
X-35290Y63722D01*
X-35282Y63944D01*
X-35268Y64166D01*
X-35249Y64388D01*
X-35225Y64608D01*
X-35195Y64829D01*
X-35160Y65048D01*
X-35119Y65267D01*
X-35073Y65484D01*
X-35022Y65700D01*
X-34965Y65915D01*
X-34903Y66129D01*
X-34836Y66340D01*
X-34764Y66551D01*
X-34686Y66759D01*
X-34604Y66965D01*
X-34516Y67169D01*
X-34424Y67372D01*
X-34326Y67571D01*
X-34224Y67768D01*
X-34117Y67963D01*
X-34005Y68155D01*
X-33888Y68344D01*
X-33767Y68531D01*
X-33641Y68714D01*
X-33511Y68894D01*
X-33376Y69071D01*
X-33238Y69244D01*
X-33095Y69414D01*
X-32947Y69581D01*
X-32796Y69744D01*
X-32641Y69903D01*
X-32482Y70058D01*
X-32319Y70209D01*
X-32152Y70357D01*
X-31982Y70500D01*
X-31809Y70638D01*
X-31632Y70773D01*
X-31452Y70903D01*
X-31269Y71029D01*
X-31082Y71150D01*
X-30893Y71267D01*
X-30701Y71379D01*
X-30506Y71486D01*
X-30309Y71588D01*
X-30110Y71686D01*
X-29907Y71778D01*
X-29703Y71866D01*
X-29497Y71948D01*
X-29289Y72026D01*
X-29078Y72098D01*
X-28867Y72165D01*
X-28653Y72227D01*
X-28438Y72284D01*
X-28222Y72335D01*
X-28005Y72381D01*
X-27786Y72422D01*
X-27567Y72457D01*
X-27346Y72487D01*
X-27126Y72511D01*
X-26904Y72530D01*
X-26682Y72544D01*
X-26460Y72552D01*
X-26238Y72555D01*
X-26016Y72552D01*
X-25794Y72544D01*
X-25572Y72530D01*
X-25350Y72511D01*
X-25130Y72487D01*
X-24909Y72457D01*
X-24690Y72422D01*
X-24471Y72381D01*
X-24254Y72335D01*
X-24038Y72284D01*
X-23823Y72227D01*
X-23609Y72165D01*
X-23398Y72098D01*
X-23187Y72026D01*
X-22979Y71948D01*
X-22773Y71866D01*
X-22569Y71778D01*
X-22366Y71686D01*
X-22167Y71588D01*
X-21970Y71486D01*
X-21775Y71379D01*
X-21583Y71267D01*
X-21394Y71150D01*
X-21207Y71029D01*
X-21024Y70903D01*
X-20844Y70773D01*
X-20667Y70638D01*
X-20494Y70500D01*
X-20324Y70357D01*
X-20157Y70209D01*
X-19994Y70058D01*
X-19835Y69903D01*
X-19680Y69744D01*
X-19529Y69581D01*
X-19381Y69414D01*
X-19238Y69244D01*
X-19100Y69071D01*
X-18965Y68894D01*
X-18835Y68714D01*
X-18709Y68531D01*
X-18588Y68344D01*
X-18471Y68155D01*
X-18359Y67963D01*
X-18252Y67768D01*
X-18150Y67571D01*
X-18052Y67372D01*
X-17960Y67169D01*
X-17872Y66965D01*
X-17790Y66759D01*
X-17712Y66551D01*
X-17640Y66340D01*
X-17573Y66129D01*
X-17511Y65915D01*
X-17454Y65700D01*
X-17403Y65484D01*
X-17357Y65267D01*
X-17316Y65048D01*
X-17281Y64829D01*
X-17251Y64608D01*
X-17227Y64388D01*
X-17208Y64166D01*
X-17194Y63944D01*
X-17186Y63722D01*
X-17183Y63500D01*
X-17186Y63278D01*
X-17194Y63056D01*
X-17208Y62834D01*
X-17227Y62612D01*
X-17251Y62392D01*
X-17281Y62171D01*
X-17316Y61952D01*
X-17357Y61733D01*
X-17403Y61516D01*
X-17454Y61300D01*
X-17511Y61085D01*
X-17573Y60871D01*
X-17640Y60660D01*
X-17712Y60449D01*
X-17790Y60241D01*
X-17872Y60035D01*
X-17960Y59831D01*
X-18052Y59628D01*
X-18150Y59429D01*
X-18252Y59232D01*
X-18359Y59037D01*
X-18471Y58845D01*
X-18588Y58656D01*
X-18709Y58469D01*
X-18835Y58286D01*
X-18965Y58106D01*
X-19100Y57929D01*
X-19238Y57756D01*
X-19381Y57586D01*
X-19529Y57419D01*
X-19680Y57256D01*
X-19835Y57097D01*
X-19994Y56942D01*
X-20157Y56791D01*
X-20324Y56643D01*
X-20494Y56500D01*
X-20667Y56362D01*
X-20844Y56227D01*
X-21024Y56097D01*
X-21207Y55971D01*
X-21394Y55850D01*
X-21583Y55733D01*
X-21775Y55621D01*
X-21970Y55514D01*
X-22167Y55412D01*
X-22366Y55314D01*
X-22569Y55222D01*
X-22773Y55134D01*
X-22979Y55052D01*
X-23187Y54974D01*
X-23398Y54902D01*
X-23609Y54835D01*
X-23823Y54773D01*
X-24038Y54716D01*
X-24254Y54665D01*
X-24471Y54619D01*
X-24690Y54578D01*
X-24909Y54543D01*
X-25130Y54513D01*
X-25350Y54489D01*
X-25572Y54470D01*
X-25794Y54456D01*
X-26016Y54448D01*
X-26238Y54445D01*
X-26460Y54448D01*
X-26682Y54456D01*
X-26904Y54470D01*
X-27126Y54489D01*
X-27346Y54513D01*
X-27567Y54543D01*
X-27786Y54578D01*
X-28005Y54619D01*
X-28222Y54665D01*
X-28438Y54716D01*
X-28653Y54773D01*
X-28867Y54835D01*
X-29078Y54902D01*
X-29289Y54974D01*
X-29497Y55052D01*
X-29703Y55134D01*
X-29907Y55222D01*
X-30110Y55314D01*
X-30309Y55412D01*
X-30506Y55514D01*
X-30701Y55621D01*
X-30893Y55733D01*
X-31082Y55850D01*
X-31269Y55971D01*
X-31452Y56097D01*
X-31632Y56227D01*
X-31809Y56362D01*
X-31982Y56500D01*
X-32152Y56643D01*
X-32319Y56791D01*
X-32482Y56942D01*
X-32641Y57097D01*
X-32796Y57256D01*
X-32947Y57419D01*
X-33095Y57586D01*
X-33238Y57756D01*
X-33376Y57929D01*
X-33511Y58106D01*
X-33641Y58286D01*
X-33767Y58469D01*
X-33888Y58656D01*
X-34005Y58845D01*
X-34117Y59037D01*
X-34224Y59232D01*
X-34326Y59429D01*
X-34424Y59628D01*
X-34516Y59831D01*
X-34604Y60035D01*
X-34686Y60241D01*
X-34764Y60449D01*
X-34836Y60660D01*
X-34903Y60871D01*
X-34965Y61085D01*
X-35022Y61300D01*
X-35073Y61516D01*
X-35119Y61733D01*
X-35160Y61952D01*
X-35195Y62171D01*
X-35225Y62392D01*
X-35249Y62612D01*
X-35268Y62834D01*
X-35282Y63056D01*
X-35290Y63278D01*
X-35293Y63500D01*
D17*
X-26238Y63500D03*
M02*
