G04 EAGLE Gerber RS-274X export*
G75*
%MOMM*%
%FSLAX34Y34*%
%LPD*%
%INSilkscreen Top*%
%IPPOS*%
%AMOC8*
5,1,8,0,0,1.08239X$1,22.5*%
G01*
%ADD10C,0.508000*%
%ADD11C,0.203200*%
%ADD12C,0.254000*%
%ADD13R,0.040000X0.640000*%
%ADD14R,0.040000X0.800000*%
%ADD15R,0.040000X0.840000*%
%ADD16R,0.040000X0.280000*%
%ADD17R,0.040000X0.600000*%
%ADD18R,0.040000X0.680000*%
%ADD19R,0.040000X0.760000*%
%ADD20C,0.127000*%
%ADD21C,0.152400*%

G36*
X240109Y64484D02*
X240109Y64484D01*
X240193Y64487D01*
X240194Y64487D01*
X240195Y64487D01*
X240273Y64530D01*
X240346Y64569D01*
X240346Y64570D01*
X240347Y64570D01*
X240351Y64576D01*
X240434Y64684D01*
X240519Y64853D01*
X240791Y65216D01*
X241383Y65907D01*
X241387Y65914D01*
X241394Y65921D01*
X242086Y66810D01*
X242974Y67797D01*
X245174Y70197D01*
X246373Y71496D01*
X246377Y71502D01*
X246383Y71507D01*
X247579Y72902D01*
X248773Y74196D01*
X248774Y74197D01*
X248775Y74198D01*
X249763Y75284D01*
X250725Y76150D01*
X251782Y76823D01*
X252259Y77061D01*
X252259Y77062D01*
X252727Y77295D01*
X253841Y77574D01*
X257594Y77574D01*
X257614Y77579D01*
X257641Y77577D01*
X260041Y77877D01*
X260069Y77887D01*
X260109Y77892D01*
X262309Y78592D01*
X262320Y78598D01*
X262335Y78601D01*
X264335Y79401D01*
X264359Y79418D01*
X264397Y79433D01*
X266297Y80633D01*
X266312Y80648D01*
X266336Y80660D01*
X268036Y82060D01*
X268049Y82078D01*
X268071Y82094D01*
X269571Y83694D01*
X269579Y83708D01*
X269594Y83721D01*
X270994Y85521D01*
X271000Y85534D01*
X271004Y85537D01*
X271009Y85549D01*
X271026Y85569D01*
X273026Y89169D01*
X273036Y89204D01*
X273061Y89255D01*
X274061Y92955D01*
X274062Y92987D01*
X274074Y93032D01*
X274274Y96532D01*
X274268Y96565D01*
X274270Y96613D01*
X273770Y99813D01*
X273759Y99839D01*
X273753Y99878D01*
X272753Y102778D01*
X272736Y102806D01*
X272719Y102852D01*
X271319Y105152D01*
X271296Y105175D01*
X271271Y105215D01*
X269671Y106915D01*
X269638Y106936D01*
X269587Y106982D01*
X267887Y107982D01*
X267825Y108001D01*
X267766Y108027D01*
X267743Y108026D01*
X267721Y108033D01*
X267658Y108023D01*
X267593Y108021D01*
X267573Y108010D01*
X267550Y108006D01*
X267498Y107969D01*
X267441Y107938D01*
X267428Y107919D01*
X267409Y107906D01*
X267378Y107849D01*
X267341Y107796D01*
X267336Y107771D01*
X267327Y107753D01*
X267326Y107715D01*
X267314Y107654D01*
X267314Y107454D01*
X267322Y107417D01*
X267331Y107352D01*
X267331Y107341D01*
X267333Y107339D01*
X267333Y107334D01*
X267414Y107092D01*
X267414Y106116D01*
X267242Y105600D01*
X266991Y105099D01*
X266597Y104783D01*
X266016Y104534D01*
X265521Y104534D01*
X264889Y104625D01*
X264146Y104903D01*
X263374Y105289D01*
X262700Y105675D01*
X262041Y106145D01*
X260885Y107301D01*
X260415Y107960D01*
X260043Y108610D01*
X259874Y109116D01*
X259874Y110192D01*
X260042Y110694D01*
X260305Y111133D01*
X260766Y111686D01*
X261406Y112235D01*
X261786Y112425D01*
X262140Y112602D01*
X262979Y112881D01*
X263718Y112974D01*
X264363Y112974D01*
X264916Y112882D01*
X265302Y112785D01*
X265338Y112785D01*
X265394Y112774D01*
X265494Y112774D01*
X265519Y112780D01*
X265545Y112777D01*
X265603Y112799D01*
X265663Y112813D01*
X265683Y112830D01*
X265707Y112839D01*
X265749Y112884D01*
X265796Y112923D01*
X265807Y112947D01*
X265824Y112966D01*
X265842Y113025D01*
X265867Y113082D01*
X265866Y113107D01*
X265874Y113132D01*
X265863Y113193D01*
X265861Y113255D01*
X265848Y113277D01*
X265844Y113303D01*
X265796Y113374D01*
X265778Y113407D01*
X265770Y113413D01*
X265763Y113423D01*
X265563Y113623D01*
X265543Y113635D01*
X265522Y113658D01*
X264722Y114258D01*
X264696Y114270D01*
X264664Y114294D01*
X263464Y114894D01*
X263459Y114895D01*
X263455Y114899D01*
X261955Y115599D01*
X261922Y115606D01*
X261877Y115625D01*
X260077Y116025D01*
X260049Y116025D01*
X260013Y116034D01*
X258013Y116134D01*
X257975Y116127D01*
X257910Y116125D01*
X255710Y115625D01*
X255679Y115610D01*
X255630Y115597D01*
X253330Y114497D01*
X253300Y114473D01*
X253242Y114439D01*
X251542Y112939D01*
X251521Y112909D01*
X251481Y112869D01*
X250381Y111269D01*
X250366Y111233D01*
X250331Y111167D01*
X249831Y109567D01*
X249828Y109528D01*
X249814Y109454D01*
X249814Y107754D01*
X249821Y107721D01*
X249823Y107672D01*
X250223Y105872D01*
X250240Y105837D01*
X250266Y105761D01*
X251266Y104061D01*
X251277Y104050D01*
X251286Y104031D01*
X252586Y102231D01*
X252606Y102214D01*
X252625Y102185D01*
X254316Y100495D01*
X255565Y99053D01*
X256119Y97668D01*
X256208Y96417D01*
X255760Y95342D01*
X255033Y94342D01*
X253947Y93708D01*
X252533Y93331D01*
X251033Y93237D01*
X250022Y93513D01*
X249184Y93886D01*
X248555Y94335D01*
X248108Y94872D01*
X247743Y95510D01*
X247574Y96016D01*
X247574Y96592D01*
X247742Y97094D01*
X247996Y97518D01*
X248330Y97852D01*
X249290Y98428D01*
X249302Y98440D01*
X249322Y98450D01*
X249661Y98704D01*
X249986Y98785D01*
X250016Y98800D01*
X250105Y98838D01*
X250317Y98979D01*
X250463Y99013D01*
X250596Y99123D01*
X250667Y99282D01*
X250661Y99455D01*
X250578Y99607D01*
X250436Y99707D01*
X250294Y99734D01*
X250156Y99734D01*
X249925Y99811D01*
X249435Y100007D01*
X249400Y100012D01*
X249348Y100030D01*
X248648Y100130D01*
X248624Y100128D01*
X248594Y100134D01*
X246894Y100134D01*
X246866Y100128D01*
X246826Y100128D01*
X245726Y99928D01*
X245709Y99921D01*
X245685Y99918D01*
X244685Y99618D01*
X244672Y99611D01*
X244653Y99607D01*
X243653Y99207D01*
X243626Y99188D01*
X243583Y99170D01*
X242683Y98570D01*
X242674Y98561D01*
X242661Y98554D01*
X241761Y97854D01*
X241736Y97824D01*
X241717Y97805D01*
X241694Y97786D01*
X241691Y97780D01*
X241683Y97772D01*
X240983Y96772D01*
X240972Y96745D01*
X240948Y96711D01*
X240448Y95611D01*
X240445Y95597D01*
X240436Y95582D01*
X239936Y94182D01*
X239932Y94148D01*
X239917Y94101D01*
X239717Y92501D01*
X239719Y92480D01*
X239714Y92454D01*
X239714Y64854D01*
X239734Y64769D01*
X239753Y64687D01*
X239753Y64686D01*
X239753Y64685D01*
X239810Y64617D01*
X239862Y64553D01*
X239863Y64552D01*
X239941Y64517D01*
X240020Y64481D01*
X240021Y64481D01*
X240022Y64481D01*
X240109Y64484D01*
G37*
G36*
X148779Y13587D02*
X148779Y13587D01*
X148795Y13587D01*
X148858Y13622D01*
X148923Y13650D01*
X148933Y13663D01*
X148947Y13670D01*
X148988Y13728D01*
X149034Y13784D01*
X149038Y13799D01*
X149047Y13812D01*
X149072Y13944D01*
X149074Y13952D01*
X149074Y13953D01*
X149074Y13954D01*
X149074Y33270D01*
X149197Y33116D01*
X149204Y33111D01*
X149210Y33101D01*
X150010Y32201D01*
X150039Y32181D01*
X150076Y32143D01*
X151076Y31443D01*
X151093Y31436D01*
X151112Y31420D01*
X152212Y30820D01*
X152224Y30817D01*
X152237Y30808D01*
X153337Y30308D01*
X153365Y30302D01*
X153402Y30285D01*
X154602Y29985D01*
X154616Y29985D01*
X154632Y29979D01*
X155832Y29779D01*
X155847Y29780D01*
X155865Y29775D01*
X157165Y29675D01*
X157194Y29679D01*
X157233Y29676D01*
X160133Y29976D01*
X160167Y29988D01*
X160223Y29996D01*
X162723Y30896D01*
X162752Y30915D01*
X162798Y30933D01*
X164998Y32333D01*
X165025Y32361D01*
X165077Y32400D01*
X166777Y34300D01*
X166790Y34324D01*
X166815Y34350D01*
X168215Y36550D01*
X168226Y36581D01*
X168250Y36621D01*
X169150Y39021D01*
X169153Y39044D01*
X169165Y39072D01*
X169765Y41772D01*
X169765Y41796D01*
X169773Y41827D01*
X169973Y44627D01*
X169970Y44650D01*
X169973Y44679D01*
X169773Y47679D01*
X169766Y47702D01*
X169766Y47734D01*
X169166Y50534D01*
X169160Y50547D01*
X169159Y50559D01*
X169154Y50568D01*
X169152Y50583D01*
X168252Y53083D01*
X168234Y53110D01*
X168219Y53152D01*
X166819Y55452D01*
X166796Y55475D01*
X166770Y55516D01*
X164970Y57416D01*
X164942Y57434D01*
X164908Y57468D01*
X162708Y58968D01*
X162672Y58982D01*
X162614Y59015D01*
X159914Y59915D01*
X159880Y59918D01*
X159831Y59932D01*
X156731Y60232D01*
X156702Y60229D01*
X156662Y60233D01*
X155463Y60133D01*
X154165Y60033D01*
X154130Y60022D01*
X154074Y60015D01*
X152874Y59615D01*
X152870Y59612D01*
X152864Y59611D01*
X151764Y59211D01*
X151739Y59195D01*
X151698Y59180D01*
X150698Y58580D01*
X150677Y58559D01*
X150641Y58538D01*
X149741Y57738D01*
X149736Y57730D01*
X149725Y57723D01*
X148825Y56823D01*
X148812Y56801D01*
X148786Y56778D01*
X148674Y56623D01*
X148674Y59054D01*
X148658Y59124D01*
X148647Y59195D01*
X148638Y59207D01*
X148635Y59223D01*
X148589Y59278D01*
X148548Y59337D01*
X148535Y59344D01*
X148525Y59356D01*
X148459Y59386D01*
X148396Y59420D01*
X148379Y59422D01*
X148366Y59427D01*
X148328Y59426D01*
X148252Y59432D01*
X147352Y59332D01*
X147338Y59327D01*
X147319Y59327D01*
X146319Y59127D01*
X146316Y59125D01*
X146312Y59125D01*
X145432Y58930D01*
X144552Y58832D01*
X144535Y58826D01*
X144512Y58825D01*
X143634Y58630D01*
X142656Y58532D01*
X142637Y58526D01*
X142612Y58525D01*
X140812Y58125D01*
X140803Y58121D01*
X140793Y58121D01*
X140725Y58084D01*
X140655Y58050D01*
X140649Y58043D01*
X140641Y58038D01*
X140597Y57975D01*
X140549Y57913D01*
X140547Y57904D01*
X140541Y57896D01*
X140514Y57754D01*
X140514Y20854D01*
X140533Y20771D01*
X140552Y20687D01*
X140553Y20686D01*
X140553Y20685D01*
X140559Y20679D01*
X140640Y20571D01*
X141640Y19671D01*
X141641Y19671D01*
X141641Y19670D01*
X142541Y18870D01*
X143540Y17971D01*
X143548Y17967D01*
X143556Y17957D01*
X144540Y17170D01*
X145425Y16285D01*
X145433Y16280D01*
X145440Y16271D01*
X146440Y15371D01*
X146448Y15367D01*
X146456Y15357D01*
X147448Y14564D01*
X148440Y13671D01*
X148453Y13664D01*
X148463Y13652D01*
X148529Y13622D01*
X148591Y13588D01*
X148607Y13587D01*
X148622Y13581D01*
X148693Y13583D01*
X148765Y13580D01*
X148779Y13587D01*
G37*
G36*
X182117Y29579D02*
X182117Y29579D01*
X182148Y29578D01*
X182821Y29674D01*
X183394Y29674D01*
X183417Y29679D01*
X183448Y29678D01*
X184148Y29778D01*
X184152Y29779D01*
X184157Y29779D01*
X184757Y29879D01*
X184774Y29886D01*
X184798Y29888D01*
X185478Y30083D01*
X186057Y30179D01*
X186080Y30189D01*
X186114Y30193D01*
X187314Y30593D01*
X187334Y30606D01*
X187364Y30614D01*
X187644Y30754D01*
X188405Y31134D01*
X189164Y31514D01*
X189165Y31514D01*
X189174Y31522D01*
X189190Y31528D01*
X189690Y31828D01*
X189706Y31844D01*
X189732Y31857D01*
X190232Y32257D01*
X190243Y32272D01*
X190263Y32285D01*
X190617Y32639D01*
X190615Y32624D01*
X190652Y32492D01*
X190653Y32485D01*
X190654Y32485D01*
X190654Y32484D01*
X190714Y32364D01*
X190714Y32054D01*
X190731Y31980D01*
X190744Y31905D01*
X190751Y31895D01*
X190753Y31885D01*
X190777Y31856D01*
X190814Y31802D01*
X190814Y31554D01*
X190831Y31480D01*
X190844Y31405D01*
X190851Y31395D01*
X190853Y31385D01*
X190877Y31356D01*
X190925Y31285D01*
X190982Y31229D01*
X191014Y31164D01*
X191014Y31054D01*
X191027Y30996D01*
X191027Y30994D01*
X191028Y30993D01*
X191031Y30980D01*
X191044Y30905D01*
X191051Y30895D01*
X191053Y30885D01*
X191077Y30856D01*
X191114Y30802D01*
X191114Y30754D01*
X191125Y30704D01*
X191127Y30653D01*
X191145Y30621D01*
X191153Y30585D01*
X191186Y30546D01*
X191210Y30501D01*
X191240Y30480D01*
X191263Y30452D01*
X191310Y30431D01*
X191352Y30401D01*
X191394Y30393D01*
X191422Y30381D01*
X191452Y30382D01*
X191494Y30374D01*
X199394Y30374D01*
X199444Y30386D01*
X199496Y30388D01*
X199528Y30405D01*
X199563Y30413D01*
X199603Y30446D01*
X199648Y30471D01*
X199669Y30501D01*
X199696Y30523D01*
X199718Y30571D01*
X199747Y30613D01*
X199753Y30649D01*
X199767Y30682D01*
X199765Y30733D01*
X199773Y30784D01*
X199762Y30825D01*
X199761Y30855D01*
X199746Y30882D01*
X199734Y30924D01*
X199646Y31100D01*
X199555Y31374D01*
X199535Y31407D01*
X199510Y31465D01*
X199339Y31723D01*
X199274Y31916D01*
X199274Y32154D01*
X199266Y32190D01*
X199263Y32246D01*
X198974Y33401D01*
X198974Y33754D01*
X198967Y33784D01*
X198967Y33829D01*
X198874Y34292D01*
X198874Y35554D01*
X198867Y35584D01*
X198867Y35629D01*
X198774Y36092D01*
X198774Y52954D01*
X198766Y52991D01*
X198761Y53054D01*
X198461Y54154D01*
X198459Y54158D01*
X198458Y54163D01*
X198158Y55163D01*
X198139Y55196D01*
X198116Y55256D01*
X197616Y56056D01*
X197606Y56066D01*
X197598Y56082D01*
X196998Y56882D01*
X196972Y56904D01*
X196941Y56943D01*
X196241Y57543D01*
X196231Y57548D01*
X196222Y57558D01*
X195422Y58158D01*
X195401Y58167D01*
X195379Y58186D01*
X194479Y58686D01*
X194464Y58691D01*
X194448Y58701D01*
X193548Y59101D01*
X193528Y59105D01*
X193503Y59118D01*
X192503Y59418D01*
X192487Y59419D01*
X192469Y59427D01*
X191469Y59627D01*
X191466Y59627D01*
X191462Y59628D01*
X189262Y60028D01*
X189248Y60027D01*
X189232Y60032D01*
X188232Y60132D01*
X188215Y60130D01*
X188194Y60134D01*
X184794Y60134D01*
X184780Y60131D01*
X184762Y60133D01*
X183562Y60033D01*
X183561Y60033D01*
X183560Y60033D01*
X182460Y59933D01*
X182447Y59929D01*
X182432Y59929D01*
X181232Y59729D01*
X181216Y59722D01*
X181194Y59721D01*
X178994Y59121D01*
X178966Y59106D01*
X178924Y59094D01*
X178363Y58814D01*
X177924Y58594D01*
X177918Y58589D01*
X177909Y58586D01*
X177009Y58086D01*
X176999Y58077D01*
X176983Y58070D01*
X175183Y56870D01*
X175157Y56843D01*
X175108Y56804D01*
X174408Y56004D01*
X174398Y55985D01*
X174378Y55965D01*
X173778Y55065D01*
X173770Y55045D01*
X173754Y55024D01*
X173254Y54024D01*
X173251Y54010D01*
X173241Y53995D01*
X172841Y52995D01*
X172838Y52973D01*
X172825Y52946D01*
X172525Y51746D01*
X172525Y51731D01*
X172518Y51712D01*
X172318Y50412D01*
X172324Y50333D01*
X172327Y50253D01*
X172331Y50247D01*
X172332Y50239D01*
X172372Y50171D01*
X172410Y50101D01*
X172416Y50097D01*
X172420Y50090D01*
X172487Y50047D01*
X172552Y50001D01*
X172560Y50000D01*
X172566Y49996D01*
X172599Y49992D01*
X172694Y49974D01*
X180494Y49974D01*
X180544Y49985D01*
X180595Y49987D01*
X180627Y50005D01*
X180663Y50013D01*
X180702Y50046D01*
X180747Y50070D01*
X180768Y50100D01*
X180796Y50123D01*
X180817Y50170D01*
X180847Y50212D01*
X180855Y50254D01*
X180867Y50282D01*
X180866Y50312D01*
X180874Y50354D01*
X180874Y50781D01*
X181047Y51213D01*
X181051Y51242D01*
X181067Y51279D01*
X181157Y51730D01*
X181707Y52829D01*
X182219Y53342D01*
X182564Y53514D01*
X182580Y53527D01*
X182605Y53538D01*
X182885Y53725D01*
X183218Y53891D01*
X183669Y53981D01*
X183676Y53985D01*
X183686Y53985D01*
X184077Y54083D01*
X184563Y54180D01*
X185125Y54274D01*
X186556Y54274D01*
X187519Y54081D01*
X187551Y54082D01*
X187594Y54074D01*
X187904Y54074D01*
X188224Y53914D01*
X188257Y53906D01*
X188302Y53885D01*
X188661Y53795D01*
X189003Y53625D01*
X189252Y53459D01*
X189499Y53212D01*
X189665Y52963D01*
X190035Y52221D01*
X190122Y51876D01*
X190214Y51323D01*
X190214Y50773D01*
X190126Y49897D01*
X189638Y49247D01*
X188840Y48804D01*
X187677Y48416D01*
X186414Y48027D01*
X184850Y47832D01*
X183151Y47632D01*
X181352Y47432D01*
X181347Y47430D01*
X181342Y47431D01*
X181337Y47429D01*
X181332Y47429D01*
X179532Y47129D01*
X179521Y47125D01*
X179507Y47124D01*
X177807Y46724D01*
X177788Y46715D01*
X177761Y46710D01*
X176161Y46110D01*
X176133Y46092D01*
X176088Y46074D01*
X174688Y45174D01*
X174673Y45158D01*
X174648Y45144D01*
X173348Y44044D01*
X173325Y44013D01*
X173274Y43960D01*
X172374Y42560D01*
X172362Y42526D01*
X172335Y42481D01*
X171735Y40781D01*
X171732Y40749D01*
X171717Y40705D01*
X171417Y38505D01*
X171421Y38471D01*
X171415Y38420D01*
X171515Y37320D01*
X171516Y37316D01*
X171516Y37312D01*
X171616Y36412D01*
X171626Y36385D01*
X171630Y36345D01*
X171930Y35345D01*
X171936Y35335D01*
X171938Y35321D01*
X172238Y34521D01*
X172248Y34506D01*
X172254Y34484D01*
X172654Y33684D01*
X172676Y33657D01*
X172702Y33611D01*
X173193Y33022D01*
X173685Y32333D01*
X173713Y32308D01*
X173751Y32262D01*
X174351Y31762D01*
X174362Y31756D01*
X174373Y31745D01*
X175073Y31245D01*
X175089Y31238D01*
X175105Y31224D01*
X175805Y30824D01*
X175815Y30821D01*
X175824Y30814D01*
X176624Y30414D01*
X176647Y30408D01*
X176674Y30393D01*
X177574Y30093D01*
X177591Y30092D01*
X177612Y30083D01*
X179412Y29683D01*
X179431Y29683D01*
X179456Y29676D01*
X180456Y29576D01*
X180473Y29578D01*
X180494Y29574D01*
X182094Y29574D01*
X182117Y29579D01*
G37*
G36*
X231844Y30485D02*
X231844Y30485D01*
X231895Y30487D01*
X231927Y30505D01*
X231963Y30513D01*
X232002Y30546D01*
X232047Y30570D01*
X232068Y30600D01*
X232096Y30623D01*
X232117Y30670D01*
X232147Y30712D01*
X232155Y30754D01*
X232167Y30782D01*
X232166Y30812D01*
X232174Y30854D01*
X232174Y40393D01*
X234719Y42853D01*
X242271Y30654D01*
X242294Y30630D01*
X242310Y30601D01*
X242355Y30570D01*
X242393Y30531D01*
X242425Y30521D01*
X242452Y30501D01*
X242520Y30488D01*
X242557Y30476D01*
X242574Y30478D01*
X242594Y30474D01*
X251994Y30474D01*
X252067Y30491D01*
X252141Y30503D01*
X252151Y30510D01*
X252163Y30513D01*
X252221Y30561D01*
X252282Y30605D01*
X252287Y30616D01*
X252296Y30623D01*
X252327Y30692D01*
X252362Y30759D01*
X252362Y30771D01*
X252367Y30782D01*
X252364Y30857D01*
X252366Y30932D01*
X252361Y30944D01*
X252361Y30955D01*
X252343Y30988D01*
X252310Y31065D01*
X240586Y48602D01*
X251059Y58781D01*
X251074Y58805D01*
X251096Y58823D01*
X251121Y58877D01*
X251153Y58927D01*
X251156Y58956D01*
X251167Y58982D01*
X251165Y59041D01*
X251172Y59099D01*
X251162Y59126D01*
X251161Y59155D01*
X251132Y59207D01*
X251112Y59262D01*
X251092Y59282D01*
X251078Y59307D01*
X251030Y59341D01*
X250987Y59382D01*
X250959Y59390D01*
X250936Y59407D01*
X250858Y59422D01*
X250821Y59433D01*
X250809Y59431D01*
X250794Y59434D01*
X241594Y59434D01*
X241517Y59416D01*
X241440Y59402D01*
X241433Y59396D01*
X241425Y59395D01*
X241399Y59373D01*
X241321Y59319D01*
X232174Y49892D01*
X232174Y69854D01*
X232161Y69912D01*
X232156Y69971D01*
X232141Y69995D01*
X232135Y70023D01*
X232097Y70069D01*
X232067Y70119D01*
X232043Y70134D01*
X232025Y70156D01*
X231970Y70181D01*
X231921Y70213D01*
X231892Y70216D01*
X231866Y70227D01*
X231807Y70225D01*
X231748Y70232D01*
X231718Y70222D01*
X231693Y70221D01*
X231662Y70204D01*
X231610Y70187D01*
X223810Y65887D01*
X223779Y65858D01*
X223741Y65838D01*
X223715Y65801D01*
X223682Y65771D01*
X223666Y65731D01*
X223641Y65696D01*
X223631Y65643D01*
X223618Y65610D01*
X223620Y65586D01*
X223614Y65554D01*
X223614Y30854D01*
X223625Y30804D01*
X223627Y30753D01*
X223645Y30721D01*
X223653Y30685D01*
X223686Y30646D01*
X223710Y30601D01*
X223740Y30580D01*
X223763Y30552D01*
X223810Y30531D01*
X223852Y30501D01*
X223894Y30493D01*
X223922Y30481D01*
X223952Y30482D01*
X223994Y30474D01*
X231794Y30474D01*
X231844Y30485D01*
G37*
G36*
X310544Y30485D02*
X310544Y30485D01*
X310595Y30487D01*
X310627Y30505D01*
X310663Y30513D01*
X310702Y30546D01*
X310747Y30570D01*
X310768Y30600D01*
X310796Y30623D01*
X310817Y30670D01*
X310847Y30712D01*
X310855Y30754D01*
X310867Y30782D01*
X310866Y30812D01*
X310874Y30854D01*
X310874Y45644D01*
X310973Y47611D01*
X311265Y49269D01*
X311648Y50609D01*
X312196Y51614D01*
X313020Y52346D01*
X313950Y52904D01*
X315164Y53278D01*
X316493Y53373D01*
X317707Y53279D01*
X318630Y52910D01*
X319463Y52447D01*
X320082Y51829D01*
X320535Y50921D01*
X320820Y49781D01*
X321015Y48416D01*
X321114Y46743D01*
X321114Y30854D01*
X321125Y30804D01*
X321127Y30753D01*
X321145Y30721D01*
X321153Y30685D01*
X321186Y30646D01*
X321210Y30601D01*
X321240Y30580D01*
X321263Y30552D01*
X321310Y30531D01*
X321352Y30501D01*
X321394Y30493D01*
X321422Y30481D01*
X321452Y30482D01*
X321494Y30474D01*
X329294Y30474D01*
X329344Y30485D01*
X329395Y30487D01*
X329427Y30505D01*
X329463Y30513D01*
X329502Y30546D01*
X329547Y30570D01*
X329568Y30600D01*
X329596Y30623D01*
X329617Y30670D01*
X329647Y30712D01*
X329655Y30754D01*
X329667Y30782D01*
X329666Y30812D01*
X329674Y30854D01*
X329674Y48254D01*
X329673Y48261D01*
X329674Y48269D01*
X329574Y50769D01*
X329568Y50792D01*
X329568Y50822D01*
X329168Y53022D01*
X329161Y53039D01*
X329158Y53063D01*
X328558Y55063D01*
X328540Y55095D01*
X328522Y55147D01*
X327522Y56847D01*
X327496Y56874D01*
X327463Y56923D01*
X326063Y58323D01*
X326030Y58343D01*
X325979Y58386D01*
X324179Y59386D01*
X324143Y59397D01*
X324090Y59422D01*
X321790Y60022D01*
X321760Y60023D01*
X321721Y60033D01*
X318921Y60233D01*
X318896Y60229D01*
X318862Y60233D01*
X317662Y60133D01*
X317649Y60129D01*
X317632Y60129D01*
X316432Y59929D01*
X316419Y59924D01*
X316402Y59923D01*
X315202Y59623D01*
X315180Y59612D01*
X315148Y59605D01*
X313948Y59105D01*
X313925Y59089D01*
X313890Y59075D01*
X312790Y58375D01*
X312777Y58362D01*
X312756Y58351D01*
X311756Y57551D01*
X311740Y57530D01*
X311711Y57508D01*
X310811Y56508D01*
X310803Y56493D01*
X310786Y56478D01*
X310574Y56186D01*
X310574Y59054D01*
X310563Y59104D01*
X310561Y59155D01*
X310543Y59187D01*
X310535Y59223D01*
X310502Y59262D01*
X310478Y59307D01*
X310448Y59328D01*
X310425Y59356D01*
X310378Y59377D01*
X310336Y59407D01*
X310294Y59415D01*
X310266Y59427D01*
X310236Y59426D01*
X310194Y59434D01*
X302794Y59434D01*
X302750Y59424D01*
X302704Y59423D01*
X302666Y59404D01*
X302625Y59395D01*
X302590Y59366D01*
X302549Y59345D01*
X302524Y59311D01*
X302492Y59285D01*
X302473Y59243D01*
X302446Y59206D01*
X302435Y59158D01*
X302421Y59126D01*
X302422Y59100D01*
X302414Y59065D01*
X302314Y55565D01*
X302315Y55560D01*
X302314Y55554D01*
X302314Y30854D01*
X302325Y30804D01*
X302327Y30753D01*
X302345Y30721D01*
X302353Y30685D01*
X302386Y30646D01*
X302410Y30601D01*
X302440Y30580D01*
X302463Y30552D01*
X302510Y30531D01*
X302552Y30501D01*
X302594Y30493D01*
X302622Y30481D01*
X302652Y30482D01*
X302694Y30474D01*
X310494Y30474D01*
X310544Y30485D01*
G37*
G36*
X282392Y29679D02*
X282392Y29679D01*
X282426Y29675D01*
X283626Y29775D01*
X283637Y29779D01*
X283652Y29778D01*
X284952Y29978D01*
X284966Y29984D01*
X284986Y29985D01*
X286186Y30285D01*
X286212Y30299D01*
X286251Y30308D01*
X287351Y30808D01*
X287370Y30822D01*
X287398Y30833D01*
X288498Y31533D01*
X288511Y31546D01*
X288532Y31557D01*
X289532Y32357D01*
X289543Y32372D01*
X289563Y32385D01*
X290563Y33385D01*
X290576Y33407D01*
X290602Y33430D01*
X290714Y33585D01*
X290714Y30854D01*
X290725Y30804D01*
X290727Y30753D01*
X290745Y30721D01*
X290753Y30685D01*
X290786Y30646D01*
X290810Y30601D01*
X290840Y30580D01*
X290863Y30552D01*
X290910Y30531D01*
X290952Y30501D01*
X290994Y30493D01*
X291022Y30481D01*
X291052Y30482D01*
X291094Y30474D01*
X298494Y30474D01*
X298539Y30484D01*
X298584Y30485D01*
X298622Y30504D01*
X298663Y30513D01*
X298698Y30542D01*
X298739Y30563D01*
X298764Y30597D01*
X298796Y30623D01*
X298815Y30665D01*
X298842Y30702D01*
X298853Y30750D01*
X298867Y30782D01*
X298866Y30808D01*
X298874Y30843D01*
X298974Y34343D01*
X298973Y34348D01*
X298974Y34354D01*
X298974Y59054D01*
X298963Y59104D01*
X298961Y59155D01*
X298943Y59187D01*
X298935Y59223D01*
X298902Y59262D01*
X298878Y59307D01*
X298848Y59328D01*
X298825Y59356D01*
X298778Y59377D01*
X298736Y59407D01*
X298694Y59415D01*
X298666Y59427D01*
X298636Y59426D01*
X298594Y59434D01*
X290794Y59434D01*
X290744Y59423D01*
X290693Y59421D01*
X290661Y59403D01*
X290625Y59395D01*
X290586Y59362D01*
X290541Y59338D01*
X290520Y59308D01*
X290492Y59285D01*
X290471Y59238D01*
X290441Y59196D01*
X290433Y59154D01*
X290421Y59126D01*
X290422Y59096D01*
X290414Y59054D01*
X290414Y42287D01*
X290125Y40652D01*
X289646Y39310D01*
X289086Y38284D01*
X288364Y37562D01*
X287342Y37004D01*
X286220Y36630D01*
X284797Y36535D01*
X283660Y36630D01*
X282654Y36905D01*
X281849Y37441D01*
X281313Y38066D01*
X280846Y39000D01*
X280466Y40142D01*
X280273Y41492D01*
X280174Y43165D01*
X280174Y59054D01*
X280163Y59104D01*
X280161Y59155D01*
X280143Y59187D01*
X280135Y59223D01*
X280102Y59262D01*
X280078Y59307D01*
X280048Y59328D01*
X280025Y59356D01*
X279978Y59377D01*
X279936Y59407D01*
X279894Y59415D01*
X279866Y59427D01*
X279836Y59426D01*
X279794Y59434D01*
X272094Y59434D01*
X272044Y59423D01*
X271993Y59421D01*
X271961Y59403D01*
X271925Y59395D01*
X271886Y59362D01*
X271841Y59338D01*
X271820Y59308D01*
X271792Y59285D01*
X271771Y59238D01*
X271741Y59196D01*
X271733Y59154D01*
X271721Y59126D01*
X271722Y59096D01*
X271714Y59054D01*
X271714Y41654D01*
X271715Y41647D01*
X271714Y41639D01*
X271814Y39139D01*
X271818Y39123D01*
X271817Y39103D01*
X272117Y36903D01*
X272129Y36873D01*
X272135Y36828D01*
X272835Y34828D01*
X272848Y34807D01*
X272858Y34776D01*
X273758Y33076D01*
X273784Y33047D01*
X273825Y32985D01*
X275225Y31585D01*
X275258Y31565D01*
X275309Y31522D01*
X277109Y30522D01*
X277145Y30511D01*
X277198Y30486D01*
X279498Y29886D01*
X279528Y29885D01*
X279567Y29875D01*
X282367Y29675D01*
X282392Y29679D01*
G37*
G36*
X127210Y29774D02*
X127210Y29774D01*
X127231Y29780D01*
X127259Y29779D01*
X129559Y30179D01*
X129574Y30186D01*
X129594Y30187D01*
X131794Y30787D01*
X131822Y30802D01*
X131864Y30814D01*
X131944Y30854D01*
X132705Y31234D01*
X133465Y31614D01*
X133465Y31615D01*
X133864Y31814D01*
X133893Y31838D01*
X133944Y31868D01*
X135544Y33268D01*
X135563Y33293D01*
X135596Y33323D01*
X135828Y33626D01*
X136118Y34006D01*
X136119Y34006D01*
X136409Y34386D01*
X136409Y34387D01*
X136700Y34767D01*
X136896Y35023D01*
X136912Y35059D01*
X136949Y35119D01*
X137749Y37219D01*
X137754Y37255D01*
X137772Y37309D01*
X138072Y39809D01*
X138068Y39844D01*
X138072Y39896D01*
X137872Y41696D01*
X137861Y41727D01*
X137855Y41774D01*
X137355Y43274D01*
X137334Y43308D01*
X137307Y43370D01*
X136407Y44670D01*
X136378Y44696D01*
X136337Y44746D01*
X135137Y45746D01*
X135116Y45757D01*
X135093Y45778D01*
X133793Y46578D01*
X133767Y46587D01*
X133735Y46607D01*
X132235Y47207D01*
X132219Y47209D01*
X132201Y47219D01*
X130503Y47718D01*
X128907Y48217D01*
X128886Y48219D01*
X128860Y48228D01*
X127173Y48526D01*
X125586Y48923D01*
X125578Y48923D01*
X125569Y48927D01*
X124087Y49223D01*
X122829Y49610D01*
X121779Y50087D01*
X120949Y50641D01*
X120447Y51226D01*
X120284Y52045D01*
X120453Y52721D01*
X120707Y53229D01*
X121036Y53559D01*
X121556Y53905D01*
X122173Y54081D01*
X122845Y54177D01*
X123618Y54274D01*
X125252Y54274D01*
X126966Y53893D01*
X127684Y53534D01*
X128213Y53093D01*
X128667Y52457D01*
X129031Y51730D01*
X129221Y50779D01*
X129227Y50767D01*
X129227Y50753D01*
X129263Y50689D01*
X129293Y50622D01*
X129304Y50613D01*
X129310Y50601D01*
X129370Y50559D01*
X129427Y50512D01*
X129441Y50509D01*
X129452Y50501D01*
X129594Y50474D01*
X136994Y50474D01*
X136997Y50474D01*
X136999Y50474D01*
X137081Y50494D01*
X137163Y50513D01*
X137165Y50515D01*
X137167Y50516D01*
X137231Y50570D01*
X137296Y50623D01*
X137297Y50626D01*
X137300Y50628D01*
X137333Y50705D01*
X137367Y50782D01*
X137367Y50784D01*
X137368Y50787D01*
X137366Y50932D01*
X136866Y53332D01*
X136862Y53341D01*
X136862Y53350D01*
X136849Y53374D01*
X136838Y53417D01*
X135938Y55317D01*
X135918Y55342D01*
X135898Y55382D01*
X134698Y56982D01*
X134668Y57007D01*
X134622Y57058D01*
X133022Y58258D01*
X132996Y58270D01*
X132964Y58294D01*
X131164Y59194D01*
X131135Y59201D01*
X131098Y59220D01*
X128998Y59820D01*
X128976Y59821D01*
X128948Y59830D01*
X126848Y60130D01*
X126831Y60129D01*
X126811Y60134D01*
X124511Y60234D01*
X124496Y60231D01*
X124477Y60234D01*
X122177Y60134D01*
X122162Y60130D01*
X122143Y60131D01*
X119943Y59831D01*
X119921Y59822D01*
X119890Y59820D01*
X117790Y59220D01*
X117769Y59208D01*
X117740Y59201D01*
X115940Y58401D01*
X115912Y58381D01*
X115866Y58358D01*
X114266Y57158D01*
X114242Y57130D01*
X114199Y57094D01*
X112899Y55494D01*
X112885Y55464D01*
X112835Y55380D01*
X112135Y53380D01*
X112132Y53347D01*
X112120Y53322D01*
X112121Y53312D01*
X112116Y53299D01*
X111816Y50799D01*
X111820Y50764D01*
X111816Y50710D01*
X112016Y49010D01*
X112025Y48985D01*
X112026Y48966D01*
X112031Y48956D01*
X112036Y48926D01*
X112536Y47526D01*
X112557Y47493D01*
X112590Y47426D01*
X113490Y46226D01*
X113517Y46203D01*
X113551Y46162D01*
X114751Y45162D01*
X114779Y45148D01*
X114814Y45119D01*
X116114Y44419D01*
X116132Y44414D01*
X116153Y44401D01*
X117653Y43801D01*
X117669Y43799D01*
X117687Y43789D01*
X119387Y43289D01*
X119394Y43289D01*
X119402Y43285D01*
X123002Y42385D01*
X123006Y42385D01*
X123012Y42383D01*
X124804Y41985D01*
X126271Y41593D01*
X127436Y41108D01*
X128393Y40629D01*
X129103Y40097D01*
X129438Y39511D01*
X129603Y38849D01*
X129429Y38062D01*
X129162Y37351D01*
X128648Y36751D01*
X128014Y36389D01*
X127433Y36099D01*
X127261Y36013D01*
X126506Y35824D01*
X125652Y35634D01*
X124910Y35634D01*
X123747Y35731D01*
X122786Y35923D01*
X121843Y36206D01*
X121014Y36667D01*
X120274Y37314D01*
X119728Y38042D01*
X119368Y38944D01*
X119273Y39988D01*
X119263Y40018D01*
X119262Y40041D01*
X119261Y40043D01*
X119261Y40055D01*
X119235Y40102D01*
X119218Y40153D01*
X119194Y40177D01*
X119178Y40207D01*
X119134Y40238D01*
X119096Y40276D01*
X119064Y40287D01*
X119036Y40307D01*
X118969Y40320D01*
X118932Y40332D01*
X118915Y40330D01*
X118894Y40334D01*
X111494Y40334D01*
X111415Y40316D01*
X111337Y40300D01*
X111332Y40296D01*
X111325Y40295D01*
X111263Y40243D01*
X111199Y40194D01*
X111197Y40189D01*
X111192Y40185D01*
X111159Y40111D01*
X111123Y40039D01*
X111123Y40032D01*
X111121Y40026D01*
X111122Y39996D01*
X111119Y39894D01*
X111519Y37394D01*
X111532Y37361D01*
X111542Y37310D01*
X112442Y35110D01*
X112464Y35079D01*
X112492Y35023D01*
X113792Y33323D01*
X113821Y33299D01*
X113863Y33252D01*
X115563Y31952D01*
X115591Y31940D01*
X115624Y31914D01*
X117624Y30914D01*
X117649Y30908D01*
X117679Y30892D01*
X119879Y30192D01*
X119902Y30190D01*
X119932Y30179D01*
X122332Y29779D01*
X122352Y29780D01*
X122378Y29774D01*
X124778Y29674D01*
X124792Y29677D01*
X124810Y29674D01*
X127210Y29774D01*
G37*
G36*
X264544Y30485D02*
X264544Y30485D01*
X264595Y30487D01*
X264627Y30505D01*
X264663Y30513D01*
X264702Y30546D01*
X264747Y30570D01*
X264768Y30600D01*
X264796Y30623D01*
X264817Y30670D01*
X264847Y30712D01*
X264855Y30754D01*
X264867Y30782D01*
X264866Y30812D01*
X264874Y30854D01*
X264874Y53474D01*
X269794Y53474D01*
X269844Y53485D01*
X269895Y53487D01*
X269927Y53505D01*
X269963Y53513D01*
X270002Y53546D01*
X270047Y53570D01*
X270068Y53600D01*
X270096Y53623D01*
X270117Y53670D01*
X270147Y53712D01*
X270155Y53754D01*
X270167Y53782D01*
X270166Y53812D01*
X270174Y53854D01*
X270174Y59054D01*
X270163Y59104D01*
X270161Y59155D01*
X270143Y59187D01*
X270135Y59223D01*
X270102Y59262D01*
X270078Y59307D01*
X270048Y59328D01*
X270025Y59356D01*
X269978Y59377D01*
X269936Y59407D01*
X269894Y59415D01*
X269866Y59427D01*
X269836Y59426D01*
X269794Y59434D01*
X264874Y59434D01*
X264874Y61527D01*
X264966Y62166D01*
X265135Y62675D01*
X265382Y63004D01*
X265699Y63322D01*
X266186Y63484D01*
X266751Y63578D01*
X267421Y63674D01*
X267732Y63674D01*
X267974Y63593D01*
X268011Y63590D01*
X268094Y63574D01*
X269847Y63574D01*
X270202Y63485D01*
X270212Y63485D01*
X270222Y63481D01*
X270298Y63484D01*
X270375Y63482D01*
X270384Y63487D01*
X270395Y63487D01*
X270462Y63524D01*
X270531Y63557D01*
X270538Y63565D01*
X270547Y63570D01*
X270591Y63633D01*
X270639Y63693D01*
X270641Y63703D01*
X270647Y63712D01*
X270674Y63854D01*
X270674Y69654D01*
X270663Y69704D01*
X270661Y69755D01*
X270643Y69787D01*
X270635Y69823D01*
X270602Y69862D01*
X270578Y69907D01*
X270548Y69928D01*
X270525Y69956D01*
X270478Y69977D01*
X270436Y70007D01*
X270394Y70015D01*
X270366Y70027D01*
X270336Y70026D01*
X270294Y70034D01*
X269832Y70034D01*
X269369Y70127D01*
X269337Y70126D01*
X269294Y70134D01*
X268232Y70134D01*
X267769Y70227D01*
X267737Y70226D01*
X267694Y70234D01*
X266194Y70234D01*
X266180Y70231D01*
X266161Y70233D01*
X263861Y70033D01*
X263842Y70027D01*
X263816Y70026D01*
X261916Y69626D01*
X261882Y69610D01*
X261824Y69594D01*
X261075Y69220D01*
X260315Y68840D01*
X260224Y68794D01*
X260204Y68778D01*
X260173Y68763D01*
X258773Y67763D01*
X258747Y67734D01*
X258693Y67686D01*
X257693Y66386D01*
X257680Y66358D01*
X257654Y66324D01*
X256954Y64924D01*
X256947Y64896D01*
X256929Y64861D01*
X256429Y63161D01*
X256427Y63126D01*
X256414Y63075D01*
X256314Y61275D01*
X256316Y61266D01*
X256314Y61254D01*
X256314Y59434D01*
X254294Y59434D01*
X254220Y59417D01*
X254145Y59404D01*
X254135Y59397D01*
X254125Y59395D01*
X254096Y59371D01*
X254025Y59323D01*
X252736Y58033D01*
X252047Y57443D01*
X252032Y57422D01*
X252005Y57401D01*
X251424Y56724D01*
X250747Y56143D01*
X250732Y56122D01*
X250705Y56101D01*
X250124Y55424D01*
X249447Y54843D01*
X249439Y54832D01*
X249425Y54823D01*
X248725Y54123D01*
X248712Y54101D01*
X248692Y54085D01*
X248666Y54028D01*
X248634Y53976D01*
X248631Y53950D01*
X248621Y53926D01*
X248623Y53865D01*
X248617Y53803D01*
X248626Y53779D01*
X248627Y53753D01*
X248657Y53699D01*
X248679Y53641D01*
X248698Y53624D01*
X248710Y53601D01*
X248761Y53566D01*
X248806Y53524D01*
X248831Y53516D01*
X248852Y53501D01*
X248936Y53485D01*
X248972Y53474D01*
X248982Y53476D01*
X248994Y53474D01*
X256314Y53474D01*
X256314Y30854D01*
X256325Y30804D01*
X256327Y30753D01*
X256345Y30721D01*
X256353Y30685D01*
X256386Y30646D01*
X256410Y30601D01*
X256440Y30580D01*
X256463Y30552D01*
X256510Y30531D01*
X256552Y30501D01*
X256594Y30493D01*
X256622Y30481D01*
X256652Y30482D01*
X256694Y30474D01*
X264494Y30474D01*
X264544Y30485D01*
G37*
G36*
X210544Y30385D02*
X210544Y30385D01*
X210595Y30387D01*
X210627Y30405D01*
X210663Y30413D01*
X210702Y30446D01*
X210747Y30470D01*
X210768Y30500D01*
X210796Y30523D01*
X210817Y30570D01*
X210847Y30612D01*
X210855Y30654D01*
X210867Y30682D01*
X210866Y30712D01*
X210874Y30754D01*
X210874Y43544D01*
X210972Y45310D01*
X211264Y46964D01*
X211743Y48495D01*
X212499Y49724D01*
X213442Y50761D01*
X214756Y51606D01*
X216270Y52079D01*
X218213Y52274D01*
X218847Y52274D01*
X219202Y52185D01*
X219238Y52185D01*
X219294Y52174D01*
X219947Y52174D01*
X220302Y52085D01*
X220338Y52085D01*
X220394Y52074D01*
X220632Y52074D01*
X220874Y51993D01*
X220899Y51991D01*
X220922Y51981D01*
X220984Y51983D01*
X221046Y51977D01*
X221070Y51986D01*
X221095Y51987D01*
X221150Y52017D01*
X221208Y52040D01*
X221225Y52058D01*
X221247Y52070D01*
X221283Y52121D01*
X221325Y52167D01*
X221332Y52191D01*
X221347Y52212D01*
X221363Y52299D01*
X221374Y52334D01*
X221372Y52343D01*
X221374Y52354D01*
X221374Y59554D01*
X221363Y59603D01*
X221361Y59653D01*
X221343Y59686D01*
X221335Y59723D01*
X221303Y59762D01*
X221279Y59806D01*
X221244Y59832D01*
X221225Y59856D01*
X221197Y59869D01*
X221164Y59894D01*
X220964Y59994D01*
X220950Y59998D01*
X220938Y60006D01*
X220937Y60006D01*
X220936Y60007D01*
X220802Y60033D01*
X220796Y60034D01*
X220795Y60034D01*
X220794Y60034D01*
X220656Y60034D01*
X220414Y60115D01*
X220377Y60118D01*
X220294Y60134D01*
X220184Y60134D01*
X220064Y60194D01*
X220049Y60198D01*
X220036Y60207D01*
X219902Y60233D01*
X219896Y60234D01*
X219895Y60234D01*
X219894Y60234D01*
X219294Y60234D01*
X219283Y60232D01*
X219269Y60233D01*
X217769Y60133D01*
X217746Y60126D01*
X217714Y60126D01*
X216314Y59826D01*
X216283Y59811D01*
X216235Y59799D01*
X214935Y59199D01*
X214922Y59189D01*
X214902Y59182D01*
X213702Y58482D01*
X213688Y58469D01*
X213666Y58458D01*
X212466Y57558D01*
X212451Y57540D01*
X212425Y57523D01*
X211425Y56523D01*
X211412Y56501D01*
X211386Y56478D01*
X210586Y55378D01*
X210578Y55357D01*
X210574Y55353D01*
X210574Y59054D01*
X210558Y59124D01*
X210547Y59195D01*
X210538Y59207D01*
X210535Y59223D01*
X210489Y59278D01*
X210448Y59337D01*
X210435Y59344D01*
X210425Y59356D01*
X210359Y59386D01*
X210296Y59420D01*
X210279Y59422D01*
X210266Y59427D01*
X210228Y59426D01*
X210152Y59432D01*
X209252Y59332D01*
X209238Y59327D01*
X209219Y59327D01*
X208219Y59127D01*
X208216Y59125D01*
X208212Y59125D01*
X207332Y58930D01*
X206452Y58832D01*
X206435Y58826D01*
X206412Y58825D01*
X204634Y58430D01*
X203656Y58332D01*
X203637Y58326D01*
X203612Y58325D01*
X202712Y58125D01*
X202708Y58124D01*
X202704Y58123D01*
X202658Y58100D01*
X202625Y58093D01*
X202599Y58071D01*
X202555Y58050D01*
X202553Y58047D01*
X202550Y58045D01*
X202520Y58006D01*
X202492Y57982D01*
X202477Y57949D01*
X202449Y57913D01*
X202448Y57910D01*
X202446Y57907D01*
X202434Y57854D01*
X202421Y57824D01*
X202422Y57799D01*
X202414Y57765D01*
X202314Y54365D01*
X202315Y54360D01*
X202314Y54354D01*
X202314Y30754D01*
X202325Y30704D01*
X202327Y30653D01*
X202345Y30621D01*
X202353Y30585D01*
X202386Y30546D01*
X202410Y30501D01*
X202440Y30480D01*
X202463Y30452D01*
X202510Y30431D01*
X202552Y30401D01*
X202594Y30393D01*
X202622Y30381D01*
X202652Y30382D01*
X202694Y30374D01*
X210494Y30374D01*
X210544Y30385D01*
G37*
%LPC*%
G36*
X153488Y36426D02*
X153488Y36426D01*
X152082Y36988D01*
X150959Y37830D01*
X150115Y38862D01*
X149451Y40189D01*
X149065Y41638D01*
X148772Y43200D01*
X148675Y44854D01*
X148772Y46510D01*
X149066Y48172D01*
X149451Y49619D01*
X150119Y50953D01*
X150970Y52089D01*
X151981Y52915D01*
X153377Y53381D01*
X154995Y53571D01*
X156708Y53381D01*
X158012Y52915D01*
X159122Y52082D01*
X159969Y50953D01*
X160642Y49608D01*
X161121Y48171D01*
X161315Y46520D01*
X161413Y44854D01*
X161315Y43189D01*
X161121Y41639D01*
X160638Y40189D01*
X160066Y38853D01*
X159229Y37830D01*
X158102Y36986D01*
X156796Y36426D01*
X155095Y36237D01*
X153488Y36426D01*
G37*
%LPD*%
G36*
X149404Y194858D02*
X149404Y194858D01*
X149411Y194852D01*
X150711Y195152D01*
X150728Y195173D01*
X150742Y195174D01*
X151242Y195974D01*
X151240Y195990D01*
X151249Y195996D01*
X151349Y197196D01*
X151347Y197199D01*
X151349Y197200D01*
X151349Y200675D01*
X152016Y201151D01*
X155600Y201151D01*
X155603Y201153D01*
X155604Y201151D01*
X156804Y201251D01*
X156822Y201267D01*
X156835Y201265D01*
X157535Y201965D01*
X157536Y201976D01*
X157539Y201979D01*
X157537Y201982D01*
X157538Y201987D01*
X157549Y201993D01*
X157749Y203393D01*
X157742Y203405D01*
X157748Y203412D01*
X157448Y204612D01*
X157430Y204627D01*
X157430Y204639D01*
X156630Y205239D01*
X156611Y205239D01*
X156609Y205243D01*
X156605Y205243D01*
X156600Y205249D01*
X151823Y205249D01*
X151349Y205818D01*
X151349Y206980D01*
X151920Y207551D01*
X159000Y207551D01*
X159009Y207557D01*
X159011Y207557D01*
X159016Y207561D01*
X159025Y207558D01*
X160025Y208158D01*
X160033Y208176D01*
X160043Y208184D01*
X160043Y208185D01*
X160048Y208187D01*
X160348Y209287D01*
X160343Y209298D01*
X160349Y209304D01*
X160249Y210604D01*
X160233Y210622D01*
X160235Y210635D01*
X159435Y211435D01*
X159414Y211438D01*
X159409Y211448D01*
X158309Y211648D01*
X158303Y211645D01*
X158300Y211649D01*
X148600Y211649D01*
X148594Y211645D01*
X148590Y211645D01*
X148586Y211642D01*
X148580Y211645D01*
X147680Y211245D01*
X147668Y211224D01*
X147664Y211221D01*
X147654Y211218D01*
X147254Y210218D01*
X147258Y210205D01*
X147251Y210200D01*
X147251Y197000D01*
X147253Y196997D01*
X147251Y196996D01*
X147351Y195796D01*
X147365Y195780D01*
X147363Y195768D01*
X147963Y195068D01*
X147987Y195063D01*
X147993Y195051D01*
X149393Y194851D01*
X149404Y194858D01*
G37*
G36*
X236107Y194856D02*
X236107Y194856D01*
X236112Y194852D01*
X237312Y195152D01*
X237316Y195157D01*
X237320Y195155D01*
X238420Y195655D01*
X238423Y195660D01*
X238427Y195659D01*
X239327Y196259D01*
X239330Y196266D01*
X239335Y196265D01*
X240235Y197165D01*
X240236Y197172D01*
X240240Y197172D01*
X240940Y198172D01*
X240940Y198180D01*
X240946Y198182D01*
X241346Y199182D01*
X241344Y199187D01*
X241348Y199188D01*
X241648Y200388D01*
X241644Y200396D01*
X241649Y200400D01*
X241649Y201700D01*
X241646Y201705D01*
X241649Y201708D01*
X241449Y202908D01*
X241444Y202913D01*
X241446Y202917D01*
X241046Y204017D01*
X241039Y204022D01*
X241041Y204027D01*
X240441Y204927D01*
X240436Y204929D01*
X240437Y204933D01*
X239637Y205833D01*
X239628Y205834D01*
X239628Y205840D01*
X238628Y206540D01*
X238621Y206540D01*
X238620Y206545D01*
X237520Y207045D01*
X237515Y207044D01*
X237513Y207048D01*
X236413Y207348D01*
X236404Y207344D01*
X236400Y207349D01*
X235200Y207349D01*
X235197Y207347D01*
X235196Y207349D01*
X233996Y207249D01*
X233989Y207243D01*
X233983Y207246D01*
X232883Y206846D01*
X232881Y206843D01*
X232878Y206844D01*
X231878Y206344D01*
X231875Y206337D01*
X231869Y206338D01*
X230869Y205538D01*
X230868Y205536D01*
X230866Y205536D01*
X229166Y203936D01*
X229162Y203908D01*
X229151Y203900D01*
X229151Y200100D01*
X229157Y200092D01*
X229153Y200087D01*
X229453Y198987D01*
X229459Y198982D01*
X229457Y198976D01*
X230057Y197876D01*
X230062Y197874D01*
X230061Y197870D01*
X230761Y196970D01*
X230768Y196968D01*
X230767Y196963D01*
X231667Y196163D01*
X231674Y196163D01*
X231675Y196158D01*
X232675Y195558D01*
X232679Y195558D01*
X232680Y195555D01*
X233780Y195055D01*
X233789Y195057D01*
X233792Y195051D01*
X234992Y194851D01*
X234997Y194854D01*
X235000Y194851D01*
X236100Y194851D01*
X236107Y194856D01*
G37*
G36*
X256503Y194951D02*
X256503Y194951D01*
X256518Y194964D01*
X256530Y194961D01*
X257330Y195561D01*
X257337Y195585D01*
X257348Y195591D01*
X257548Y196691D01*
X257545Y196697D01*
X257549Y196700D01*
X257549Y201500D01*
X257546Y201505D01*
X257549Y201508D01*
X257349Y202708D01*
X257344Y202713D01*
X257346Y202717D01*
X256946Y203817D01*
X256938Y203822D01*
X256940Y203828D01*
X256240Y204828D01*
X256236Y204830D01*
X256237Y204833D01*
X255437Y205733D01*
X255426Y205735D01*
X255425Y205742D01*
X254425Y206342D01*
X254418Y206341D01*
X254417Y206346D01*
X253317Y206746D01*
X253311Y206744D01*
X253309Y206748D01*
X252209Y206948D01*
X252198Y206943D01*
X252192Y206949D01*
X250992Y206749D01*
X250981Y206737D01*
X250972Y206740D01*
X249981Y206047D01*
X249424Y205954D01*
X248942Y206726D01*
X248914Y206737D01*
X248907Y206749D01*
X247507Y206949D01*
X247498Y206944D01*
X247493Y206949D01*
X246093Y206749D01*
X246074Y206730D01*
X246061Y206730D01*
X245461Y205930D01*
X245461Y205908D01*
X245451Y205900D01*
X245451Y196400D01*
X245457Y196392D01*
X245453Y196386D01*
X245753Y195386D01*
X245775Y195369D01*
X245778Y195356D01*
X246778Y194856D01*
X246796Y194859D01*
X246803Y194851D01*
X248403Y194951D01*
X248416Y194962D01*
X248426Y194958D01*
X249226Y195458D01*
X249236Y195484D01*
X249248Y195490D01*
X249448Y196490D01*
X249445Y196497D01*
X249449Y196500D01*
X249449Y200198D01*
X249548Y201386D01*
X250036Y202362D01*
X251109Y202850D01*
X252282Y202752D01*
X253058Y202170D01*
X253451Y200992D01*
X253451Y196200D01*
X253460Y196188D01*
X253455Y196180D01*
X253855Y195280D01*
X253879Y195267D01*
X253883Y195254D01*
X254983Y194854D01*
X254997Y194858D01*
X255003Y194851D01*
X256503Y194951D01*
G37*
G36*
X169206Y194858D02*
X169206Y194858D01*
X169213Y194853D01*
X170313Y195153D01*
X170319Y195160D01*
X170325Y195158D01*
X171322Y195756D01*
X171780Y195939D01*
X172258Y195174D01*
X172283Y195164D01*
X172289Y195152D01*
X173589Y194852D01*
X173601Y194857D01*
X173607Y194851D01*
X175007Y195051D01*
X175022Y195067D01*
X175035Y195065D01*
X175735Y195765D01*
X175738Y195789D01*
X175749Y195796D01*
X175849Y196896D01*
X175847Y196898D01*
X175849Y196900D01*
X175849Y205300D01*
X175843Y205308D01*
X175847Y205314D01*
X175547Y206314D01*
X175526Y206330D01*
X175524Y206343D01*
X174624Y206843D01*
X174607Y206841D01*
X174600Y206849D01*
X173100Y206849D01*
X173089Y206841D01*
X173082Y206846D01*
X172082Y206446D01*
X172066Y206419D01*
X172053Y206414D01*
X171753Y205414D01*
X171756Y205406D01*
X171753Y205404D01*
X171754Y205402D01*
X171751Y205400D01*
X171751Y200611D01*
X171262Y199536D01*
X170288Y199049D01*
X169114Y199049D01*
X168142Y199632D01*
X167849Y200707D01*
X167849Y204300D01*
X167847Y204302D01*
X167849Y204304D01*
X167749Y205604D01*
X167743Y205610D01*
X167747Y205616D01*
X167447Y206516D01*
X167420Y206534D01*
X167416Y206547D01*
X166216Y206947D01*
X166201Y206942D01*
X166194Y206949D01*
X164694Y206749D01*
X164679Y206735D01*
X164668Y206737D01*
X163968Y206137D01*
X163963Y206115D01*
X163952Y206110D01*
X163752Y205110D01*
X163755Y205103D01*
X163751Y205100D01*
X163751Y201400D01*
X163753Y201397D01*
X163751Y201396D01*
X163851Y200196D01*
X163853Y200194D01*
X163851Y200192D01*
X164051Y198992D01*
X164057Y198986D01*
X164054Y198982D01*
X164454Y197982D01*
X164459Y197979D01*
X164458Y197975D01*
X165058Y196975D01*
X165064Y196972D01*
X165063Y196967D01*
X165863Y196067D01*
X165872Y196066D01*
X165872Y196060D01*
X166872Y195360D01*
X166881Y195360D01*
X166883Y195354D01*
X167983Y194954D01*
X167992Y194957D01*
X167996Y194951D01*
X169196Y194851D01*
X169206Y194858D01*
G37*
G36*
X190403Y194951D02*
X190403Y194951D01*
X190420Y194965D01*
X190432Y194963D01*
X191132Y195563D01*
X191135Y195576D01*
X191137Y195585D01*
X191148Y195591D01*
X191348Y196691D01*
X191345Y196697D01*
X191349Y196700D01*
X191349Y201500D01*
X191346Y201505D01*
X191349Y201508D01*
X191149Y202708D01*
X191144Y202713D01*
X191146Y202717D01*
X190746Y203817D01*
X190740Y203821D01*
X190742Y203825D01*
X190142Y204825D01*
X190136Y204828D01*
X190137Y204833D01*
X189337Y205733D01*
X189326Y205735D01*
X189325Y205742D01*
X188325Y206342D01*
X188318Y206341D01*
X188317Y206346D01*
X187217Y206746D01*
X187210Y206744D01*
X187208Y206749D01*
X186008Y206949D01*
X185998Y206943D01*
X185992Y206949D01*
X184792Y206749D01*
X184780Y206736D01*
X184770Y206739D01*
X183880Y206047D01*
X183225Y205953D01*
X182742Y206726D01*
X182714Y206737D01*
X182708Y206749D01*
X181408Y206949D01*
X181398Y206944D01*
X181393Y206949D01*
X179993Y206749D01*
X179974Y206730D01*
X179961Y206730D01*
X179361Y205930D01*
X179361Y205908D01*
X179351Y205900D01*
X179351Y196400D01*
X179357Y196392D01*
X179353Y196386D01*
X179653Y195386D01*
X179675Y195369D01*
X179678Y195356D01*
X180678Y194856D01*
X180696Y194859D01*
X180703Y194851D01*
X182203Y194951D01*
X182216Y194962D01*
X182226Y194958D01*
X183026Y195458D01*
X183035Y195481D01*
X183047Y195486D01*
X183347Y196486D01*
X183344Y196496D01*
X183349Y196500D01*
X183349Y201386D01*
X183935Y202362D01*
X184910Y202850D01*
X186083Y202752D01*
X186957Y202170D01*
X187251Y200994D01*
X187251Y197400D01*
X187253Y197397D01*
X187251Y197396D01*
X187351Y196196D01*
X187357Y196189D01*
X187353Y196184D01*
X187653Y195284D01*
X187680Y195266D01*
X187684Y195253D01*
X188884Y194853D01*
X188897Y194858D01*
X188903Y194851D01*
X190403Y194951D01*
G37*
G36*
X215202Y194854D02*
X215202Y194854D01*
X215204Y194851D01*
X216304Y194951D01*
X216319Y194964D01*
X216330Y194961D01*
X217130Y195561D01*
X217137Y195587D01*
X217149Y195593D01*
X217349Y196993D01*
X217343Y197003D01*
X217349Y197008D01*
X217149Y198208D01*
X217123Y198232D01*
X217120Y198245D01*
X216220Y198645D01*
X216211Y198643D01*
X216208Y198649D01*
X214934Y198845D01*
X214549Y199710D01*
X214549Y201995D01*
X214739Y202847D01*
X215896Y202751D01*
X215904Y202756D01*
X215909Y202752D01*
X217009Y202952D01*
X217021Y202965D01*
X217032Y202963D01*
X217732Y203563D01*
X217737Y203587D01*
X217749Y203593D01*
X217949Y204993D01*
X217942Y205004D01*
X217948Y205011D01*
X217648Y206311D01*
X217627Y206328D01*
X217626Y206342D01*
X216826Y206842D01*
X216810Y206840D01*
X216804Y206849D01*
X215704Y206949D01*
X215699Y206946D01*
X215696Y206949D01*
X214549Y206854D01*
X214549Y209100D01*
X214546Y209105D01*
X214549Y209108D01*
X214349Y210308D01*
X214330Y210326D01*
X214330Y210339D01*
X213530Y210939D01*
X213510Y210939D01*
X213504Y210949D01*
X212104Y211049D01*
X212093Y211043D01*
X212087Y211048D01*
X210987Y210748D01*
X210970Y210726D01*
X210957Y210724D01*
X210457Y209824D01*
X210459Y209807D01*
X210451Y209800D01*
X210451Y207418D01*
X209974Y206845D01*
X208891Y206648D01*
X208867Y206622D01*
X208854Y206618D01*
X208454Y205618D01*
X208457Y205608D01*
X208451Y205604D01*
X208351Y204304D01*
X208358Y204294D01*
X208353Y204287D01*
X208653Y203187D01*
X208680Y203166D01*
X208684Y203153D01*
X210451Y202565D01*
X210451Y200200D01*
X210453Y200198D01*
X210451Y200196D01*
X210551Y198896D01*
X210553Y198894D01*
X210551Y198893D01*
X210751Y197593D01*
X210757Y197587D01*
X210754Y197582D01*
X211154Y196582D01*
X211164Y196576D01*
X211163Y196568D01*
X211763Y195868D01*
X211772Y195866D01*
X211773Y195859D01*
X212673Y195259D01*
X212684Y195260D01*
X212687Y195253D01*
X213787Y194953D01*
X213794Y194955D01*
X213797Y194951D01*
X215197Y194851D01*
X215202Y194854D01*
G37*
G36*
X201508Y194857D02*
X201508Y194857D01*
X201513Y194853D01*
X202613Y195153D01*
X202617Y195157D01*
X202620Y195155D01*
X203720Y195655D01*
X203725Y195663D01*
X203731Y195662D01*
X204731Y196462D01*
X204735Y196478D01*
X204745Y196480D01*
X205145Y197380D01*
X205141Y197397D01*
X205143Y197398D01*
X205140Y197403D01*
X205139Y197406D01*
X205146Y197417D01*
X204746Y198517D01*
X204735Y198524D01*
X204736Y198533D01*
X203736Y199633D01*
X203720Y199636D01*
X203717Y199646D01*
X202917Y199946D01*
X202889Y199938D01*
X202876Y199943D01*
X201780Y199345D01*
X200599Y198951D01*
X199524Y199244D01*
X198649Y200022D01*
X198649Y201191D01*
X199041Y202269D01*
X200016Y202951D01*
X201187Y202951D01*
X202276Y202357D01*
X202283Y202358D01*
X202284Y202353D01*
X203184Y202053D01*
X203215Y202063D01*
X203227Y202059D01*
X204127Y202659D01*
X204132Y202672D01*
X204141Y202673D01*
X204941Y203873D01*
X204940Y203887D01*
X204948Y203891D01*
X205148Y204991D01*
X205135Y205017D01*
X205139Y205030D01*
X204439Y205930D01*
X204426Y205934D01*
X204425Y205942D01*
X203425Y206542D01*
X203417Y206541D01*
X203416Y206547D01*
X202216Y206947D01*
X202210Y206945D01*
X202208Y206949D01*
X201008Y207149D01*
X201003Y207146D01*
X201000Y207149D01*
X199800Y207149D01*
X199792Y207143D01*
X199787Y207148D01*
X198687Y206848D01*
X198683Y206843D01*
X198680Y206845D01*
X197580Y206345D01*
X197576Y206339D01*
X197572Y206340D01*
X196572Y205640D01*
X196570Y205634D01*
X196565Y205635D01*
X195765Y204835D01*
X195764Y204827D01*
X195758Y204826D01*
X195058Y203726D01*
X195059Y203719D01*
X195054Y203717D01*
X194654Y202617D01*
X194657Y202608D01*
X194651Y202604D01*
X194551Y201404D01*
X194553Y201401D01*
X194551Y201400D01*
X194551Y200200D01*
X194557Y200192D01*
X194553Y200187D01*
X194853Y199087D01*
X194857Y199083D01*
X194855Y199080D01*
X195355Y197980D01*
X195361Y197976D01*
X195360Y197972D01*
X196060Y196972D01*
X196068Y196969D01*
X196067Y196963D01*
X196967Y196163D01*
X196974Y196163D01*
X196975Y196158D01*
X197975Y195558D01*
X197979Y195558D01*
X197980Y195555D01*
X199080Y195055D01*
X199088Y195057D01*
X199091Y195052D01*
X200191Y194852D01*
X200197Y194855D01*
X200200Y194851D01*
X201500Y194851D01*
X201508Y194857D01*
G37*
G36*
X181435Y175670D02*
X181435Y175670D01*
X181444Y175666D01*
X182044Y175966D01*
X182055Y175988D01*
X182057Y175989D01*
X182068Y175993D01*
X182368Y176793D01*
X182364Y176808D01*
X182371Y176814D01*
X182271Y177914D01*
X182258Y177929D01*
X182260Y177941D01*
X181860Y178441D01*
X181839Y178446D01*
X181834Y178458D01*
X181034Y178658D01*
X181026Y178654D01*
X181022Y178659D01*
X175971Y178659D01*
X175971Y179407D01*
X176065Y180161D01*
X179422Y180161D01*
X179430Y180167D01*
X179436Y180163D01*
X180136Y180363D01*
X180151Y180384D01*
X180165Y180386D01*
X180565Y181086D01*
X180562Y181103D01*
X180571Y181110D01*
X180571Y182210D01*
X180559Y182226D01*
X180563Y182237D01*
X180163Y182837D01*
X180140Y182845D01*
X180136Y182857D01*
X179436Y183057D01*
X179426Y183054D01*
X179422Y183059D01*
X176065Y183059D01*
X175971Y183813D01*
X175971Y184567D01*
X176625Y184661D01*
X180822Y184661D01*
X180825Y184663D01*
X180827Y184661D01*
X181727Y184761D01*
X181744Y184777D01*
X181757Y184775D01*
X182257Y185275D01*
X182259Y185292D01*
X182270Y185300D01*
X182268Y185303D01*
X182271Y185305D01*
X182371Y186305D01*
X182365Y186315D01*
X182370Y186321D01*
X182170Y187221D01*
X182150Y187238D01*
X182149Y187251D01*
X181549Y187651D01*
X181529Y187650D01*
X181522Y187659D01*
X173822Y187659D01*
X173806Y187647D01*
X173795Y187651D01*
X173195Y187251D01*
X173186Y187227D01*
X173174Y187222D01*
X172974Y186422D01*
X172978Y186414D01*
X172973Y186410D01*
X172973Y177010D01*
X172976Y177006D01*
X172973Y177004D01*
X173073Y176204D01*
X173092Y176185D01*
X173091Y176172D01*
X173591Y175772D01*
X173611Y175771D01*
X173617Y175761D01*
X174617Y175661D01*
X174620Y175663D01*
X174622Y175661D01*
X181422Y175661D01*
X181435Y175670D01*
G37*
G36*
X198326Y175761D02*
X198326Y175761D01*
X198341Y175774D01*
X198353Y175772D01*
X198853Y176172D01*
X198857Y176187D01*
X198860Y176189D01*
X198858Y176192D01*
X198859Y176197D01*
X198871Y176204D01*
X198971Y177004D01*
X198969Y177008D01*
X198971Y177010D01*
X198971Y178680D01*
X199534Y178961D01*
X201222Y178961D01*
X201226Y178964D01*
X201229Y178961D01*
X201929Y179061D01*
X201935Y179067D01*
X201939Y179064D01*
X202739Y179364D01*
X202741Y179367D01*
X202744Y179366D01*
X203544Y179766D01*
X203549Y179776D01*
X203557Y179775D01*
X204757Y180975D01*
X204759Y180990D01*
X204768Y180993D01*
X205068Y181793D01*
X205067Y181797D01*
X205070Y181798D01*
X205270Y182598D01*
X205268Y182603D01*
X205271Y182605D01*
X205371Y183505D01*
X205369Y183508D01*
X205371Y183510D01*
X205371Y184310D01*
X205355Y184331D01*
X205357Y184345D01*
X205164Y184537D01*
X204868Y185327D01*
X204860Y185332D01*
X204862Y185339D01*
X204362Y186039D01*
X204356Y186040D01*
X204357Y186045D01*
X203757Y186645D01*
X203749Y186646D01*
X203748Y186652D01*
X202948Y187152D01*
X202941Y187151D01*
X202939Y187156D01*
X202139Y187456D01*
X202136Y187455D01*
X202136Y187457D01*
X201436Y187657D01*
X201426Y187654D01*
X201422Y187659D01*
X197122Y187659D01*
X197112Y187652D01*
X197105Y187656D01*
X196305Y187356D01*
X196291Y187334D01*
X196278Y187332D01*
X195978Y186732D01*
X195981Y186716D01*
X195973Y186710D01*
X195973Y177410D01*
X195975Y177407D01*
X195973Y177405D01*
X196073Y176505D01*
X196082Y176496D01*
X196078Y176488D01*
X196378Y175888D01*
X196405Y175875D01*
X196410Y175862D01*
X197210Y175662D01*
X197221Y175667D01*
X197226Y175661D01*
X198326Y175761D01*
G37*
G36*
X227639Y175674D02*
X227639Y175674D01*
X227651Y175670D01*
X228351Y176170D01*
X228356Y176187D01*
X228359Y176189D01*
X228357Y176191D01*
X228359Y176197D01*
X228371Y176204D01*
X228471Y177004D01*
X228467Y177011D01*
X228471Y177015D01*
X228371Y177915D01*
X228355Y177932D01*
X228357Y177945D01*
X227857Y178445D01*
X227838Y178447D01*
X227833Y178458D01*
X226933Y178658D01*
X226925Y178655D01*
X226922Y178659D01*
X224452Y178659D01*
X224391Y178781D01*
X224938Y178963D01*
X224944Y178972D01*
X224951Y178970D01*
X225651Y179470D01*
X225652Y179473D01*
X225654Y179473D01*
X226354Y180073D01*
X226355Y180075D01*
X226357Y180075D01*
X226957Y180675D01*
X226958Y180681D01*
X226962Y180681D01*
X227462Y181381D01*
X227462Y181391D01*
X227468Y181393D01*
X227768Y182193D01*
X227767Y182196D01*
X227770Y182198D01*
X227767Y182201D01*
X227771Y182204D01*
X227871Y183004D01*
X227869Y183008D01*
X227871Y183010D01*
X227871Y183910D01*
X227868Y183914D01*
X227871Y183916D01*
X227771Y184716D01*
X227761Y184726D01*
X227765Y184734D01*
X227366Y185433D01*
X226966Y186232D01*
X226956Y186237D01*
X226957Y186245D01*
X226357Y186845D01*
X226353Y186845D01*
X226354Y186848D01*
X225754Y187348D01*
X225742Y187348D01*
X225739Y187356D01*
X224939Y187656D01*
X224935Y187655D01*
X224934Y187658D01*
X224134Y187858D01*
X224126Y187854D01*
X224122Y187859D01*
X223222Y187859D01*
X223216Y187854D01*
X223211Y187858D01*
X222311Y187658D01*
X222311Y187657D01*
X222310Y187658D01*
X221510Y187458D01*
X221502Y187447D01*
X221493Y187450D01*
X220793Y186950D01*
X220791Y186941D01*
X220784Y186942D01*
X220285Y186342D01*
X219685Y185642D01*
X219684Y185631D01*
X219677Y185629D01*
X219377Y184929D01*
X219378Y184924D01*
X219374Y184922D01*
X219174Y184122D01*
X219176Y184117D01*
X219173Y184115D01*
X219073Y183215D01*
X219080Y183204D01*
X219075Y183196D01*
X219275Y182496D01*
X219289Y182486D01*
X219287Y182475D01*
X219787Y181975D01*
X219811Y181972D01*
X219818Y181961D01*
X220918Y181861D01*
X220926Y181866D01*
X220936Y181866D01*
X220939Y181864D01*
X221739Y182164D01*
X221752Y182184D01*
X221754Y182186D01*
X221766Y182188D01*
X222066Y182788D01*
X222064Y182800D01*
X222071Y182805D01*
X222170Y183697D01*
X222462Y184378D01*
X223135Y184859D01*
X224005Y184762D01*
X224584Y184376D01*
X224969Y183605D01*
X224777Y182930D01*
X224283Y182141D01*
X223790Y181648D01*
X223095Y181151D01*
X220897Y179852D01*
X220896Y179849D01*
X220893Y179850D01*
X220193Y179350D01*
X220190Y179339D01*
X220182Y179339D01*
X219682Y178639D01*
X219682Y178635D01*
X219679Y178634D01*
X219279Y177934D01*
X219281Y177925D01*
X219274Y177922D01*
X219074Y177122D01*
X219082Y177103D01*
X219076Y177093D01*
X219376Y176293D01*
X219393Y176282D01*
X219393Y176270D01*
X220093Y175770D01*
X220111Y175770D01*
X220116Y175761D01*
X220916Y175661D01*
X220920Y175663D01*
X220922Y175661D01*
X227622Y175661D01*
X227639Y175674D01*
G37*
G36*
X207920Y160521D02*
X207920Y160521D01*
X207930Y160531D01*
X207938Y160527D01*
X208838Y161027D01*
X208845Y161042D01*
X208855Y161043D01*
X209255Y161643D01*
X209253Y161671D01*
X209262Y161682D01*
X209062Y162482D01*
X209056Y162487D01*
X209058Y162492D01*
X208658Y163292D01*
X204558Y171692D01*
X204555Y171693D01*
X204556Y171695D01*
X204256Y172195D01*
X204240Y172202D01*
X204238Y172213D01*
X203538Y172613D01*
X203513Y172609D01*
X203502Y172618D01*
X202702Y172418D01*
X202694Y172407D01*
X202685Y172410D01*
X201985Y171910D01*
X201981Y171896D01*
X201971Y171894D01*
X201571Y171194D01*
X201572Y171192D01*
X201570Y171191D01*
X197470Y162691D01*
X197471Y162684D01*
X197466Y162682D01*
X197266Y161882D01*
X197273Y161865D01*
X197267Y161856D01*
X197467Y161156D01*
X197488Y161140D01*
X197490Y161127D01*
X198390Y160627D01*
X198399Y160628D01*
X198402Y160622D01*
X199202Y160422D01*
X199226Y160433D01*
X199238Y160427D01*
X199938Y160827D01*
X199946Y160846D01*
X199958Y160848D01*
X200358Y161648D01*
X200358Y161649D01*
X200359Y161649D01*
X201045Y163121D01*
X205291Y163121D01*
X205772Y162544D01*
X206469Y160950D01*
X206483Y160942D01*
X206482Y160932D01*
X207082Y160432D01*
X207111Y160431D01*
X207120Y160421D01*
X207920Y160521D01*
G37*
G36*
X294952Y138005D02*
X294952Y138005D01*
X294958Y138001D01*
X295658Y138201D01*
X295662Y138206D01*
X295666Y138204D01*
X296266Y138504D01*
X296267Y138507D01*
X296269Y138506D01*
X296769Y138806D01*
X296771Y138811D01*
X296776Y138810D01*
X297376Y139310D01*
X297377Y139317D01*
X297382Y139317D01*
X297782Y139817D01*
X297783Y139821D01*
X297785Y139821D01*
X298185Y140421D01*
X298185Y140425D01*
X298188Y140426D01*
X298488Y141026D01*
X298487Y141031D01*
X298491Y141032D01*
X298691Y141632D01*
X298689Y141639D01*
X298693Y141641D01*
X298793Y142341D01*
X298790Y142346D01*
X298793Y142348D01*
X298793Y143748D01*
X298786Y143757D01*
X298791Y143764D01*
X298391Y144964D01*
X298386Y144967D01*
X298388Y144970D01*
X298088Y145570D01*
X298084Y145572D01*
X298085Y145575D01*
X297685Y146175D01*
X297675Y146179D01*
X297675Y146186D01*
X297175Y146586D01*
X296576Y147086D01*
X296567Y147086D01*
X296566Y147092D01*
X295966Y147392D01*
X295961Y147391D01*
X295960Y147395D01*
X294760Y147795D01*
X294749Y147791D01*
X294744Y147797D01*
X293544Y147797D01*
X293539Y147794D01*
X293536Y147797D01*
X292936Y147697D01*
X292933Y147693D01*
X292930Y147695D01*
X292230Y147495D01*
X292225Y147488D01*
X292219Y147490D01*
X291719Y147190D01*
X291718Y147189D01*
X291717Y147189D01*
X291117Y146789D01*
X291114Y146782D01*
X291109Y146783D01*
X290609Y146283D01*
X290609Y146279D01*
X290606Y146279D01*
X290206Y145779D01*
X290205Y145775D01*
X290203Y145775D01*
X289803Y145175D01*
X289804Y145166D01*
X289797Y145164D01*
X289397Y143964D01*
X289399Y143957D01*
X289395Y143955D01*
X289295Y143255D01*
X289298Y143250D01*
X289295Y143248D01*
X289295Y142548D01*
X289298Y142544D01*
X289295Y142541D01*
X289395Y141841D01*
X289400Y141836D01*
X289397Y141832D01*
X289797Y140632D01*
X289805Y140627D01*
X289803Y140621D01*
X290203Y140021D01*
X290206Y140020D01*
X290206Y140017D01*
X290606Y139517D01*
X290610Y139516D01*
X290609Y139513D01*
X291109Y139013D01*
X291116Y139012D01*
X291117Y139007D01*
X291717Y138607D01*
X291721Y138607D01*
X291722Y138604D01*
X292322Y138304D01*
X292327Y138305D01*
X292328Y138301D01*
X292928Y138101D01*
X292935Y138103D01*
X292937Y138099D01*
X293637Y137999D01*
X293642Y138002D01*
X293644Y137999D01*
X294944Y137999D01*
X294952Y138005D01*
G37*
G36*
X306453Y138006D02*
X306453Y138006D01*
X306460Y138001D01*
X307060Y138201D01*
X307063Y138206D01*
X307066Y138204D01*
X308266Y138804D01*
X308271Y138814D01*
X308279Y138813D01*
X309279Y139813D01*
X309280Y139825D01*
X309288Y139826D01*
X309888Y141026D01*
X309887Y141031D01*
X309891Y141032D01*
X310091Y141632D01*
X310089Y141639D01*
X310093Y141641D01*
X310293Y143041D01*
X310288Y143050D01*
X310293Y143055D01*
X310193Y143755D01*
X310192Y143756D01*
X310193Y143756D01*
X310093Y144356D01*
X310085Y144363D01*
X310088Y144370D01*
X309488Y145570D01*
X309484Y145572D01*
X309485Y145575D01*
X309085Y146175D01*
X309075Y146179D01*
X309075Y146186D01*
X308577Y146585D01*
X308079Y147083D01*
X308067Y147084D01*
X308066Y147092D01*
X307466Y147392D01*
X307461Y147391D01*
X307460Y147395D01*
X306860Y147595D01*
X306858Y147594D01*
X306858Y147595D01*
X306158Y147795D01*
X306148Y147792D01*
X306144Y147797D01*
X305044Y147797D01*
X305040Y147794D01*
X305037Y147797D01*
X304337Y147697D01*
X304332Y147692D01*
X304328Y147695D01*
X303728Y147495D01*
X303725Y147490D01*
X303722Y147492D01*
X303122Y147192D01*
X303120Y147188D01*
X303117Y147189D01*
X302517Y146789D01*
X302514Y146782D01*
X302509Y146783D01*
X302009Y146283D01*
X302009Y146279D01*
X302006Y146279D01*
X301606Y145779D01*
X301605Y145771D01*
X301600Y145770D01*
X301000Y144570D01*
X301001Y144565D01*
X300997Y144562D01*
X301000Y144559D01*
X300995Y144556D01*
X300895Y143956D01*
X300896Y143955D01*
X300895Y143955D01*
X300795Y143255D01*
X300798Y143250D01*
X300795Y143248D01*
X300795Y141848D01*
X300802Y141839D01*
X300797Y141832D01*
X300997Y141232D01*
X301002Y141229D01*
X301000Y141226D01*
X301600Y140026D01*
X301610Y140021D01*
X301609Y140013D01*
X302609Y139013D01*
X302613Y139013D01*
X302613Y139010D01*
X303113Y138610D01*
X303121Y138609D01*
X303122Y138604D01*
X303722Y138304D01*
X303727Y138305D01*
X303728Y138301D01*
X304328Y138101D01*
X304335Y138103D01*
X304337Y138099D01*
X305037Y137999D01*
X305042Y138002D01*
X305044Y137999D01*
X306444Y137999D01*
X306453Y138006D01*
G37*
G36*
X212125Y175663D02*
X212125Y175663D01*
X212127Y175661D01*
X213027Y175761D01*
X213031Y175765D01*
X213034Y175762D01*
X213834Y175962D01*
X213837Y175966D01*
X213839Y175964D01*
X214639Y176264D01*
X214642Y176269D01*
X214646Y176267D01*
X215346Y176667D01*
X215352Y176681D01*
X215362Y176681D01*
X215861Y177380D01*
X216360Y177978D01*
X216361Y177994D01*
X216370Y177998D01*
X216570Y178798D01*
X216569Y178799D01*
X216570Y178799D01*
X216569Y178801D01*
X216568Y178803D01*
X216571Y178805D01*
X216671Y179705D01*
X216665Y179715D01*
X216670Y179722D01*
X216470Y180522D01*
X216462Y180528D01*
X216465Y180534D01*
X216065Y181234D01*
X216058Y181237D01*
X216059Y181242D01*
X215471Y181928D01*
X215471Y182387D01*
X216054Y182872D01*
X216057Y182886D01*
X216058Y182887D01*
X216057Y182888D01*
X216058Y182890D01*
X216068Y182893D01*
X216368Y183693D01*
X216365Y183705D01*
X216371Y183710D01*
X216371Y184510D01*
X216368Y184514D01*
X216371Y184516D01*
X216271Y185316D01*
X216262Y185325D01*
X216266Y185332D01*
X215866Y186132D01*
X215861Y186135D01*
X215862Y186139D01*
X215362Y186839D01*
X215356Y186840D01*
X215357Y186845D01*
X214157Y188045D01*
X214130Y188049D01*
X214122Y188059D01*
X212422Y188059D01*
X212419Y188057D01*
X212417Y188059D01*
X211517Y187959D01*
X211516Y187959D01*
X210716Y187859D01*
X210707Y187850D01*
X210700Y187854D01*
X209900Y187454D01*
X209899Y187452D01*
X209898Y187453D01*
X209198Y187053D01*
X209193Y187042D01*
X209185Y187042D01*
X208585Y186342D01*
X208584Y186333D01*
X208578Y186332D01*
X208178Y185532D01*
X208179Y185527D01*
X208175Y185524D01*
X208178Y185520D01*
X208173Y185518D01*
X208073Y184918D01*
X208083Y184901D01*
X208077Y184891D01*
X208377Y184191D01*
X208395Y184180D01*
X208396Y184168D01*
X209196Y183668D01*
X209211Y183670D01*
X209216Y183661D01*
X210016Y183561D01*
X210040Y183575D01*
X210054Y183572D01*
X210654Y184072D01*
X210655Y184079D01*
X210660Y184078D01*
X211154Y184672D01*
X211835Y185061D01*
X212706Y185061D01*
X213373Y184585D01*
X213373Y183944D01*
X212611Y183658D01*
X211617Y183559D01*
X211608Y183550D01*
X211600Y183554D01*
X211000Y183254D01*
X210987Y183227D01*
X210974Y183222D01*
X210774Y182422D01*
X210778Y182414D01*
X210773Y182410D01*
X210773Y181310D01*
X210789Y181289D01*
X210787Y181275D01*
X211287Y180775D01*
X211309Y180772D01*
X211315Y180761D01*
X212015Y180661D01*
X212016Y180662D01*
X212017Y180661D01*
X212901Y180563D01*
X213576Y179985D01*
X213670Y179327D01*
X213097Y178754D01*
X212316Y178559D01*
X211436Y178559D01*
X210662Y179043D01*
X210368Y179827D01*
X210352Y179837D01*
X210353Y179848D01*
X209853Y180248D01*
X209833Y180249D01*
X209827Y180259D01*
X208827Y180359D01*
X208817Y180353D01*
X208811Y180358D01*
X207911Y180158D01*
X207894Y180138D01*
X207881Y180137D01*
X207481Y179537D01*
X207482Y179520D01*
X207476Y179516D01*
X207480Y179510D01*
X207473Y179503D01*
X207573Y178803D01*
X207578Y178798D01*
X207575Y178794D01*
X207875Y177894D01*
X207884Y177888D01*
X207882Y177881D01*
X208382Y177181D01*
X208388Y177180D01*
X208387Y177175D01*
X208987Y176575D01*
X208994Y176574D01*
X208995Y176569D01*
X209595Y176169D01*
X209603Y176170D01*
X209605Y176164D01*
X210405Y175864D01*
X210409Y175865D01*
X210410Y175862D01*
X211210Y175662D01*
X211218Y175666D01*
X211222Y175661D01*
X212122Y175661D01*
X212125Y175663D01*
G37*
G36*
X604729Y127063D02*
X604729Y127063D01*
X604734Y127068D01*
X604738Y127066D01*
X611838Y129566D01*
X611845Y129576D01*
X611853Y129574D01*
X612353Y129974D01*
X612358Y129993D01*
X612369Y129996D01*
X612569Y130596D01*
X612564Y130612D01*
X612571Y130619D01*
X612471Y131319D01*
X612450Y131339D01*
X612449Y131353D01*
X611849Y131753D01*
X611840Y131752D01*
X611838Y131759D01*
X609539Y132558D01*
X607568Y133309D01*
X611338Y134565D01*
X611938Y134765D01*
X611947Y134779D01*
X611957Y134777D01*
X612457Y135277D01*
X612460Y135298D01*
X612471Y135304D01*
X612571Y135904D01*
X612562Y135921D01*
X612567Y135931D01*
X612267Y136631D01*
X612249Y136642D01*
X612247Y136654D01*
X611747Y136954D01*
X611740Y136953D01*
X611738Y136958D01*
X604638Y139458D01*
X604636Y139458D01*
X604636Y139459D01*
X603936Y139659D01*
X603912Y139650D01*
X603900Y139656D01*
X603500Y139456D01*
X603491Y139438D01*
X603479Y139436D01*
X603079Y138736D01*
X603080Y138728D01*
X603075Y138726D01*
X602875Y138026D01*
X602886Y137998D01*
X602881Y137985D01*
X603281Y137385D01*
X603302Y137377D01*
X603306Y137365D01*
X607695Y135869D01*
X607831Y135734D01*
X604006Y134459D01*
X604003Y134454D01*
X604000Y134456D01*
X603400Y134156D01*
X603393Y134143D01*
X603384Y134143D01*
X602984Y133643D01*
X602983Y133631D01*
X602975Y133625D01*
X602983Y133614D01*
X602973Y133605D01*
X603073Y132905D01*
X603081Y132897D01*
X603078Y132890D01*
X603378Y132290D01*
X603399Y132279D01*
X603403Y132267D01*
X604103Y131967D01*
X604105Y131967D01*
X604106Y131965D01*
X607831Y130691D01*
X607696Y130555D01*
X603808Y129359D01*
X603804Y129354D01*
X603800Y129356D01*
X603200Y129056D01*
X603190Y129036D01*
X603178Y129034D01*
X602878Y128434D01*
X602883Y128409D01*
X602875Y128398D01*
X603075Y127698D01*
X603084Y127692D01*
X603081Y127685D01*
X603481Y127085D01*
X603506Y127076D01*
X603512Y127064D01*
X604012Y126964D01*
X604023Y126969D01*
X604029Y126963D01*
X604729Y127063D01*
G37*
G36*
X608169Y103719D02*
X608169Y103719D01*
X608180Y103714D01*
X608780Y104014D01*
X608787Y104027D01*
X608796Y104027D01*
X609196Y104527D01*
X609197Y104540D01*
X609205Y104542D01*
X611605Y111642D01*
X611604Y111644D01*
X611605Y111644D01*
X611805Y112344D01*
X611796Y112368D01*
X611802Y112380D01*
X611602Y112780D01*
X611584Y112789D01*
X611582Y112801D01*
X610882Y113201D01*
X610874Y113200D01*
X610872Y113205D01*
X610172Y113405D01*
X610140Y113393D01*
X610127Y113396D01*
X609627Y112996D01*
X609623Y112982D01*
X609623Y112981D01*
X609623Y112978D01*
X609612Y112975D01*
X608015Y108585D01*
X607880Y108449D01*
X606605Y112274D01*
X606405Y112874D01*
X606386Y112886D01*
X606385Y112899D01*
X605785Y113299D01*
X605760Y113297D01*
X605751Y113307D01*
X605051Y113207D01*
X605041Y113197D01*
X605033Y113200D01*
X604533Y112900D01*
X604525Y112880D01*
X604513Y112877D01*
X604213Y112177D01*
X604213Y112175D01*
X604211Y112174D01*
X602937Y108449D01*
X602801Y108585D01*
X601505Y112474D01*
X601500Y112477D01*
X601502Y112480D01*
X601202Y113080D01*
X601185Y113089D01*
X601183Y113100D01*
X600683Y113400D01*
X600655Y113397D01*
X600644Y113405D01*
X599944Y113205D01*
X599939Y113198D01*
X599934Y113201D01*
X599234Y112801D01*
X599222Y112774D01*
X599210Y112768D01*
X599110Y112268D01*
X599117Y112253D01*
X599111Y112244D01*
X599311Y111544D01*
X599312Y111543D01*
X599311Y111542D01*
X601711Y104442D01*
X601722Y104435D01*
X601720Y104427D01*
X602120Y103927D01*
X602140Y103922D01*
X602144Y103911D01*
X602844Y103711D01*
X602859Y103716D01*
X602866Y103709D01*
X603466Y103809D01*
X603483Y103827D01*
X603496Y103826D01*
X603996Y104426D01*
X603996Y104434D01*
X603997Y104434D01*
X603996Y104435D01*
X603996Y104439D01*
X604005Y104442D01*
X604805Y106742D01*
X604804Y106742D01*
X604805Y106742D01*
X605458Y108702D01*
X606911Y104342D01*
X606925Y104333D01*
X606923Y104323D01*
X607423Y103823D01*
X607445Y103820D01*
X607451Y103809D01*
X608151Y103709D01*
X608169Y103719D01*
G37*
G36*
X189529Y175666D02*
X189529Y175666D01*
X189534Y175662D01*
X190334Y175862D01*
X190337Y175866D01*
X190339Y175864D01*
X191139Y176164D01*
X191142Y176169D01*
X191146Y176167D01*
X191846Y176567D01*
X191849Y176573D01*
X191854Y176572D01*
X192454Y177072D01*
X192456Y177083D01*
X192464Y177084D01*
X192964Y177884D01*
X192963Y177894D01*
X192969Y177896D01*
X193169Y178596D01*
X193168Y178601D01*
X193170Y178602D01*
X193169Y178604D01*
X193171Y178605D01*
X193271Y179505D01*
X193269Y179508D01*
X193271Y179510D01*
X193271Y180410D01*
X193264Y180420D01*
X193268Y180427D01*
X192968Y181227D01*
X192960Y181232D01*
X192962Y181239D01*
X192462Y181939D01*
X192453Y181941D01*
X192454Y181948D01*
X191854Y182448D01*
X191843Y182448D01*
X191841Y182455D01*
X191141Y182755D01*
X191138Y182755D01*
X191138Y182757D01*
X190238Y183057D01*
X190235Y183056D01*
X190234Y183058D01*
X188641Y183456D01*
X187965Y183842D01*
X187776Y184598D01*
X188247Y185164D01*
X189016Y185260D01*
X189799Y184966D01*
X190493Y184470D01*
X190510Y184470D01*
X190515Y184461D01*
X191215Y184361D01*
X191238Y184374D01*
X191251Y184370D01*
X191951Y184870D01*
X191954Y184880D01*
X191961Y184880D01*
X192561Y185680D01*
X192561Y185690D01*
X192568Y185694D01*
X192562Y185703D01*
X192571Y185710D01*
X192571Y186310D01*
X192557Y186329D01*
X192559Y186342D01*
X191959Y187042D01*
X191950Y187044D01*
X191949Y187051D01*
X191349Y187451D01*
X191340Y187450D01*
X191338Y187457D01*
X190438Y187757D01*
X190435Y187756D01*
X190434Y187758D01*
X189634Y187958D01*
X189626Y187954D01*
X189622Y187959D01*
X187822Y187959D01*
X187812Y187952D01*
X187805Y187956D01*
X187005Y187656D01*
X187004Y187655D01*
X187003Y187655D01*
X186303Y187355D01*
X186296Y187344D01*
X186287Y187345D01*
X185687Y186745D01*
X185686Y186739D01*
X185682Y186739D01*
X185182Y186039D01*
X185182Y186031D01*
X185177Y186029D01*
X184877Y185329D01*
X184877Y185328D01*
X184876Y185327D01*
X184878Y185325D01*
X184879Y185319D01*
X184873Y185315D01*
X184773Y184415D01*
X184775Y184412D01*
X184773Y184410D01*
X184773Y183610D01*
X184780Y183600D01*
X184776Y183593D01*
X185076Y182793D01*
X185084Y182788D01*
X185082Y182781D01*
X185582Y182081D01*
X185588Y182080D01*
X185587Y182075D01*
X186187Y181475D01*
X186200Y181473D01*
X186203Y181465D01*
X186903Y181165D01*
X186906Y181166D01*
X186906Y181163D01*
X187805Y180864D01*
X188605Y180564D01*
X188613Y180566D01*
X188616Y180561D01*
X189406Y180462D01*
X190079Y180078D01*
X190270Y179316D01*
X189987Y178749D01*
X189216Y178460D01*
X188340Y178558D01*
X187652Y179049D01*
X186852Y179649D01*
X186845Y179649D01*
X186844Y179654D01*
X186244Y179954D01*
X186220Y179950D01*
X186210Y179958D01*
X185410Y179758D01*
X185395Y179740D01*
X185383Y179740D01*
X184783Y178940D01*
X184783Y178930D01*
X184778Y178927D01*
X184775Y178926D01*
X184575Y178326D01*
X184584Y178300D01*
X184578Y178288D01*
X184978Y177488D01*
X184988Y177483D01*
X184987Y177475D01*
X185487Y176975D01*
X185490Y176975D01*
X185490Y176973D01*
X186190Y176373D01*
X186199Y176372D01*
X186200Y176366D01*
X187000Y175966D01*
X187008Y175967D01*
X187010Y175962D01*
X187810Y175762D01*
X187814Y175764D01*
X187816Y175761D01*
X188616Y175661D01*
X188620Y175663D01*
X188622Y175661D01*
X189522Y175661D01*
X189529Y175666D01*
G37*
G36*
X284648Y138002D02*
X284648Y138002D01*
X284651Y137999D01*
X285351Y138099D01*
X285356Y138104D01*
X285360Y138101D01*
X285960Y138301D01*
X285965Y138309D01*
X285971Y138307D01*
X286571Y138707D01*
X286575Y138717D01*
X286582Y138717D01*
X286982Y139217D01*
X286983Y139221D01*
X286985Y139221D01*
X287385Y139821D01*
X287384Y139836D01*
X287393Y139841D01*
X287593Y141241D01*
X287588Y141250D01*
X287593Y141255D01*
X287493Y141955D01*
X287485Y141963D01*
X287488Y141970D01*
X287188Y142570D01*
X287181Y142573D01*
X287182Y142579D01*
X286805Y143051D01*
X286985Y143321D01*
X286984Y143330D01*
X286991Y143332D01*
X287191Y143932D01*
X287189Y143939D01*
X287193Y143941D01*
X287293Y144641D01*
X287290Y144646D01*
X287293Y144648D01*
X287293Y145348D01*
X287284Y145361D01*
X287288Y145370D01*
X286688Y146570D01*
X286678Y146575D01*
X286679Y146583D01*
X286179Y147083D01*
X286167Y147084D01*
X286166Y147092D01*
X285566Y147392D01*
X285561Y147391D01*
X285560Y147395D01*
X284960Y147595D01*
X284949Y147591D01*
X284944Y147597D01*
X280644Y147597D01*
X280629Y147586D01*
X280619Y147590D01*
X280119Y147290D01*
X280108Y147262D01*
X280095Y147256D01*
X279995Y146656D01*
X279998Y146651D01*
X279995Y146648D01*
X279995Y138448D01*
X280014Y138422D01*
X280014Y138409D01*
X280414Y138109D01*
X280432Y138109D01*
X280438Y138099D01*
X281238Y137999D01*
X281242Y138001D01*
X281244Y137999D01*
X284644Y137999D01*
X284648Y138002D01*
G37*
G36*
X178618Y160427D02*
X178618Y160427D01*
X178624Y160422D01*
X179624Y160622D01*
X179645Y160645D01*
X179658Y160648D01*
X179958Y161248D01*
X179956Y161260D01*
X179963Y161264D01*
X180063Y162064D01*
X180061Y162068D01*
X180063Y162070D01*
X180063Y164546D01*
X180531Y164921D01*
X183914Y164921D01*
X183935Y164937D01*
X183949Y164935D01*
X184449Y165435D01*
X184452Y165455D01*
X184462Y165460D01*
X184662Y166460D01*
X184656Y166473D01*
X184662Y166481D01*
X184462Y167381D01*
X184442Y167398D01*
X184441Y167411D01*
X183841Y167811D01*
X183821Y167810D01*
X183814Y167819D01*
X180438Y167819D01*
X180063Y168287D01*
X180063Y169050D01*
X180434Y169421D01*
X185514Y169421D01*
X185531Y169434D01*
X185543Y169430D01*
X186243Y169930D01*
X186249Y169952D01*
X186252Y169954D01*
X186262Y169958D01*
X186462Y170758D01*
X186457Y170770D01*
X186463Y170775D01*
X186363Y171675D01*
X186349Y171690D01*
X186352Y171702D01*
X185852Y172302D01*
X185827Y172307D01*
X185820Y172319D01*
X185020Y172419D01*
X185016Y172417D01*
X185014Y172419D01*
X178114Y172419D01*
X178103Y172411D01*
X178095Y172415D01*
X177395Y172115D01*
X177382Y172093D01*
X177369Y172089D01*
X177069Y171389D01*
X177072Y171376D01*
X177065Y171370D01*
X177065Y161970D01*
X177067Y161967D01*
X177065Y161965D01*
X177165Y161065D01*
X177178Y161051D01*
X177176Y161039D01*
X177576Y160539D01*
X177602Y160533D01*
X177609Y160521D01*
X178609Y160421D01*
X178618Y160427D01*
G37*
G36*
X588563Y103712D02*
X588563Y103712D01*
X588566Y103709D01*
X589166Y103809D01*
X589187Y103831D01*
X589200Y103833D01*
X589500Y104333D01*
X589500Y104336D01*
X589498Y104351D01*
X589507Y104358D01*
X589507Y109078D01*
X589625Y109019D01*
X591318Y106630D01*
X591330Y106626D01*
X591331Y106617D01*
X591931Y106217D01*
X591945Y106218D01*
X591950Y106209D01*
X592550Y106109D01*
X592573Y106121D01*
X592585Y106117D01*
X593185Y106517D01*
X593188Y106524D01*
X593193Y106523D01*
X593593Y106923D01*
X593594Y106930D01*
X593598Y106930D01*
X595109Y109101D01*
X595109Y104458D01*
X595120Y104443D01*
X595116Y104433D01*
X595416Y103933D01*
X595438Y103924D01*
X595442Y103911D01*
X596042Y103711D01*
X596053Y103715D01*
X596058Y103709D01*
X596758Y103709D01*
X596773Y103720D01*
X596783Y103716D01*
X597283Y104016D01*
X597291Y104035D01*
X597298Y104040D01*
X597297Y104041D01*
X597305Y104044D01*
X597505Y104744D01*
X597502Y104754D01*
X597507Y104758D01*
X597507Y112258D01*
X597504Y112263D01*
X597507Y112266D01*
X597407Y112866D01*
X597385Y112887D01*
X597383Y112900D01*
X596883Y113200D01*
X596869Y113199D01*
X596864Y113207D01*
X596064Y113307D01*
X596051Y113299D01*
X596042Y113305D01*
X595442Y113105D01*
X595431Y113089D01*
X595420Y113089D01*
X594120Y111489D01*
X594120Y111488D01*
X594119Y111488D01*
X592627Y109499D01*
X592175Y109318D01*
X589797Y112488D01*
X589796Y112488D01*
X589796Y112489D01*
X589396Y112989D01*
X589380Y112993D01*
X589377Y113003D01*
X588677Y113303D01*
X588664Y113300D01*
X588658Y113307D01*
X587858Y113307D01*
X587843Y113296D01*
X587833Y113300D01*
X587333Y113000D01*
X587322Y112972D01*
X587309Y112966D01*
X587209Y112366D01*
X587212Y112361D01*
X587209Y112358D01*
X587209Y104258D01*
X587223Y104240D01*
X587220Y104227D01*
X587620Y103727D01*
X587650Y103720D01*
X587658Y103709D01*
X588558Y103709D01*
X588563Y103712D01*
G37*
%LPC*%
G36*
X183032Y35634D02*
X183032Y35634D01*
X182577Y35725D01*
X182227Y35813D01*
X181864Y35994D01*
X181841Y36000D01*
X181837Y36002D01*
X181825Y36010D01*
X181820Y36011D01*
X181814Y36015D01*
X181540Y36106D01*
X181185Y36284D01*
X180936Y36450D01*
X180690Y36696D01*
X180324Y37245D01*
X180153Y37587D01*
X180065Y37937D01*
X179974Y38392D01*
X179974Y39316D01*
X180065Y39771D01*
X180153Y40121D01*
X180324Y40463D01*
X180690Y41012D01*
X181236Y41559D01*
X181485Y41725D01*
X181599Y41781D01*
X181827Y41895D01*
X182186Y41985D01*
X182216Y42001D01*
X182264Y42014D01*
X182559Y42161D01*
X182559Y42162D01*
X182627Y42195D01*
X182986Y42285D01*
X183777Y42483D01*
X184269Y42581D01*
X184276Y42585D01*
X184286Y42585D01*
X184677Y42683D01*
X185632Y42874D01*
X185994Y42874D01*
X186024Y42881D01*
X186069Y42881D01*
X186569Y42981D01*
X186576Y42985D01*
X186586Y42985D01*
X186941Y43074D01*
X187394Y43074D01*
X187398Y43075D01*
X187401Y43074D01*
X187435Y43082D01*
X187486Y43085D01*
X188277Y43283D01*
X188769Y43381D01*
X188788Y43390D01*
X188814Y43393D01*
X189100Y43489D01*
X189886Y43685D01*
X189916Y43700D01*
X190005Y43738D01*
X190214Y43877D01*
X190214Y40492D01*
X189931Y39078D01*
X189654Y38524D01*
X189651Y38510D01*
X189641Y38495D01*
X189462Y38048D01*
X188710Y37108D01*
X188269Y36667D01*
X187724Y36394D01*
X187717Y36388D01*
X187705Y36384D01*
X187051Y36010D01*
X186311Y35825D01*
X185356Y35634D01*
X183032Y35634D01*
G37*
%LPD*%
G36*
X627464Y103809D02*
X627464Y103809D01*
X627480Y103825D01*
X627493Y103823D01*
X627893Y104223D01*
X627894Y104235D01*
X627898Y104237D01*
X627895Y104241D01*
X627896Y104244D01*
X627907Y104250D01*
X628007Y104850D01*
X628004Y104855D01*
X628007Y104858D01*
X628007Y106225D01*
X628467Y106409D01*
X629831Y106409D01*
X630314Y105635D01*
X631013Y104038D01*
X631031Y104028D01*
X631033Y104016D01*
X631533Y103716D01*
X631556Y103718D01*
X631565Y103709D01*
X632265Y103809D01*
X632274Y103819D01*
X632282Y103815D01*
X632982Y104215D01*
X632991Y104236D01*
X633004Y104240D01*
X633204Y104740D01*
X633198Y104761D01*
X633205Y104772D01*
X633005Y105472D01*
X632997Y105478D01*
X632999Y105485D01*
X632802Y105781D01*
X632305Y107072D01*
X632211Y107545D01*
X632596Y108027D01*
X632597Y108035D01*
X632602Y108036D01*
X632902Y108636D01*
X632901Y108643D01*
X632905Y108644D01*
X633105Y109344D01*
X633102Y109354D01*
X633107Y109358D01*
X633107Y110058D01*
X633104Y110062D01*
X633107Y110065D01*
X633007Y110765D01*
X633002Y110770D01*
X633005Y110774D01*
X632805Y111374D01*
X632797Y111379D01*
X632799Y111385D01*
X632399Y111985D01*
X632392Y111988D01*
X632393Y111993D01*
X631993Y112393D01*
X631968Y112396D01*
X631994Y112424D01*
X632000Y112483D01*
X631986Y112485D01*
X631985Y112499D01*
X631385Y112899D01*
X631381Y112899D01*
X631380Y112902D01*
X630780Y113202D01*
X630769Y113200D01*
X630765Y113207D01*
X630066Y113307D01*
X629466Y113407D01*
X629461Y113404D01*
X629458Y113407D01*
X626658Y113407D01*
X626650Y113401D01*
X626644Y113405D01*
X625944Y113205D01*
X625929Y113185D01*
X625916Y113183D01*
X625616Y112683D01*
X625618Y112665D01*
X625609Y112658D01*
X625609Y105158D01*
X625612Y105154D01*
X625609Y105151D01*
X625709Y104451D01*
X625715Y104445D01*
X625712Y104440D01*
X625912Y103940D01*
X625940Y103923D01*
X625944Y103911D01*
X626644Y103711D01*
X626658Y103716D01*
X626664Y103709D01*
X627464Y103809D01*
G37*
G36*
X611126Y141866D02*
X611126Y141866D01*
X611129Y141863D01*
X611829Y141963D01*
X611835Y141969D01*
X611840Y141966D01*
X612340Y142166D01*
X612356Y142193D01*
X612358Y142194D01*
X612369Y142198D01*
X612569Y142898D01*
X612564Y142912D01*
X612571Y142918D01*
X612471Y143718D01*
X612455Y143734D01*
X612457Y143747D01*
X612057Y144147D01*
X612036Y144150D01*
X612030Y144161D01*
X611430Y144261D01*
X611425Y144258D01*
X611422Y144261D01*
X610055Y144261D01*
X609871Y144721D01*
X609871Y146085D01*
X610645Y146568D01*
X612242Y147267D01*
X612252Y147285D01*
X612264Y147287D01*
X612564Y147787D01*
X612562Y147805D01*
X612568Y147809D01*
X612564Y147813D01*
X612571Y147820D01*
X612471Y148420D01*
X612461Y148429D01*
X612465Y148436D01*
X612065Y149136D01*
X612049Y149143D01*
X612047Y149154D01*
X611547Y149454D01*
X611519Y149451D01*
X611508Y149459D01*
X610808Y149259D01*
X610802Y149251D01*
X610795Y149253D01*
X610499Y149056D01*
X609208Y148559D01*
X608735Y148465D01*
X608253Y148850D01*
X608245Y148851D01*
X608244Y148856D01*
X607644Y149156D01*
X607637Y149155D01*
X607636Y149159D01*
X606936Y149359D01*
X606926Y149356D01*
X606922Y149361D01*
X606222Y149361D01*
X606218Y149358D01*
X606215Y149361D01*
X605515Y149261D01*
X605510Y149256D01*
X605506Y149259D01*
X604906Y149059D01*
X604901Y149051D01*
X604895Y149053D01*
X604295Y148653D01*
X604292Y148646D01*
X604287Y148647D01*
X603887Y148247D01*
X603886Y148235D01*
X603879Y148229D01*
X603884Y148222D01*
X603879Y148188D01*
X603888Y148187D01*
X603887Y148177D01*
X604372Y147693D01*
X603855Y148149D01*
X603795Y148153D01*
X603794Y148143D01*
X603784Y148143D01*
X603384Y147643D01*
X603383Y147633D01*
X603377Y147631D01*
X603077Y146931D01*
X603079Y146923D01*
X603073Y146920D01*
X602873Y145720D01*
X602875Y145718D01*
X602875Y145717D01*
X602876Y145715D01*
X602873Y145712D01*
X602873Y142912D01*
X602879Y142904D01*
X602875Y142898D01*
X603075Y142198D01*
X603095Y142183D01*
X603097Y142170D01*
X603597Y141870D01*
X603615Y141872D01*
X603622Y141863D01*
X611122Y141863D01*
X611126Y141866D01*
G37*
G36*
X275539Y317169D02*
X275539Y317169D01*
X275556Y317185D01*
X275569Y317183D01*
X275969Y317583D01*
X275970Y317595D01*
X275974Y317597D01*
X275971Y317601D01*
X275972Y317604D01*
X275983Y317610D01*
X276083Y318210D01*
X276080Y318215D01*
X276083Y318218D01*
X276083Y319585D01*
X276543Y319769D01*
X277904Y319769D01*
X278289Y318997D01*
X278989Y317398D01*
X279010Y317387D01*
X279012Y317374D01*
X279612Y317074D01*
X279633Y317078D01*
X279642Y317069D01*
X280242Y317169D01*
X280251Y317179D01*
X280258Y317175D01*
X280958Y317575D01*
X280967Y317596D01*
X280980Y317600D01*
X281180Y318100D01*
X281174Y318121D01*
X281181Y318132D01*
X280981Y318832D01*
X280980Y318833D01*
X280981Y318834D01*
X280881Y319134D01*
X280877Y319136D01*
X280879Y319139D01*
X280283Y320429D01*
X280283Y320901D01*
X280672Y321387D01*
X280673Y321395D01*
X280678Y321396D01*
X280978Y321996D01*
X280976Y322007D01*
X280983Y322011D01*
X281183Y323411D01*
X281178Y323420D01*
X281183Y323425D01*
X281083Y324125D01*
X281078Y324130D01*
X281081Y324134D01*
X280881Y324734D01*
X280873Y324739D01*
X280875Y324745D01*
X280475Y325345D01*
X280465Y325349D01*
X280465Y325356D01*
X279965Y325756D01*
X279946Y325757D01*
X279971Y325785D01*
X279975Y325845D01*
X279962Y325846D01*
X279961Y325859D01*
X279361Y326259D01*
X279357Y326259D01*
X279356Y326262D01*
X278756Y326562D01*
X278746Y326560D01*
X278742Y326567D01*
X278142Y326667D01*
X278141Y326666D01*
X278141Y326667D01*
X277441Y326767D01*
X277436Y326764D01*
X277434Y326767D01*
X274634Y326767D01*
X274625Y326760D01*
X274618Y326765D01*
X274018Y326565D01*
X274005Y326545D01*
X273992Y326543D01*
X273692Y326043D01*
X273694Y326025D01*
X273685Y326018D01*
X273685Y317818D01*
X273696Y317803D01*
X273692Y317793D01*
X273992Y317293D01*
X274014Y317284D01*
X274018Y317271D01*
X274618Y317071D01*
X274633Y317076D01*
X274639Y317069D01*
X275539Y317169D01*
G37*
G36*
X579563Y103809D02*
X579563Y103809D01*
X579580Y103825D01*
X579593Y103823D01*
X579993Y104223D01*
X579994Y104235D01*
X579998Y104237D01*
X579995Y104241D01*
X579996Y104244D01*
X580007Y104250D01*
X580107Y104850D01*
X580104Y104855D01*
X580107Y104858D01*
X580107Y106225D01*
X580567Y106409D01*
X581928Y106409D01*
X582313Y105637D01*
X583013Y104038D01*
X583034Y104027D01*
X583036Y104014D01*
X583636Y103714D01*
X583657Y103718D01*
X583666Y103709D01*
X584266Y103809D01*
X584275Y103819D01*
X584282Y103815D01*
X584982Y104215D01*
X584991Y104236D01*
X585004Y104240D01*
X585204Y104740D01*
X585198Y104761D01*
X585205Y104772D01*
X585005Y105472D01*
X585004Y105473D01*
X585005Y105474D01*
X584905Y105774D01*
X584901Y105776D01*
X584903Y105779D01*
X584307Y107069D01*
X584307Y107541D01*
X584696Y108027D01*
X584697Y108035D01*
X584702Y108036D01*
X585002Y108636D01*
X585000Y108647D01*
X585007Y108651D01*
X585207Y110051D01*
X585202Y110060D01*
X585207Y110065D01*
X585107Y110765D01*
X585099Y110773D01*
X585102Y110780D01*
X584502Y111980D01*
X584489Y111987D01*
X584489Y111996D01*
X583989Y112396D01*
X583970Y112397D01*
X583995Y112425D01*
X583999Y112485D01*
X583986Y112486D01*
X583985Y112499D01*
X583385Y112899D01*
X583381Y112899D01*
X583380Y112902D01*
X582780Y113202D01*
X582770Y113200D01*
X582766Y113207D01*
X582166Y113307D01*
X582165Y113306D01*
X582165Y113307D01*
X581465Y113407D01*
X581460Y113404D01*
X581458Y113407D01*
X578658Y113407D01*
X578649Y113400D01*
X578642Y113405D01*
X578042Y113205D01*
X578029Y113185D01*
X578016Y113183D01*
X577716Y112683D01*
X577718Y112665D01*
X577709Y112658D01*
X577709Y104458D01*
X577717Y104447D01*
X577712Y104440D01*
X577912Y103940D01*
X577940Y103923D01*
X577944Y103911D01*
X578644Y103711D01*
X578657Y103716D01*
X578663Y103709D01*
X579563Y103809D01*
G37*
G36*
X641969Y103717D02*
X641969Y103717D01*
X641976Y103712D01*
X642476Y103912D01*
X642491Y103936D01*
X642498Y103941D01*
X642505Y103944D01*
X642705Y104644D01*
X642700Y104658D01*
X642707Y104664D01*
X642607Y105464D01*
X642597Y105475D01*
X642600Y105483D01*
X642300Y105983D01*
X642272Y105995D01*
X642265Y106007D01*
X641565Y106107D01*
X641560Y106104D01*
X641558Y106107D01*
X637507Y106107D01*
X637507Y106654D01*
X637600Y107209D01*
X639558Y107209D01*
X639562Y107212D01*
X639564Y107209D01*
X640364Y107309D01*
X640371Y107316D01*
X640376Y107312D01*
X640876Y107512D01*
X640888Y107531D01*
X640900Y107533D01*
X641200Y108033D01*
X641198Y108051D01*
X641207Y108058D01*
X641207Y108958D01*
X641196Y108973D01*
X641200Y108983D01*
X640900Y109483D01*
X640880Y109492D01*
X640876Y109504D01*
X640376Y109704D01*
X640363Y109700D01*
X640358Y109707D01*
X637598Y109707D01*
X637507Y110163D01*
X637507Y110816D01*
X638062Y110909D01*
X641458Y110909D01*
X641462Y110912D01*
X641465Y110909D01*
X642165Y111009D01*
X642177Y111022D01*
X642188Y111019D01*
X642588Y111319D01*
X642595Y111346D01*
X642607Y111353D01*
X642707Y112253D01*
X642700Y112264D01*
X642705Y112272D01*
X642505Y112972D01*
X642485Y112987D01*
X642483Y113000D01*
X641983Y113300D01*
X641965Y113298D01*
X641958Y113307D01*
X635858Y113307D01*
X635843Y113296D01*
X635833Y113300D01*
X635333Y113000D01*
X635323Y112976D01*
X635311Y112972D01*
X635111Y112272D01*
X635114Y112262D01*
X635109Y112258D01*
X635109Y104758D01*
X635112Y104753D01*
X635109Y104750D01*
X635209Y104150D01*
X635225Y104135D01*
X635223Y104123D01*
X635623Y103723D01*
X635650Y103720D01*
X635658Y103709D01*
X641958Y103709D01*
X641969Y103717D01*
G37*
G36*
X308447Y317078D02*
X308447Y317078D01*
X308456Y317074D01*
X308856Y317274D01*
X308866Y317295D01*
X308875Y317302D01*
X308881Y317304D01*
X309081Y318004D01*
X309078Y318014D01*
X309083Y318018D01*
X309083Y318818D01*
X309069Y318836D01*
X309072Y318849D01*
X308672Y319349D01*
X308648Y319355D01*
X308642Y319367D01*
X308042Y319467D01*
X308037Y319464D01*
X308034Y319467D01*
X303983Y319467D01*
X303983Y320014D01*
X304076Y320569D01*
X306034Y320569D01*
X306038Y320572D01*
X306041Y320569D01*
X306741Y320669D01*
X306746Y320674D01*
X306750Y320671D01*
X307350Y320871D01*
X307363Y320891D01*
X307376Y320893D01*
X307676Y321393D01*
X307674Y321411D01*
X307683Y321418D01*
X307683Y322318D01*
X307672Y322333D01*
X307676Y322343D01*
X307376Y322843D01*
X307354Y322852D01*
X307350Y322865D01*
X306750Y323065D01*
X306739Y323061D01*
X306734Y323067D01*
X304074Y323067D01*
X303983Y323523D01*
X303983Y324176D01*
X304538Y324269D01*
X307934Y324269D01*
X307938Y324272D01*
X307941Y324269D01*
X308641Y324369D01*
X308656Y324385D01*
X308669Y324383D01*
X308969Y324683D01*
X308972Y324706D01*
X308983Y324713D01*
X309083Y325613D01*
X309078Y325620D01*
X309083Y325625D01*
X308983Y326325D01*
X308961Y326347D01*
X308959Y326360D01*
X308459Y326660D01*
X308441Y326658D01*
X308434Y326667D01*
X302234Y326667D01*
X302216Y326654D01*
X302204Y326657D01*
X301804Y326357D01*
X301800Y326341D01*
X301798Y326336D01*
X301787Y326332D01*
X301587Y325632D01*
X301590Y325622D01*
X301585Y325618D01*
X301585Y318118D01*
X301588Y318113D01*
X301585Y318110D01*
X301685Y317510D01*
X301701Y317495D01*
X301699Y317483D01*
X302099Y317083D01*
X302126Y317080D01*
X302134Y317069D01*
X308434Y317069D01*
X308447Y317078D01*
G37*
G36*
X289945Y317077D02*
X289945Y317077D01*
X289952Y317072D01*
X290452Y317272D01*
X290467Y317296D01*
X290474Y317301D01*
X290481Y317304D01*
X290681Y318004D01*
X290678Y318014D01*
X290683Y318018D01*
X290683Y318818D01*
X290669Y318836D01*
X290672Y318849D01*
X290272Y319349D01*
X290248Y319355D01*
X290242Y319367D01*
X289642Y319467D01*
X289637Y319464D01*
X289634Y319467D01*
X285583Y319467D01*
X285583Y320569D01*
X287634Y320569D01*
X287638Y320572D01*
X287641Y320569D01*
X288341Y320669D01*
X288346Y320674D01*
X288350Y320671D01*
X288950Y320871D01*
X288963Y320891D01*
X288976Y320893D01*
X289276Y321393D01*
X289274Y321411D01*
X289283Y321418D01*
X289283Y322318D01*
X289272Y322333D01*
X289276Y322343D01*
X288976Y322843D01*
X288954Y322852D01*
X288950Y322865D01*
X288350Y323065D01*
X288339Y323061D01*
X288334Y323067D01*
X285674Y323067D01*
X285583Y323523D01*
X285583Y324176D01*
X286138Y324269D01*
X289534Y324269D01*
X289539Y324272D01*
X289542Y324269D01*
X290142Y324369D01*
X290154Y324381D01*
X290164Y324379D01*
X290564Y324679D01*
X290571Y324706D01*
X290583Y324713D01*
X290683Y325613D01*
X290678Y325620D01*
X290683Y325625D01*
X290583Y326325D01*
X290561Y326347D01*
X290559Y326360D01*
X290059Y326660D01*
X290041Y326658D01*
X290034Y326667D01*
X283834Y326667D01*
X283819Y326656D01*
X283809Y326660D01*
X283309Y326360D01*
X283297Y326332D01*
X283285Y326325D01*
X283185Y325625D01*
X283188Y325620D01*
X283185Y325618D01*
X283185Y318118D01*
X283188Y318113D01*
X283185Y318110D01*
X283285Y317510D01*
X283301Y317495D01*
X283299Y317483D01*
X283699Y317083D01*
X283726Y317080D01*
X283734Y317069D01*
X289934Y317069D01*
X289945Y317077D01*
G37*
G36*
X217721Y160426D02*
X217721Y160426D01*
X217726Y160422D01*
X218526Y160622D01*
X218546Y160647D01*
X218559Y160651D01*
X218859Y161351D01*
X218856Y161364D01*
X218863Y161370D01*
X218863Y169921D01*
X219614Y169921D01*
X219615Y169922D01*
X219616Y169921D01*
X222216Y170021D01*
X222220Y170025D01*
X222223Y170025D01*
X222226Y170022D01*
X223026Y170222D01*
X223043Y170243D01*
X223061Y170257D01*
X223058Y170262D01*
X223063Y170265D01*
X223163Y171165D01*
X223159Y171172D01*
X223163Y171176D01*
X223063Y171976D01*
X223040Y171999D01*
X223038Y172013D01*
X222338Y172413D01*
X222321Y172410D01*
X222314Y172419D01*
X212914Y172419D01*
X212907Y172414D01*
X212902Y172418D01*
X212102Y172218D01*
X212083Y172195D01*
X212070Y172192D01*
X211770Y171592D01*
X211773Y171576D01*
X211765Y171570D01*
X211765Y170570D01*
X211781Y170549D01*
X211779Y170535D01*
X212279Y170035D01*
X212302Y170032D01*
X212309Y170021D01*
X213209Y169921D01*
X213212Y169923D01*
X213214Y169921D01*
X215786Y169921D01*
X216065Y169456D01*
X216065Y160970D01*
X216085Y160943D01*
X216085Y160930D01*
X216785Y160430D01*
X216807Y160431D01*
X216814Y160421D01*
X217714Y160421D01*
X217721Y160426D01*
G37*
G36*
X611935Y117872D02*
X611935Y117872D01*
X611944Y117868D01*
X612344Y118068D01*
X612354Y118089D01*
X612363Y118096D01*
X612369Y118098D01*
X612569Y118798D01*
X612566Y118808D01*
X612571Y118812D01*
X612571Y119712D01*
X612555Y119733D01*
X612557Y119747D01*
X612157Y120147D01*
X612136Y120150D01*
X612130Y120161D01*
X611530Y120261D01*
X611525Y120258D01*
X611522Y120261D01*
X610152Y120261D01*
X609971Y120624D01*
X609971Y122012D01*
X609968Y122017D01*
X609971Y122020D01*
X609871Y122620D01*
X609866Y122624D01*
X609869Y122628D01*
X609669Y123228D01*
X609661Y123233D01*
X609663Y123239D01*
X608863Y124439D01*
X608853Y124443D01*
X608853Y124450D01*
X608353Y124850D01*
X608343Y124851D01*
X608341Y124857D01*
X607641Y125157D01*
X607633Y125155D01*
X607630Y125161D01*
X607030Y125261D01*
X607029Y125260D01*
X607029Y125261D01*
X606329Y125361D01*
X606324Y125358D01*
X606322Y125361D01*
X605622Y125361D01*
X605609Y125352D01*
X605600Y125356D01*
X604800Y124956D01*
X604797Y124949D01*
X604791Y124950D01*
X604291Y124550D01*
X604290Y124546D01*
X604287Y124547D01*
X603787Y124047D01*
X603786Y124040D01*
X603781Y124039D01*
X603381Y123439D01*
X603381Y123435D01*
X603378Y123434D01*
X603078Y122834D01*
X603080Y122823D01*
X603073Y122819D01*
X602973Y122119D01*
X602976Y122114D01*
X602973Y122112D01*
X602973Y118712D01*
X602980Y118703D01*
X602975Y118696D01*
X603175Y118096D01*
X603200Y118079D01*
X603204Y118066D01*
X603704Y117866D01*
X603717Y117870D01*
X603722Y117863D01*
X611922Y117863D01*
X611935Y117872D01*
G37*
G36*
X622273Y103720D02*
X622273Y103720D01*
X622284Y103716D01*
X623084Y104216D01*
X623090Y104232D01*
X623100Y104233D01*
X623400Y104733D01*
X623397Y104765D01*
X623404Y104776D01*
X623204Y105276D01*
X623202Y105278D01*
X623202Y105279D01*
X619602Y112779D01*
X619598Y112782D01*
X619599Y112785D01*
X619399Y113085D01*
X619382Y113091D01*
X619380Y113102D01*
X618780Y113402D01*
X618759Y113398D01*
X618750Y113407D01*
X618150Y113307D01*
X618140Y113296D01*
X618131Y113299D01*
X617531Y112899D01*
X617525Y112882D01*
X617514Y112880D01*
X617214Y112280D01*
X613914Y105480D01*
X613915Y105475D01*
X613911Y105474D01*
X613711Y104874D01*
X613718Y104855D01*
X613717Y104855D01*
X613718Y104854D01*
X613719Y104851D01*
X613712Y104840D01*
X613912Y104340D01*
X613929Y104330D01*
X613929Y104318D01*
X614629Y103818D01*
X614645Y103818D01*
X614650Y103809D01*
X615250Y103709D01*
X615269Y103719D01*
X615280Y103714D01*
X615880Y104014D01*
X615890Y104034D01*
X615902Y104036D01*
X616202Y104636D01*
X616788Y105809D01*
X620138Y105809D01*
X620517Y105429D01*
X621113Y104137D01*
X621128Y104130D01*
X621127Y104120D01*
X621627Y103720D01*
X621650Y103719D01*
X621658Y103709D01*
X622258Y103709D01*
X622273Y103720D01*
G37*
G36*
X224407Y194857D02*
X224407Y194857D01*
X224413Y194853D01*
X225513Y195153D01*
X225530Y195174D01*
X225543Y195176D01*
X226043Y196076D01*
X226041Y196093D01*
X226049Y196100D01*
X226049Y204500D01*
X226047Y204503D01*
X226049Y204504D01*
X225949Y205704D01*
X225939Y205715D01*
X225943Y205724D01*
X225443Y206624D01*
X225417Y206635D01*
X225412Y206648D01*
X224212Y206948D01*
X224199Y206942D01*
X224193Y206949D01*
X222793Y206749D01*
X222778Y206733D01*
X222765Y206735D01*
X222065Y206035D01*
X222062Y206011D01*
X222051Y206004D01*
X221951Y204904D01*
X221953Y204902D01*
X221951Y204900D01*
X221951Y196800D01*
X221953Y196797D01*
X221951Y196796D01*
X222051Y195696D01*
X222069Y195676D01*
X222068Y195663D01*
X222868Y194963D01*
X222890Y194961D01*
X222897Y194951D01*
X224397Y194851D01*
X224407Y194857D01*
G37*
G36*
X296439Y317072D02*
X296439Y317072D01*
X296442Y317069D01*
X297042Y317169D01*
X297049Y317177D01*
X297056Y317174D01*
X298256Y317774D01*
X298259Y317781D01*
X298265Y317780D01*
X298765Y318180D01*
X298767Y318190D01*
X298775Y318191D01*
X299175Y318791D01*
X299174Y318800D01*
X299181Y318802D01*
X299381Y319402D01*
X299379Y319409D01*
X299383Y319411D01*
X299483Y320111D01*
X299478Y320119D01*
X299483Y320124D01*
X299383Y320924D01*
X299378Y320929D01*
X299381Y320934D01*
X299181Y321534D01*
X299170Y321541D01*
X299172Y321549D01*
X298772Y322049D01*
X298765Y322051D01*
X298765Y322056D01*
X298265Y322456D01*
X298257Y322457D01*
X298256Y322462D01*
X297656Y322762D01*
X297649Y322761D01*
X297648Y322765D01*
X296948Y322965D01*
X296946Y322965D01*
X296945Y322966D01*
X295656Y323263D01*
X295176Y323647D01*
X294989Y324208D01*
X295360Y324672D01*
X296029Y324768D01*
X296610Y324574D01*
X297202Y324080D01*
X297226Y324079D01*
X297234Y324069D01*
X297834Y324069D01*
X297849Y324080D01*
X297859Y324076D01*
X298359Y324376D01*
X298366Y324392D01*
X298377Y324394D01*
X298777Y325094D01*
X298775Y325105D01*
X298782Y325108D01*
X298882Y325608D01*
X298867Y325640D01*
X298869Y325653D01*
X298369Y326153D01*
X298365Y326153D01*
X298365Y326156D01*
X297865Y326556D01*
X297851Y326557D01*
X297848Y326565D01*
X297148Y326765D01*
X297143Y326764D01*
X297141Y326767D01*
X295741Y326967D01*
X295732Y326962D01*
X295727Y326967D01*
X295027Y326867D01*
X295023Y326863D01*
X295020Y326865D01*
X294320Y326665D01*
X294315Y326658D01*
X294309Y326660D01*
X293809Y326360D01*
X293807Y326356D01*
X293803Y326356D01*
X293303Y325956D01*
X293301Y325946D01*
X293293Y325945D01*
X292893Y325345D01*
X292894Y325336D01*
X292887Y325334D01*
X292687Y324734D01*
X292689Y324728D01*
X292685Y324726D01*
X292585Y324126D01*
X292591Y324116D01*
X292585Y324111D01*
X292685Y323411D01*
X292689Y323407D01*
X292687Y323404D01*
X292887Y322704D01*
X292894Y322699D01*
X292892Y322693D01*
X293192Y322193D01*
X293203Y322188D01*
X293203Y322180D01*
X293703Y321780D01*
X293711Y321779D01*
X293712Y321774D01*
X294312Y321474D01*
X294314Y321474D01*
X294315Y321473D01*
X295015Y321173D01*
X295018Y321174D01*
X295018Y321171D01*
X295618Y320971D01*
X295625Y320973D01*
X295627Y320969D01*
X296319Y320870D01*
X296890Y320585D01*
X296983Y320023D01*
X296796Y319555D01*
X296127Y319269D01*
X295452Y319365D01*
X294864Y319757D01*
X294266Y320256D01*
X294254Y320256D01*
X294252Y320264D01*
X293752Y320464D01*
X293740Y320460D01*
X293735Y320467D01*
X293733Y320467D01*
X293729Y320464D01*
X293726Y320467D01*
X293126Y320367D01*
X293109Y320349D01*
X293096Y320350D01*
X292596Y319750D01*
X292596Y319742D01*
X292595Y319742D01*
X292596Y319741D01*
X292595Y319732D01*
X292586Y319728D01*
X292486Y319228D01*
X292495Y319209D01*
X292489Y319199D01*
X292789Y318499D01*
X292800Y318492D01*
X292799Y318483D01*
X293199Y318083D01*
X293206Y318082D01*
X293207Y318077D01*
X293805Y317678D01*
X294303Y317280D01*
X294317Y317279D01*
X294320Y317271D01*
X295020Y317071D01*
X295030Y317074D01*
X295034Y317069D01*
X296434Y317069D01*
X296439Y317072D01*
G37*
G36*
X565160Y103714D02*
X565160Y103714D01*
X565165Y103709D01*
X565865Y103809D01*
X565887Y103831D01*
X565900Y103833D01*
X566200Y104333D01*
X566200Y104336D01*
X566199Y104347D01*
X566207Y104351D01*
X566307Y105051D01*
X566304Y105056D01*
X566307Y105058D01*
X566307Y107028D01*
X566670Y107209D01*
X568658Y107209D01*
X568662Y107212D01*
X568665Y107209D01*
X569365Y107309D01*
X569380Y107325D01*
X569393Y107323D01*
X569793Y107723D01*
X569794Y107734D01*
X569795Y107734D01*
X569794Y107734D01*
X569796Y107746D01*
X569807Y107752D01*
X569907Y108552D01*
X569902Y108560D01*
X569907Y108565D01*
X569807Y109265D01*
X569788Y109283D01*
X569789Y109296D01*
X569289Y109696D01*
X569266Y109697D01*
X569258Y109707D01*
X566578Y109707D01*
X566307Y109978D01*
X566307Y110638D01*
X566578Y110909D01*
X570658Y110909D01*
X570674Y110921D01*
X570685Y110917D01*
X571285Y111317D01*
X571295Y111344D01*
X571307Y111350D01*
X571407Y111950D01*
X571404Y111955D01*
X571407Y111958D01*
X571407Y112658D01*
X571391Y112679D01*
X571393Y112693D01*
X570893Y113193D01*
X570872Y113196D01*
X570866Y113207D01*
X570266Y113307D01*
X570261Y113304D01*
X570258Y113307D01*
X564758Y113307D01*
X564749Y113300D01*
X564742Y113305D01*
X564142Y113105D01*
X564124Y113078D01*
X564111Y113074D01*
X563911Y112474D01*
X563915Y112463D01*
X563909Y112458D01*
X563909Y104258D01*
X563925Y104237D01*
X563923Y104223D01*
X564323Y103823D01*
X564346Y103820D01*
X564352Y103809D01*
X565152Y103709D01*
X565160Y103714D01*
G37*
G36*
X316848Y138002D02*
X316848Y138002D01*
X316851Y137999D01*
X317551Y138099D01*
X317580Y138129D01*
X317591Y138132D01*
X317791Y138732D01*
X317789Y138739D01*
X317793Y138741D01*
X317893Y139441D01*
X317890Y139446D01*
X317893Y139448D01*
X317893Y145506D01*
X318448Y145599D01*
X320544Y145599D01*
X320559Y145610D01*
X320569Y145606D01*
X321069Y145906D01*
X321081Y145934D01*
X321093Y145940D01*
X321193Y146540D01*
X321190Y146545D01*
X321193Y146548D01*
X321193Y147248D01*
X321171Y147278D01*
X321169Y147290D01*
X320669Y147590D01*
X320651Y147588D01*
X320644Y147597D01*
X313044Y147597D01*
X313039Y147594D01*
X313036Y147597D01*
X312436Y147497D01*
X312413Y147473D01*
X312400Y147470D01*
X312100Y146870D01*
X312103Y146854D01*
X312095Y146848D01*
X312095Y146148D01*
X312111Y146127D01*
X312109Y146113D01*
X312509Y145713D01*
X312531Y145710D01*
X312537Y145699D01*
X313237Y145599D01*
X313242Y145602D01*
X313244Y145599D01*
X315314Y145599D01*
X315495Y145236D01*
X315495Y139048D01*
X315498Y139043D01*
X315495Y139040D01*
X315595Y138440D01*
X315614Y138423D01*
X315613Y138410D01*
X316113Y138010D01*
X316136Y138009D01*
X316144Y137999D01*
X316844Y137999D01*
X316848Y138002D01*
G37*
G36*
X315539Y317072D02*
X315539Y317072D01*
X315542Y317069D01*
X316142Y317169D01*
X316165Y317194D01*
X316178Y317196D01*
X316478Y317796D01*
X316475Y317812D01*
X316483Y317818D01*
X316483Y324576D01*
X317038Y324669D01*
X319134Y324669D01*
X319147Y324678D01*
X319156Y324674D01*
X319756Y324974D01*
X319771Y325004D01*
X319783Y325010D01*
X319883Y325610D01*
X319880Y325615D01*
X319883Y325618D01*
X319883Y326318D01*
X319858Y326351D01*
X319856Y326362D01*
X319256Y326662D01*
X319240Y326659D01*
X319234Y326667D01*
X311734Y326667D01*
X311730Y326664D01*
X311727Y326667D01*
X311027Y326567D01*
X310998Y326537D01*
X310987Y326534D01*
X310787Y325934D01*
X310791Y325923D01*
X310785Y325918D01*
X310785Y325218D01*
X310801Y325197D01*
X310799Y325183D01*
X311199Y324783D01*
X311221Y324780D01*
X311227Y324769D01*
X311927Y324669D01*
X311932Y324672D01*
X311934Y324669D01*
X314004Y324669D01*
X314185Y324306D01*
X314185Y318118D01*
X314188Y318113D01*
X314185Y318110D01*
X314285Y317510D01*
X314304Y317493D01*
X314303Y317480D01*
X314803Y317080D01*
X314826Y317079D01*
X314834Y317069D01*
X315534Y317069D01*
X315539Y317072D01*
G37*
G36*
X63255Y207395D02*
X63255Y207395D01*
X63257Y207397D01*
X63258Y207396D01*
X63929Y207631D01*
X63930Y207632D01*
X63931Y207632D01*
X64533Y208010D01*
X64534Y208012D01*
X64536Y208012D01*
X65038Y208514D01*
X65038Y208516D01*
X65040Y208517D01*
X65418Y209119D01*
X65418Y209120D01*
X65419Y209121D01*
X65654Y209792D01*
X65654Y209794D01*
X65655Y209795D01*
X65734Y210501D01*
X65734Y210502D01*
X65733Y210503D01*
X65734Y210504D01*
X65655Y211210D01*
X65653Y211212D01*
X65654Y211213D01*
X65419Y211884D01*
X65418Y211885D01*
X65418Y211886D01*
X65040Y212488D01*
X65038Y212489D01*
X65038Y212491D01*
X64536Y212993D01*
X64534Y212993D01*
X64533Y212995D01*
X63931Y213373D01*
X63930Y213373D01*
X63929Y213374D01*
X63258Y213609D01*
X63256Y213609D01*
X63255Y213610D01*
X62549Y213689D01*
X62547Y213688D01*
X62546Y213689D01*
X61840Y213610D01*
X61838Y213608D01*
X61837Y213609D01*
X61166Y213374D01*
X61165Y213373D01*
X61164Y213373D01*
X60562Y212995D01*
X60561Y212993D01*
X60559Y212993D01*
X60057Y212491D01*
X60057Y212489D01*
X60055Y212488D01*
X59677Y211886D01*
X59677Y211885D01*
X59676Y211884D01*
X59441Y211213D01*
X59442Y211211D01*
X59440Y211210D01*
X59361Y210504D01*
X59362Y210502D01*
X59361Y210501D01*
X59440Y209795D01*
X59442Y209793D01*
X59441Y209792D01*
X59676Y209121D01*
X59677Y209120D01*
X59677Y209119D01*
X60055Y208517D01*
X60057Y208516D01*
X60057Y208514D01*
X60559Y208012D01*
X60561Y208012D01*
X60562Y208010D01*
X61164Y207632D01*
X61165Y207632D01*
X61166Y207631D01*
X61837Y207396D01*
X61839Y207397D01*
X61840Y207395D01*
X62546Y207316D01*
X62548Y207317D01*
X62549Y207316D01*
X63255Y207395D01*
G37*
G36*
X574969Y103717D02*
X574969Y103717D01*
X574976Y103712D01*
X575476Y103912D01*
X575491Y103936D01*
X575504Y103940D01*
X575704Y104440D01*
X575701Y104449D01*
X575707Y104452D01*
X575807Y105252D01*
X575805Y105256D01*
X575807Y105258D01*
X575807Y111958D01*
X575804Y111962D01*
X575807Y111965D01*
X575707Y112665D01*
X575694Y112677D01*
X575697Y112688D01*
X575397Y113088D01*
X575376Y113094D01*
X575372Y113105D01*
X574672Y113305D01*
X574658Y113300D01*
X574652Y113307D01*
X573852Y113207D01*
X573836Y113191D01*
X573823Y113193D01*
X573423Y112793D01*
X573420Y112766D01*
X573409Y112758D01*
X573409Y104658D01*
X573412Y104653D01*
X573409Y104650D01*
X573509Y104050D01*
X573531Y104029D01*
X573533Y104016D01*
X574033Y103716D01*
X574051Y103718D01*
X574058Y103709D01*
X574958Y103709D01*
X574969Y103717D01*
G37*
%LPC*%
G36*
X293456Y140397D02*
X293456Y140397D01*
X292871Y140690D01*
X292377Y141085D01*
X291693Y141768D01*
X291693Y143140D01*
X291891Y143732D01*
X292087Y144321D01*
X292575Y144810D01*
X293166Y145203D01*
X293752Y145399D01*
X294436Y145399D01*
X295022Y145203D01*
X295610Y144811D01*
X296002Y144321D01*
X296297Y143733D01*
X296395Y143144D01*
X296395Y142356D01*
X296198Y141767D01*
X295906Y141182D01*
X295319Y140791D01*
X294729Y140495D01*
X294140Y140397D01*
X293456Y140397D01*
G37*
%LPD*%
%LPC*%
G36*
X304956Y140397D02*
X304956Y140397D01*
X304369Y140691D01*
X303775Y141086D01*
X303285Y141577D01*
X303193Y141760D01*
X303193Y143144D01*
X303291Y143733D01*
X303586Y144321D01*
X303978Y144811D01*
X304566Y145203D01*
X305152Y145399D01*
X305836Y145399D01*
X306422Y145203D01*
X307010Y144811D01*
X307402Y144321D01*
X307698Y143729D01*
X307894Y143143D01*
X307795Y142355D01*
X307697Y141766D01*
X307307Y141182D01*
X306817Y140790D01*
X306229Y140496D01*
X305541Y140397D01*
X304956Y140397D01*
G37*
%LPD*%
G36*
X193718Y165024D02*
X193718Y165024D01*
X193720Y165021D01*
X194520Y165121D01*
X194543Y165144D01*
X194557Y165146D01*
X194957Y165846D01*
X194954Y165863D01*
X194963Y165870D01*
X194963Y166770D01*
X194955Y166781D01*
X194959Y166789D01*
X194659Y167489D01*
X194630Y167506D01*
X194625Y167518D01*
X193725Y167718D01*
X193717Y167715D01*
X193714Y167719D01*
X190414Y167719D01*
X190411Y167717D01*
X190409Y167719D01*
X189509Y167619D01*
X189498Y167609D01*
X189490Y167613D01*
X188790Y167213D01*
X188777Y167183D01*
X188765Y167176D01*
X188665Y166376D01*
X188670Y166368D01*
X188665Y166364D01*
X188765Y165564D01*
X188786Y165543D01*
X188787Y165529D01*
X189387Y165129D01*
X189403Y165130D01*
X189409Y165121D01*
X190309Y165021D01*
X190312Y165023D01*
X190314Y165021D01*
X193714Y165021D01*
X193718Y165024D01*
G37*
%LPC*%
G36*
X234619Y198949D02*
X234619Y198949D01*
X233740Y199731D01*
X233250Y200710D01*
X233348Y201981D01*
X234032Y202861D01*
X235010Y203350D01*
X236181Y203252D01*
X237060Y202569D01*
X237549Y201493D01*
X237353Y200320D01*
X236669Y199440D01*
X235589Y198949D01*
X234619Y198949D01*
G37*
%LPD*%
G36*
X224104Y208456D02*
X224104Y208456D01*
X224108Y208451D01*
X225308Y208651D01*
X225312Y208656D01*
X225316Y208653D01*
X225616Y208753D01*
X225633Y208778D01*
X225646Y208782D01*
X226046Y209782D01*
X226042Y209795D01*
X226049Y209800D01*
X226049Y211100D01*
X226041Y211111D01*
X226046Y211118D01*
X225646Y212118D01*
X225618Y212135D01*
X225613Y212148D01*
X224513Y212448D01*
X224502Y212443D01*
X224497Y212449D01*
X222897Y212349D01*
X222882Y212337D01*
X222871Y212340D01*
X222171Y211840D01*
X222166Y211823D01*
X222153Y211813D01*
X222155Y211810D01*
X222151Y211808D01*
X221951Y210608D01*
X221956Y210600D01*
X221951Y210596D01*
X222051Y209496D01*
X222066Y209479D01*
X222063Y209467D01*
X222863Y208567D01*
X222889Y208562D01*
X222896Y208551D01*
X224096Y208451D01*
X224104Y208456D01*
G37*
%LPC*%
G36*
X282393Y140397D02*
X282393Y140397D01*
X282393Y145018D01*
X282756Y145199D01*
X284140Y145199D01*
X284705Y145105D01*
X284892Y144451D01*
X284709Y143993D01*
X283938Y143897D01*
X283931Y143890D01*
X283926Y143894D01*
X283426Y143694D01*
X283409Y143666D01*
X283397Y143662D01*
X283197Y142962D01*
X283204Y142944D01*
X283197Y142934D01*
X283397Y142234D01*
X283424Y142214D01*
X283428Y142201D01*
X284028Y142001D01*
X284039Y142005D01*
X284044Y141999D01*
X284724Y141999D01*
X285109Y141613D01*
X285137Y141609D01*
X285110Y141584D01*
X285107Y141565D01*
X285097Y141558D01*
X285104Y141549D01*
X285104Y141545D01*
X285096Y141536D01*
X285193Y141150D01*
X285005Y140587D01*
X284436Y140397D01*
X282393Y140397D01*
G37*
%LPD*%
%LPC*%
G36*
X201466Y181933D02*
X201466Y181933D01*
X201429Y181950D01*
X201422Y181959D01*
X198971Y181959D01*
X198971Y184382D01*
X199436Y184661D01*
X201112Y184661D01*
X201792Y184369D01*
X202273Y183792D01*
X202273Y182923D01*
X201884Y182243D01*
X201492Y181949D01*
X201488Y181933D01*
X201482Y181929D01*
X201485Y181924D01*
X201480Y181905D01*
X201466Y181933D01*
G37*
%LPD*%
%LPC*%
G36*
X605547Y144261D02*
X605547Y144261D01*
X605271Y144628D01*
X605271Y146000D01*
X605560Y146578D01*
X606137Y146963D01*
X606805Y146963D01*
X607279Y146583D01*
X607473Y145905D01*
X607473Y144261D01*
X605547Y144261D01*
G37*
%LPD*%
%LPC*%
G36*
X628007Y108807D02*
X628007Y108807D01*
X628007Y110730D01*
X628472Y111009D01*
X629746Y111009D01*
X630324Y110720D01*
X630709Y110143D01*
X630709Y109475D01*
X630329Y109000D01*
X629750Y108807D01*
X628007Y108807D01*
G37*
%LPD*%
%LPC*%
G36*
X605647Y120261D02*
X605647Y120261D01*
X605371Y120628D01*
X605371Y121904D01*
X605563Y122480D01*
X606137Y122863D01*
X606808Y122863D01*
X607288Y122575D01*
X607573Y122196D01*
X607573Y120261D01*
X605647Y120261D01*
G37*
%LPD*%
%LPC*%
G36*
X276083Y322167D02*
X276083Y322167D01*
X276083Y324093D01*
X276450Y324369D01*
X277822Y324369D01*
X278397Y324081D01*
X278685Y323506D01*
X278685Y322835D01*
X278305Y322360D01*
X277726Y322167D01*
X276083Y322167D01*
G37*
%LPD*%
%LPC*%
G36*
X580107Y108807D02*
X580107Y108807D01*
X580107Y110733D01*
X580474Y111009D01*
X581846Y111009D01*
X582421Y110721D01*
X582709Y110146D01*
X582709Y109475D01*
X582329Y109000D01*
X581750Y108807D01*
X580107Y108807D01*
G37*
%LPD*%
%LPC*%
G36*
X202644Y165619D02*
X202644Y165619D01*
X202469Y165971D01*
X203159Y167449D01*
X203158Y167453D01*
X203161Y167454D01*
X203222Y167637D01*
X203869Y166249D01*
X203872Y166248D01*
X203871Y166246D01*
X204229Y165619D01*
X202644Y165619D01*
G37*
%LPD*%
%LPC*%
G36*
X618088Y107807D02*
X618088Y107807D01*
X617913Y108158D01*
X618502Y109336D01*
X618501Y109341D01*
X618505Y109342D01*
X618565Y109524D01*
X619112Y108340D01*
X619290Y107807D01*
X618088Y107807D01*
G37*
%LPD*%
D10*
X398399Y68523D03*
D11*
X400558Y72460D02*
X400558Y86176D01*
X422910Y86176D02*
X422910Y71190D01*
X401955Y86176D02*
X400558Y86176D01*
X421513Y86176D02*
X422910Y86176D01*
X401955Y71190D02*
X400558Y72460D01*
X421513Y71190D02*
X422910Y71190D01*
D12*
X106680Y292862D03*
D11*
X112546Y264160D02*
X121134Y264160D01*
X121134Y289560D02*
X112546Y289560D01*
X123928Y279544D02*
X123928Y274176D01*
D13*
X36832Y147350D03*
D14*
X36432Y147350D03*
D15*
X36032Y147550D03*
X35632Y147550D03*
X35232Y147550D03*
X34832Y147550D03*
D14*
X34432Y147750D03*
D16*
X34032Y150350D03*
X33632Y150350D03*
X33232Y150350D03*
D17*
X32832Y148750D03*
D18*
X32432Y148350D03*
X32032Y148350D03*
X31632Y148350D03*
X31232Y148350D03*
X30832Y148350D03*
D13*
X30432Y148550D03*
D16*
X30032Y150350D03*
X29632Y150350D03*
X29232Y150350D03*
D19*
X28832Y147950D03*
D15*
X28432Y147550D03*
X28032Y147550D03*
X27632Y147550D03*
X27232Y147550D03*
X26832Y147550D03*
D19*
X26432Y147550D03*
D11*
X287320Y215900D02*
X312420Y215900D01*
X325120Y205900D02*
X325120Y175100D01*
X312120Y165100D02*
X287320Y165100D01*
X274320Y175100D02*
X274320Y205900D01*
X287020Y190500D02*
X287024Y190812D01*
X287035Y191123D01*
X287054Y191434D01*
X287081Y191745D01*
X287116Y192055D01*
X287157Y192363D01*
X287207Y192671D01*
X287264Y192978D01*
X287329Y193283D01*
X287401Y193586D01*
X287480Y193887D01*
X287567Y194187D01*
X287661Y194484D01*
X287762Y194779D01*
X287871Y195071D01*
X287987Y195360D01*
X288110Y195647D01*
X288239Y195930D01*
X288376Y196210D01*
X288520Y196487D01*
X288670Y196760D01*
X288827Y197029D01*
X288990Y197294D01*
X289160Y197556D01*
X289337Y197813D01*
X289519Y198065D01*
X289708Y198313D01*
X289903Y198557D01*
X290103Y198795D01*
X290310Y199029D01*
X290522Y199257D01*
X290740Y199480D01*
X290963Y199698D01*
X291191Y199910D01*
X291425Y200117D01*
X291663Y200317D01*
X291907Y200512D01*
X292155Y200701D01*
X292407Y200883D01*
X292664Y201060D01*
X292926Y201230D01*
X293191Y201393D01*
X293460Y201550D01*
X293733Y201700D01*
X294010Y201844D01*
X294290Y201981D01*
X294573Y202110D01*
X294860Y202233D01*
X295149Y202349D01*
X295441Y202458D01*
X295736Y202559D01*
X296033Y202653D01*
X296333Y202740D01*
X296634Y202819D01*
X296937Y202891D01*
X297242Y202956D01*
X297549Y203013D01*
X297857Y203063D01*
X298165Y203104D01*
X298475Y203139D01*
X298786Y203166D01*
X299097Y203185D01*
X299408Y203196D01*
X299720Y203200D01*
X300032Y203196D01*
X300343Y203185D01*
X300654Y203166D01*
X300965Y203139D01*
X301275Y203104D01*
X301583Y203063D01*
X301891Y203013D01*
X302198Y202956D01*
X302503Y202891D01*
X302806Y202819D01*
X303107Y202740D01*
X303407Y202653D01*
X303704Y202559D01*
X303999Y202458D01*
X304291Y202349D01*
X304580Y202233D01*
X304867Y202110D01*
X305150Y201981D01*
X305430Y201844D01*
X305707Y201700D01*
X305980Y201550D01*
X306249Y201393D01*
X306514Y201230D01*
X306776Y201060D01*
X307033Y200883D01*
X307285Y200701D01*
X307533Y200512D01*
X307777Y200317D01*
X308015Y200117D01*
X308249Y199910D01*
X308477Y199698D01*
X308700Y199480D01*
X308918Y199257D01*
X309130Y199029D01*
X309337Y198795D01*
X309537Y198557D01*
X309732Y198313D01*
X309921Y198065D01*
X310103Y197813D01*
X310280Y197556D01*
X310450Y197294D01*
X310613Y197029D01*
X310770Y196760D01*
X310920Y196487D01*
X311064Y196210D01*
X311201Y195930D01*
X311330Y195647D01*
X311453Y195360D01*
X311569Y195071D01*
X311678Y194779D01*
X311779Y194484D01*
X311873Y194187D01*
X311960Y193887D01*
X312039Y193586D01*
X312111Y193283D01*
X312176Y192978D01*
X312233Y192671D01*
X312283Y192363D01*
X312324Y192055D01*
X312359Y191745D01*
X312386Y191434D01*
X312405Y191123D01*
X312416Y190812D01*
X312420Y190500D01*
X312416Y190188D01*
X312405Y189877D01*
X312386Y189566D01*
X312359Y189255D01*
X312324Y188945D01*
X312283Y188637D01*
X312233Y188329D01*
X312176Y188022D01*
X312111Y187717D01*
X312039Y187414D01*
X311960Y187113D01*
X311873Y186813D01*
X311779Y186516D01*
X311678Y186221D01*
X311569Y185929D01*
X311453Y185640D01*
X311330Y185353D01*
X311201Y185070D01*
X311064Y184790D01*
X310920Y184513D01*
X310770Y184240D01*
X310613Y183971D01*
X310450Y183706D01*
X310280Y183444D01*
X310103Y183187D01*
X309921Y182935D01*
X309732Y182687D01*
X309537Y182443D01*
X309337Y182205D01*
X309130Y181971D01*
X308918Y181743D01*
X308700Y181520D01*
X308477Y181302D01*
X308249Y181090D01*
X308015Y180883D01*
X307777Y180683D01*
X307533Y180488D01*
X307285Y180299D01*
X307033Y180117D01*
X306776Y179940D01*
X306514Y179770D01*
X306249Y179607D01*
X305980Y179450D01*
X305707Y179300D01*
X305430Y179156D01*
X305150Y179019D01*
X304867Y178890D01*
X304580Y178767D01*
X304291Y178651D01*
X303999Y178542D01*
X303704Y178441D01*
X303407Y178347D01*
X303107Y178260D01*
X302806Y178181D01*
X302503Y178109D01*
X302198Y178044D01*
X301891Y177987D01*
X301583Y177937D01*
X301275Y177896D01*
X300965Y177861D01*
X300654Y177834D01*
X300343Y177815D01*
X300032Y177804D01*
X299720Y177800D01*
X299408Y177804D01*
X299097Y177815D01*
X298786Y177834D01*
X298475Y177861D01*
X298165Y177896D01*
X297857Y177937D01*
X297549Y177987D01*
X297242Y178044D01*
X296937Y178109D01*
X296634Y178181D01*
X296333Y178260D01*
X296033Y178347D01*
X295736Y178441D01*
X295441Y178542D01*
X295149Y178651D01*
X294860Y178767D01*
X294573Y178890D01*
X294290Y179019D01*
X294010Y179156D01*
X293733Y179300D01*
X293460Y179450D01*
X293191Y179607D01*
X292926Y179770D01*
X292664Y179940D01*
X292407Y180117D01*
X292155Y180299D01*
X291907Y180488D01*
X291663Y180683D01*
X291425Y180883D01*
X291191Y181090D01*
X290963Y181302D01*
X290740Y181520D01*
X290522Y181743D01*
X290310Y181971D01*
X290103Y182205D01*
X289903Y182443D01*
X289708Y182687D01*
X289519Y182935D01*
X289337Y183187D01*
X289160Y183444D01*
X288990Y183706D01*
X288827Y183971D01*
X288670Y184240D01*
X288520Y184513D01*
X288376Y184790D01*
X288239Y185070D01*
X288110Y185353D01*
X287987Y185640D01*
X287871Y185929D01*
X287762Y186221D01*
X287661Y186516D01*
X287567Y186813D01*
X287480Y187113D01*
X287401Y187414D01*
X287329Y187717D01*
X287264Y188022D01*
X287207Y188329D01*
X287157Y188637D01*
X287116Y188945D01*
X287081Y189255D01*
X287054Y189566D01*
X287035Y189877D01*
X287024Y190188D01*
X287020Y190500D01*
D20*
X450890Y50566D02*
X450892Y50645D01*
X450898Y50723D01*
X450908Y50802D01*
X450922Y50879D01*
X450940Y50956D01*
X450961Y51032D01*
X450987Y51106D01*
X451016Y51180D01*
X451049Y51251D01*
X451086Y51321D01*
X451126Y51389D01*
X451169Y51455D01*
X451216Y51518D01*
X451265Y51580D01*
X451318Y51638D01*
X451374Y51694D01*
X451432Y51747D01*
X451494Y51796D01*
X451557Y51843D01*
X451623Y51886D01*
X451691Y51926D01*
X451761Y51963D01*
X451832Y51996D01*
X451906Y52025D01*
X451980Y52051D01*
X452056Y52072D01*
X452133Y52090D01*
X452210Y52104D01*
X452289Y52114D01*
X452367Y52120D01*
X452446Y52122D01*
X452525Y52120D01*
X452603Y52114D01*
X452682Y52104D01*
X452759Y52090D01*
X452836Y52072D01*
X452912Y52051D01*
X452986Y52025D01*
X453060Y51996D01*
X453131Y51963D01*
X453201Y51926D01*
X453269Y51886D01*
X453335Y51843D01*
X453398Y51796D01*
X453460Y51747D01*
X453518Y51694D01*
X453574Y51638D01*
X453627Y51580D01*
X453676Y51518D01*
X453723Y51455D01*
X453766Y51389D01*
X453806Y51321D01*
X453843Y51251D01*
X453876Y51180D01*
X453905Y51106D01*
X453931Y51032D01*
X453952Y50956D01*
X453970Y50879D01*
X453984Y50802D01*
X453994Y50723D01*
X454000Y50645D01*
X454002Y50566D01*
X454000Y50487D01*
X453994Y50409D01*
X453984Y50330D01*
X453970Y50253D01*
X453952Y50176D01*
X453931Y50100D01*
X453905Y50026D01*
X453876Y49952D01*
X453843Y49881D01*
X453806Y49811D01*
X453766Y49743D01*
X453723Y49677D01*
X453676Y49614D01*
X453627Y49552D01*
X453574Y49494D01*
X453518Y49438D01*
X453460Y49385D01*
X453398Y49336D01*
X453335Y49289D01*
X453269Y49246D01*
X453201Y49206D01*
X453131Y49169D01*
X453060Y49136D01*
X452986Y49107D01*
X452912Y49081D01*
X452836Y49060D01*
X452759Y49042D01*
X452682Y49028D01*
X452603Y49018D01*
X452525Y49012D01*
X452446Y49010D01*
X452367Y49012D01*
X452289Y49018D01*
X452210Y49028D01*
X452133Y49042D01*
X452056Y49060D01*
X451980Y49081D01*
X451906Y49107D01*
X451832Y49136D01*
X451761Y49169D01*
X451691Y49206D01*
X451623Y49246D01*
X451557Y49289D01*
X451494Y49336D01*
X451432Y49385D01*
X451374Y49438D01*
X451318Y49494D01*
X451265Y49552D01*
X451216Y49614D01*
X451169Y49677D01*
X451126Y49743D01*
X451086Y49811D01*
X451049Y49881D01*
X451016Y49952D01*
X450987Y50026D01*
X450961Y50100D01*
X450940Y50176D01*
X450922Y50253D01*
X450908Y50330D01*
X450898Y50409D01*
X450892Y50487D01*
X450890Y50566D01*
D21*
X497446Y55766D02*
X497446Y58766D01*
X497446Y55766D02*
X494446Y55766D01*
X494446Y95766D02*
X497446Y95766D01*
X497446Y92766D01*
X457446Y92766D02*
X457446Y95766D01*
X460446Y95766D01*
X457446Y58766D02*
X457446Y55766D01*
X460446Y55766D01*
D11*
X607470Y10140D02*
X625470Y10140D01*
X625470Y96540D02*
X607470Y96540D01*
X310088Y247396D02*
X284988Y247396D01*
X272288Y257396D02*
X272288Y288196D01*
X285288Y298196D02*
X310088Y298196D01*
X323088Y288196D02*
X323088Y257396D01*
X284988Y272796D02*
X284992Y273108D01*
X285003Y273419D01*
X285022Y273730D01*
X285049Y274041D01*
X285084Y274351D01*
X285125Y274659D01*
X285175Y274967D01*
X285232Y275274D01*
X285297Y275579D01*
X285369Y275882D01*
X285448Y276183D01*
X285535Y276483D01*
X285629Y276780D01*
X285730Y277075D01*
X285839Y277367D01*
X285955Y277656D01*
X286078Y277943D01*
X286207Y278226D01*
X286344Y278506D01*
X286488Y278783D01*
X286638Y279056D01*
X286795Y279325D01*
X286958Y279590D01*
X287128Y279852D01*
X287305Y280109D01*
X287487Y280361D01*
X287676Y280609D01*
X287871Y280853D01*
X288071Y281091D01*
X288278Y281325D01*
X288490Y281553D01*
X288708Y281776D01*
X288931Y281994D01*
X289159Y282206D01*
X289393Y282413D01*
X289631Y282613D01*
X289875Y282808D01*
X290123Y282997D01*
X290375Y283179D01*
X290632Y283356D01*
X290894Y283526D01*
X291159Y283689D01*
X291428Y283846D01*
X291701Y283996D01*
X291978Y284140D01*
X292258Y284277D01*
X292541Y284406D01*
X292828Y284529D01*
X293117Y284645D01*
X293409Y284754D01*
X293704Y284855D01*
X294001Y284949D01*
X294301Y285036D01*
X294602Y285115D01*
X294905Y285187D01*
X295210Y285252D01*
X295517Y285309D01*
X295825Y285359D01*
X296133Y285400D01*
X296443Y285435D01*
X296754Y285462D01*
X297065Y285481D01*
X297376Y285492D01*
X297688Y285496D01*
X298000Y285492D01*
X298311Y285481D01*
X298622Y285462D01*
X298933Y285435D01*
X299243Y285400D01*
X299551Y285359D01*
X299859Y285309D01*
X300166Y285252D01*
X300471Y285187D01*
X300774Y285115D01*
X301075Y285036D01*
X301375Y284949D01*
X301672Y284855D01*
X301967Y284754D01*
X302259Y284645D01*
X302548Y284529D01*
X302835Y284406D01*
X303118Y284277D01*
X303398Y284140D01*
X303675Y283996D01*
X303948Y283846D01*
X304217Y283689D01*
X304482Y283526D01*
X304744Y283356D01*
X305001Y283179D01*
X305253Y282997D01*
X305501Y282808D01*
X305745Y282613D01*
X305983Y282413D01*
X306217Y282206D01*
X306445Y281994D01*
X306668Y281776D01*
X306886Y281553D01*
X307098Y281325D01*
X307305Y281091D01*
X307505Y280853D01*
X307700Y280609D01*
X307889Y280361D01*
X308071Y280109D01*
X308248Y279852D01*
X308418Y279590D01*
X308581Y279325D01*
X308738Y279056D01*
X308888Y278783D01*
X309032Y278506D01*
X309169Y278226D01*
X309298Y277943D01*
X309421Y277656D01*
X309537Y277367D01*
X309646Y277075D01*
X309747Y276780D01*
X309841Y276483D01*
X309928Y276183D01*
X310007Y275882D01*
X310079Y275579D01*
X310144Y275274D01*
X310201Y274967D01*
X310251Y274659D01*
X310292Y274351D01*
X310327Y274041D01*
X310354Y273730D01*
X310373Y273419D01*
X310384Y273108D01*
X310388Y272796D01*
X310384Y272484D01*
X310373Y272173D01*
X310354Y271862D01*
X310327Y271551D01*
X310292Y271241D01*
X310251Y270933D01*
X310201Y270625D01*
X310144Y270318D01*
X310079Y270013D01*
X310007Y269710D01*
X309928Y269409D01*
X309841Y269109D01*
X309747Y268812D01*
X309646Y268517D01*
X309537Y268225D01*
X309421Y267936D01*
X309298Y267649D01*
X309169Y267366D01*
X309032Y267086D01*
X308888Y266809D01*
X308738Y266536D01*
X308581Y266267D01*
X308418Y266002D01*
X308248Y265740D01*
X308071Y265483D01*
X307889Y265231D01*
X307700Y264983D01*
X307505Y264739D01*
X307305Y264501D01*
X307098Y264267D01*
X306886Y264039D01*
X306668Y263816D01*
X306445Y263598D01*
X306217Y263386D01*
X305983Y263179D01*
X305745Y262979D01*
X305501Y262784D01*
X305253Y262595D01*
X305001Y262413D01*
X304744Y262236D01*
X304482Y262066D01*
X304217Y261903D01*
X303948Y261746D01*
X303675Y261596D01*
X303398Y261452D01*
X303118Y261315D01*
X302835Y261186D01*
X302548Y261063D01*
X302259Y260947D01*
X301967Y260838D01*
X301672Y260737D01*
X301375Y260643D01*
X301075Y260556D01*
X300774Y260477D01*
X300471Y260405D01*
X300166Y260340D01*
X299859Y260283D01*
X299551Y260233D01*
X299243Y260192D01*
X298933Y260157D01*
X298622Y260130D01*
X298311Y260111D01*
X298000Y260100D01*
X297688Y260096D01*
X297376Y260100D01*
X297065Y260111D01*
X296754Y260130D01*
X296443Y260157D01*
X296133Y260192D01*
X295825Y260233D01*
X295517Y260283D01*
X295210Y260340D01*
X294905Y260405D01*
X294602Y260477D01*
X294301Y260556D01*
X294001Y260643D01*
X293704Y260737D01*
X293409Y260838D01*
X293117Y260947D01*
X292828Y261063D01*
X292541Y261186D01*
X292258Y261315D01*
X291978Y261452D01*
X291701Y261596D01*
X291428Y261746D01*
X291159Y261903D01*
X290894Y262066D01*
X290632Y262236D01*
X290375Y262413D01*
X290123Y262595D01*
X289875Y262784D01*
X289631Y262979D01*
X289393Y263179D01*
X289159Y263386D01*
X288931Y263598D01*
X288708Y263816D01*
X288490Y264039D01*
X288278Y264267D01*
X288071Y264501D01*
X287871Y264739D01*
X287676Y264983D01*
X287487Y265231D01*
X287305Y265483D01*
X287128Y265740D01*
X286958Y266002D01*
X286795Y266267D01*
X286638Y266536D01*
X286488Y266809D01*
X286344Y267086D01*
X286207Y267366D01*
X286078Y267649D01*
X285955Y267936D01*
X285839Y268225D01*
X285730Y268517D01*
X285629Y268812D01*
X285535Y269109D01*
X285448Y269409D01*
X285369Y269710D01*
X285297Y270013D01*
X285232Y270318D01*
X285175Y270625D01*
X285125Y270933D01*
X285084Y271241D01*
X285049Y271551D01*
X285022Y271862D01*
X285003Y272173D01*
X284992Y272484D01*
X284988Y272796D01*
X628206Y120015D02*
X637731Y120015D01*
X105823Y156972D02*
X105823Y203708D01*
X70707Y153162D02*
X70594Y153146D01*
X70480Y153135D01*
X70366Y153128D01*
X70252Y153124D01*
X70137Y153125D01*
X70023Y153129D01*
X69909Y153137D01*
X69795Y153149D01*
X69682Y153165D01*
X69570Y153185D01*
X69458Y153209D01*
X69347Y153236D01*
X69237Y153268D01*
X69128Y153303D01*
X69020Y153341D01*
X68914Y153384D01*
X68810Y153430D01*
X68706Y153479D01*
X68605Y153532D01*
X68506Y153588D01*
X68408Y153648D01*
X68313Y153711D01*
X68220Y153778D01*
X68129Y153847D01*
X68041Y153919D01*
X67955Y153995D01*
X67871Y154073D01*
X67791Y154154D01*
X67713Y154238D01*
X67638Y154325D01*
X67567Y154414D01*
X67498Y154505D01*
X67432Y154599D01*
X67370Y154694D01*
X67311Y154792D01*
X67255Y154892D01*
X67203Y154994D01*
X67154Y155097D01*
X67109Y155202D01*
X67068Y155309D01*
X67030Y155417D01*
X66995Y155526D01*
X66965Y155636D01*
X66938Y155747D01*
X66916Y155859D01*
X66897Y155972D01*
X105823Y203708D02*
X105806Y203838D01*
X105785Y203967D01*
X105760Y204096D01*
X105732Y204224D01*
X105699Y204351D01*
X105663Y204477D01*
X105622Y204602D01*
X105578Y204725D01*
X105531Y204847D01*
X105479Y204968D01*
X105425Y205087D01*
X105366Y205204D01*
X105304Y205319D01*
X105239Y205433D01*
X105170Y205545D01*
X105097Y205654D01*
X105022Y205761D01*
X104943Y205866D01*
X104861Y205968D01*
X104776Y206068D01*
X104689Y206165D01*
X104598Y206260D01*
X104504Y206352D01*
X104408Y206441D01*
X104309Y206527D01*
X104208Y206609D01*
X104104Y206689D01*
X103997Y206766D01*
X103889Y206839D01*
X103778Y206909D01*
X103665Y206976D01*
X103550Y207039D01*
X103434Y207099D01*
X103315Y207155D01*
X103195Y207208D01*
X103074Y207257D01*
X102951Y207302D01*
X102826Y207344D01*
X102701Y207382D01*
X102574Y207415D01*
X102447Y207446D01*
X102318Y207472D01*
X102189Y207494D01*
X102059Y207513D01*
X101929Y207527D01*
X101798Y207538D01*
X101667Y207544D01*
X101536Y207547D01*
X101405Y207546D01*
X101274Y207540D01*
X101144Y207531D01*
X101013Y207518D01*
X105823Y156972D02*
X105821Y156850D01*
X105815Y156728D01*
X105805Y156606D01*
X105792Y156485D01*
X105774Y156364D01*
X105753Y156244D01*
X105728Y156124D01*
X105699Y156005D01*
X105666Y155888D01*
X105629Y155771D01*
X105589Y155656D01*
X105545Y155542D01*
X105497Y155430D01*
X105446Y155319D01*
X105391Y155210D01*
X105333Y155102D01*
X105271Y154997D01*
X105206Y154893D01*
X105138Y154792D01*
X105067Y154693D01*
X104992Y154596D01*
X104914Y154502D01*
X104834Y154410D01*
X104750Y154321D01*
X104664Y154235D01*
X104575Y154151D01*
X104483Y154071D01*
X104389Y153993D01*
X104292Y153918D01*
X104193Y153847D01*
X104092Y153779D01*
X103988Y153714D01*
X103883Y153652D01*
X103775Y153594D01*
X103666Y153539D01*
X103555Y153488D01*
X103443Y153440D01*
X103329Y153396D01*
X103214Y153356D01*
X103097Y153319D01*
X102980Y153286D01*
X102861Y153257D01*
X102741Y153232D01*
X102621Y153211D01*
X102500Y153193D01*
X102379Y153180D01*
X102257Y153170D01*
X102135Y153164D01*
X102013Y153162D01*
X66897Y203707D02*
X66882Y203821D01*
X66870Y203935D01*
X66863Y204049D01*
X66859Y204163D01*
X66860Y204277D01*
X66864Y204392D01*
X66872Y204506D01*
X66884Y204619D01*
X66900Y204732D01*
X66920Y204845D01*
X66944Y204957D01*
X66971Y205068D01*
X67002Y205178D01*
X67037Y205287D01*
X67076Y205394D01*
X67118Y205501D01*
X67164Y205605D01*
X67214Y205708D01*
X67267Y205810D01*
X67323Y205909D01*
X67383Y206007D01*
X67446Y206102D01*
X67512Y206195D01*
X67582Y206286D01*
X67654Y206374D01*
X67730Y206460D01*
X67808Y206543D01*
X67889Y206624D01*
X67973Y206702D01*
X68059Y206776D01*
X68148Y206848D01*
X68240Y206917D01*
X68333Y206983D01*
X68429Y207045D01*
X68527Y207104D01*
X68627Y207160D01*
X68729Y207212D01*
X68832Y207260D01*
X68937Y207306D01*
X69044Y207347D01*
X69152Y207385D01*
X69261Y207419D01*
X69371Y207449D01*
X69482Y207476D01*
X69594Y207499D01*
X69707Y207518D01*
X66897Y203708D02*
X66897Y155972D01*
X70707Y153162D02*
X102013Y153162D01*
X92456Y207010D02*
X92454Y206852D01*
X92448Y206693D01*
X92438Y206535D01*
X92424Y206378D01*
X92407Y206220D01*
X92385Y206064D01*
X92360Y205907D01*
X92330Y205752D01*
X92297Y205597D01*
X92260Y205443D01*
X92219Y205290D01*
X92174Y205138D01*
X92125Y204988D01*
X92073Y204838D01*
X92017Y204690D01*
X91957Y204543D01*
X91894Y204398D01*
X91827Y204255D01*
X91757Y204113D01*
X91683Y203973D01*
X91605Y203835D01*
X91524Y203699D01*
X91440Y203565D01*
X91353Y203433D01*
X91262Y203303D01*
X91168Y203176D01*
X91071Y203051D01*
X90970Y202928D01*
X90867Y202808D01*
X90761Y202691D01*
X90652Y202576D01*
X90540Y202464D01*
X90425Y202355D01*
X90308Y202249D01*
X90188Y202146D01*
X90065Y202045D01*
X89940Y201948D01*
X89813Y201854D01*
X89683Y201763D01*
X89551Y201676D01*
X89417Y201592D01*
X89281Y201511D01*
X89143Y201433D01*
X89003Y201359D01*
X88861Y201289D01*
X88718Y201222D01*
X88573Y201159D01*
X88426Y201099D01*
X88278Y201043D01*
X88128Y200991D01*
X87978Y200942D01*
X87826Y200897D01*
X87673Y200856D01*
X87519Y200819D01*
X87364Y200786D01*
X87209Y200756D01*
X87052Y200731D01*
X86896Y200709D01*
X86738Y200692D01*
X86581Y200678D01*
X86423Y200668D01*
X86264Y200662D01*
X86106Y200660D01*
X85948Y200662D01*
X85789Y200668D01*
X85631Y200678D01*
X85474Y200692D01*
X85316Y200709D01*
X85160Y200731D01*
X85003Y200756D01*
X84848Y200786D01*
X84693Y200819D01*
X84539Y200856D01*
X84386Y200897D01*
X84234Y200942D01*
X84084Y200991D01*
X83934Y201043D01*
X83786Y201099D01*
X83639Y201159D01*
X83494Y201222D01*
X83351Y201289D01*
X83209Y201359D01*
X83069Y201433D01*
X82931Y201511D01*
X82795Y201592D01*
X82661Y201676D01*
X82529Y201763D01*
X82399Y201854D01*
X82272Y201948D01*
X82147Y202045D01*
X82024Y202146D01*
X81904Y202249D01*
X81787Y202355D01*
X81672Y202464D01*
X81560Y202576D01*
X81451Y202691D01*
X81345Y202808D01*
X81242Y202928D01*
X81141Y203051D01*
X81044Y203176D01*
X80950Y203303D01*
X80859Y203433D01*
X80772Y203565D01*
X80688Y203699D01*
X80607Y203835D01*
X80529Y203973D01*
X80455Y204113D01*
X80385Y204255D01*
X80318Y204398D01*
X80255Y204543D01*
X80195Y204690D01*
X80139Y204838D01*
X80087Y204988D01*
X80038Y205138D01*
X79993Y205290D01*
X79952Y205443D01*
X79915Y205597D01*
X79882Y205752D01*
X79852Y205907D01*
X79827Y206064D01*
X79805Y206220D01*
X79788Y206378D01*
X79774Y206535D01*
X79764Y206693D01*
X79758Y206852D01*
X79756Y207010D01*
X92456Y207518D02*
X100886Y207518D01*
X79756Y207518D02*
X69707Y207518D01*
X384934Y312420D02*
X384934Y340190D01*
X395204Y340190D01*
X384934Y185420D02*
X384934Y157650D01*
X395204Y157650D01*
X572314Y340190D02*
X642474Y340190D01*
X642474Y157650D02*
X572314Y157650D01*
X642474Y157650D02*
X642474Y340190D01*
M02*
